<svg width="84" height="132" viewBox="0 0 84 132" fill="none" xmlns="http://www.w3.org/2000/svg">
<path opacity="0.5" d="M0.501015 108.688V107.688H-0.498985V108.688H0.501015ZM30.581 108.688V109.688H31.581V108.688H30.581ZM30.581 28.976H31.581V27.0356L30.0007 28.1616L30.581 28.976ZM0.501015 50.408H-0.498985V52.3484L1.08129 51.2224L0.501015 50.408ZM0.501015 22.96L-0.0779381 22.1446L-0.498985 22.4436V22.96H0.501015ZM32.273 0.39999V-0.60001H31.9541L31.6941 -0.415371L32.273 0.39999ZM58.781 0.39999H59.781V-0.60001H58.781V0.39999ZM58.781 108.688H57.781V109.688H58.781V108.688ZM83.221 108.688H84.221V107.688H83.221V108.688ZM83.221 132V133H84.221V132H83.221ZM0.501015 132H-0.498985V133H0.501015V132ZM0.501015 109.688H30.581V107.688H0.501015V109.688ZM31.581 108.688V28.976H29.581V108.688H31.581ZM30.0007 28.1616L-0.079258 49.5936L1.08129 51.2224L31.1613 29.7904L30.0007 28.1616ZM1.50101 50.408V22.96H-0.498985V50.408H1.50101ZM1.07997 23.7754L32.852 1.21535L31.6941 -0.415371L-0.0779381 22.1446L1.07997 23.7754ZM32.273 1.39999H58.781V-0.60001H32.273V1.39999ZM57.781 0.39999V108.688H59.781V0.39999H57.781ZM58.781 109.688H83.221V107.688H58.781V109.688ZM82.221 108.688V132H84.221V108.688H82.221ZM83.221 131H0.501015V133H83.221V131ZM1.50101 132V108.688H-0.498985V132H1.50101Z" fill="#9CC9EF"/>
</svg>
