<svg width="101" height="134" viewBox="0 0 101 134" fill="none" xmlns="http://www.w3.org/2000/svg">
<path opacity="0.5" d="M0.776718 113.508L0.124147 112.75L-0.223282 113.049V113.508H0.776718ZM46.8367 73.84L47.4893 74.5978L47.4983 74.5898L46.8367 73.84ZM57.7407 64.064L58.4164 64.8012L58.4246 64.7937L58.4326 64.786L57.7407 64.064ZM65.0727 56.168L64.2878 55.5483H64.2878L65.0727 56.168ZM69.0207 49.212L68.0887 48.8495L68.0798 48.8725L68.072 48.8958L69.0207 49.212ZM65.8247 28.908L65.0773 29.5724L65.0835 29.5794L65.0899 29.5863L65.8247 28.908ZM36.4967 29.472L37.1917 30.191L37.1921 30.1906L36.4967 29.472ZM30.8567 48.46V49.46H31.8567V48.46H30.8567ZM2.65672 48.46H1.65672V49.46H2.65672V48.46ZM15.2527 13.116L14.5405 12.4141L14.5353 12.4194L15.2527 13.116ZM72.4047 3.33999L72.0513 4.27546L72.0637 4.28014L72.0762 4.28448L72.4047 3.33999ZM86.8807 11.988L86.1853 12.7066L86.1914 12.7125L86.1976 12.7183L86.8807 11.988ZM95.5287 25.148L94.5896 25.4916L94.5933 25.5016L94.5971 25.5115L95.5287 25.148ZM96.0927 54.852L97.0192 55.2284L97.0231 55.2185L96.0927 54.852ZM89.3247 66.508L88.5311 65.8996L88.5246 65.908L88.5183 65.9166L89.3247 66.508ZM79.5487 77.6L80.231 78.3311L80.2374 78.3251L80.2437 78.319L79.5487 77.6ZM67.5167 88.128L66.881 87.356L66.8765 87.3598L67.5167 88.128ZM40.4447 110.688L39.8045 109.92L37.6827 111.688H40.4447V110.688ZM100.417 110.688H101.417V109.688H100.417V110.688ZM100.417 134V135H101.417V134H100.417ZM0.776718 134H-0.223282V135H0.776718V134ZM1.42929 114.266L47.4893 74.5977L46.1842 73.0823L0.124147 112.75L1.42929 114.266ZM47.4983 74.5898C51.7627 70.8271 55.4024 67.564 58.4164 64.8012L57.065 63.3268C54.0631 66.0786 50.4334 69.3329 46.1751 73.0902L47.4983 74.5898ZM58.4326 64.786C61.4626 61.8823 63.9407 59.2157 65.8576 56.7876L64.2878 55.5483C62.4447 57.8829 60.0348 60.4804 57.0488 63.342L58.4326 64.786ZM65.8576 56.7876C67.7905 54.3393 69.1723 51.9197 69.9694 49.5282L68.072 48.8958C67.3652 51.0163 66.115 53.234 64.2878 55.5483L65.8576 56.7876ZM69.9527 49.5744C70.8788 47.1932 71.3367 44.6251 71.3367 41.88H69.3367C69.3367 44.3989 68.9173 46.7188 68.0887 48.8495L69.9527 49.5744ZM71.3367 41.88C71.3367 36.2963 69.7731 31.7111 66.5595 28.2297L65.0899 29.5863C67.8923 32.6222 69.3367 36.6851 69.3367 41.88H71.3367ZM66.5721 28.2436C63.3211 24.5863 58.5617 22.832 52.4767 22.832V24.832C58.1731 24.832 62.3123 26.4617 65.0773 29.5724L66.5721 28.2436ZM52.4767 22.832C45.5178 22.832 39.9172 24.7702 35.8013 28.7534L37.1921 30.1906C40.8469 26.6538 45.8996 24.832 52.4767 24.832V22.832ZM35.8017 28.753C31.7454 32.674 29.8567 39.349 29.8567 48.46H31.8567C31.8567 39.523 33.728 33.5393 37.1917 30.191L35.8017 28.753ZM30.8567 47.46H2.65672V49.46H30.8567V47.46ZM3.65672 48.46C3.65672 33.7403 7.79483 22.232 15.9701 13.8126L14.5353 12.4194C5.91595 21.296 1.65672 33.3503 1.65672 48.46H3.65672ZM15.965 13.8179C24.2423 5.41883 36.3566 1.144 52.4767 1.144V-0.856003C36.0102 -0.856003 23.3084 3.51716 14.5405 12.4141L15.965 13.8179ZM52.4767 1.144C60.0323 1.144 66.55 2.19719 72.0513 4.27546L72.7581 2.40452C66.9794 0.221466 60.2118 -0.856003 52.4767 -0.856003V1.144ZM72.0762 4.28448C77.722 6.24826 82.4171 9.05997 86.1853 12.7066L87.5761 11.2694C83.5737 7.39602 78.6181 4.4424 72.7332 2.39549L72.0762 4.28448ZM86.1976 12.7183C89.9651 16.2428 92.7619 20.4958 94.5896 25.4916L96.4678 24.8044C94.5356 19.5229 91.567 15.0026 87.5639 11.2577L86.1976 12.7183ZM94.5971 25.5115C96.5533 30.5242 97.5367 35.9771 97.5367 41.88H99.5367C99.5367 35.7509 98.5148 30.0491 96.4603 24.7844L94.5971 25.5115ZM97.5367 41.88C97.5367 46.2685 96.745 50.468 95.1623 54.4855L97.0231 55.2185C98.6991 50.964 99.5367 46.5155 99.5367 41.88H97.5367ZM95.1663 54.4756C93.5736 58.3959 91.3644 62.204 88.5311 65.8996L90.1183 67.1164C93.0504 63.292 95.3531 59.3294 97.0192 55.2284L95.1663 54.4756ZM88.5183 65.9166C85.7982 69.6259 82.5779 73.281 78.8537 76.881L80.2437 78.319C84.0396 74.6497 87.3366 70.9101 90.1311 67.0994L88.5183 65.9166ZM78.8664 76.8689C75.1226 80.3632 71.1275 83.8589 66.881 87.3561L68.1524 88.8999C72.4286 85.3784 76.4549 81.8555 80.231 78.3311L78.8664 76.8689ZM66.8765 87.3598L39.8045 109.92L41.0849 111.456L68.1569 88.8962L66.8765 87.3598ZM40.4447 111.688H100.417V109.688H40.4447V111.688ZM99.4167 110.688V134H101.417V110.688H99.4167ZM100.417 133H0.776718V135H100.417V133ZM1.77672 134V113.508H-0.223282V134H1.77672Z" fill="#9CC9EF"/>
</svg>
