<svg width="98" height="137" viewBox="0 0 98 137" fill="none" xmlns="http://www.w3.org/2000/svg">
<path opacity="0.5" d="M12.5739 124.976L11.8952 125.71L11.9013 125.716L12.5739 124.976ZM0.165937 93.58V92.58H-0.834063V93.58H0.165937ZM28.3659 93.58H29.3659V92.58H28.3659V93.58ZM33.2539 107.868L32.5608 108.589L32.5676 108.595L32.5745 108.602L33.2539 107.868ZM64.4619 108.056L65.1263 108.803L65.128 108.802L64.4619 108.056ZM36.8259 77.224H35.8259V78.224H36.8259V77.224ZM36.8259 55.416V54.416H35.8259V55.416H36.8259ZM63.1459 28.344L62.4534 29.0654L63.1459 28.344ZM34.7579 28.344L35.4498 29.066L35.4505 29.0654L34.7579 28.344ZM30.2459 40.94V41.94H31.2459V40.94H30.2459ZM2.04594 40.94H1.04594V41.94H2.04594V40.94ZM13.7019 10.86L13.031 10.1184L13.0251 10.1238L13.7019 10.86ZM69.7259 2.964L69.4219 3.91665L69.4312 3.91961L69.4405 3.92238L69.7259 2.964ZM84.3899 10.484L83.7473 11.2502L83.7547 11.2564L83.7622 11.2624L84.3899 10.484ZM93.0379 21.764L92.1188 22.1579L92.1235 22.1689L92.1285 22.1798L93.0379 21.764ZM89.8419 54.664L89.0629 54.037L89.0611 54.0393L89.8419 54.664ZM73.6739 65.38L73.3737 64.4261L70.1336 65.4462L73.4095 66.3444L73.6739 65.38ZM91.5339 76.472L90.7476 77.0898L90.7521 77.0955L90.7567 77.1012L91.5339 76.472ZM94.5419 112.944L93.6382 112.516L94.5419 112.944ZM84.7659 125.352L85.3992 126.126L85.4016 126.124L84.7659 125.352ZM69.3499 133.436L69.6482 134.391L69.6603 134.387L69.3499 133.436ZM49.0459 135.256C33.1447 135.256 21.2682 131.528 13.2466 124.236L11.9013 125.716C20.4237 133.464 32.8618 137.256 49.0459 137.256V135.256ZM13.2527 124.242C5.22237 116.82 1.16594 106.641 1.16594 93.58H-0.834063C-0.834063 107.09 3.38151 117.842 11.8952 125.71L13.2527 124.242ZM0.165937 94.58H28.3659V92.58H0.165937V94.58ZM27.3659 93.58C27.3659 100.129 29.0365 105.2 32.5608 108.589L33.947 107.147C30.954 104.269 29.3659 99.8145 29.3659 93.58H27.3659ZM32.5745 108.602C36.2223 111.979 41.7834 113.568 49.0459 113.568V111.568C42.0205 111.568 37.0536 110.023 33.9333 107.134L32.5745 108.602ZM49.0459 113.568C56.0606 113.568 61.4842 112.041 65.1263 108.803L63.7976 107.309C60.6717 110.087 55.8179 111.568 49.0459 111.568V113.568ZM65.128 108.802C68.8919 105.441 70.7259 100.759 70.7259 94.896H68.7259C68.7259 100.313 67.0507 104.404 63.7959 107.31L65.128 108.802ZM70.7259 94.896C70.7259 88.8065 68.9371 84.0705 65.2056 80.8818C61.5042 77.7188 56.0583 76.224 49.0459 76.224V78.224C55.8202 78.224 60.7143 79.6746 63.9063 82.4022C67.0681 85.1042 68.7259 89.2041 68.7259 94.896H70.7259ZM49.0459 76.224H36.8259V78.224H49.0459V76.224ZM37.8259 77.224V55.416H35.8259V77.224H37.8259ZM36.8259 56.416H49.0459V54.416H36.8259V56.416ZM49.0459 56.416C55.1841 56.416 60.0696 55.1394 63.5676 52.4486L62.3482 50.8634C59.3289 53.1859 54.9398 54.416 49.0459 54.416V56.416ZM63.5676 52.4486C67.1392 49.7013 68.8459 45.4791 68.8459 40H66.8459C66.8459 45.0489 65.294 48.5974 62.3482 50.8634L63.5676 52.4486ZM68.8459 40C68.8459 34.9941 67.1883 30.8384 63.8385 27.6226L62.4534 29.0654C65.3703 31.8656 66.8459 35.4805 66.8459 40H68.8459ZM63.8385 27.6226C60.4503 24.37 55.4568 22.832 49.0459 22.832V24.832C55.1684 24.832 59.5749 26.302 62.4534 29.0654L63.8385 27.6226ZM49.0459 22.832C42.5163 22.832 37.4568 24.3669 34.0654 27.6226L35.4505 29.0654C38.3258 26.3051 42.7916 24.832 49.0459 24.832V22.832ZM34.066 27.622C30.8034 30.7486 29.2459 35.2447 29.2459 40.94H31.2459C31.2459 35.6059 32.6964 31.7047 35.4498 29.066L34.066 27.622ZM30.2459 39.94H2.04594V41.94H30.2459V39.94ZM3.04594 40.94C3.04594 28.2432 6.85885 18.5096 14.3787 11.5962L13.0251 10.1238C5.00369 17.4984 1.04594 27.8181 1.04594 40.94H3.04594ZM14.3729 11.6015C22.0147 4.68744 33.5126 1.144 49.0459 1.144V-0.856003C33.246 -0.856003 21.1811 2.74456 13.031 10.1185L14.3729 11.6015ZM49.0459 1.144C56.8659 1.144 63.6524 2.07533 69.4219 3.91665L70.03 2.01134C64.0182 0.0926704 57.018 -0.856003 49.0459 -0.856003V1.144ZM69.4405 3.92238C75.2274 5.64613 79.9864 8.09584 83.7473 11.2502L85.0326 9.71781C81.0228 6.35482 76.0059 3.79119 70.0114 2.00561L69.4405 3.92238ZM83.7622 11.2624C87.5265 14.2981 90.3061 17.9282 92.1188 22.1579L93.9571 21.3701C92.0098 16.8264 89.0241 12.9365 85.0177 9.70559L83.7622 11.2624ZM92.1285 22.1798C94.0703 26.4275 95.0459 31.0472 95.0459 36.052H97.0459C97.0459 30.7794 96.0163 25.8738 93.9474 21.3482L92.1285 22.1798ZM95.0459 36.052C95.0459 43.118 93.0411 49.0944 89.0629 54.037L90.621 55.291C94.9148 49.9563 97.0459 43.5247 97.0459 36.052H95.0459ZM89.0611 54.0393C85.1873 58.8815 79.9731 62.3486 73.3737 64.4261L73.9742 66.3338C80.9108 64.1501 86.4753 60.4731 90.6228 55.2887L89.0611 54.0393ZM73.4095 66.3444C81.0167 68.4303 86.7692 72.0263 90.7476 77.0898L92.3203 75.8542C88.0267 70.3897 81.8725 66.5911 73.9384 64.4156L73.4095 66.3444ZM90.7567 77.1012C94.838 82.1427 96.9259 88.8565 96.9259 97.34H98.9259C98.9259 88.5275 96.7526 81.3293 92.3112 75.8428L90.7567 77.1012ZM96.9259 97.34C96.9259 102.843 95.8264 107.896 93.6382 112.516L95.4457 113.372C97.7694 108.466 98.9259 103.117 98.9259 97.34H96.9259ZM93.6382 112.516C91.4482 117.139 88.2836 121.16 84.1302 124.58L85.4016 126.124C89.771 122.526 93.1237 118.274 95.4457 113.372L93.6382 112.516ZM84.1327 124.578C80.1102 127.869 75.0872 130.511 69.0395 132.485L69.6603 134.387C75.8954 132.351 81.1497 129.603 85.3992 126.126L84.1327 124.578ZM69.0517 132.482C63.1488 134.326 56.4837 135.256 49.0459 135.256V137.256C56.6482 137.256 63.5191 136.306 69.6482 134.39L69.0517 132.482Z" fill="#9CC9EF"/>
</svg>
