<svg width="257" height="79" viewBox="0 0 257 79" fill="none" xmlns="http://www.w3.org/2000/svg">
<rect width="257" height="79" fill="white"/>
<path d="M152.064 30.2041H155.105V44.9649H152.064V30.2041ZM130.651 30.2041L136.67 44.9649H133.376L131.919 41.3539H126.914L125.52 44.9649H122.353L128.117 30.2041H130.651V30.2041ZM131.032 38.8832L130.145 36.4125C129.765 35.3355 129.638 34.702 129.448 34.1952H129.384C129.258 34.702 129.068 35.3355 128.624 36.4125L127.737 38.8832H131.032ZM121.149 35.0821C121.149 36.7926 120.389 38.6298 118.235 39.5167C117.411 39.8334 116.398 40.0235 115.067 40.0235H114.56V44.9649H111.52V30.2041H115.384C116.714 30.2041 117.855 30.3942 118.742 30.8376C120.262 31.5978 121.149 33.0549 121.149 35.0821ZM117.981 35.0821C117.981 34.2586 117.665 33.4983 116.904 33.0549C116.461 32.8015 115.954 32.7381 115.194 32.7381H114.56V37.5528H115.257C115.891 37.5528 116.461 37.4894 116.841 37.236C117.601 36.8559 117.981 36.0957 117.981 35.0821ZM147.376 40.7203L149.783 44.9649H146.236L144.272 41.4172C143.512 40.0235 143.005 39.4533 142.688 39.39H141.548V44.9649H138.507V30.2041H142.942C144.272 30.2041 145.222 30.3942 146.046 30.7743C147.756 31.5345 148.39 32.9282 148.39 34.512C148.39 36.4125 147.186 37.8062 145.539 38.313V38.3764C145.919 38.5664 146.553 39.39 147.376 40.7203ZM145.159 34.7654C145.159 34.0052 144.779 33.3083 144.145 32.9915C143.828 32.8015 143.385 32.6748 142.688 32.6748H141.548V36.8559H142.688C143.385 36.8559 143.765 36.7292 144.145 36.5392C144.779 36.2224 145.159 35.6523 145.159 34.7654ZM230.049 39.58C230.049 40.7203 230.049 41.4172 230.112 42.1774H230.049C229.542 41.4172 228.845 40.4669 227.895 39.1999L221.117 30.2041H219.533V44.9649H221.18V35.2722C221.18 34.1319 221.18 33.4983 221.117 32.7381H221.18C221.687 33.4983 222.384 34.3853 223.27 35.5889L230.366 44.9649H231.759V30.2041H230.112V39.58H230.049ZM238.411 37.4895L244.556 30.2041H242.592L237.018 36.9826H236.954V30.2041H235.307V44.9649H236.954V38.2497H237.018L242.909 44.9649H245L238.411 37.4895ZM211.804 30.2041L217.442 44.9649H215.668L214.211 40.9737H208.256L206.799 44.9649H205.025L210.6 30.2041H211.804V30.2041ZM212.121 35.3355C211.677 34.0685 211.424 33.3716 211.234 32.8015H211.17C210.98 33.3716 210.727 34.0685 210.284 35.3355L208.763 39.58H213.641L212.121 35.3355ZM180.889 32.8015H185.197V44.9649H188.237V32.8015H192.102L192.925 30.2041H180.889V32.8015V32.8015ZM203.758 40.7837C203.758 43.2544 201.985 44.9649 198.754 44.9649H194.889V30.2041H198.31C201.414 30.2041 202.808 31.9146 202.808 33.9418C202.808 35.4622 202.048 36.6025 200.844 37.1093V37.1727C202.491 37.5528 203.758 38.8832 203.758 40.7837ZM196.536 36.7292H198.12C200.084 36.7292 201.161 35.779 201.161 34.1319C201.161 32.6748 200.337 31.5978 198.184 31.5978H196.473V36.7292H196.536ZM202.048 40.7837C202.048 39.1366 200.844 38.0596 198.944 38.0596H196.536V43.5078H198.754C200.718 43.5711 202.048 42.8109 202.048 40.7837ZM178.608 32.8015L179.432 30.2041H170.879V44.9649H179.368V42.3675H173.92V38.7565H178.608V36.1591H173.92V32.7381H178.608V32.8015ZM157.132 32.8015H161.44V44.9649H164.481V32.8015H168.345L169.169 30.2041H157.132V32.8015V32.8015Z" fill="black"/>
<path d="M90.614 19.8146L81.8082 28.6203L77.1836 33.245L81.4915 37.5528L90.2972 28.6837L99.103 37.5528L94.9218 41.734L99.4198 46.2952L108.289 37.4895L90.614 19.8146Z" fill="#2C4395"/>
<path d="M90.6138 37.4895L81.8081 46.2953L72.9389 37.4895L77.1834 33.245L72.6222 28.6837L63.8164 37.5528L81.4913 55.1644L90.2971 46.3586L94.9217 41.734L90.6138 37.4895Z" fill="#2C4395"/>
<path d="M81.4918 37.5528L77.184 33.245L72.9395 37.4895L81.8086 46.2953L90.6143 37.4895L94.9222 41.734L99.1034 37.5528L90.2976 28.6837L81.4918 37.5528Z" fill="#007BC4"/>
<path d="M63.2663 60.7225V54.979H61.4058V57.0675C61.4058 57.7528 61.3737 58.3402 61.2775 58.7971C61.1813 59.254 61.085 59.6456 60.8926 59.9066C60.7322 60.2003 60.5076 60.3961 60.2831 60.494C60.0265 60.6246 59.7378 60.6572 59.417 60.6572H59V59.7435H59.1604C59.3528 59.7435 59.5132 59.7108 59.6736 59.6456C59.834 59.5803 59.9623 59.4171 60.0586 59.2213C60.1548 59.0255 60.251 58.7318 60.3152 58.3402C60.3793 57.9813 60.4114 57.4918 60.4114 56.8717V54H64.2286V60.6246H63.2663V60.7225Z" fill="#007BC4"/>
<path d="M65.7227 60.7225V54H70.2043V54.8941H66.7914V56.8811H69.6872V57.7752H66.7914V59.7952H70.2043V60.7225H65.7227Z" fill="#007BC4"/>
<path d="M74.1332 54.8941V60.7225H72.9997V54.8941H70.9521V54H76.1807V54.8941H74.1332Z" fill="#007BC4"/>
<path fill-rule="evenodd" clip-rule="evenodd" d="M80.2803 20.8682C80.0159 20.5806 79.7426 20.3003 79.4604 20.0272C77.527 18.1552 75.2666 16.6835 72.6813 15.6097C70.0934 14.5372 67.3433 14 64.4317 14C61.4675 14 58.7061 14.5372 56.1448 15.6097C53.5841 16.6835 51.3479 18.1552 49.4404 20.0272C47.531 21.8986 46.0238 24.1076 44.9203 26.6524C43.8154 29.1979 43.263 31.9194 43.263 34.8127C43.263 36.4376 43.4436 38.0049 43.7907 39.519C43.2193 38.7239 42.5807 38.0017 41.8693 37.3587C40.4882 36.112 38.9431 35.1256 37.2371 34.4015C35.5285 33.6787 33.8206 33.2409 32.1139 33.0908L45.2225 16.5454V14.8236H15.3145V20.1387H35.8807L23.2245 36.3109V38.0328H27.7446C31.8123 38.0328 34.9508 38.9438 37.1617 40.7651C39.3707 42.5883 40.4762 45.0958 40.4762 48.2899C40.4762 49.9364 40.1867 51.4467 39.6096 52.8189C39.0318 54.1917 38.2159 55.3643 37.1617 56.338C36.1063 57.3105 34.864 58.0599 33.4329 58.5832C32.0011 59.1077 30.4566 59.37 28.7994 59.37C27.2422 59.37 25.8358 59.1565 24.5802 58.7339C23.3246 58.3089 22.1817 57.7343 21.1529 57.0114C20.1222 56.2873 19.1941 55.4511 18.3655 54.504C17.5369 53.5563 16.7957 52.5566 16.1438 51.5088L12 54.504C12.7532 55.8502 13.6693 57.1362 14.7494 58.3595C15.8289 59.5816 17.0719 60.6674 18.4783 61.6151C19.884 62.5629 21.4412 63.3123 23.1491 63.8622C24.8558 64.4102 26.7398 64.6851 28.7994 64.6851C31.1092 64.6851 33.3315 64.3114 35.4664 63.5625C37.6007 62.8137 39.4835 61.7285 41.1161 60.3057C42.748 58.8828 44.0543 57.1609 45.0337 55.1394C46.0137 53.1179 46.5034 50.8347 46.5034 48.2899C46.5034 47.3764 46.4401 46.5053 46.3153 45.6761C47.1914 47.1167 48.2202 48.4242 49.4023 49.5994C51.2858 51.4714 53.5088 52.9437 56.0694 54.0168C56.179 54.0627 56.289 54.1077 56.3994 54.1516L59.1269 49.4274C58.8576 49.3306 58.5919 49.2257 58.3298 49.1129C56.471 48.3153 54.8759 47.2168 53.5461 45.8186C52.2151 44.4224 51.1724 42.7873 50.4198 40.9146C49.6665 39.0432 49.2896 37.0103 49.2896 34.8127C49.2896 32.6182 49.6665 30.572 50.4198 28.674C51.1724 26.7779 52.2151 25.144 53.5461 23.7706C54.8759 22.3984 56.471 21.3126 58.3298 20.5137C60.1872 19.7155 62.2208 19.3158 64.4317 19.3158C66.5907 19.3158 68.6002 19.7155 70.4576 20.5137C72.3157 21.3126 73.9236 22.3984 75.2793 23.7706C75.6279 24.1233 75.9567 24.4941 76.2663 24.8821L80.2803 20.8682Z" fill="url(#paint0_linear)"/>
<defs>
<linearGradient id="paint0_linear" x1="16.9965" y1="43.1497" x2="85.2065" y2="43.1497" gradientUnits="userSpaceOnUse">
<stop stop-color="#2C4395"/>
<stop offset="1" stop-color="#007BC4"/>
</linearGradient>
</defs>
</svg>
