<svg width="89" height="26" viewBox="0 0 89 26" fill="none" xmlns="http://www.w3.org/2000/svg">
<g clip-path="url(#clip0)">
<path fill-rule="evenodd" clip-rule="evenodd" d="M84.169 25.9985L89 0H4.83001L0 26H84.169V25.9985Z" fill="#DA2C2C"/>
<path fill-rule="evenodd" clip-rule="evenodd" d="M13.5664 12.4045L13.501 11.6548H13.3645L13.2235 12.406L11.6418 20.8718H9.37643L12.4125 4.62505H14.6099L15.4276 13.0903L15.4935 13.842H15.6305L15.771 13.0908L17.3526 4.62403H19.6175L16.582 20.8698H14.3846L13.5664 12.4045ZM21.4475 4.62147H23.9179L20.8823 20.8677H18.4115L21.4475 4.62147ZM26.9023 12.3999L26.8364 11.6487H26.6994L26.5589 12.3999L24.9773 20.8652H22.7124L25.7484 4.6184H27.9459L28.7635 13.0842L28.8294 13.8349H28.9669L29.1069 13.0842L30.6911 4.61738H32.956L29.92 20.8636H27.7225L26.9023 12.3999ZM33.8866 7.95392C34.0317 7.1797 34.7492 4.43903 37.7705 4.4375C40.7917 4.43597 40.484 7.17715 40.3399 7.95085L38.6132 17.1929C38.3985 18.3422 37.7572 21.0379 34.669 21.0389C31.5808 21.0399 31.9477 18.3437 32.1624 17.1944L32.3525 16.178H34.8228C34.414 18.3662 34.3486 18.9621 35.0569 18.9611C35.6747 18.9611 35.9118 18.4301 36.1428 17.1934L36.7126 14.143C36.3157 14.382 35.8656 14.5188 35.4028 14.5411C32.864 14.5411 33.1287 12.0228 33.2984 11.1172L33.8866 7.95392ZM37.9994 7.2446C38.0168 7.15447 38.0137 7.06159 37.9905 6.97279C37.9672 6.884 37.9242 6.80157 37.8648 6.73158C37.8055 6.66159 37.7311 6.60583 37.6473 6.56841C37.5635 6.53098 37.4723 6.51286 37.3805 6.51536C37.1758 6.53331 36.9813 6.61255 36.8223 6.74273C36.6633 6.8729 36.5473 7.04799 36.4893 7.24512L35.6098 11.9533C35.5972 12.0427 35.6037 12.1337 35.6288 12.2205C35.654 12.3072 35.6971 12.3876 35.7555 12.4565C35.8139 12.5254 35.8862 12.5811 35.9677 12.6201C36.0491 12.659 36.1379 12.6803 36.2282 12.6825C36.4253 12.676 36.6156 12.6086 36.773 12.4897C36.9303 12.3707 37.0471 12.206 37.1071 12.0182L37.9994 7.2446ZM45.0517 6.97734H41.3456L41.7877 4.61228H48.0105L47.5644 6.99982L42.5052 20.8606H39.9429L45.0517 6.97734ZM49.2007 4.61023H54.8502L54.3903 7.06319H51.2106L50.4134 11.3293H52.7008L52.2133 13.9356H49.9269L49.0944 18.404H52.2736L51.8137 20.857H46.1632L49.2007 4.61023ZM60.7082 4.60665H63.11L57.5117 20.8534H55.0413L55.5151 4.60767H57.9169L57.4831 13.5375L57.4473 14.2223H57.5848L57.8035 13.537L60.7082 4.60665ZM64.2312 4.60665H69.8823L69.4223 7.05961H66.2422L65.445 11.3257H67.7328L67.2463 13.932H64.9585L64.1244 18.4005H67.3046L66.8447 20.8534H61.1942L64.2312 4.60665ZM72.4078 12.3841L72.3424 11.6328H72.2054L72.0649 12.3841L70.4807 20.8498H68.2153L71.2544 4.60256H73.4518L74.272 13.0683L74.3395 13.8206H74.477L74.617 13.0689L76.2012 4.60307H78.4656L75.4305 20.8498H73.2331L72.4078 12.3841Z" fill="white"/>
</g>
<defs>
<clipPath id="clip0">
<rect width="89" height="25.8072" fill="white"/>
</clipPath>
</defs>
</svg>
