<svg width="80" height="27" viewBox="0 0 80 27" fill="none" xmlns="http://www.w3.org/2000/svg">
<path fill-rule="evenodd" clip-rule="evenodd" d="M41.1503 8.67073C41.1051 12.232 44.3281 14.2194 46.7559 15.401C49.2504 16.6136 50.0883 17.391 50.0788 18.4751C50.0597 20.1345 48.0887 20.8666 46.2442 20.8951C43.0259 20.945 41.155 20.0274 39.6674 19.3333L38.5083 24.7511C40.0007 25.4383 42.7641 26.0375 45.6301 26.0636C52.3567 26.0636 56.7576 22.7471 56.7816 17.605C56.8078 11.0791 47.7437 10.7177 47.8056 7.80064C47.827 6.9163 48.672 5.97238 50.5238 5.7323C51.4402 5.61116 53.9704 5.51834 56.8387 6.83772L57.9645 1.59581C56.4221 1.03469 54.4393 0.497314 51.9711 0.497314C45.6396 0.497314 41.1861 3.85891 41.1503 8.67073ZM68.7829 0.948987C67.5547 0.948987 66.5193 1.66469 66.0575 2.76299L56.4483 25.6784H63.1702L64.5078 21.9863H72.7221L73.4982 25.6784H79.4226L74.2526 0.948987H68.7829ZM69.7231 7.62943L71.6629 16.9154H66.3502L69.7231 7.62943ZM33.0004 0.948987L27.7019 25.6784H34.1071L39.4032 0.948987H33.0004ZM23.5245 0.948987L16.8573 17.7807L14.1604 3.469C13.844 1.87153 12.5943 0.948987 11.2065 0.948987H0.307421L0.155029 1.66707C2.39256 2.15199 4.93467 2.9342 6.47464 3.77103C7.41713 4.28208 7.68625 4.729 7.99559 5.94388L13.1036 25.6784H19.8732L30.2512 0.948987H23.5245Z" fill="#1A1F71"/>
</svg>
