<svg width="51" height="58" viewBox="0 0 51 58" fill="none" xmlns="http://www.w3.org/2000/svg">
<g clip-path="url(#clip0)">
<path d="M4.7658 54.7228C4.78558 55.3957 4.25165 55.8905 3.57929 55.8905H1.81931V53.6145H3.59907C4.23187 53.6145 4.74603 54.0499 4.7658 54.7228ZM48.5281 50.5468V57.2957C48.5281 57.4145 48.4292 57.4937 48.3106 57.4937H46.9066C46.7879 57.4937 46.689 57.4145 46.689 57.2957V50.5468H44.4742C44.3556 50.5468 44.2765 50.4478 44.2765 50.3291V49.1613C44.2765 49.0426 44.3556 48.9436 44.4742 48.9436H50.8022C50.9209 48.9436 51 49.0426 51 49.1613V50.3291C51 50.4478 50.9209 50.5468 50.8022 50.5468H48.5479H48.5281ZM13.1504 57.2166V56.0885C13.1504 56.0093 13.0911 55.8905 12.9527 55.8905H9.65025C9.4525 55.8905 9.057 55.752 9.057 55.2374V53.6145H12.577C12.7154 53.6145 12.7945 53.4957 12.7945 53.4166V52.2687C12.7945 52.1499 12.7154 52.0707 12.5572 52.0707H9.057V51.1603C9.057 50.7645 9.3734 50.5666 9.65025 50.5666H12.9527C13.1109 50.5666 13.1702 50.4478 13.1702 50.3686V49.1811C13.1702 49.0624 13.0911 48.9832 12.9329 48.9832L9.49205 48.9634C8.20667 48.9634 7.19814 50.0322 7.19814 51.2395V55.277C7.19814 56.5239 8.24622 57.5135 9.4525 57.5135H12.9527C13.0713 57.5135 13.1504 57.4145 13.1702 57.3155V57.2364L13.1504 57.2166ZM27.171 52.9416V52.8822C27.4281 52.7239 27.6456 52.5062 27.8236 52.2687C28.0016 52.0114 28.1202 51.7145 28.1993 51.378L28.753 49.2009C28.7728 49.102 28.7135 48.9634 28.5553 48.9634H27.2303C27.1908 48.9634 27.1314 48.9634 27.0919 48.9832C27.0523 49.003 27.0128 49.0426 26.993 49.1218L26.4393 51.1801C26.38 51.4374 26.2811 51.6353 26.1822 51.7739C26.0834 51.9124 25.9647 52.0311 25.8263 52.1103C25.6879 52.1895 25.5692 52.2291 25.4308 52.2489C25.2924 52.2687 25.1737 52.2884 25.0551 52.2687H24.0861V49.1613C24.0861 49.0228 23.9674 48.9634 23.8883 48.9634H22.4645C22.3459 48.9634 22.247 49.0426 22.247 49.1613V57.3155C22.247 57.4343 22.3459 57.5135 22.4645 57.5135H23.8686C23.9872 57.5135 24.0861 57.4343 24.0861 57.3155V53.6937H25.0748C25.3517 53.6937 25.589 53.7134 25.7867 53.7728C25.9845 53.8322 26.1427 53.9312 26.2811 54.0697C26.3998 54.228 26.5184 54.4259 26.5975 54.703L27.349 57.3551C27.3885 57.4739 27.4676 57.4937 27.5467 57.4937H28.9508C29.1287 57.4937 29.1881 57.3353 29.1683 57.2562L28.4168 54.4259C28.3773 54.2478 28.318 54.0697 28.2586 53.9312C28.1993 53.7728 28.14 53.6541 28.0411 53.5353C27.962 53.4166 27.8434 53.3176 27.7049 53.2187C27.5665 53.1197 27.3885 53.0405 27.1908 52.9614L27.171 52.9416ZM32.2928 54.1884L32.7476 52.6447L33.2024 50.903H33.2815L33.7363 52.6447L34.1912 54.1884H32.273H32.2928ZM34.646 55.6926L35.1206 57.276C35.1601 57.4145 35.2392 57.4739 35.3381 57.4739H36.8806C37.019 57.4739 37.1179 57.3551 37.0783 57.2166L34.5471 49.5968C34.4285 49.2207 34.2505 48.9238 33.8154 48.9238H32.7278C32.5103 48.9041 32.3125 48.9832 32.1741 49.1811C32.095 49.2801 32.0357 49.4186 31.9763 49.5968L29.4451 57.1968C29.3858 57.3749 29.5242 57.4739 29.6429 57.4739H31.126C31.1656 57.4739 31.2644 57.4739 31.3435 57.3551C31.3633 57.3155 31.3633 57.276 31.3831 57.2562L31.8577 55.7124H34.646V55.6926ZM42.2396 51.6353C42.2396 52.2291 41.765 52.7634 41.1124 52.7634H39.4513V50.527H41.0333C41.7453 50.5072 42.2199 51.0416 42.2199 51.6551L42.2396 51.6353ZM39.4711 57.2166V54.3666H41.4882C42.8922 54.3666 44.1974 53.2187 44.1776 51.5957C44.1776 51.1999 44.0787 50.8436 43.9403 50.527C43.6041 49.7749 42.9911 49.2801 42.2594 49.0426C41.9628 48.9436 41.6464 48.9238 41.33 48.9238H38.2451C37.9089 48.9238 37.6518 49.1416 37.632 49.5176V57.276C37.632 57.3947 37.7111 57.4739 37.8496 57.4739H39.2931C39.3722 57.4739 39.4316 57.4343 39.4711 57.3551C39.4909 57.3155 39.4909 57.276 39.4909 57.2166H39.4711ZM0.593253 57.4739H3.79682C5.37883 57.5332 6.66421 56.4249 6.72354 54.802C6.72354 54.6634 6.72354 54.4853 6.70376 54.3072C6.42691 52.9614 5.35905 52.0509 4.01435 52.0509H1.85886V50.527H5.53703C5.67546 50.527 5.75456 50.428 5.75456 50.2895V49.2009C5.75456 49.0426 5.69523 48.9238 5.53703 48.9238H0.652579C0.158201 48.9238 0 49.2999 0 49.5176V56.8603C0 57.1968 0.257076 57.4541 0.593253 57.4541V57.4739ZM15.2071 49.7551L15.0884 51.6155C15.0489 52.2489 15.0093 52.803 14.9698 53.2582C14.9104 54.0301 14.8313 55.8707 13.8228 55.8707H13.7832C13.6844 55.8707 13.5855 55.9499 13.5855 56.0687V57.2562C13.5855 57.3947 13.6646 57.4739 13.7832 57.4739H13.8624C14.6138 57.4739 15.2664 57.3947 15.8399 56.5239C16.0178 56.2468 16.176 55.9499 16.2947 55.6135C16.4133 55.277 16.4924 54.8812 16.5715 54.4655C16.6309 54.0499 16.6902 53.5749 16.7297 53.0603C16.7693 52.5457 16.8088 51.9916 16.8484 51.3978L16.8879 50.5468H19.261V57.276C19.261 57.3947 19.3598 57.4937 19.4785 57.4739H20.8825C21.0209 57.4739 21.1 57.3749 21.1 57.2562V49.5374C21.1 49.2207 20.8232 48.9436 20.4475 48.9436H15.7805C15.4246 48.9436 15.2071 49.2603 15.1873 49.5176C15.1873 49.5968 15.1675 49.6759 15.1675 49.7551H15.2071Z" fill="#02649A"/>
<path fill-rule="evenodd" clip-rule="evenodd" d="M29.8999 27.4696C29.6429 27.4696 29.4253 27.6873 29.4253 27.9446V32.2394L32.2927 35.9009L25.846 29.4488C25.6681 29.2707 25.3517 29.2707 25.1737 29.4488L22.0888 32.5363L21.5153 37.1082V27.9644C21.5153 27.7071 21.2978 27.4894 21.0407 27.4894H16.4331L13.0318 30.2602L19.4785 23.8082C19.6564 23.63 19.6564 23.3134 19.4785 23.1352L16.2551 19.9092L11.8848 19.4936H21.0209C21.278 19.4936 21.4955 19.2759 21.4955 19.0186V14.6644L18.6479 11.0821L25.0946 17.5342C25.2726 17.7123 25.589 17.7123 25.7669 17.5342L28.931 14.3675L29.4056 9.89461V19.0384C29.4056 19.2957 29.6231 19.5134 29.8802 19.5134H34.4284L37.8891 16.7425L31.4424 23.1946C31.2644 23.3727 31.2644 23.6894 31.4424 23.8675L34.6064 27.0342L39.036 27.5092H29.8999V27.4696ZM48.271 26.4009L41.3299 19.454L38.5614 16.6832L43.6239 19.454C43.8809 19.454 44.0985 19.2363 44.0985 18.979V9.83524C44.0985 9.57795 43.8809 9.36024 43.6239 9.36024H29.8802L35.4567 7.77691C35.6347 7.59878 35.6347 7.28211 35.4567 7.10399L29.0101 0.651904C28.8321 0.473779 28.5157 0.473779 28.3377 0.651904L21.4757 7.51961L18.549 10.4884L18.5688 10.4686L21.4757 5.26336C21.4757 5.00607 21.2582 4.78836 21.0011 4.78836H11.865C11.608 4.78836 11.3904 5.00607 11.3904 5.26336V18.9988L9.76888 13.4175C9.5909 13.2394 9.2745 13.2394 9.09652 13.4175L2.64984 19.8696C2.47186 20.0477 2.47186 20.3644 2.64984 20.5425L12.3594 30.2602L7.31676 27.4894C7.05969 27.4894 6.84216 27.7071 6.84216 27.9644V37.1082C6.84216 37.3654 7.05969 37.5832 7.31676 37.5832H21.0407L15.4641 39.1665C15.2861 39.3446 15.2861 39.6613 15.4641 39.8394L21.9108 46.2915C22.0888 46.4696 22.4052 46.4696 22.5831 46.2915L29.4253 39.4436L32.2532 36.6134L29.4253 41.68C29.4253 41.9373 29.6429 42.155 29.8999 42.155H39.036C39.2931 42.155 39.5106 41.9373 39.5106 41.68V27.9446L41.1322 33.5457C41.3102 33.7238 41.6266 33.7238 41.8046 33.5457L48.2512 27.0936C48.4292 26.9154 48.4292 26.5988 48.2512 26.4207L48.271 26.4009Z" fill="#02649A"/>
</g>
<defs>
<clipPath id="clip0">
<rect width="51" height="57" fill="white" transform="translate(0 0.518311)"/>
</clipPath>
</defs>
</svg>
