<svg width="70" height="54" viewBox="0 0 70 54" fill="none" xmlns="http://www.w3.org/2000/svg">
<path fill-rule="evenodd" clip-rule="evenodd" d="M68.5786 53.1059V53.2432H68.7071C68.7312 53.2436 68.7552 53.2376 68.7762 53.2258C68.7932 53.2138 68.803 53.1939 68.8019 53.1732C68.8028 53.1527 68.7932 53.1333 68.7762 53.1219C68.7554 53.1095 68.7315 53.1034 68.7071 53.1043H68.5786V53.1059ZM68.7084 53.0085C68.7637 53.0052 68.8182 53.021 68.8629 53.0533C68.8993 53.0829 68.9195 53.1282 68.9172 53.175C68.9188 53.2151 68.9029 53.2541 68.8736 53.2817C68.8392 53.3116 68.7959 53.3297 68.7502 53.333L68.9226 53.5289H68.7898L68.6313 53.3343H68.5799V53.5289H68.4688V53.009H68.7102L68.7084 53.0085ZM68.674 53.7083C68.7324 53.709 68.79 53.6971 68.8435 53.674C68.8949 53.6519 68.9416 53.6203 68.9814 53.5808C69.021 53.5414 69.0527 53.4948 69.0748 53.4433C69.12 53.3343 69.12 53.212 69.0748 53.103C69.0525 53.0517 69.0207 53.0052 68.9814 52.9655C68.9416 52.926 68.8949 52.8944 68.8435 52.8723C68.7896 52.8505 68.7321 52.8394 68.674 52.84C68.615 52.8396 68.5564 52.8505 68.5017 52.8723C68.4491 52.894 68.4011 52.9256 68.3606 52.9655C68.2361 53.0927 68.1999 53.2828 68.2685 53.4469C68.2895 53.4984 68.3208 53.5452 68.3606 53.5844C68.4013 53.624 68.4491 53.6557 68.5017 53.6775C68.5562 53.7007 68.6148 53.7123 68.674 53.7119V53.7083ZM68.674 52.715C68.8256 52.7148 68.9711 52.7741 69.0793 52.8799C69.1314 52.9307 69.1727 52.9913 69.2013 53.0584C69.2608 53.197 69.2608 53.3544 69.2013 53.4932C69.1721 53.5596 69.1307 53.6203 69.0793 53.6715C69.0263 53.7221 68.9648 53.7629 68.8976 53.7919C68.8269 53.8217 68.7509 53.8371 68.674 53.8367C68.5965 53.8371 68.5196 53.8219 68.4478 53.7919C68.3798 53.7636 68.3177 53.7228 68.2647 53.6715C68.2133 53.6185 68.1724 53.5559 68.1445 53.4874C68.085 53.3486 68.085 53.1913 68.1445 53.0524C68.1729 52.9856 68.2144 52.9249 68.2665 52.8741C68.3188 52.822 68.381 52.7812 68.4496 52.7538C68.5211 52.7237 68.5982 52.7085 68.6758 52.7092L68.674 52.715ZM15.8801 50.7064C15.8801 49.7149 16.5319 48.9001 17.5969 48.9001C18.6146 48.9001 19.3015 49.6796 19.3015 50.7064C19.3015 51.7333 18.6146 52.5129 17.5969 52.5129C16.5319 52.5129 15.8801 51.6981 15.8801 50.7064ZM20.4617 50.7064V47.8843H19.2311V48.5718C18.8408 48.0637 18.2489 47.7452 17.4437 47.7452C15.8577 47.7452 14.6131 48.9854 14.6131 50.7079C14.6131 52.4304 15.8571 53.6706 17.4437 53.6706C18.2485 53.6706 18.8408 53.3515 19.2311 52.8438V53.5289H20.4604V50.7064H20.4617ZM62.0403 50.7064C62.0403 49.7149 62.6919 48.9001 63.7573 48.9001C64.7762 48.9001 65.462 49.6796 65.462 50.7064C65.462 51.7333 64.7762 52.5129 63.7573 52.5129C62.6924 52.5129 62.0403 51.6981 62.0403 50.7064ZM66.6233 50.7064V45.6191H65.3916V48.5718C65.0013 48.0637 64.4094 47.7452 63.6044 47.7452C62.0182 47.7452 60.7735 48.9854 60.7735 50.7079C60.7735 52.4304 62.0175 53.6706 63.6044 53.6706C64.4094 53.6706 65.0013 53.3515 65.3916 52.8438V53.5289H66.6233V50.7064ZM35.7345 48.8419C36.5273 48.8419 37.0368 49.3378 37.1666 50.2105H34.2305C34.3619 49.3957 34.858 48.8419 35.7347 48.8419H35.7345ZM35.7593 47.7421C34.1008 47.7421 32.9407 48.9451 32.9407 50.7048C32.9407 52.4988 34.1473 53.6675 35.8417 53.6675C36.6939 53.6675 37.4747 53.4553 38.1614 52.8768L37.5583 51.9678C37.0839 52.3457 36.4799 52.5579 35.9119 52.5579C35.1191 52.5579 34.397 52.1917 34.2195 51.1759H38.4214C38.4334 51.0235 38.4457 50.8695 38.4457 50.7044C38.4334 48.9455 37.3426 47.7417 35.7586 47.7417L35.7593 47.7421ZM50.6156 50.7044C50.6156 49.7126 51.2672 48.8981 52.3321 48.8981C53.3501 48.8981 54.0368 49.6776 54.0368 50.7044C54.0368 51.7311 53.3501 52.5109 52.3321 52.5109C51.2672 52.5109 50.6151 51.6961 50.6151 50.7044H50.6156ZM55.1967 50.7044V47.8843H53.9668V48.5718C53.5752 48.0637 52.9846 47.7452 52.1794 47.7452C50.5934 47.7452 49.3488 48.9854 49.3488 50.7079C49.3488 52.4304 50.5928 53.6706 52.1794 53.6706C52.9846 53.6706 53.5752 53.3515 53.9668 52.8438V53.5289H55.1969V50.7064L55.1967 50.7044ZM43.6662 50.7044C43.6662 52.4159 44.8613 53.6671 46.6853 53.6671C47.5374 53.6671 48.1055 53.4781 48.7195 52.9945L48.1285 52.0027C47.6664 52.3337 47.1814 52.5109 46.646 52.5109C45.6635 52.4988 44.9413 51.7906 44.9413 50.7044C44.9413 49.6181 45.6635 48.9103 46.646 48.8981C47.18 48.8981 47.6651 49.075 48.1285 49.406L48.7195 48.4145C48.1043 47.9306 47.5365 47.7417 46.6853 47.7417C44.8613 47.7417 43.6662 48.9926 43.6662 50.7044ZM59.53 47.7417C58.82 47.7417 58.3578 48.0726 58.0381 48.5685V47.8843H56.8185V53.5258H58.0504V50.3634C58.0504 49.4298 58.4528 48.911 59.2573 48.911C59.5206 48.9072 59.7822 48.9556 60.0267 49.053L60.406 47.8968C60.1338 47.7898 59.7786 47.7428 59.5293 47.7428L59.53 47.7417ZM26.5455 48.3329C25.9536 47.9438 25.1377 47.7428 24.2379 47.7428C22.8042 47.7428 21.8812 48.4278 21.8812 49.5488C21.8812 50.4686 22.5683 51.0362 23.8338 51.2131L24.415 51.2956C25.0898 51.3901 25.4084 51.5673 25.4084 51.8857C25.4084 52.3221 24.9602 52.571 24.1186 52.571C23.2662 52.571 22.651 52.2994 22.2364 51.9807L21.6581 52.9374C22.3329 53.4331 23.1853 53.6695 24.1083 53.6695C25.7426 53.6695 26.6897 52.9022 26.6897 51.828C26.6897 50.8363 25.9442 50.3177 24.7127 50.1407L24.1326 50.0567C23.5999 49.9881 23.1732 49.8811 23.1732 49.5029C23.1732 49.0906 23.5756 48.8424 24.2507 48.8424C24.9729 48.8424 25.6721 49.1138 26.0148 49.326L26.5475 48.3342L26.5455 48.3329ZM42.4234 47.7437C41.7134 47.7437 41.2511 48.0748 40.9328 48.5705V47.8843H39.7132V53.5258H40.9438V50.3634C40.9438 49.4298 41.3461 48.911 42.1506 48.911C42.414 48.9072 42.6755 48.9556 42.9201 49.053L43.2994 47.8968C43.0271 47.7898 42.6719 47.7428 42.4227 47.7428L42.4234 47.7437ZM31.9225 47.8843H29.9102V46.1729H28.6662V47.8843H27.5186V49.0057H28.6662V51.5793C28.6662 52.8882 29.1759 53.6677 30.6315 53.6677C31.1656 53.6677 31.7807 53.5028 32.171 53.2316L31.8156 52.181C31.4483 52.3932 31.046 52.5002 30.7261 52.5002C30.1109 52.5002 29.9102 52.122 29.9102 51.5559V49.0066H31.9225V47.8843ZM13.5249 53.5273V49.9867C13.5249 48.6534 12.6725 47.7561 11.2987 47.7441C10.5762 47.7321 9.83116 47.9563 9.30965 48.7479C8.91935 48.1223 8.30418 47.7441 7.43954 47.7441C6.83509 47.7441 6.2445 47.9211 5.78201 48.5818V47.8843H4.55054V53.5258H5.79162V50.3977C5.79162 49.4185 6.33638 48.8981 7.17777 48.8981C7.9948 48.8981 8.40835 49.4292 8.40835 50.3854V53.5251H9.65233V50.397C9.65233 49.4178 10.2201 48.8974 11.0369 48.8974C11.8772 48.8974 12.2782 49.4285 12.2782 50.3848V53.5244L13.5249 53.5273Z" fill="#231F20"/>
<path fill-rule="evenodd" clip-rule="evenodd" d="M69.2803 34.7611V33.936H69.0648L68.8155 34.5021L68.5676 33.936H68.3515V34.7611H68.5044V34.1395L68.7375 34.6757H68.8962L69.1291 34.1382V34.7611H69.2809H69.2803ZM67.9131 34.7611V34.0773H68.1889V33.938H67.4841V34.0773H67.76V34.7611H67.9131Z" fill="#F79410"/>
<path fill-rule="evenodd" clip-rule="evenodd" d="M44.7876 38.299H26.1394V4.88721H44.788L44.7876 38.299Z" fill="#FF5F00"/>
<path fill-rule="evenodd" clip-rule="evenodd" d="M27.3216 21.594C27.3216 14.8164 30.5048 8.77888 35.4613 4.88797C31.7101 1.93909 27.0679 0.337619 22.2909 0.34475C10.5208 0.34475 0.979736 9.8582 0.979736 21.594C0.979736 33.3296 10.5208 42.843 22.2909 42.843C27.0679 42.8502 31.7103 41.2487 35.4617 38.2998C30.5055 34.4096 27.3216 28.3718 27.3216 21.594Z" fill="#EB001B"/>
<path fill-rule="evenodd" clip-rule="evenodd" d="M69.9459 21.594C69.9459 33.3296 60.4049 42.843 48.635 42.843C43.8573 42.8499 39.2145 41.2487 35.4624 38.2998C40.4205 34.4089 43.6036 28.3718 43.6036 21.594C43.6036 14.8159 40.4205 8.77888 35.4624 4.88797C39.2143 1.93909 43.8571 0.33784 48.6346 0.344749C60.4047 0.344749 69.9457 9.85819 69.9457 21.594" fill="#F79410"/>
</svg>
