<svg width="80" height="99" viewBox="0 0 80 99" fill="none" xmlns="http://www.w3.org/2000/svg">
<path d="M65.9339 50.5551H62.2762L62.2743 50.5563C62.2447 47.3648 62.0548 44.1732 61.7051 41.0558L61.4745 39H0.806095L0.575314 41.0556C0.193594 44.4574 0 47.9482 0 51.4313C0 61.4734 1.21688 70.9377 3.51876 78.8011C4.7172 82.8948 6.21548 86.6013 7.97189 89.8173C9.81455 93.1915 11.9616 96.0616 14.353 98.3481L15.0349 99H47.2456L47.9274 98.3481C50.319 96.0616 52.4659 93.1915 54.3085 89.8173C56.065 86.6012 57.5631 82.8948 58.7617 78.8011C58.8125 78.6275 58.8621 78.4522 58.9118 78.277H65.9337C73.6898 78.277 80 72.0589 80 64.416C80.0002 56.773 73.69 50.5551 65.9339 50.5551ZM65.9339 69.0388H60.9339C61.4122 66.0766 61.7665 62.9827 61.9911 59.7933H65.9339C68.5248 59.7933 70.6251 61.8629 70.6251 64.416C70.6251 66.9691 68.5248 69.0388 65.9339 69.0388Z" fill="url(#paint0_linear)"/>
<path d="M18 32L14.5 28C12.4961 25.7098 12.4961 22.2902 14.5 20V20C16.5039 17.7098 16.5039 14.2902 14.5 12L11 8" stroke="#0083CA"/>
<path d="M48 32L44.5 28C42.4961 25.7098 42.4961 22.2902 44.5 20V20C46.5039 17.7098 46.5039 14.2902 44.5 12L41 8" stroke="#0083CA"/>
<path d="M33 25L29.5 21C27.4961 18.7098 27.4961 15.2902 29.5 13V13C31.5039 10.7098 31.5039 7.2902 29.5 5L26 1" stroke="#0083CA"/>
<defs>
<linearGradient id="paint0_linear" x1="40" y1="39" x2="40" y2="99" gradientUnits="userSpaceOnUse">
<stop stop-color="#1E3CAE"/>
<stop offset="1" stop-color="#007FC5"/>
</linearGradient>
</defs>
</svg>
