<svg width="91" height="107" viewBox="0 0 91 107" fill="none" xmlns="http://www.w3.org/2000/svg">
<rect y="22" width="69" height="85" fill="url(#paint0_linear)"/>
<path d="M74 11H80V96H74V11Z" fill="url(#paint1_linear)"/>
<path d="M10 17V11L79 11V17L10 17Z" fill="url(#paint2_linear)"/>
<path d="M85 4.5897e-06H91V85H85V4.5897e-06Z" fill="url(#paint3_linear)"/>
<path d="M21 6V4.5897e-06L90 0V6L21 6Z" fill="url(#paint4_linear)"/>
<circle cx="18.5" cy="88.5" r="8.5" fill="white"/>
<rect x="34" y="85" width="25" height="3" fill="white"/>
<rect x="34" y="91" width="16" height="3" fill="white"/>
<defs>
<linearGradient id="paint0_linear" x1="34.5" y1="22" x2="34.5" y2="107" gradientUnits="userSpaceOnUse">
<stop stop-color="#1E3CAE"/>
<stop offset="1" stop-color="#007FC5"/>
</linearGradient>
<linearGradient id="paint1_linear" x1="-26" y1="14" x2="79" y2="14" gradientUnits="userSpaceOnUse">
<stop stop-color="#1E3CAE"/>
<stop offset="1" stop-color="#007FC5"/>
</linearGradient>
<linearGradient id="paint2_linear" x1="-26" y1="14" x2="79" y2="14" gradientUnits="userSpaceOnUse">
<stop stop-color="#1E3CAE"/>
<stop offset="1" stop-color="#007FC5"/>
</linearGradient>
<linearGradient id="paint3_linear" x1="-15" y1="3" x2="90" y2="3" gradientUnits="userSpaceOnUse">
<stop stop-color="#1E3CAE"/>
<stop offset="1" stop-color="#007FC5"/>
</linearGradient>
<linearGradient id="paint4_linear" x1="-15" y1="3" x2="90" y2="3" gradientUnits="userSpaceOnUse">
<stop stop-color="#1E3CAE"/>
<stop offset="1" stop-color="#007FC5"/>
</linearGradient>
</defs>
</svg>
