<svg width="28" height="32" viewBox="0 0 28 32" fill="none" xmlns="http://www.w3.org/2000/svg">
<path d="M9.57847 31.9999C4.8159 31.9725 0.876404 22.2505 0.876404 17.2993C0.876404 9.21156 6.94359 7.44094 9.28184 7.44094C10.3356 7.44094 11.4608 7.85475 12.4532 8.22094C13.1472 8.47638 13.865 8.74006 14.2642 8.74006C14.5031 8.74006 15.0662 8.51575 15.5633 8.31894C16.6235 7.89688 17.9427 7.37231 19.479 7.37231C19.4817 7.37231 19.4854 7.37231 19.4881 7.37231C20.6352 7.37231 24.1133 7.62406 26.2044 10.7643L26.6942 11.5004L25.9893 12.0323C24.9822 12.7922 23.1447 14.1783 23.1447 16.924C23.1447 20.1759 25.2257 21.4266 26.2255 22.0281C26.6668 22.2936 27.1236 22.5673 27.1236 23.1661C27.1236 23.557 24.0035 31.9514 19.4725 31.9514C18.3638 31.9514 17.5802 31.6182 16.8889 31.3243C16.1895 31.0268 15.5861 30.7704 14.5891 30.7704C14.0837 30.7704 13.4447 31.0094 12.7681 31.263C11.8435 31.6081 10.797 31.9999 9.60959 31.9999H9.57847Z" fill="url(#paint0_linear)"/>
<path d="M19.959 0C20.077 4.25475 17.0342 7.2065 13.9949 7.02138C13.4941 3.62594 17.0338 0 19.959 0Z" fill="url(#paint1_linear)"/>
<defs>
<linearGradient id="paint0_linear" x1="14" y1="7.37231" x2="14" y2="31.9999" gradientUnits="userSpaceOnUse">
<stop stop-color="#1E3CAE"/>
<stop offset="1" stop-color="#007FC5"/>
</linearGradient>
<linearGradient id="paint1_linear" x1="16.9547" y1="0" x2="16.9547" y2="7.02962" gradientUnits="userSpaceOnUse">
<stop stop-color="#1E3CAE"/>
<stop offset="1" stop-color="#007FC5"/>
</linearGradient>
</defs>
</svg>
