<svg width="158" height="42" viewBox="0 0 158 42" fill="none" xmlns="http://www.w3.org/2000/svg">
<path d="M55.852 12.12C55.356 12.12 54.916 12.06 54.532 11.94C54.148 11.812 53.82 11.636 53.548 11.412C53.276 11.188 53.06 10.924 52.9 10.62C52.74 10.308 52.644 9.968 52.612 9.6H53.74C53.804 10.056 54.02 10.424 54.388 10.704C54.756 10.976 55.244 11.112 55.852 11.112C56.596 11.112 57.132 10.98 57.46 10.716C57.796 10.452 57.964 10.096 57.964 9.648C57.964 9.216 57.804 8.86 57.484 8.58C57.164 8.292 56.64 8.148 55.912 8.148H54.772V7.212H55.912C56.512 7.212 56.952 7.084 57.232 6.828C57.52 6.564 57.664 6.232 57.664 5.832C57.664 5.432 57.512 5.108 57.208 4.86C56.904 4.612 56.452 4.488 55.852 4.488C55.212 4.488 54.74 4.612 54.436 4.86C54.14 5.1 53.968 5.42 53.92 5.82H52.792C52.824 5.484 52.908 5.172 53.044 4.884C53.188 4.596 53.388 4.348 53.644 4.14C53.9 3.932 54.212 3.772 54.58 3.66C54.948 3.54 55.372 3.48 55.852 3.48C56.82 3.48 57.552 3.696 58.048 4.128C58.544 4.56 58.792 5.128 58.792 5.832C58.792 6.272 58.664 6.648 58.408 6.96C58.16 7.264 57.828 7.484 57.412 7.62C57.916 7.74 58.32 7.972 58.624 8.316C58.936 8.66 59.092 9.104 59.092 9.648C59.092 10.008 59.02 10.34 58.876 10.644C58.74 10.94 58.532 11.2 58.252 11.424C57.98 11.64 57.644 11.812 57.244 11.94C56.844 12.06 56.38 12.12 55.852 12.12ZM62.4478 12.12C62.0958 12.12 61.7838 12.072 61.5118 11.976C61.2478 11.872 61.0238 11.732 60.8398 11.556C60.6558 11.38 60.5158 11.172 60.4198 10.932C60.3238 10.692 60.2758 10.428 60.2758 10.14C60.2758 9.508 60.4598 9.052 60.8278 8.772C61.2038 8.492 61.7398 8.352 62.4358 8.352H64.4998V7.92C64.4998 7.376 64.3758 7 64.1278 6.792C63.8878 6.584 63.5238 6.48 63.0358 6.48C62.5798 6.48 62.2478 6.568 62.0398 6.744C61.8318 6.912 61.7158 7.104 61.6918 7.32H60.6358C60.6518 7.064 60.7198 6.828 60.8398 6.612C60.9678 6.388 61.1358 6.196 61.3438 6.036C61.5598 5.876 61.8158 5.752 62.1118 5.664C62.4078 5.568 62.7358 5.52 63.0958 5.52C63.8478 5.52 64.4438 5.7 64.8838 6.06C65.3318 6.412 65.5558 6.992 65.5558 7.8V10.38C65.5558 10.716 65.5558 11.012 65.5558 11.268C65.5638 11.516 65.5838 11.76 65.6158 12H64.6918C64.6678 11.816 64.6518 11.644 64.6438 11.484C64.6358 11.316 64.6318 11.128 64.6318 10.92C64.4638 11.256 64.1918 11.54 63.8158 11.772C63.4398 12.004 62.9838 12.12 62.4478 12.12ZM62.6758 11.16C62.9238 11.16 63.1558 11.128 63.3718 11.064C63.5958 10.992 63.7918 10.892 63.9598 10.764C64.1278 10.628 64.2598 10.464 64.3558 10.272C64.4518 10.08 64.4998 9.856 64.4998 9.6V9.168H62.6158C62.2238 9.168 61.9158 9.248 61.6918 9.408C61.4678 9.56 61.3558 9.804 61.3558 10.14C61.3558 10.436 61.4598 10.68 61.6678 10.872C61.8838 11.064 62.2198 11.16 62.6758 11.16ZM67.4209 5.64H71.7409V6.576H68.4769V12H67.4209V5.64ZM72.9405 5.64H73.9245V6.84C74.1405 6.416 74.4405 6.092 74.8245 5.868C75.2165 5.636 75.6685 5.52 76.1805 5.52C76.9805 5.52 77.6205 5.784 78.1005 6.312C78.5805 6.832 78.8205 7.608 78.8205 8.64V8.88C78.8205 9.424 78.7565 9.9 78.6285 10.308C78.5005 10.708 78.3205 11.044 78.0885 11.316C77.8565 11.58 77.5765 11.78 77.2485 11.916C76.9285 12.052 76.5725 12.12 76.1805 12.12C75.6365 12.12 75.1805 12 74.8125 11.76C74.4525 11.52 74.1805 11.22 73.9965 10.86V14.4H72.9405V5.64ZM75.9405 11.184C76.1965 11.184 76.4365 11.136 76.6605 11.04C76.8845 10.936 77.0765 10.788 77.2365 10.596C77.4045 10.404 77.5325 10.164 77.6205 9.876C77.7165 9.588 77.7645 9.256 77.7645 8.88V8.64C77.7645 8.296 77.7165 7.988 77.6205 7.716C77.5325 7.444 77.4045 7.216 77.2365 7.032C77.0765 6.84 76.8845 6.696 76.6605 6.6C76.4365 6.504 76.1965 6.456 75.9405 6.456C75.6525 6.456 75.3885 6.504 75.1485 6.6C74.9085 6.688 74.7045 6.816 74.5365 6.984C74.3685 7.144 74.2365 7.336 74.1405 7.56C74.0445 7.784 73.9965 8.024 73.9965 8.28V9.24C73.9965 9.528 74.0445 9.792 74.1405 10.032C74.2365 10.272 74.3685 10.476 74.5365 10.644C74.7045 10.812 74.9085 10.944 75.1485 11.04C75.3885 11.136 75.6525 11.184 75.9405 11.184ZM80.9289 14.52C80.8089 14.52 80.6889 14.508 80.5689 14.484V13.524C80.6889 13.548 80.8089 13.56 80.9289 13.56C81.0489 13.56 81.1529 13.54 81.2409 13.5C81.3289 13.46 81.4129 13.384 81.4929 13.272C81.5729 13.16 81.6569 13 81.7449 12.792C81.8409 12.592 81.9489 12.328 82.0689 12L79.3689 5.64H80.5449L82.6089 10.8L84.4809 5.64H85.6089L83.2089 12C83.0409 12.448 82.8809 12.832 82.7289 13.152C82.5769 13.472 82.4129 13.732 82.2369 13.932C82.0689 14.14 81.8809 14.288 81.6729 14.376C81.4649 14.472 81.2169 14.52 80.9289 14.52ZM88.7294 12.12C87.9294 12.12 87.3014 11.952 86.8454 11.616C86.3894 11.28 86.1374 10.808 86.0894 10.2H87.1454C87.2014 10.512 87.3654 10.752 87.6374 10.92C87.9174 11.08 88.2814 11.16 88.7294 11.16C89.2814 11.16 89.6814 11.068 89.9294 10.884C90.1854 10.692 90.3134 10.464 90.3134 10.2C90.3134 9.888 90.2094 9.644 90.0014 9.468C89.7934 9.284 89.4334 9.192 88.9214 9.192H87.8294V8.328H88.8494C89.2894 8.328 89.6014 8.244 89.7854 8.076C89.9774 7.908 90.0734 7.672 90.0734 7.368C90.0734 7.128 89.9614 6.92 89.7374 6.744C89.5134 6.568 89.1774 6.48 88.7294 6.48C88.2414 6.48 87.8854 6.56 87.6614 6.72C87.4454 6.872 87.3134 7.092 87.2654 7.38H86.2094C86.2334 7.116 86.3054 6.872 86.4254 6.648C86.5534 6.416 86.7254 6.216 86.9414 6.048C87.1574 5.88 87.4134 5.752 87.7094 5.664C88.0134 5.568 88.3534 5.52 88.7294 5.52C89.1374 5.52 89.4894 5.568 89.7854 5.664C90.0894 5.752 90.3414 5.88 90.5414 6.048C90.7414 6.208 90.8894 6.4 90.9854 6.624C91.0814 6.848 91.1294 7.096 91.1294 7.368C91.1294 7.672 91.0534 7.94 90.9014 8.172C90.7494 8.396 90.5054 8.572 90.1694 8.7C90.6174 8.82 90.9294 9.012 91.1054 9.276C91.2814 9.54 91.3694 9.848 91.3694 10.2C91.3694 10.464 91.3134 10.712 91.2014 10.944C91.0894 11.176 90.9214 11.38 90.6974 11.556C90.4814 11.724 90.2054 11.86 89.8694 11.964C89.5414 12.068 89.1614 12.12 88.7294 12.12ZM92.8741 5.64H93.9301V10.44L97.2181 5.64H98.2741V12H97.2181V7.2L93.9301 12H92.8741V5.64ZM101.65 6.576H99.4783V5.64H104.878V6.576H102.706V12H101.65V6.576ZM108.604 12.12C108.196 12.12 107.808 12.056 107.44 11.928C107.072 11.8 106.748 11.604 106.468 11.34C106.188 11.068 105.964 10.728 105.796 10.32C105.628 9.912 105.544 9.432 105.544 8.88V8.64C105.544 8.112 105.624 7.656 105.784 7.272C105.944 6.88 106.156 6.556 106.42 6.3C106.692 6.036 107.004 5.84 107.356 5.712C107.716 5.584 108.092 5.52 108.484 5.52C109.42 5.52 110.144 5.776 110.656 6.288C111.168 6.8 111.424 7.524 111.424 8.46V9.132H106.6C106.6 9.508 106.66 9.824 106.78 10.08C106.9 10.336 107.056 10.544 107.248 10.704C107.44 10.864 107.652 10.98 107.884 11.052C108.124 11.124 108.364 11.16 108.604 11.16C109.084 11.16 109.452 11.08 109.708 10.92C109.972 10.76 110.16 10.54 110.272 10.26H111.304C111.24 10.564 111.124 10.832 110.956 11.064C110.796 11.296 110.596 11.492 110.356 11.652C110.124 11.804 109.856 11.92 109.552 12C109.256 12.08 108.94 12.12 108.604 12.12ZM108.544 6.48C108.296 6.48 108.056 6.516 107.824 6.588C107.592 6.652 107.384 6.76 107.2 6.912C107.024 7.056 106.88 7.24 106.768 7.464C106.656 7.688 106.6 7.956 106.6 8.268H110.428C110.42 7.94 110.364 7.664 110.26 7.44C110.164 7.208 110.032 7.024 109.864 6.888C109.696 6.744 109.496 6.64 109.264 6.576C109.04 6.512 108.8 6.48 108.544 6.48ZM115.925 5.64H118.685C119.469 5.64 120.045 5.804 120.413 6.132C120.781 6.452 120.965 6.868 120.965 7.38C120.965 7.516 120.941 7.656 120.893 7.8C120.845 7.936 120.777 8.064 120.689 8.184C120.609 8.304 120.509 8.408 120.389 8.496C120.277 8.584 120.149 8.652 120.005 8.7C120.397 8.796 120.693 8.98 120.893 9.252C121.101 9.516 121.205 9.828 121.205 10.188C121.205 10.74 121.021 11.18 120.653 11.508C120.285 11.836 119.709 12 118.925 12H115.925V5.64ZM118.925 11.064C119.373 11.064 119.689 10.984 119.873 10.824C120.057 10.664 120.149 10.436 120.149 10.14C120.149 9.836 120.057 9.604 119.873 9.444C119.689 9.276 119.373 9.192 118.925 9.192H116.981V11.064H118.925ZM118.685 8.328C119.141 8.328 119.457 8.248 119.633 8.088C119.817 7.928 119.909 7.708 119.909 7.428C119.909 7.164 119.817 6.956 119.633 6.804C119.457 6.652 119.141 6.576 118.685 6.576H116.981V8.328H118.685Z" fill="white"/>
<path d="M55.544 32.824H48.44L46.832 37H44.48L50.912 20.2H53.168L59.6 37H57.152L55.544 32.824ZM49.184 30.856H54.8L51.992 23.08L49.184 30.856ZM61.9981 24.28H63.9661V26.68C64.3981 25.832 64.9981 25.184 65.7661 24.736C66.5501 24.272 67.4541 24.04 68.4781 24.04C70.0781 24.04 71.3581 24.568 72.3181 25.624C73.2781 26.664 73.7581 28.216 73.7581 30.28V30.76C73.7581 31.848 73.6301 32.8 73.3741 33.616C73.1181 34.416 72.7581 35.088 72.2941 35.632C71.8301 36.16 71.2701 36.56 70.6141 36.832C69.9741 37.104 69.2621 37.24 68.4781 37.24C67.3901 37.24 66.4781 37 65.7421 36.52C65.0221 36.04 64.4781 35.44 64.1101 34.72V41.8H61.9981V24.28ZM67.9981 35.368C68.5101 35.368 68.9901 35.272 69.4381 35.08C69.8861 34.872 70.2701 34.576 70.5901 34.192C70.9261 33.808 71.1821 33.328 71.3581 32.752C71.5501 32.176 71.6461 31.512 71.6461 30.76V30.28C71.6461 29.592 71.5501 28.976 71.3581 28.432C71.1821 27.888 70.9261 27.432 70.5901 27.064C70.2701 26.68 69.8861 26.392 69.4381 26.2C68.9901 26.008 68.5101 25.912 67.9981 25.912C67.4221 25.912 66.8941 26.008 66.4141 26.2C65.9341 26.376 65.5261 26.632 65.1901 26.968C64.8541 27.288 64.5901 27.672 64.3981 28.12C64.2061 28.568 64.1101 29.048 64.1101 29.56V31.48C64.1101 32.056 64.2061 32.584 64.3981 33.064C64.5901 33.544 64.8541 33.952 65.1901 34.288C65.5261 34.624 65.9341 34.888 66.4141 35.08C66.8941 35.272 67.4221 35.368 67.9981 35.368ZM76.7638 24.28H78.7318V26.68C79.1638 25.832 79.7638 25.184 80.5318 24.736C81.3158 24.272 82.2198 24.04 83.2438 24.04C84.8438 24.04 86.1238 24.568 87.0838 25.624C88.0438 26.664 88.5238 28.216 88.5238 30.28V30.76C88.5238 31.848 88.3958 32.8 88.1398 33.616C87.8838 34.416 87.5238 35.088 87.0598 35.632C86.5958 36.16 86.0358 36.56 85.3798 36.832C84.7398 37.104 84.0278 37.24 83.2438 37.24C82.1558 37.24 81.2438 37 80.5078 36.52C79.7878 36.04 79.2438 35.44 78.8758 34.72V41.8H76.7638V24.28ZM82.7638 35.368C83.2758 35.368 83.7558 35.272 84.2038 35.08C84.6518 34.872 85.0358 34.576 85.3558 34.192C85.6918 33.808 85.9478 33.328 86.1238 32.752C86.3158 32.176 86.4118 31.512 86.4118 30.76V30.28C86.4118 29.592 86.3158 28.976 86.1238 28.432C85.9478 27.888 85.6918 27.432 85.3558 27.064C85.0358 26.68 84.6518 26.392 84.2038 26.2C83.7558 26.008 83.2758 25.912 82.7638 25.912C82.1878 25.912 81.6597 26.008 81.1797 26.2C80.6998 26.376 80.2918 26.632 79.9558 26.968C79.6198 27.288 79.3558 27.672 79.1638 28.12C78.9718 28.568 78.8758 29.048 78.8758 29.56V31.48C78.8758 32.056 78.9718 32.584 79.1638 33.064C79.3558 33.544 79.6198 33.952 79.9558 34.288C80.2918 34.624 80.6998 34.888 81.1797 35.08C81.6597 35.272 82.1878 35.368 82.7638 35.368ZM103.289 37.24C102.281 37.24 101.401 37.12 100.649 36.88C99.8974 36.64 99.2654 36.312 98.7534 35.896C98.2414 35.464 97.8334 34.968 97.5294 34.408C97.2414 33.832 97.0414 33.216 96.9294 32.56H99.1854C99.2654 32.928 99.4014 33.28 99.5934 33.616C99.7854 33.936 100.041 34.216 100.361 34.456C100.697 34.696 101.105 34.888 101.585 35.032C102.065 35.16 102.633 35.224 103.289 35.224C104.633 35.224 105.649 34.968 106.337 34.456C107.041 33.944 107.393 33.312 107.393 32.56C107.393 32.096 107.313 31.704 107.153 31.384C107.009 31.064 106.753 30.784 106.385 30.544C106.033 30.304 105.561 30.088 104.969 29.896C104.393 29.704 103.681 29.512 102.833 29.32C101.889 29.112 101.073 28.888 100.385 28.648C99.7134 28.392 99.1534 28.08 98.7054 27.712C98.2734 27.328 97.9454 26.872 97.7214 26.344C97.5134 25.816 97.4094 25.168 97.4094 24.4C97.4094 23.776 97.5454 23.2 97.8174 22.672C98.0894 22.128 98.4734 21.656 98.9694 21.256C99.4814 20.856 100.097 20.544 100.817 20.32C101.553 20.08 102.377 19.96 103.289 19.96C104.185 19.96 104.969 20.08 105.641 20.32C106.313 20.544 106.881 20.856 107.345 21.256C107.825 21.656 108.201 22.128 108.473 22.672C108.745 23.2 108.937 23.776 109.049 24.4H106.793C106.713 24.064 106.593 23.752 106.433 23.464C106.273 23.16 106.049 22.904 105.761 22.696C105.489 22.472 105.145 22.296 104.729 22.168C104.329 22.04 103.849 21.976 103.289 21.976C102.137 21.976 101.241 22.216 100.601 22.696C99.9774 23.16 99.6654 23.728 99.6654 24.4C99.6654 24.832 99.7454 25.208 99.9054 25.528C100.065 25.832 100.313 26.104 100.649 26.344C100.985 26.568 101.409 26.768 101.921 26.944C102.449 27.104 103.073 27.264 103.793 27.424C104.833 27.648 105.721 27.904 106.457 28.192C107.209 28.464 107.817 28.8 108.281 29.2C108.761 29.6 109.105 30.072 109.313 30.616C109.537 31.16 109.649 31.808 109.649 32.56C109.649 33.216 109.505 33.832 109.217 34.408C108.929 34.968 108.513 35.464 107.969 35.896C107.425 36.312 106.761 36.64 105.977 36.88C105.193 37.12 104.297 37.24 103.289 37.24ZM117.092 37.12C115.732 37.12 114.748 36.816 114.14 36.208C113.548 35.584 113.252 34.648 113.252 33.4V26.152H111.332V24.28H113.252V21.4H115.364V24.28H118.772V26.152H115.364V33.16C115.364 33.88 115.516 34.4 115.82 34.72C116.124 35.04 116.708 35.2 117.572 35.2C118.052 35.2 118.532 35.176 119.012 35.128V37C118.708 37.032 118.404 37.056 118.1 37.072C117.796 37.104 117.46 37.12 117.092 37.12ZM127.302 37.24C126.486 37.24 125.71 37.112 124.974 36.856C124.238 36.584 123.59 36.184 123.03 35.656C122.47 35.112 122.022 34.432 121.686 33.616C121.35 32.8 121.182 31.848 121.182 30.76V30.28C121.182 29.256 121.35 28.352 121.686 27.568C122.022 26.784 122.47 26.136 123.03 25.624C123.59 25.096 124.238 24.704 124.974 24.448C125.71 24.176 126.486 24.04 127.302 24.04C128.118 24.04 128.894 24.176 129.63 24.448C130.366 24.704 131.014 25.096 131.574 25.624C132.134 26.136 132.582 26.784 132.918 27.568C133.254 28.352 133.422 29.256 133.422 30.28V30.76C133.422 31.848 133.254 32.8 132.918 33.616C132.582 34.432 132.134 35.112 131.574 35.656C131.014 36.184 130.366 36.584 129.63 36.856C128.894 37.112 128.118 37.24 127.302 37.24ZM127.302 35.32C127.782 35.32 128.262 35.24 128.742 35.08C129.222 34.904 129.646 34.64 130.014 34.288C130.382 33.92 130.678 33.448 130.902 32.872C131.142 32.296 131.262 31.592 131.262 30.76V30.28C131.262 29.512 131.142 28.856 130.902 28.312C130.678 27.768 130.382 27.32 130.014 26.968C129.646 26.616 129.222 26.36 128.742 26.2C128.262 26.04 127.782 25.96 127.302 25.96C126.822 25.96 126.342 26.04 125.862 26.2C125.382 26.36 124.958 26.616 124.59 26.968C124.222 27.32 123.918 27.768 123.678 28.312C123.454 28.856 123.342 29.512 123.342 30.28V30.76C123.342 31.592 123.454 32.296 123.678 32.872C123.918 33.448 124.222 33.92 124.59 34.288C124.958 34.64 125.382 34.904 125.862 35.08C126.342 35.24 126.822 35.32 127.302 35.32ZM136.412 24.28H138.38V26.68C138.652 25.928 139.1 25.304 139.724 24.808C140.364 24.296 141.14 24.04 142.052 24.04C142.372 24.04 142.628 24.056 142.82 24.088C143.028 24.12 143.212 24.16 143.372 24.208V26.176C143.164 26.096 142.956 26.04 142.748 26.008C142.556 25.976 142.284 25.96 141.932 25.96C141.452 25.96 141.004 26.048 140.588 26.224C140.172 26.4 139.812 26.648 139.508 26.968C139.204 27.272 138.964 27.648 138.788 28.096C138.612 28.544 138.524 29.032 138.524 29.56V37H136.412V24.28ZM150.809 37.24C149.993 37.24 149.217 37.112 148.481 36.856C147.745 36.6 147.097 36.208 146.537 35.68C145.977 35.136 145.529 34.456 145.193 33.64C144.857 32.824 144.689 31.864 144.689 30.76V30.28C144.689 29.224 144.849 28.312 145.169 27.544C145.489 26.76 145.913 26.112 146.441 25.6C146.985 25.072 147.609 24.68 148.313 24.424C149.033 24.168 149.785 24.04 150.569 24.04C152.441 24.04 153.889 24.552 154.913 25.576C155.937 26.6 156.449 28.048 156.449 29.92V31.264H146.801C146.801 32.016 146.921 32.648 147.161 33.16C147.401 33.672 147.713 34.088 148.097 34.408C148.481 34.728 148.905 34.96 149.369 35.104C149.849 35.248 150.329 35.32 150.809 35.32C151.769 35.32 152.505 35.16 153.017 34.84C153.545 34.52 153.921 34.08 154.145 33.52H156.209C156.081 34.128 155.849 34.664 155.513 35.128C155.193 35.592 154.793 35.984 154.313 36.304C153.849 36.608 153.313 36.84 152.705 37C152.113 37.16 151.481 37.24 150.809 37.24ZM150.689 25.96C150.193 25.96 149.713 26.032 149.249 26.176C148.785 26.304 148.369 26.52 148.001 26.824C147.649 27.112 147.361 27.48 147.137 27.928C146.913 28.376 146.801 28.912 146.801 29.536H154.457C154.441 28.88 154.329 28.328 154.121 27.88C153.929 27.416 153.665 27.048 153.329 26.776C152.993 26.488 152.593 26.28 152.129 26.152C151.681 26.024 151.201 25.96 150.689 25.96Z" fill="white"/>
<path d="M20.948 4.65381C20.948 4.65381 17.8105 4.66832 15.5539 7.64271C13.5472 10.2876 14.058 12.5498 14.058 12.5498C14.058 12.5498 16.779 13.0205 19.1727 10.1441C21.4146 7.45016 20.948 4.65381 20.948 4.65381Z" fill="white"/>
<path d="M17.6315 38.2868C18.5245 38.6204 19.406 38.9497 20.3963 38.9497C24.7652 38.9497 28 29.8454 28 29.8454C28 29.8454 23.3728 28.0539 23.3728 22.8555C23.3728 18.2474 27.0873 16.3483 27.0873 16.3483C27.0873 16.3483 25.1882 12.9131 20.3605 12.9131C18.6539 12.9131 17.188 13.504 16.0401 13.9666C15.3016 14.2643 14.6948 14.5089 14.2402 14.5089C13.6737 14.5089 12.9902 14.2456 12.1958 13.9396C11.0942 13.5152 9.77935 13.0087 8.26785 13.0087C4.26622 13.0087 0 16.5917 0 23.4218C0 30.3639 5.0402 39.0002 9.02978 39.0002C9.65035 39.0002 10.419 38.7216 11.2713 38.4127C12.3314 38.0285 13.5207 37.5974 14.7151 37.5974C15.7861 37.5974 16.7149 37.9444 17.6315 38.2868Z" fill="white"/>
</svg>
