<svg width="32" height="32" viewBox="0 0 32 32" fill="none" xmlns="http://www.w3.org/2000/svg">
<path fill-rule="evenodd" clip-rule="evenodd" d="M22.769 0H8.92705C2.4073 0 0 2.40729 0 8.92705V22.769C0 29.2888 2.4073 31.6961 8.92705 31.6961H22.769C29.2888 31.6961 31.6961 29.2888 31.6961 22.769V8.92705C31.6961 2.40729 29.2888 0 22.769 0ZM6.31925 15.848H7.12168V19.9605H6.31925V18.2553H4.41347V19.9605H3.61104V15.848H4.41347V17.4529H6.31925V15.848ZM11.0335 18.155C11.0335 18.8572 10.7326 19.1581 10.1308 19.1581C9.52897 19.1581 9.22806 18.7569 9.22806 18.0547V15.7477H8.42563V18.155C8.42563 19.3587 9.02746 19.9605 10.2311 19.9605C11.3344 19.9605 12.0366 19.2584 12.0366 18.0547V15.7477H11.2341V18.155H11.0335ZM19.8603 15.848H19.1582L18.2554 18.6566L17.3527 15.848H16.4499L17.8542 19.9605H18.5563L19.4591 17.2523L20.3618 19.9605H21.0639L22.4682 15.848H21.5655L20.763 18.6566L19.8603 15.848ZM23.9727 18.155H25.4773V17.4529H23.9727V16.6505H26.1794V15.848H23.1703V19.9605H26.2797V19.1581H23.9727V18.155ZM27.2828 19.9605H28.0852V15.848H27.2828V19.9605ZM13.5411 19.0578L13.1399 19.9605H12.2372L14.0427 15.848H14.8451L16.6506 19.9605H15.7478L15.3466 19.0578H13.5411ZM13.842 18.3556H15.146L14.5442 16.8511L13.842 18.3556ZM10.6323 5.31609C10.6323 8.1246 12.9393 10.5319 15.8481 10.5319C18.7569 10.5319 21.1642 8.2249 21.0639 5.31609H20.3618C20.3618 7.82369 18.3557 9.82977 15.8481 9.82977C13.3405 9.82977 11.3344 7.82369 11.3344 5.31609H10.6323Z" fill="white"/>
</svg>
