<svg width="38" height="43" viewBox="0 0 38 43" fill="none" xmlns="http://www.w3.org/2000/svg">
<path d="M31.6508 29.9286C31.3168 28.4257 32.4604 27 34 27C35.5396 27 36.6832 28.4257 36.3492 29.9286L35 36H33L31.6508 29.9286Z" fill="#2C4295"/>
<path d="M31 36H37V38H31V36Z" fill="#2C4295"/>
<rect x="30" y="37" width="8" height="2" fill="#2C4295"/>
<rect x="1.5" y="0.5" width="33" height="42" stroke="#2C4295"/>
<rect x="0.5" y="0.5" width="34" height="42" stroke="#2C4295"/>
<circle cx="12" cy="35" r="3.5" fill="white" stroke="#2C4295"/>
<rect x="7.89453" y="9" width="17" height="2" fill="#2C4295"/>
<rect x="7.89453" y="13" width="11" height="2" fill="#2C4295"/>
<rect x="7.89453" y="22" width="19" height="1" fill="#2C4295"/>
<rect x="7.89453" y="24" width="17" height="1" fill="#2C4295"/>
<rect x="7.89453" y="26" width="10" height="1" fill="#2C4295"/>
<rect x="17" y="34" width="6" height="1" fill="#2C4295"/>
<rect x="17.1055" y="36" width="4" height="1" fill="#2C4295"/>
</svg>
