<svg width="69" height="66" viewBox="0 0 69 66" fill="none" xmlns="http://www.w3.org/2000/svg">
<path d="M54.9953 19.6823C58.0724 25.275 58.9845 31.8042 57.558 38.026C56.1314 44.2478 52.4659 49.7274 47.2598 53.421C42.0536 57.1145 35.6707 58.7637 29.3269 58.0545C22.9832 57.3454 17.122 54.3273 12.86 49.5753C8.59799 44.8233 6.23302 38.6695 6.21565 32.2863C6.19827 25.9031 8.5297 19.7365 12.7658 14.9614C17.0018 10.1862 22.8465 7.1363 29.1863 6.39259C35.5261 5.64887 41.9179 7.26336 47.1441 10.9285M54.9953 19.6823L50.5 30.5M54.9953 19.6823L65.5 25.5" stroke="white" stroke-width="4"/>
<path d="M34 17V33L23.5 43.5" stroke="white" stroke-width="4"/>
</svg>
