<svg width="65" height="67" viewBox="0 0 65 67" fill="none" xmlns="http://www.w3.org/2000/svg">
<path d="M30 13.6739C30 15.0734 29.3398 17.1246 28.1004 19.6128C26.8938 22.0352 25.2645 24.6282 23.6042 27.0325C21.9489 29.4296 20.2896 31.6009 19.042 33.175C18.851 33.416 18.6698 33.6427 18.5 33.8539C18.3302 33.6427 18.149 33.416 17.958 33.175C16.7104 31.6009 15.0511 29.4296 13.3958 27.0325C11.7355 24.6282 10.1062 22.0352 8.89958 19.6128C7.66015 17.1246 7 15.0734 7 13.6739C7 7.20238 12.1728 2 18.5 2C24.8272 2 30 7.20238 30 13.6739Z" stroke="white" stroke-width="4"/>
<path d="M37.5157 9.13622C43.1009 10.3315 48.1402 13.3246 51.8621 17.657C55.5839 21.9895 57.7831 27.4225 58.1228 33.124C58.4624 38.8254 56.9239 44.4811 53.7427 49.2248C50.5616 53.9685 45.9132 57.5387 40.5095 59.3887C35.1058 61.2386 29.2447 61.2663 23.8237 59.4675C18.4027 57.6688 13.7208 54.1427 10.495 49.4293C7.26911 44.7159 5.67715 39.075 5.96289 33.3705" stroke="white" stroke-width="4"/>
</svg>
