<svg width="117" height="110" viewBox="0 0 117 110" fill="none" xmlns="http://www.w3.org/2000/svg">
<path d="M101.626 1C102.674 2.26835 103.681 3.57595 104.619 4.88405C111.93 15.0989 115.636 26.0739 115.636 37.5044C115.636 49.1407 111.799 60.2955 104.23 70.6584C103.316 71.9094 102.337 73.1593 101.32 74.374" stroke="#0083CA"/>
<path d="M92.6401 9.94824C93.0233 10.5269 93.4027 11.122 93.7668 11.7166C98.7783 19.9032 101.32 28.5733 101.32 37.4862C101.32 46.5674 98.6847 55.388 93.4891 63.7031C93.1269 64.2828 92.7509 64.862 92.3715 65.4262" stroke="#0083CA"/>
<path d="M85.4813 22.4753C88.9136 27.7552 90.5818 32.9579 90.5818 38.3801C90.5818 43.9483 88.8254 49.2828 85.213 54.6883" stroke="#0083CA"/>
<path d="M78.3443 35.0027C79.6734 36.5599 79.8442 37.6466 79.8442 38.4186C79.8442 39.2553 79.6406 40.4366 78.0546 42.1611" stroke="#0083CA"/>
<path fill-rule="evenodd" clip-rule="evenodd" d="M44.7402 11H0V109.429H44.7402V11ZM53.6883 109.429H66.2156V11H53.6883V109.429Z" fill="url(#paint0_linear)"/>
<path d="M7.83634 22.0957C7.60904 22.2743 7.56969 22.6033 7.74822 22.8303C7.92676 23.0576 8.25565 23.097 8.48288 22.9185C8.661 22.7785 8.84463 22.6438 9.02833 22.5186C10.4628 21.5418 12.0041 21.0465 13.6093 21.0465C15.2434 21.0465 16.8099 21.5593 18.2652 22.5705C18.4409 22.6926 18.6164 22.8235 18.787 22.9594C19.013 23.1395 19.3422 23.1024 19.5224 22.8764C19.7015 22.652 19.6663 22.322 19.4393 22.141C19.251 21.991 19.057 21.8463 18.8625 21.7112C17.2514 20.5918 15.4349 20.0001 13.6093 20.0001C11.7901 20.0001 10.0506 20.5565 8.43893 21.6539C8.23562 21.7925 8.03288 21.9412 7.83634 22.0957Z" fill="white"/>
<path d="M9.38891 23.6294C9.15631 23.8009 9.10677 24.1285 9.27833 24.361C9.44982 24.5937 9.77745 24.6431 10.01 24.4716C10.0856 24.4159 10.1634 24.3607 10.2411 24.3077C11.3112 23.5788 12.4444 23.2092 13.6094 23.2092C14.7964 23.2092 15.9493 23.5924 17.0361 24.3481C17.1119 24.4008 17.1876 24.4555 17.2613 24.5107C17.4925 24.6839 17.8205 24.637 17.9938 24.4057C18.166 24.1766 18.1215 23.8475 17.8888 23.6732C17.8054 23.6107 17.7194 23.5487 17.6337 23.4889C16.368 22.6089 15.014 22.1626 13.6094 22.1626C12.2303 22.1626 10.8988 22.5933 9.6518 23.4428C9.5634 23.5032 9.47501 23.5659 9.38891 23.6294Z" fill="white"/>
<path d="M16.4619 25.9349C16.6221 25.6982 16.5616 25.371 16.3201 25.2086C15.4371 24.6141 14.5504 24.3252 13.6093 24.3252C12.6924 24.3252 11.8266 24.6002 10.9625 25.1658C10.7206 25.3242 10.653 25.6485 10.8112 25.8902C10.9696 26.1321 11.2939 26.1998 11.5356 26.0415C12.224 25.5908 12.9024 25.3717 13.6093 25.3717C14.3353 25.3717 15.0309 25.6024 15.7357 26.0767C15.9754 26.2382 16.3006 26.1746 16.4619 25.9349Z" fill="white"/>
<path d="M14.9228 27.4516C15.0491 27.1978 14.9457 26.879 14.6836 26.7513C14.2024 26.5151 13.84 26.4878 13.6093 26.4878C13.3952 26.4878 13.0592 26.5112 12.616 26.7129C12.3529 26.8327 12.2369 27.1429 12.3566 27.406C12.4764 27.6691 12.7866 27.7852 13.0496 27.6655C13.3048 27.5493 13.4828 27.5344 13.6093 27.5344C13.7464 27.5344 13.94 27.5522 14.2225 27.6908C14.482 27.8181 14.7955 27.7109 14.9228 27.4516Z" fill="white"/>
<defs>
<linearGradient id="paint0_linear" x1="33.1078" y1="11" x2="33.1078" y2="109.429" gradientUnits="userSpaceOnUse">
<stop stop-color="#1E3CAE"/>
<stop offset="1" stop-color="#007FC5"/>
</linearGradient>
</defs>
</svg>
