<svg width="144" height="106" viewBox="0 0 144 106" fill="none" xmlns="http://www.w3.org/2000/svg">
<path d="M22 92.2748V105H112V44H22.2296V92.4768" stroke="#0083CA"/>
<path fill-rule="evenodd" clip-rule="evenodd" d="M93.2071 34H41.5991V40.881H30.3392V34H20.7866C23.0287 62.7399 7.86308 83.2995 0 89.9868H91.7878C113.509 69.225 113.742 43.0979 113.041 34H104.467V40.881H93.2071V34Z" fill="url(#paint0_linear)"/>
<path d="M117.215 78.3891C123.748 75.9054 129.516 71.7533 133.944 66.3466C138.373 60.9398 141.308 54.467 142.456 47.573C143.605 40.6789 142.927 33.6043 140.49 27.0538C138.053 20.5034 133.943 14.7057 128.568 10.2383C123.193 5.77093 116.741 2.78982 109.856 1.59192C102.97 0.394028 95.8909 1.02117 89.3231 3.41086C82.7553 5.80056 76.9283 9.8694 72.4225 15.2121C67.9167 20.5548 64.8894 26.9848 63.6421 33.8616M117.215 78.3891L120.5 70M117.215 78.3891L125 81" stroke="#0083CA"/>
<defs>
<linearGradient id="paint0_linear" x1="56.6123" y1="34" x2="56.6123" y2="89.9868" gradientUnits="userSpaceOnUse">
<stop stop-color="#1E3CAE"/>
<stop offset="1" stop-color="#007FC5"/>
</linearGradient>
</defs>
</svg>
