<svg width="122" height="69" viewBox="0 0 122 69" fill="none" xmlns="http://www.w3.org/2000/svg">
<path d="M29.1382 20.5C31.9245 20.5 35.2198 21.7598 38.6371 23.7152C42.0419 25.6635 45.5094 28.268 48.6256 30.883C51.7398 33.4964 54.4925 36.1112 56.4671 38.0734C57.4541 39.0542 58.2461 39.8713 58.7909 40.4427C59.0062 40.6686 59.1829 40.856 59.3177 41C59.1829 41.144 59.0062 41.3314 58.7909 41.5573C58.2461 42.1287 57.4541 42.9458 56.4671 43.9266C54.4925 45.8888 51.7398 48.5036 48.6256 51.117C45.5094 53.732 42.0419 56.3365 38.6371 58.2848C35.2198 60.2402 31.9245 61.5 29.1382 61.5C17.7369 61.5 8.5 52.3187 8.5 41C8.5 29.6813 17.7369 20.5 29.1382 20.5Z" stroke="#0083CA"/>
<path d="M90.4553 61.5C87.6104 61.5 84.2486 60.2383 80.7654 58.2828C77.2943 56.334 73.7596 53.7291 70.5834 51.114C67.409 48.5004 64.6033 45.8855 62.5907 43.9232C61.5846 42.9424 60.7774 42.1253 60.2221 41.5539C60.0044 41.3298 59.8254 41.1435 59.6884 41C59.8254 40.8565 60.0044 40.6702 60.2221 40.4461C60.7774 39.8747 61.5846 39.0576 62.5907 38.0768C64.6033 36.1145 67.409 33.4996 70.5834 30.886C73.7596 28.2709 77.2943 25.666 80.7654 23.7172C84.2486 21.7617 87.6104 20.5 90.4553 20.5C102.09 20.5 111.5 29.6902 111.5 41C111.5 52.3098 102.09 61.5 90.4553 61.5Z" stroke="#0083CA"/>
<path d="M29.1382 20.5C31.9245 20.5 35.2198 21.7598 38.6371 23.7152C42.0419 25.6635 45.5094 28.268 48.6256 30.883C51.7398 33.4964 54.4925 36.1112 56.4671 38.0734C57.4541 39.0542 58.2461 39.8713 58.7909 40.4427C59.0062 40.6686 59.1829 40.856 59.3177 41C59.1829 41.144 59.0062 41.3314 58.7909 41.5573C58.2461 42.1287 57.4541 42.9458 56.4671 43.9266C54.4925 45.8888 51.7398 48.5036 48.6256 51.117C45.5094 53.732 42.0419 56.3365 38.6371 58.2848C35.2198 60.2402 31.9245 61.5 29.1382 61.5C17.7369 61.5 8.5 52.3187 8.5 41C8.5 29.6813 17.7369 20.5 29.1382 20.5Z" stroke="#0083CA"/>
<path d="M90.4553 61.5C87.6104 61.5 84.2486 60.2383 80.7654 58.2828C77.2943 56.334 73.7596 53.7291 70.5834 51.114C67.409 48.5004 64.6033 45.8855 62.5907 43.9232C61.5846 42.9424 60.7774 42.1253 60.2221 41.5539C60.0044 41.3298 59.8254 41.1435 59.6884 41C59.8254 40.8565 60.0044 40.6702 60.2221 40.4461C60.7774 39.8747 61.5846 39.0576 62.5907 38.0768C64.6033 36.1145 67.409 33.4996 70.5834 30.886C73.7596 28.2709 77.2943 25.666 80.7654 23.7172C84.2486 21.7617 87.6104 20.5 90.4553 20.5C102.09 20.5 111.5 29.6902 111.5 41C111.5 52.3098 102.09 61.5 90.4553 61.5Z" stroke="#0083CA"/>
<path d="M39.1382 0.5C41.9245 0.5 45.2198 1.75976 48.6371 3.71522C52.0419 5.6635 55.5094 8.26801 58.6256 10.883C61.7398 13.4964 64.4925 16.1112 66.4671 18.0734C67.4541 19.0542 68.2461 19.8713 68.7909 20.4427C69.0062 20.6686 69.1829 20.856 69.3177 21C69.1829 21.144 69.0062 21.3314 68.7909 21.5573C68.2461 22.1287 67.4541 22.9458 66.4671 23.9266C64.4925 25.8888 61.7398 28.5036 58.6256 31.117C55.5094 33.732 52.0419 36.3365 48.6371 38.2848C45.2198 40.2402 41.9245 41.5 39.1382 41.5C27.7369 41.5 18.5 32.3187 18.5 21C18.5 9.68125 27.7369 0.5 39.1382 0.5Z" stroke="#0083CA"/>
<path d="M100.455 41.5C97.6104 41.5 94.2486 40.2383 90.7654 38.2828C87.2943 36.334 83.7596 33.7291 80.5834 31.114C77.409 28.5004 74.6033 25.8855 72.5907 23.9232C71.5846 22.9424 70.7774 22.1253 70.2221 21.5539C70.0044 21.3298 69.8254 21.1435 69.6884 21C69.8254 20.8565 70.0044 20.6702 70.2221 20.4461C70.7774 19.8747 71.5846 19.0576 72.5907 18.0768C74.6033 16.1145 77.409 13.4996 80.5834 10.886C83.7596 8.2709 87.2943 5.66599 90.7654 3.71724C94.2486 1.76166 97.6104 0.500003 100.455 0.500002C112.09 0.500001 121.5 9.69016 121.5 21C121.5 32.3098 112.09 41.5 100.455 41.5Z" stroke="#0083CA"/>
<path d="M92 15C85.1581 15 78.2539 18.2875 72.4545 22.147C67.4439 25.4815 63.0675 29.3725 60 32.3559C56.9325 29.3725 52.5561 25.4815 47.5455 22.147C41.7461 18.2875 34.8419 15 28 15C20.0876 15 13.5309 17.3697 8.95034 21.9503C4.36975 26.5309 2 33.0876 2 41C2 48.9124 4.36975 55.4691 8.95034 60.0497C13.5309 64.6303 20.0876 67 28 67C34.8419 67 41.7461 63.7125 47.5455 59.853C52.5561 56.5185 56.9325 52.6275 60 49.6441C63.0675 52.6275 67.4439 56.5185 72.4545 59.853C78.2539 63.7125 85.1581 67 92 67C99.9125 67 106.469 64.6303 111.05 60.0497C115.63 55.4691 118 48.9124 118 41C118 33.0876 115.63 26.5309 111.05 21.9503C106.469 17.3697 99.9124 15 92 15ZM27.9998 55.0001C23.0073 55.0001 19.6022 53.7361 17.433 51.5668C15.2637 49.3975 13.9997 45.9925 13.9997 41C13.9997 36.0075 15.2637 32.6024 17.433 30.4332C19.6022 28.2639 23.0073 26.9999 27.9998 26.9999C31.7636 26.9999 36.4558 29.1739 41.1708 32.3734C45.1068 35.0442 48.822 38.2644 51.6646 41.0022C48.8284 43.7415 45.1209 46.9606 41.1886 49.6298C36.4787 52.8268 31.7827 55.0001 27.9998 55.0001ZM92 55.0001C88.2362 55.0001 83.544 52.8261 78.8289 49.6266C74.8923 46.9553 71.1764 43.7344 68.3337 40.9964C71.1626 38.2597 74.8696 35.0413 78.8034 32.372C83.5158 29.1744 88.2169 26.9999 92 26.9999C96.9925 26.9999 100.398 28.2639 102.567 30.4332C104.736 32.6024 106 36.0075 106 41C106 45.9925 104.736 49.3975 102.567 51.5668C100.398 53.7361 96.9925 55.0001 92 55.0001Z" fill="url(#paint0_linear)" stroke="url(#paint1_linear)" stroke-width="4"/>
<defs>
<linearGradient id="paint0_linear" x1="60" y1="17" x2="60" y2="65" gradientUnits="userSpaceOnUse">
<stop stop-color="#1E3CAE"/>
<stop offset="1" stop-color="#007FC5"/>
</linearGradient>
<linearGradient id="paint1_linear" x1="60" y1="17" x2="60" y2="65" gradientUnits="userSpaceOnUse">
<stop stop-color="#1E3CAE"/>
<stop offset="1" stop-color="#007FC5"/>
</linearGradient>
</defs>
</svg>
