<svg width="53" height="67" viewBox="0 0 53 67" fill="none" xmlns="http://www.w3.org/2000/svg">
<path d="M47.0044 28C50.2277 32.8104 51.5678 38.593 50.7794 44.289C49.991 49.9851 47.1269 55.2133 42.7114 59.0166C38.2959 62.8198 32.6246 64.9436 26.7358 64.9989C20.8471 65.0542 15.1349 63.0375 10.6452 59.3179C6.15555 55.5983 3.18882 50.4248 2.28823 44.7446C1.38765 39.0645 2.61346 33.2578 5.74124 28.3877" stroke="#0083CA" stroke-width="3" stroke-linecap="round"/>
<path fill-rule="evenodd" clip-rule="evenodd" d="M15.8199 39.4075C16.9131 38.3213 18.6854 38.3213 19.7786 39.4075L23.7477 43.3514L23.7477 2.78147C23.7477 1.2453 25.0009 -2.22825e-06 26.5469 -2.29583e-06C28.0929 -2.36341e-06 29.3462 1.2453 29.3462 2.78147L29.3462 43.3514L33.2214 39.5008C34.3146 38.4145 36.0869 38.4145 37.1801 39.5008C38.2733 40.587 38.2733 42.3481 37.1801 43.4344L26.5469 54L15.8199 43.3411C14.7267 42.2549 14.7267 40.4938 15.8199 39.4075Z" fill="url(#paint0_linear)"/>
<defs>
<linearGradient id="paint0_linear" x1="17.3555" y1="-9.73514" x2="10.8567" y2="73.9077" gradientUnits="userSpaceOnUse">
<stop offset="0.391211" stop-color="#0384CB"/>
<stop offset="1" stop-color="#85E48A"/>
</linearGradient>
</defs>
</svg>
