<svg width="24" height="24" viewBox="0 0 24 24" fill="none" xmlns="http://www.w3.org/2000/svg">
<path d="M16.6115 20.0957L15.6517 16.513C15.4595 15.8013 14.7024 15.3825 13.9639 15.5805L12.1592 16.0638C12.11 15.9823 12.0592 15.8974 12.006 15.8079C11.5146 14.9903 10.8424 13.8706 10.403 12.2284C9.96183 10.5821 9.98443 9.27457 10.0003 8.31968C10.0021 8.21862 10.0042 8.12132 10.0046 8.02804L11.2152 7.70461L11.811 7.54457C12.5506 7.34629 12.9959 6.60483 12.8055 5.8924L11.8459 2.30948C11.6551 1.59769 10.8977 1.17867 10.1581 1.37695L9.14634 1.65116L9.15381 1.67862C8.78106 1.82857 8.41935 2.04089 8.08922 2.30445C7.779 2.55764 7.52377 2.82282 7.30975 3.11262C5.57447 5.42565 5.39873 8.35375 6.70184 13.2171C8.50333 19.9395 12.1238 21.6005 12.281 21.6703C12.626 21.8181 12.9798 21.9195 13.3646 21.9789C13.7784 22.042 14.1975 22.0451 14.5948 21.989L14.6016 22.0095L15.6167 21.7489C16.3553 21.5501 16.8013 20.8087 16.6115 20.0957Z" fill="white"/>
</svg>
