<svg width="11" height="21" viewBox="0 0 11 21" fill="none" xmlns="http://www.w3.org/2000/svg">
<path d="M10.4082 18.4428L9.49238 15.0241C9.30894 14.345 8.58656 13.9453 7.88188 14.1343L6.15983 14.5955C6.1128 14.5177 6.06432 14.4367 6.01358 14.3513C5.54467 13.5712 4.90331 12.5027 4.48404 10.9357C4.06303 9.36483 4.08459 8.11713 4.09972 7.20597C4.10148 7.10953 4.10342 7.01669 4.1038 6.92768L5.25902 6.61906L5.82753 6.46635C6.53328 6.27714 6.95821 5.56963 6.77649 4.88982L5.86082 1.47097C5.67876 0.79176 4.95606 0.391927 4.25032 0.581133L3.28488 0.842787L3.292 0.868993C2.93632 1.01208 2.59117 1.21467 2.27616 1.46616C1.98014 1.70776 1.7366 1.96079 1.53238 2.23733C-0.123446 4.44444 -0.291132 7.23847 0.952307 11.8792C2.67131 18.2937 6.12601 19.8787 6.27605 19.9453C6.60523 20.0863 6.94282 20.1831 7.30997 20.2398C7.70484 20.2999 8.10471 20.3029 8.48386 20.2493L8.49036 20.2689L9.45894 20.0202C10.1637 19.8306 10.5893 19.1231 10.4082 18.4428Z" fill="#0B4DCE"/>
</svg>
