<svg width="246" height="141" viewBox="0 0 246 141" fill="none" xmlns="http://www.w3.org/2000/svg">
<path d="M221.301 62.8945C218.034 60.819 216.298 59.097 212.192 58.498C209.315 58.0782 208.727 58.0489 204.082 58.9908C208.377 56.5463 209.342 55.5297 210.588 54.056C213.574 50.5235 214.101 47.1228 215.382 43.2244C218.681 33.3939 214.238 23.0367 205.46 20.0909C201.701 18.8294 197.756 19.1314 194.215 20.6613C192.314 17.3052 189.35 14.6849 185.591 13.4235C176.813 10.4776 167.022 16.0587 163.723 25.8893C162.393 29.7713 162.279 33.9665 163.396 37.9146C164.252 42.6162 165.966 47.5371 167.918 52.0779C164.78 48.5243 161.236 45.0443 157.557 42.4272C154.649 39.8725 150.995 38.3228 147.138 38.0073C137.476 37.1815 129.003 43.9934 128.212 53.2221C127.889 57.0482 128.932 60.8647 131.155 63.9942C128.432 66.7006 126.755 70.2846 126.422 74.1098C125.632 83.3388 132.824 91.4897 142.485 92.3168C146.341 92.6607 150.54 93.5038 154.741 92.1277C162.616 89.5482 165.623 87.0069 172.344 79.9658C169.144 87.647 169.784 90.5275 153.358 104.85L155.701 108.13C164.663 102.049 174.904 93.7279 177.465 80.6059C178.665 86.7823 182.084 94.6028 185.022 100.304C186.433 103.91 188.967 106.965 192.25 109.016C200.454 114.186 211.107 112.023 216.044 104.185C218.086 100.934 218.911 97.0644 218.372 93.263C222.034 92.1079 225.168 89.6922 227.218 86.4449C232.154 78.6082 229.505 68.0638 221.301 62.8945Z" fill="url(#paint0_linear)"/>
<path d="M50.6274 83.5379C48.725 84.3563 47.4406 84.6043 45.9378 86.2388C44.8847 87.3841 44.6948 87.6348 43.7105 89.9723C43.925 87.3366 43.7664 86.6037 43.4906 85.6087C42.8295 83.2235 41.4851 81.9655 40.1481 80.224C36.7973 75.802 30.8798 74.6429 26.9311 77.6351C25.2402 78.9164 24.1844 80.7511 23.7931 82.7775C21.7364 82.6061 19.6845 83.1263 17.9936 84.4075C14.0449 87.3998 13.5601 93.4101 16.9109 97.8322C18.2259 99.5904 20.0459 100.906 22.1278 101.602C24.464 102.642 27.1561 103.367 29.7516 103.874C27.235 104.189 24.628 104.707 22.362 105.544C20.356 106.059 18.5695 107.207 17.267 108.817C13.9891 112.839 14.4455 118.638 18.2865 121.77C19.8803 123.066 21.8817 123.756 23.9354 123.717C24.3106 125.736 25.3893 127.558 26.98 128.858C30.8212 131.99 36.5924 131.268 39.8708 127.247C41.1852 125.647 42.824 124.045 43.4823 121.773C44.7162 117.514 44.4995 115.419 43.4134 110.325C45.8438 114.056 47.31 114.641 48.6887 126.22L50.8453 126.173C50.8591 120.378 50.2686 113.342 45.2402 108.255C48.3323 109.586 52.82 110.433 56.2259 110.853C58.245 111.316 60.3595 111.117 62.2561 110.285C67.0144 108.217 69.2703 102.856 67.2943 98.3105C66.4729 96.4274 65.0111 94.8961 63.1682 93.9883C63.7615 92.0215 63.6386 89.9079 62.8213 88.0227C60.8455 83.478 55.3859 81.4699 50.6274 83.5379Z" fill="url(#paint1_linear)"/>
<path d="M103.203 39.9609C102.053 39.1185 101.456 38.4433 99.9616 38.1232C98.9141 37.899 98.6989 37.8739 96.9683 38.1072C98.6067 37.313 98.9861 36.9628 99.4799 36.4514C100.664 35.2254 100.94 33.9882 101.506 32.5863C102.957 29.0528 101.576 25.1375 98.4208 23.8412C97.0696 23.2861 95.6123 23.3012 94.2735 23.7775C93.6561 22.4975 92.6303 21.4622 91.2792 20.9071C88.1239 19.6108 84.3892 21.4243 82.9375 24.9578C82.3542 26.3525 82.2103 27.8919 82.5248 29.3703C82.725 31.1194 83.2356 32.97 83.8425 34.6867C82.7757 33.3041 81.5573 31.9387 80.2685 30.8872C79.2617 29.8774 77.9564 29.2188 76.546 29.0091C73.0145 28.4706 69.734 30.7686 69.2191 34.1418C69.0072 35.5404 69.2977 36.9687 70.0389 38.1732C68.972 39.1018 68.2685 40.3785 68.0533 41.7766C67.5384 45.1499 69.9839 48.3211 73.5153 48.86C74.9242 49.0802 76.4474 49.4922 78.0251 49.0885C80.9825 48.3318 82.1497 47.4707 84.7916 45.0459C83.4283 47.7916 83.5936 48.866 77.2071 53.7316L77.989 54.9943C81.431 52.9769 85.3981 50.167 86.6584 45.4057C86.9495 47.7053 88.0161 50.6632 88.9575 52.8304C89.3885 54.1901 90.2458 55.3747 91.4026 56.2088C94.2926 58.3085 98.2613 57.7725 100.267 55.0115C101.097 53.866 101.494 52.4635 101.388 51.0531C102.762 50.7175 103.973 49.9057 104.805 48.7618C106.811 46.0011 106.093 42.0606 103.203 39.9609Z" fill="url(#paint2_linear)"/>
<defs>
<linearGradient id="paint0_linear" x1="151.113" y1="36.9955" x2="268.191" y2="124.676" gradientUnits="userSpaceOnUse">
<stop offset="0.391211" stop-color="#0384CB"/>
<stop offset="1" stop-color="#85E48A"/>
</linearGradient>
<linearGradient id="paint1_linear" x1="18.0185" y1="106.754" x2="92.0737" y2="81.4379" gradientUnits="userSpaceOnUse">
<stop offset="0.391211" stop-color="#0384CB"/>
<stop offset="1" stop-color="#85E48A"/>
</linearGradient>
<linearGradient id="paint2_linear" x1="78.0321" y1="28.7338" x2="118.937" y2="63.8119" gradientUnits="userSpaceOnUse">
<stop offset="0.391211" stop-color="#0384CB"/>
<stop offset="1" stop-color="#85E48A"/>
</linearGradient>
</defs>
</svg>
