<svg width="217" height="122" viewBox="0 0 217 122" fill="none" xmlns="http://www.w3.org/2000/svg">
<path d="M136.428 36.1136C132.765 36.4333 130.462 36.1357 127.018 38.0537C124.604 39.3978 124.144 39.7146 121.183 43.1066C123.013 38.7829 123.154 37.459 123.243 35.628C123.458 31.2389 121.892 28.369 120.609 24.6882C117.424 15.3667 108.094 10.1157 99.7702 12.9598C96.2059 14.1776 93.4039 16.6822 91.6151 19.8803C88.2434 18.4453 84.4947 18.1789 80.9303 19.3968C72.6063 22.2408 68.4402 32.1028 71.6251 41.4244C72.8623 45.1211 75.1976 48.3524 78.319 50.6868C81.6782 53.7405 85.8122 56.4638 89.9054 58.7637C85.4873 57.8931 80.8041 57.3133 76.5175 57.462C72.8489 57.2129 69.1978 58.1522 66.1049 60.1407C58.3384 65.094 55.8764 75.1246 60.6066 82.5442C62.5711 85.6176 65.5607 87.8955 69.0446 88.9735C68.5518 92.5875 69.3552 96.2595 71.3122 99.3376C76.0427 106.757 86.1737 108.757 93.9409 103.804C97.0486 101.838 100.704 100.051 103.079 96.5878C107.532 90.0964 108.334 86.4433 109.342 77.2513C111.36 84.8943 113.506 86.6983 109.378 106.986L113.04 108.108C116.292 98.3475 119.217 86.1575 113.575 74.7787C118.045 78.7461 125.139 82.6736 130.647 85.2797C133.792 87.1859 137.468 88.0281 141.129 87.6817C150.302 86.847 157.092 79.0664 156.294 70.3033C155.958 66.6712 154.347 63.2752 151.746 60.7182C153.842 57.7332 154.813 54.1016 154.485 50.4681C153.687 41.7059 145.602 35.2787 136.428 36.1136Z" fill="url(#paint0_linear)"/>
<path d="M29.8482 71.907C28.8145 73.0207 28.0263 73.5683 27.503 75.1109C27.1363 76.1919 27.0832 76.4165 27.1164 78.2771C26.4782 76.4449 26.1543 76.0002 25.674 75.4144C24.5226 74.0101 23.2472 73.565 21.8333 72.7932C18.2726 70.8205 13.9582 71.7988 12.1965 74.9784C11.4422 76.3399 11.2783 77.8842 11.617 79.3601C10.1861 79.8554 8.96374 80.8133 8.2094 82.1748C6.44778 85.3544 7.90612 89.5311 11.4667 91.5039C12.8709 92.2934 14.4824 92.6358 16.086 92.4855C17.962 92.4895 19.9837 92.1775 21.8755 91.7471C20.2805 92.7055 18.6849 93.8265 17.4129 95.0608C16.2198 96.0017 15.3616 97.302 14.9655 98.7689C13.9595 102.44 15.9867 106.196 19.4934 107.157C20.9475 107.554 22.4951 107.423 23.8614 106.787C24.7126 108.031 25.977 108.933 27.4301 109.334C30.9369 110.295 34.5952 108.099 35.6016 104.427C36.0086 102.963 36.6328 101.402 36.4003 99.6824C35.9645 96.4589 35.1972 95.1172 32.9569 92.0217C35.6948 93.8035 36.8523 93.7613 41.2135 101.121L42.6466 100.45C40.9363 96.5577 38.4521 92.012 33.5683 90.0902C36.0381 90.0661 39.3005 89.3023 41.7105 88.5735C43.2028 88.2853 44.5625 87.5241 45.5881 86.4028C48.1672 83.6032 48.09 79.3365 45.4153 76.8732C44.3053 75.8534 42.87 75.2597 41.3641 75.1975C41.1786 73.7018 40.4688 72.32 39.361 71.2976C36.6866 68.8345 32.4274 69.1073 29.8482 71.907Z" fill="url(#paint1_linear)"/>
<path d="M204.566 63.7741C203.148 62.7356 202.413 61.9031 200.57 61.5085C199.278 61.232 199.013 61.2011 196.879 61.4887C198.899 60.5096 199.367 60.0778 199.976 59.4473C201.435 57.9358 201.776 56.4104 202.473 54.682C204.263 50.3256 202.56 45.4984 198.67 43.9002C197.004 43.2158 195.208 43.2344 193.557 43.8216C192.796 42.2436 191.531 40.9672 189.865 40.2828C185.975 38.6846 181.371 40.9205 179.581 45.2769C178.862 46.9964 178.684 48.8943 179.072 50.7171C179.319 52.8735 179.948 55.1551 180.697 57.2716C179.381 55.567 177.879 53.8836 176.29 52.5872C175.049 51.3422 173.44 50.5303 171.701 50.2717C167.347 49.6078 163.302 52.441 162.667 56.5998C162.406 58.3241 162.764 60.0851 163.678 61.5701C162.363 62.715 161.496 64.289 161.23 66.0127C160.595 70.1717 163.61 74.0814 167.964 74.7458C169.701 75.0173 171.579 75.5253 173.524 75.0276C177.171 74.0946 178.61 73.033 181.867 70.0434C180.186 73.4286 180.39 74.7533 172.516 80.752L173.48 82.3088C177.724 79.8215 182.615 76.3573 184.168 70.487C184.527 73.3222 185.842 76.969 187.003 79.6409C187.534 81.3173 188.591 82.7778 190.017 83.8062C193.581 86.3948 198.474 85.7341 200.946 82.33C201.969 80.9177 202.459 79.1886 202.329 77.4497C204.023 77.0359 205.515 76.0351 206.542 74.6248C209.014 71.2211 208.13 66.3629 204.566 63.7741Z" fill="url(#paint2_linear)"/>
<defs>
<linearGradient id="paint0_linear" x1="68.5209" y1="57.0825" x2="207.467" y2="55.6664" gradientUnits="userSpaceOnUse">
<stop offset="0.391211" stop-color="#0384CB"/>
<stop offset="1" stop-color="#85E48A"/>
</linearGradient>
<linearGradient id="paint1_linear" x1="14.8577" y1="97.1619" x2="57.0348" y2="58.1985" gradientUnits="userSpaceOnUse">
<stop offset="0.391211" stop-color="#0384CB"/>
<stop offset="1" stop-color="#85E48A"/>
</linearGradient>
<linearGradient id="paint2_linear" x1="173.533" y1="49.9323" x2="223.965" y2="93.18" gradientUnits="userSpaceOnUse">
<stop offset="0.391211" stop-color="#0384CB"/>
<stop offset="1" stop-color="#85E48A"/>
</linearGradient>
</defs>
</svg>
