<svg width="1294" height="178" viewBox="0 0 1294 178" fill="none" xmlns="http://www.w3.org/2000/svg">
<g opacity="0.2">
<path d="M0 109.173H15.8536C17.571 104.69 18.9582 99.5482 20.0151 93.7467C21.2041 87.8133 22.1289 81.5504 22.7895 74.9578C23.4501 68.2333 23.9124 61.377 24.1767 54.3889C24.573 47.2689 24.7712 40.3467 24.7712 33.6222V0H126.63V109.173H140.7V164.156H109.786V138.444H30.9144V164.156H0V109.173ZM90.9598 109.173V29.2711H58.0636V37.5778C58.0636 53.6637 57.4031 67.5741 56.082 79.3089C54.8929 90.9119 52.9112 100.867 50.1369 109.173H90.9598Z" fill="url(#paint0_linear)"/>
<path d="M206.096 141.016C198.434 141.016 191.234 139.961 184.496 137.851C177.89 135.61 172.143 132.247 167.255 127.764C162.367 123.281 158.536 117.678 155.761 110.953C152.987 104.097 151.6 96.12 151.6 87.0222V83.0667C151.6 74.3644 152.921 66.783 155.563 60.3222C158.337 53.8615 162.037 48.4556 166.66 44.1044C171.417 39.7533 176.965 36.523 183.307 34.4133C189.78 32.1719 196.716 31.0511 204.115 31.0511C221.421 31.0511 234.501 35.5341 243.352 44.5C252.204 53.3341 256.629 66.1896 256.629 83.0667V93.9445H182.91C183.042 98.0319 183.769 101.526 185.09 104.427C186.411 107.196 188.129 109.503 190.243 111.349C192.356 113.195 194.734 114.579 197.377 115.502C200.151 116.293 203.058 116.689 206.096 116.689C211.909 116.689 216.467 115.832 219.77 114.118C223.205 112.272 225.451 109.833 226.508 106.8H254.648C252.534 118.271 247.315 126.841 238.992 132.511C230.669 138.181 219.704 141.016 206.096 141.016ZM205.105 55.18C202.331 55.18 199.623 55.5096 196.98 56.1689C194.47 56.8282 192.158 57.9489 190.044 59.5311C188.063 60.9815 186.411 62.8933 185.09 65.2667C183.901 67.64 183.241 70.5407 183.109 73.9689H226.706C226.706 70.277 226.111 67.2445 224.922 64.8711C223.733 62.4978 222.148 60.5859 220.166 59.1356C218.317 57.6852 216.071 56.6963 213.428 56.1689C210.786 55.5096 208.012 55.18 205.105 55.18Z" fill="url(#paint1_linear)"/>
<path d="M272.452 33.6222H309.51L334.479 85.6378L359.448 33.6222H395.317V138.444H366.384V74.1667L343.793 118.667H323.976L301.385 74.1667V138.444H272.452V33.6222Z" fill="url(#paint2_linear)"/>
<path d="M464.622 141.016C457.224 141.016 450.288 139.961 443.814 137.851C437.341 135.61 431.66 132.247 426.772 127.764C421.884 123.281 418.052 117.678 415.278 110.953C412.504 104.097 411.116 96.12 411.116 87.0222V83.0667C411.116 74.4963 412.504 66.9808 415.278 60.52C418.052 54.0593 421.884 48.6533 426.772 44.3022C431.66 39.9511 437.341 36.6548 443.814 34.4133C450.288 32.1719 457.224 31.0511 464.622 31.0511C472.021 31.0511 478.956 32.1719 485.43 34.4133C491.904 36.6548 497.584 39.9511 502.473 44.3022C507.361 48.6533 511.192 54.0593 513.966 60.52C516.741 66.9808 518.128 74.4963 518.128 83.0667V87.0222C518.128 95.9882 516.741 103.899 513.966 110.756C511.192 117.48 507.361 123.084 502.473 127.567C497.584 132.05 491.904 135.412 485.43 137.653C478.956 139.895 472.021 141.016 464.622 141.016ZM464.622 115.7C471.756 115.7 477.239 113.129 481.07 107.987C484.902 102.844 486.817 95.8563 486.817 87.0222V83.0667C486.817 75.1556 484.902 68.7607 481.07 63.8822C477.239 58.8719 471.756 56.3667 464.622 56.3667C457.488 56.3667 452.005 58.8719 448.174 63.8822C444.343 68.7607 442.427 75.1556 442.427 83.0667V87.0222C442.427 96.12 444.343 103.174 448.174 108.184C452.005 113.195 457.488 115.7 464.622 115.7Z" fill="url(#paint3_linear)"/>
<path d="M528.95 68.4311H594.346V97.7022H528.95V68.4311Z" fill="url(#paint4_linear)"/>
<path d="M609.185 33.6222H665.465C672.335 33.6222 678.214 34.3474 683.102 35.7978C688.123 37.1163 692.152 39.0282 695.191 41.5333C698.361 44.0385 700.673 47.0052 702.127 50.4333C703.58 53.7296 704.307 57.3556 704.307 61.3111C704.307 66.3215 702.853 71.0022 699.947 75.3533C697.04 79.5726 692.879 82.4074 687.462 83.8578C693.936 85.44 699.022 88.4726 702.721 92.9556C706.42 97.4385 708.27 102.647 708.27 108.58C708.27 117.678 705.033 124.93 698.56 130.336C692.086 135.742 682.376 138.444 669.429 138.444H609.185V33.6222ZM661.898 115.502C672.467 115.502 677.752 112.272 677.752 105.811C677.752 99.2185 672.467 95.9222 661.898 95.9222H639.703V115.502H661.898ZM660.115 74.5622C665.399 74.5622 668.966 73.7711 670.816 72.1889C672.798 70.4748 673.788 68.2333 673.788 65.4645C673.788 62.5637 672.798 60.3882 670.816 58.9378C668.834 57.3556 665.267 56.5644 660.115 56.5644H639.703V74.5622H660.115Z" fill="url(#paint5_linear)"/>
<path d="M774.672 141.016C767.01 141.016 759.809 139.961 753.072 137.851C746.466 135.61 740.719 132.247 735.831 127.764C730.943 123.281 727.112 117.678 724.337 110.953C721.563 104.097 720.176 96.12 720.176 87.0222V83.0667C720.176 74.3644 721.497 66.783 724.139 60.3222C726.913 53.8615 730.613 48.4556 735.237 44.1044C739.993 39.7533 745.541 36.523 751.883 34.4133C758.356 32.1719 765.292 31.0511 772.69 31.0511C789.997 31.0511 803.076 35.5341 811.928 44.5C820.78 53.3341 825.205 66.1896 825.205 83.0667V93.9445H751.486C751.618 98.0319 752.345 101.526 753.666 104.427C754.987 107.196 756.705 109.503 758.819 111.349C760.932 113.195 763.31 114.579 765.953 115.502C768.727 116.293 771.634 116.689 774.672 116.689C780.485 116.689 785.043 115.832 788.346 114.118C791.781 112.272 794.027 109.833 795.084 106.8H823.224C821.11 118.271 815.891 126.841 807.568 132.511C799.245 138.181 788.28 141.016 774.672 141.016ZM773.681 55.18C770.907 55.18 768.199 55.5096 765.556 56.1689C763.046 56.8282 760.734 57.9489 758.62 59.5311C756.639 60.9815 754.987 62.8933 753.666 65.2667C752.477 67.64 751.817 70.5407 751.685 73.9689H795.282C795.282 70.277 794.687 67.2445 793.498 64.8711C792.309 62.4978 790.724 60.5859 788.742 59.1356C786.893 57.6852 784.647 56.6963 782.004 56.1689C779.362 55.5096 776.588 55.18 773.681 55.18Z" fill="url(#paint6_linear)"/>
<path d="M841.028 33.6222H869.168V47.8622C870.489 45.7526 872.141 43.7089 874.122 41.7311C876.236 39.6215 878.68 37.7756 881.455 36.1933C884.229 34.6111 887.334 33.3585 890.769 32.4356C894.203 31.5126 897.903 31.0511 901.866 31.0511C916.663 31.0511 927.892 35.4022 935.555 44.1044C943.217 52.8067 947.049 65.7941 947.049 83.0667V87.0222C947.049 95.9882 945.992 103.833 943.878 110.558C941.764 117.282 938.726 122.886 934.762 127.369C930.799 131.852 926.043 135.28 920.494 137.653C914.945 139.895 908.736 141.016 901.866 141.016C895.921 141.016 890.24 139.697 884.823 137.06C879.539 134.291 875.113 130.336 871.546 125.193V178H841.028V33.6222ZM894.534 115.898C900.611 115.898 905.631 113.459 909.595 108.58C913.69 103.701 915.738 96.5156 915.738 87.0222V83.0667C915.738 73.9689 913.756 67.2445 909.793 62.8933C905.962 58.4104 900.875 56.1689 894.534 56.1689C888.06 56.1689 882.578 58.2126 878.086 62.3C873.726 66.2556 871.546 72.1889 871.546 80.1V89.9889C871.546 98.2956 873.726 104.69 878.086 109.173C882.578 113.656 888.06 115.898 894.534 115.898Z" fill="url(#paint7_linear)"/>
<path d="M1012.49 141.016C1004.7 141.016 997.496 139.895 990.891 137.653C984.417 135.412 978.802 132.05 974.046 127.567C969.29 123.084 965.591 117.48 962.949 110.756C960.306 104.031 958.985 96.12 958.985 87.0222V83.0667C958.985 74.76 960.372 67.3763 963.147 60.9156C966.053 54.4548 969.885 49.0489 974.641 44.6978C979.529 40.2148 985.21 36.8526 991.683 34.6111C998.157 32.2378 1005.09 31.0511 1012.49 31.0511C1020.42 31.0511 1027.35 32.1059 1033.3 34.2156C1039.38 36.3252 1044.46 39.2259 1048.56 42.9178C1052.65 46.4778 1055.82 50.697 1058.07 55.5756C1060.32 60.4541 1061.64 65.6622 1062.03 71.2H1030.72C1029.67 66.4533 1027.68 62.8274 1024.78 60.3222C1022 57.6852 1017.91 56.3667 1012.49 56.3667C1006.02 56.3667 1000.67 58.6082 996.439 63.0911C992.344 67.4422 990.296 74.1007 990.296 83.0667V87.0222C990.296 96.7793 992.278 103.965 996.241 108.58C1000.34 113.195 1005.75 115.502 1012.49 115.502C1017.11 115.502 1021.01 114.316 1024.18 111.942C1027.49 109.437 1029.67 105.745 1030.72 100.867H1062.03C1061.64 107.064 1060.18 112.667 1057.67 117.678C1055.16 122.556 1051.73 126.71 1047.37 130.138C1043.14 133.566 1038.05 136.269 1032.11 138.247C1026.3 140.093 1019.76 141.016 1012.49 141.016Z" fill="url(#paint8_linear)"/>
<path d="M1076.93 33.6222H1106.66V96.9111L1151.25 33.6222H1178V138.444H1148.28V75.1556L1103.69 138.444H1076.93V33.6222Z" fill="url(#paint9_linear)"/>
<path d="M1219.69 99.68C1211.76 97.043 1205.95 93.1533 1202.25 88.0111C1198.68 82.737 1196.9 76.6719 1196.9 69.8156C1196.9 64.6733 1197.76 59.9267 1199.47 55.5756C1201.32 51.0926 1204.1 47.2689 1207.8 44.1044C1211.5 40.8082 1216.19 38.237 1221.87 36.3911C1227.68 34.5452 1234.55 33.6222 1242.48 33.6222H1294V138.444H1263.48V103.042H1248.42L1226.23 138.444H1192.93L1219.69 99.68ZM1227.42 69.8156C1227.42 73.5074 1228.74 76.2104 1231.38 77.9244C1234.15 79.6385 1237.52 80.4956 1241.48 80.4956H1263.48V58.5422H1241.48C1237.52 58.5422 1234.15 59.4652 1231.38 61.3111C1228.74 63.157 1227.42 65.9919 1227.42 69.8156Z" fill="url(#paint10_linear)"/>
</g>
<defs>
<linearGradient id="paint0_linear" x1="647" y1="-131.684" x2="656.97" y2="212.511" gradientUnits="userSpaceOnUse">
<stop offset="0.0294584" stop-color="white"/>
<stop offset="1" stop-color="white" stop-opacity="0"/>
</linearGradient>
<linearGradient id="paint1_linear" x1="647" y1="-131.684" x2="656.97" y2="212.511" gradientUnits="userSpaceOnUse">
<stop offset="0.0294584" stop-color="white"/>
<stop offset="1" stop-color="white" stop-opacity="0"/>
</linearGradient>
<linearGradient id="paint2_linear" x1="647" y1="-131.684" x2="656.97" y2="212.511" gradientUnits="userSpaceOnUse">
<stop offset="0.0294584" stop-color="white"/>
<stop offset="1" stop-color="white" stop-opacity="0"/>
</linearGradient>
<linearGradient id="paint3_linear" x1="647" y1="-131.684" x2="656.97" y2="212.511" gradientUnits="userSpaceOnUse">
<stop offset="0.0294584" stop-color="white"/>
<stop offset="1" stop-color="white" stop-opacity="0"/>
</linearGradient>
<linearGradient id="paint4_linear" x1="647" y1="-131.684" x2="656.97" y2="212.511" gradientUnits="userSpaceOnUse">
<stop offset="0.0294584" stop-color="white"/>
<stop offset="1" stop-color="white" stop-opacity="0"/>
</linearGradient>
<linearGradient id="paint5_linear" x1="647" y1="-131.684" x2="656.97" y2="212.511" gradientUnits="userSpaceOnUse">
<stop offset="0.0294584" stop-color="white"/>
<stop offset="1" stop-color="white" stop-opacity="0"/>
</linearGradient>
<linearGradient id="paint6_linear" x1="647" y1="-131.684" x2="656.97" y2="212.511" gradientUnits="userSpaceOnUse">
<stop offset="0.0294584" stop-color="white"/>
<stop offset="1" stop-color="white" stop-opacity="0"/>
</linearGradient>
<linearGradient id="paint7_linear" x1="647" y1="-131.684" x2="656.97" y2="212.511" gradientUnits="userSpaceOnUse">
<stop offset="0.0294584" stop-color="white"/>
<stop offset="1" stop-color="white" stop-opacity="0"/>
</linearGradient>
<linearGradient id="paint8_linear" x1="647" y1="-131.684" x2="656.97" y2="212.511" gradientUnits="userSpaceOnUse">
<stop offset="0.0294584" stop-color="white"/>
<stop offset="1" stop-color="white" stop-opacity="0"/>
</linearGradient>
<linearGradient id="paint9_linear" x1="647" y1="-131.684" x2="656.97" y2="212.511" gradientUnits="userSpaceOnUse">
<stop offset="0.0294584" stop-color="white"/>
<stop offset="1" stop-color="white" stop-opacity="0"/>
</linearGradient>
<linearGradient id="paint10_linear" x1="647" y1="-131.684" x2="656.97" y2="212.511" gradientUnits="userSpaceOnUse">
<stop offset="0.0294584" stop-color="white"/>
<stop offset="1" stop-color="white" stop-opacity="0"/>
</linearGradient>
</defs>
</svg>
