<svg xmlns="http://www.w3.org/2000/svg" width="22" height="23" viewBox="0 0 22 23">
  <metadata><?xpacket begin="﻿" id="W5M0MpCehiHzreSzNTczkc9d"?>
<x:xmpmeta xmlns:x="adobe:ns:meta/" x:xmptk="Adobe XMP Core 5.6-c140 79.160451, 2017/05/06-01:08:21        ">
   <rdf:RDF xmlns:rdf="http://www.w3.org/1999/02/22-rdf-syntax-ns#">
      <rdf:Description rdf:about=""/>
   </rdf:RDF>
</x:xmpmeta>
                                                                                                    
                                                                                                    
                                                                                                    
                                                                                                    
                                                                                                    
                                                                                                    
                                                                                                    
                                                                                                    
                                                                                                    
                                                                                                    
                                                                                                    
                                                                                                    
                                                                                                    
                                                                                                    
                                                                                                    
                                                                                                    
                                                                                                    
                                                                                                    
                                                                                                    
                                                                                                    
                           
<?xpacket end="w"?></metadata>
<defs>
    <style>
      .cls-1 {
        fill: #fff;
        fill-rule: evenodd;
      }
    </style>
  </defs>
  <path id="Rounded_Rectangle_1_copy" data-name="Rounded Rectangle 1 copy" class="cls-1" d="M19,23H3a3,3,0,0,1-3-3V4A3,3,0,0,1,3,1H5.012V3.984H16.988V1H19a3,3,0,0,1,3,3V20A3,3,0,0,1,19,23ZM15.574,11.994L12,15.568V7H10v8.568L6.426,11.994,4.994,13.426,9.568,18H5v2H17V18H12.432l4.574-4.574ZM12,17.58L12.42,18H12V17.58ZM9.58,18L10,17.58V18H9.58ZM14,2H8A1,1,0,0,1,8,0h6A1,1,0,0,1,14,2Z"/>
</svg>
