<svg width="26" height="15" viewBox="0 0 26 15" fill="none" xmlns="http://www.w3.org/2000/svg">
<path d="M1.72786 7.88579C1.58747 7.74574 1.46132 7.61635 1.35018 7.5C1.46132 7.38365 1.58747 7.25426 1.72786 7.11421C2.36012 6.48347 3.27552 5.64215 4.40446 4.80235C6.68471 3.10613 9.72332 1.5 13 1.5C16.2767 1.5 19.3153 3.10613 21.5955 4.80235C22.7245 5.64215 23.6399 6.48347 24.2721 7.11421C24.4125 7.25426 24.5387 7.38365 24.6498 7.5C24.5387 7.61635 24.4125 7.74574 24.2721 7.88579C23.6399 8.51653 22.7245 9.35785 21.5955 10.1976C19.3153 11.8939 16.2767 13.5 13 13.5C9.72332 13.5 6.68471 11.8939 4.40446 10.1976C3.27552 9.35785 2.36012 8.51653 1.72786 7.88579Z" stroke="#343532" stroke-width="2"/>
<circle cx="13" cy="7.5" r="4" fill="#343532"/>
</svg>
