<svg width="20" height="50" viewBox="0 0 20 50" fill="none" xmlns="http://www.w3.org/2000/svg">
<path d="M261 79H45.2412C31.5054 79 20.3423 67.9182 20.2419 54.1827L20.2236 51.6799C20.1865 46.6098 18.2253 41.7431 14.7365 38.0641L0.761546 23.3272C-0.867593 21.6092 0.042093 18.7695 2.36623 18.3179L4.61564 17.8809C13.6459 16.1265 20.1659 8.21782 20.1659 -0.981327C20.1659 -14.2465 30.9195 -25 44.1846 -25H261C274.807 -25 286 -13.8071 286 1.90735e-06V54C286 67.8071 274.807 79 261 79Z" fill="url(#paint0_linear)"/>
<defs>
<linearGradient id="paint0_linear" x1="32.9999" y1="-25.0001" x2="302.792" y2="98.238" gradientUnits="userSpaceOnUse">
<stop offset="0.391211" stop-color="#0384CB"/>
<stop offset="1" stop-color="#85E48A"/>
</linearGradient>
</defs>
</svg>
