<svg width="180" height="43" viewBox="0 0 180 43" fill="none" xmlns="http://www.w3.org/2000/svg">
<path d="M24.8233 21.9933C25.1817 22.2046 25.4787 22.5057 25.6851 22.8669C25.8915 23.228 26 23.6368 26 24.0528C26 24.4688 25.8915 24.8776 25.6851 25.2388C25.4787 25.6 25.1817 25.9011 24.8233 26.1123L19.9312 28.9929L19.8422 28.8423L15.0527 24.0528L19.8422 19.2633L19.9312 19.1128L24.8233 21.9933Z" fill="#FFDF64"/>
<path d="M0.684132 38.4212L15.0526 24.0527L19.8421 28.8422L19.9311 28.9928L3.2431 38.8113C2.91003 39.003 2.53266 39.1044 2.14835 39.1055C1.86622 39.1055 1.58686 39.0499 1.32623 38.9419C1.0656 38.8339 0.828807 38.6756 0.629395 38.476L0.684132 38.4212Z" fill="#D74838"/>
<path d="M2.14835 9C2.53266 9.00106 2.91003 9.10248 3.2431 9.29421L19.9311 19.1127L19.8421 19.2632L15.0526 24.0527L0.684132 9.68421L0.629395 9.62948C0.828807 9.4299 1.0656 9.27159 1.32623 9.16358C1.58686 9.05557 1.86622 8.99998 2.14835 9Z" fill="#62D96E"/>
<path d="M0.684215 9.68413L15.0527 24.0526L0.684215 38.4212L0.629478 38.4759C0.429903 38.2765 0.271586 38.0397 0.163577 37.7791C0.0555668 37.5184 -1.78152e-05 37.2391 4.28313e-09 36.9569V11.1484C-1.78152e-05 10.8662 0.0555668 10.5869 0.163577 10.3262C0.271586 10.0656 0.429903 9.82881 0.629478 9.62939L0.684215 9.68413Z" fill="#01B5FF"/>
<path d="M50.76 37.24C49.768 37.24 48.824 37.08 47.928 36.76C47.048 36.424 46.272 35.912 45.6 35.224C44.944 34.52 44.416 33.632 44.016 32.56C43.632 31.488 43.44 30.208 43.44 28.72V28.24C43.44 26.8 43.632 25.56 44.016 24.52C44.416 23.48 44.944 22.624 45.6 21.952C46.272 21.28 47.048 20.784 47.928 20.464C48.824 20.128 49.768 19.96 50.76 19.96C51.576 19.96 52.336 20.08 53.04 20.32C53.744 20.544 54.376 20.872 54.936 21.304C55.496 21.736 55.968 22.264 56.352 22.888C56.752 23.512 57.048 24.216 57.24 25H54.84C54.488 23.944 53.936 23.176 53.184 22.696C52.432 22.216 51.624 21.976 50.76 21.976C50.104 21.976 49.48 22.088 48.888 22.312C48.296 22.536 47.768 22.896 47.304 23.392C46.856 23.872 46.496 24.512 46.224 25.312C45.968 26.112 45.84 27.088 45.84 28.24V28.72C45.84 29.936 45.984 30.96 46.272 31.792C46.56 32.608 46.936 33.272 47.4 33.784C47.88 34.296 48.408 34.664 48.984 34.888C49.576 35.112 50.168 35.224 50.76 35.224C52.088 35.224 53.168 34.848 54 34.096C54.832 33.344 55.312 32.112 55.44 30.4H51.24V28.48H57.6V29.2C57.6 30.496 57.44 31.648 57.12 32.656C56.8 33.648 56.344 34.488 55.752 35.176C55.176 35.848 54.464 36.36 53.616 36.712C52.768 37.064 51.816 37.24 50.76 37.24ZM66.1219 37.24C65.3059 37.24 64.5299 37.112 63.7939 36.856C63.0579 36.584 62.4099 36.184 61.8499 35.656C61.2899 35.112 60.8419 34.432 60.5059 33.616C60.1699 32.8 60.0019 31.848 60.0019 30.76V30.28C60.0019 29.256 60.1699 28.352 60.5059 27.568C60.8419 26.784 61.2899 26.136 61.8499 25.624C62.4099 25.096 63.0579 24.704 63.7939 24.448C64.5299 24.176 65.3059 24.04 66.1219 24.04C66.9379 24.04 67.7139 24.176 68.4499 24.448C69.1859 24.704 69.8339 25.096 70.3939 25.624C70.9539 26.136 71.4019 26.784 71.7379 27.568C72.0739 28.352 72.2419 29.256 72.2419 30.28V30.76C72.2419 31.848 72.0739 32.8 71.7379 33.616C71.4019 34.432 70.9539 35.112 70.3939 35.656C69.8339 36.184 69.1859 36.584 68.4499 36.856C67.7139 37.112 66.9379 37.24 66.1219 37.24ZM66.1219 35.32C66.6019 35.32 67.0819 35.24 67.5619 35.08C68.0419 34.904 68.4659 34.64 68.8339 34.288C69.2019 33.92 69.4979 33.448 69.7219 32.872C69.9619 32.296 70.0819 31.592 70.0819 30.76V30.28C70.0819 29.512 69.9619 28.856 69.7219 28.312C69.4979 27.768 69.2019 27.32 68.8339 26.968C68.4659 26.616 68.0419 26.36 67.5619 26.2C67.0819 26.04 66.6019 25.96 66.1219 25.96C65.6419 25.96 65.1619 26.04 64.6819 26.2C64.2019 26.36 63.7779 26.616 63.4099 26.968C63.0419 27.32 62.7379 27.768 62.4979 28.312C62.2739 28.856 62.1619 29.512 62.1619 30.28V30.76C62.1619 31.592 62.2739 32.296 62.4979 32.872C62.7379 33.448 63.0419 33.92 63.4099 34.288C63.7779 34.64 64.2019 34.904 64.6819 35.08C65.1619 35.24 65.6419 35.32 66.1219 35.32ZM80.5125 37.24C79.6965 37.24 78.9205 37.112 78.1845 36.856C77.4485 36.584 76.8005 36.184 76.2405 35.656C75.6805 35.112 75.2325 34.432 74.8965 33.616C74.5605 32.8 74.3925 31.848 74.3925 30.76V30.28C74.3925 29.256 74.5605 28.352 74.8965 27.568C75.2325 26.784 75.6805 26.136 76.2405 25.624C76.8005 25.096 77.4485 24.704 78.1845 24.448C78.9205 24.176 79.6965 24.04 80.5125 24.04C81.3285 24.04 82.1045 24.176 82.8405 24.448C83.5765 24.704 84.2245 25.096 84.7845 25.624C85.3445 26.136 85.7925 26.784 86.1285 27.568C86.4645 28.352 86.6325 29.256 86.6325 30.28V30.76C86.6325 31.848 86.4645 32.8 86.1285 33.616C85.7925 34.432 85.3445 35.112 84.7845 35.656C84.2245 36.184 83.5765 36.584 82.8405 36.856C82.1045 37.112 81.3285 37.24 80.5125 37.24ZM80.5125 35.32C80.9925 35.32 81.4725 35.24 81.9525 35.08C82.4325 34.904 82.8565 34.64 83.2245 34.288C83.5925 33.92 83.8885 33.448 84.1125 32.872C84.3525 32.296 84.4725 31.592 84.4725 30.76V30.28C84.4725 29.512 84.3525 28.856 84.1125 28.312C83.8885 27.768 83.5925 27.32 83.2245 26.968C82.8565 26.616 82.4325 26.36 81.9525 26.2C81.4725 26.04 80.9925 25.96 80.5125 25.96C80.0325 25.96 79.5525 26.04 79.0725 26.2C78.5925 26.36 78.1685 26.616 77.8005 26.968C77.4325 27.32 77.1285 27.768 76.8885 28.312C76.6645 28.856 76.5525 29.512 76.5525 30.28V30.76C76.5525 31.592 76.6645 32.296 76.8885 32.872C77.1285 33.448 77.4325 33.92 77.8005 34.288C78.1685 34.64 78.5925 34.904 79.0725 35.08C79.5525 35.24 80.0325 35.32 80.5125 35.32ZM94.6631 42.04C93.7351 42.04 92.9431 41.944 92.2871 41.752C91.6311 41.576 91.0871 41.328 90.6551 41.008C90.2391 40.688 89.9191 40.304 89.6951 39.856C89.4711 39.424 89.3271 38.952 89.2631 38.44H91.4711C91.5511 38.696 91.6631 38.928 91.8071 39.136C91.9511 39.344 92.1431 39.52 92.3831 39.664C92.6231 39.808 92.9271 39.92 93.2951 40C93.6791 40.08 94.1351 40.12 94.6631 40.12C95.9591 40.12 96.9111 39.808 97.5191 39.184C98.1271 38.56 98.4311 37.672 98.4311 36.52V34.48C98.0631 35.328 97.4951 35.96 96.7271 36.376C95.9751 36.792 95.0871 37 94.0631 37C93.2791 37 92.5591 36.864 91.9031 36.592C91.2631 36.32 90.7111 35.92 90.2471 35.392C89.7831 34.864 89.4231 34.208 89.1671 33.424C88.9111 32.624 88.7831 31.696 88.7831 30.64V30.16C88.7831 29.184 88.9111 28.32 89.1671 27.568C89.4391 26.8 89.8071 26.16 90.2711 25.648C90.7351 25.12 91.2871 24.72 91.9271 24.448C92.5831 24.176 93.2951 24.04 94.0631 24.04C95.1511 24.04 96.0951 24.288 96.8951 24.784C97.6951 25.264 98.2551 25.896 98.5751 26.68V24.28H100.543V36.52C100.543 38.248 100.039 39.6 99.0311 40.576C98.0231 41.552 96.5671 42.04 94.6631 42.04ZM94.5431 35.128C95.1191 35.128 95.6471 35.04 96.1271 34.864C96.6071 34.672 97.0151 34.408 97.3511 34.072C97.6871 33.736 97.9511 33.336 98.1431 32.872C98.3351 32.408 98.4311 31.904 98.4311 31.36V29.44C98.4311 28.96 98.3351 28.504 98.1431 28.072C97.9511 27.64 97.6871 27.264 97.3511 26.944C97.0151 26.624 96.6071 26.376 96.1271 26.2C95.6471 26.008 95.1191 25.912 94.5431 25.912C94.0311 25.912 93.5511 26.008 93.1031 26.2C92.6551 26.392 92.2631 26.672 91.9271 27.04C91.6071 27.408 91.3511 27.856 91.1591 28.384C90.9831 28.896 90.8951 29.488 90.8951 30.16V30.64C90.8951 31.36 90.9831 32 91.1591 32.56C91.3511 33.12 91.6071 33.592 91.9271 33.976C92.2631 34.36 92.6551 34.648 93.1031 34.84C93.5511 35.032 94.0311 35.128 94.5431 35.128ZM108.229 37.12C106.901 37.12 105.949 36.8 105.373 36.16C104.797 35.52 104.509 34.48 104.509 33.04V20.2H106.621V33.04C106.621 33.872 106.757 34.44 107.029 34.744C107.301 35.048 107.781 35.2 108.469 35.2C108.645 35.2 108.797 35.2 108.925 35.2C109.053 35.184 109.181 35.168 109.309 35.152V37.024C109.181 37.056 108.997 37.08 108.757 37.096C108.533 37.112 108.357 37.12 108.229 37.12ZM117.122 37.24C116.306 37.24 115.53 37.112 114.794 36.856C114.058 36.6 113.41 36.208 112.85 35.68C112.29 35.136 111.842 34.456 111.506 33.64C111.17 32.824 111.002 31.864 111.002 30.76V30.28C111.002 29.224 111.162 28.312 111.482 27.544C111.802 26.76 112.226 26.112 112.754 25.6C113.298 25.072 113.922 24.68 114.626 24.424C115.346 24.168 116.098 24.04 116.882 24.04C118.754 24.04 120.202 24.552 121.226 25.576C122.25 26.6 122.762 28.048 122.762 29.92V31.264H113.114C113.114 32.016 113.234 32.648 113.474 33.16C113.714 33.672 114.026 34.088 114.41 34.408C114.794 34.728 115.218 34.96 115.682 35.104C116.162 35.248 116.642 35.32 117.122 35.32C118.082 35.32 118.818 35.16 119.33 34.84C119.858 34.52 120.234 34.08 120.458 33.52H122.522C122.394 34.128 122.162 34.664 121.826 35.128C121.506 35.592 121.106 35.984 120.626 36.304C120.162 36.608 119.626 36.84 119.018 37C118.426 37.16 117.794 37.24 117.122 37.24ZM117.002 25.96C116.506 25.96 116.026 26.032 115.562 26.176C115.098 26.304 114.682 26.52 114.314 26.824C113.962 27.112 113.674 27.48 113.45 27.928C113.226 28.376 113.114 28.912 113.114 29.536H120.77C120.754 28.88 120.642 28.328 120.434 27.88C120.242 27.416 119.978 27.048 119.642 26.776C119.306 26.488 118.906 26.28 118.442 26.152C117.994 26.024 117.514 25.96 117.002 25.96ZM132.244 20.2H138.004C139.108 20.2 140.068 20.328 140.884 20.584C141.7 20.84 142.372 21.2 142.9 21.664C143.444 22.112 143.844 22.656 144.1 23.296C144.356 23.92 144.484 24.608 144.484 25.36C144.484 26.112 144.356 26.808 144.1 27.448C143.844 28.072 143.444 28.616 142.9 29.08C142.372 29.528 141.7 29.88 140.884 30.136C140.068 30.392 139.108 30.52 138.004 30.52H134.5V37H132.244V20.2ZM137.884 28.552C138.684 28.552 139.356 28.48 139.9 28.336C140.46 28.176 140.908 27.96 141.244 27.688C141.596 27.416 141.844 27.08 141.988 26.68C142.148 26.28 142.228 25.84 142.228 25.36C142.228 24.88 142.148 24.44 141.988 24.04C141.844 23.64 141.596 23.304 141.244 23.032C140.908 22.76 140.46 22.552 139.9 22.408C139.356 22.248 138.684 22.168 137.884 22.168H134.5V28.552H137.884ZM151.33 37.12C150.002 37.12 149.05 36.8 148.474 36.16C147.898 35.52 147.61 34.48 147.61 33.04V20.2H149.722V33.04C149.722 33.872 149.858 34.44 150.13 34.744C150.402 35.048 150.882 35.2 151.57 35.2C151.746 35.2 151.898 35.2 152.026 35.2C152.154 35.184 152.282 35.168 152.41 35.152V37.024C152.282 37.056 152.098 37.08 151.858 37.096C151.634 37.112 151.458 37.12 151.33 37.12ZM158.802 37.24C158.098 37.24 157.474 37.144 156.93 36.952C156.402 36.744 155.954 36.464 155.586 36.112C155.218 35.76 154.938 35.344 154.746 34.864C154.554 34.384 154.458 33.856 154.458 33.28C154.458 32.016 154.826 31.104 155.562 30.544C156.314 29.984 157.386 29.704 158.778 29.704H162.906V28.84C162.906 27.752 162.658 27 162.162 26.584C161.682 26.168 160.954 25.96 159.978 25.96C159.066 25.96 158.402 26.136 157.986 26.488C157.57 26.824 157.338 27.208 157.29 27.64H155.178C155.21 27.128 155.346 26.656 155.586 26.224C155.842 25.776 156.178 25.392 156.594 25.072C157.026 24.752 157.538 24.504 158.13 24.328C158.722 24.136 159.378 24.04 160.098 24.04C161.602 24.04 162.794 24.4 163.674 25.12C164.57 25.824 165.018 26.984 165.018 28.6V33.76C165.018 34.432 165.018 35.024 165.018 35.536C165.034 36.032 165.074 36.52 165.138 37H163.29C163.242 36.632 163.21 36.288 163.194 35.968C163.178 35.632 163.17 35.256 163.17 34.84C162.834 35.512 162.29 36.08 161.538 36.544C160.786 37.008 159.874 37.24 158.802 37.24ZM159.258 35.32C159.754 35.32 160.218 35.256 160.65 35.128C161.098 34.984 161.49 34.784 161.826 34.528C162.162 34.256 162.426 33.928 162.618 33.544C162.81 33.16 162.906 32.712 162.906 32.2V31.336H159.138C158.354 31.336 157.738 31.496 157.29 31.816C156.842 32.12 156.618 32.608 156.618 33.28C156.618 33.872 156.826 34.36 157.242 34.744C157.674 35.128 158.346 35.32 159.258 35.32ZM169.959 42.04C169.719 42.04 169.479 42.016 169.239 41.968V40.048C169.479 40.096 169.719 40.12 169.959 40.12C170.199 40.12 170.407 40.08 170.583 40C170.759 39.92 170.927 39.768 171.087 39.544C171.247 39.32 171.415 39 171.591 38.584C171.783 38.184 171.999 37.656 172.239 37L166.839 24.28H169.191L173.319 34.6L177.063 24.28H179.319L174.519 37C174.183 37.896 173.863 38.664 173.559 39.304C173.255 39.944 172.927 40.464 172.575 40.864C172.239 41.28 171.863 41.576 171.447 41.752C171.031 41.944 170.535 42.04 169.959 42.04Z" fill="white"/>
<path d="M50.24 11.016H51.14C51.292 10.712 51.42 10.336 51.524 9.888C51.628 9.44 51.708 8.96 51.764 8.448C51.82 7.928 51.86 7.396 51.884 6.852C51.908 6.3 51.92 5.776 51.92 5.28V3.6H57.38V11.016H58.4V13.56H57.32V12H51.32V13.56H50.24V11.016ZM56.252 11.016V4.584H53.024V5.52C53.024 6.736 52.968 7.788 52.856 8.676C52.752 9.564 52.58 10.344 52.34 11.016H56.252ZM62.2484 12.12C61.8404 12.12 61.4524 12.056 61.0844 11.928C60.7164 11.792 60.3924 11.592 60.1124 11.328C59.8324 11.056 59.6084 10.716 59.4404 10.308C59.2724 9.9 59.1884 9.424 59.1884 8.88V8.64C59.1884 8.128 59.2724 7.676 59.4404 7.284C59.6084 6.892 59.8324 6.568 60.1124 6.312C60.3924 6.048 60.7164 5.852 61.0844 5.724C61.4524 5.588 61.8404 5.52 62.2484 5.52C62.6564 5.52 63.0444 5.588 63.4124 5.724C63.7804 5.852 64.1044 6.048 64.3844 6.312C64.6644 6.568 64.8884 6.892 65.0564 7.284C65.2244 7.676 65.3084 8.128 65.3084 8.64V8.88C65.3084 9.424 65.2244 9.9 65.0564 10.308C64.8884 10.716 64.6644 11.056 64.3844 11.328C64.1044 11.592 63.7804 11.792 63.4124 11.928C63.0444 12.056 62.6564 12.12 62.2484 12.12ZM62.2484 11.16C62.4884 11.16 62.7284 11.12 62.9684 11.04C63.2084 10.952 63.4204 10.82 63.6044 10.644C63.7884 10.46 63.9364 10.224 64.0484 9.936C64.1684 9.648 64.2284 9.296 64.2284 8.88V8.64C64.2284 8.256 64.1684 7.928 64.0484 7.656C63.9364 7.384 63.7884 7.16 63.6044 6.984C63.4204 6.808 63.2084 6.68 62.9684 6.6C62.7284 6.52 62.4884 6.48 62.2484 6.48C62.0084 6.48 61.7684 6.52 61.5284 6.6C61.2884 6.68 61.0764 6.808 60.8924 6.984C60.7084 7.16 60.5564 7.384 60.4364 7.656C60.3244 7.928 60.2684 8.256 60.2684 8.64V8.88C60.2684 9.296 60.3244 9.648 60.4364 9.936C60.5564 10.224 60.7084 10.46 60.8924 10.644C61.0764 10.82 61.2884 10.952 61.5284 11.04C61.7684 11.12 62.0084 11.16 62.2484 11.16ZM69.2638 12.12C68.8558 12.12 68.4758 12.056 68.1238 11.928C67.7718 11.792 67.4678 11.592 67.2118 11.328C66.9558 11.056 66.7518 10.716 66.5998 10.308C66.4558 9.9 66.3838 9.424 66.3838 8.88V8.64C66.3838 8.128 66.4638 7.676 66.6238 7.284C66.7838 6.892 66.9958 6.568 67.2598 6.312C67.5238 6.048 67.8278 5.852 68.1718 5.724C68.5238 5.588 68.8878 5.52 69.2638 5.52C69.6398 5.52 69.9758 5.572 70.2718 5.676C70.5758 5.78 70.8358 5.924 71.0518 6.108C71.2758 6.292 71.4558 6.508 71.5918 6.756C71.7358 7.004 71.8398 7.272 71.9037 7.56H70.8238C70.7598 7.408 70.6838 7.268 70.5958 7.14C70.5158 7.004 70.4118 6.888 70.2838 6.792C70.1638 6.696 70.0198 6.62 69.8518 6.564C69.6838 6.508 69.4878 6.48 69.2638 6.48C69.0318 6.48 68.8078 6.524 68.5918 6.612C68.3758 6.692 68.1838 6.82 68.0158 6.996C67.8478 7.164 67.7118 7.384 67.6077 7.656C67.5118 7.928 67.4638 8.256 67.4638 8.64V8.88C67.4638 9.288 67.5118 9.64 67.6077 9.936C67.7118 10.224 67.8478 10.46 68.0158 10.644C68.1838 10.82 68.3758 10.952 68.5918 11.04C68.8078 11.12 69.0318 11.16 69.2638 11.16C69.6558 11.16 69.9838 11.064 70.2478 10.872C70.5198 10.68 70.7118 10.416 70.8238 10.08H71.9037C71.7518 10.712 71.4398 11.212 70.9678 11.58C70.4958 11.94 69.9278 12.12 69.2638 12.12ZM74.7948 6.576H72.6228V5.64H78.0228V6.576H75.8508V12H74.7948V6.576ZM80.3 14.52C80.18 14.52 80.06 14.508 79.94 14.484V13.524C80.06 13.548 80.18 13.56 80.3 13.56C80.42 13.56 80.524 13.54 80.612 13.5C80.7 13.46 80.784 13.384 80.864 13.272C80.944 13.16 81.028 13 81.116 12.792C81.212 12.592 81.32 12.328 81.44 12L78.74 5.64H79.916L81.98 10.8L83.852 5.64H84.98L82.58 12C82.412 12.448 82.252 12.832 82.1 13.152C81.948 13.472 81.784 13.732 81.608 13.932C81.44 14.14 81.252 14.288 81.044 14.376C80.836 14.472 80.588 14.52 80.3 14.52ZM86.1748 5.64H91.4548V12H90.3988V6.576H87.2308V12H86.1748V5.64ZM93.3702 5.64H94.4262V8.292H97.7142V5.64H98.7702V12H97.7142V9.228H94.4262V12H93.3702V5.64ZM103.334 12.12C102.926 12.12 102.538 12.056 102.17 11.928C101.802 11.792 101.478 11.592 101.198 11.328C100.918 11.056 100.694 10.716 100.526 10.308C100.358 9.9 100.274 9.424 100.274 8.88V8.64C100.274 8.128 100.358 7.676 100.526 7.284C100.694 6.892 100.918 6.568 101.198 6.312C101.478 6.048 101.802 5.852 102.17 5.724C102.538 5.588 102.926 5.52 103.334 5.52C103.742 5.52 104.13 5.588 104.498 5.724C104.866 5.852 105.19 6.048 105.47 6.312C105.75 6.568 105.974 6.892 106.142 7.284C106.31 7.676 106.394 8.128 106.394 8.64V8.88C106.394 9.424 106.31 9.9 106.142 10.308C105.974 10.716 105.75 11.056 105.47 11.328C105.19 11.592 104.866 11.792 104.498 11.928C104.13 12.056 103.742 12.12 103.334 12.12ZM103.334 11.16C103.574 11.16 103.814 11.12 104.054 11.04C104.294 10.952 104.506 10.82 104.69 10.644C104.874 10.46 105.022 10.224 105.134 9.936C105.254 9.648 105.314 9.296 105.314 8.88V8.64C105.314 8.256 105.254 7.928 105.134 7.656C105.022 7.384 104.874 7.16 104.69 6.984C104.506 6.808 104.294 6.68 104.054 6.6C103.814 6.52 103.574 6.48 103.334 6.48C103.094 6.48 102.854 6.52 102.614 6.6C102.374 6.68 102.162 6.808 101.978 6.984C101.794 7.16 101.642 7.384 101.522 7.656C101.41 7.928 101.354 8.256 101.354 8.64V8.88C101.354 9.296 101.41 9.648 101.522 9.936C101.642 10.224 101.794 10.46 101.978 10.644C102.162 10.82 102.374 10.952 102.614 11.04C102.854 11.12 103.094 11.16 103.334 11.16ZM110.89 5.64H113.65C114.434 5.64 115.01 5.804 115.378 6.132C115.746 6.452 115.93 6.868 115.93 7.38C115.93 7.516 115.906 7.656 115.858 7.8C115.81 7.936 115.742 8.064 115.654 8.184C115.574 8.304 115.474 8.408 115.354 8.496C115.242 8.584 115.114 8.652 114.97 8.7C115.362 8.796 115.658 8.98 115.858 9.252C116.066 9.516 116.17 9.828 116.17 10.188C116.17 10.74 115.986 11.18 115.618 11.508C115.25 11.836 114.674 12 113.89 12H110.89V5.64ZM113.89 11.064C114.338 11.064 114.654 10.984 114.838 10.824C115.022 10.664 115.114 10.436 115.114 10.14C115.114 9.836 115.022 9.604 114.838 9.444C114.654 9.276 114.338 9.192 113.89 9.192H111.946V11.064H113.89ZM113.65 8.328C114.106 8.328 114.422 8.248 114.598 8.088C114.782 7.928 114.874 7.708 114.874 7.428C114.874 7.164 114.782 6.956 114.598 6.804C114.422 6.652 114.106 6.576 113.65 6.576H111.946V8.328H113.65Z" fill="white"/>
</svg>
