<svg width="32" height="32" viewBox="0 0 32 32" fill="none" xmlns="http://www.w3.org/2000/svg">
<g clip-path="url(#clip0)">
<path d="M6.98447 0.511767C5.73254 -0.180194 4.26263 -0.164195 3.0187 0.521767L17.5979 13.971L22.4956 9.07329L6.98447 0.511767ZM1.56078 1.89769C1.2048 2.47966 1.00081 3.14562 1.00081 3.85158V28.1422C1.00081 28.8262 1.1868 29.4781 1.52278 30.0481L16.184 15.3869L1.56078 1.89769ZM28.9892 12.6571L24.3175 10.0792L19.0678 15.3269L25.5014 21.2606L28.9912 19.3347C30.2472 18.6387 30.9991 17.3908 30.9991 15.9949C30.9971 14.599 30.2472 13.351 28.9892 12.6571ZM17.6539 16.7429L2.9527 31.444C3.59067 31.808 4.29063 32 4.99459 32C5.67455 32 6.35851 31.828 6.98447 31.482L23.6575 22.2805L17.6539 16.7429Z" fill="white"/>
</g>
<defs>
<clipPath id="clip0">
<rect width="32" height="32" fill="white"/>
</clipPath>
</defs>
</svg>
