<svg width="30" height="30" viewBox="0 0 30 30" fill="none" xmlns="http://www.w3.org/2000/svg">
<path d="M5.984 0.479782C4.732 -0.168932 3.262 -0.153933 2.018 0.489156L16.598 13.0978L21.496 8.50621L5.984 0.479782ZM0.56 1.77908C0.204 2.32468 0 2.94902 0 3.61086V26.3833C0 27.0245 0.186 27.6358 0.522 28.1701L15.184 14.4252L0.56 1.77908ZM27.99 11.866L23.318 9.44928L18.068 14.369L24.502 19.9318L27.992 18.1263C29.248 17.4738 30 16.3039 30 14.9952C29.998 13.6865 29.248 12.5166 27.99 11.866ZM16.654 15.6964L1.952 29.4788C2.59 29.82 3.29 30 3.994 30C4.674 30 5.358 29.8388 5.984 29.5144L22.658 20.888L16.654 15.6964Z" fill="url(#paint0_linear)"/>
<defs>
<linearGradient id="paint0_linear" x1="15" y1="0" x2="15" y2="30" gradientUnits="userSpaceOnUse">
<stop stop-color="#1E3CAE"/>
<stop offset="1" stop-color="#007FC5"/>
</linearGradient>
</defs>
</svg>
