<svg width="124" height="75" viewBox="0 0 124 75" fill="none" xmlns="http://www.w3.org/2000/svg">
<rect x="0.5" y="9.5" width="123" height="65" fill="white" stroke="#2C4295"/>
<rect x="3" y="43" width="118" height="29" fill="#F0F2F5"/>
<rect x="3" y="54" width="18" height="18" fill="white"/>
<rect x="103" y="54" width="19" height="19" fill="white"/>
<rect x="0.5" y="9.5" width="19" height="19" fill="white" stroke="#2C4295"/>
<rect x="0.5" y="55.5" width="19" height="19" fill="white" stroke="#2C4295"/>
<rect x="26.5" y="36.5" width="11" height="11" fill="#2C4295" stroke="white"/>
<rect x="86.5" y="36.5" width="11" height="11" fill="#2C4295" stroke="white"/>
<rect x="104.5" y="9.5" width="19" height="19" fill="white" stroke="#2C4295"/>
<rect x="104.5" y="55.5" width="19" height="19" fill="white" stroke="#2C4295"/>
<rect x="22" y="13" width="80" height="3" fill="#F0F2F5"/>
<rect x="12.5" y="0.5" width="99" height="3" fill="#2C4295" stroke="white"/>
<rect x="8.5" y="2.5" width="107" height="3" fill="#2C4295" stroke="white"/>
<rect x="4.5" y="4.5" width="115" height="3" fill="#2C4295" stroke="white"/>
<g filter="url(#filter0_d)">
<circle cx="62" cy="42" r="18" fill="white"/>
<circle cx="62" cy="42" r="17" stroke="#2C4295" stroke-width="2"/>
</g>
<defs>
<filter id="filter0_d" x="44" y="24" width="36" height="37" filterUnits="userSpaceOnUse" color-interpolation-filters="sRGB">
<feFlood flood-opacity="0" result="BackgroundImageFix"/>
<feColorMatrix in="SourceAlpha" type="matrix" values="0 0 0 0 0 0 0 0 0 0 0 0 0 0 0 0 0 0 127 0"/>
<feOffset dy="1"/>
<feColorMatrix type="matrix" values="0 0 0 0 1 0 0 0 0 1 0 0 0 0 1 0 0 0 1 0"/>
<feBlend mode="normal" in2="BackgroundImageFix" result="effect1_dropShadow"/>
<feBlend mode="normal" in="SourceGraphic" in2="effect1_dropShadow" result="shape"/>
</filter>
</defs>
</svg>
