<svg width="80" height="98" viewBox="0 0 80 98" fill="none" xmlns="http://www.w3.org/2000/svg">
<rect x="4.5" y="6.5" width="36" height="33" fill="white" stroke="#2C4295"/>
<rect x="21" y="9" width="17" height="29" fill="#F0F2F5"/>
<path d="M4.5 39.5L40.5 39.5L40.5 96.0797L4.5 72.7284L4.5 39.5Z" fill="white" stroke="#2C4295"/>
<rect x="40.5" y="6.5" width="36" height="33" fill="white" stroke="#2C4295"/>
<rect x="43" y="9" width="17" height="29" fill="#F0F2F5"/>
<path d="M40.5 39.5L76.5 39.5L76.5 72.7284L40.5 96.0797L40.5 39.5Z" fill="white" stroke="#2C4295"/>
<path d="M43 42H60L60 77.6923L43 90L43 42Z" fill="#F0F2F5"/>
<path d="M38 42H21L21 78.4359L38 91L38 42Z" fill="#F0F2F5"/>
<path d="M15 72L15 39.2557L21.5 29.7692L28 39.2557L28 72H15Z" fill="white" stroke="#2C4295" stroke-width="2"/>
<rect x="1.5" y="3.5" width="78" height="3" fill="#2C4295" stroke="white"/>
<path d="M21 32.5L26 40V70H21V32.5Z" fill="#F0F2F5"/>
<rect x="8.5" y="72.5" width="26" height="3" fill="#2C4295" stroke="white"/>
<rect x="16.5" y="75.5" width="10" height="3" fill="#2C4295" stroke="white"/>
<rect x="16.5" y="79.5" width="10" height="3" fill="#2C4295" stroke="white"/>
<rect x="16.5" y="83.5" width="10" height="3" fill="#2C4295" stroke="white"/>
<rect x="16.5" y="87.5" width="10" height="3" fill="#2C4295" stroke="white"/>
<circle cx="21.5" cy="92.5" r="4.5" fill="white" stroke="#2C4295" stroke-width="2"/>
</svg>
