<svg width="16" height="16" viewBox="0 0 16 16" fill="none" xmlns="http://www.w3.org/2000/svg">
<path fill-rule="evenodd" clip-rule="evenodd" d="M13.6562 0H2.34375C1.05151 0 0 1.05151 0 2.34375V13.6562C0 14.9485 1.05151 16 2.34375 16H13.6562C14.9485 16 16 14.9485 16 13.6562V2.34375C16 1.05151 14.9485 0 13.6562 0ZM12 4C12 3.44818 12.4482 3 13 3C13.5518 3 14 3.44818 14 4C14 4.55182 13.5518 5 13 5C12.4482 5 12 4.55182 12 4ZM4 8C4 5.79464 5.79464 4 8 4C10.2054 4 12 5.79464 12 8C12 10.2054 10.2054 12 8 12C5.79464 12 4 10.2054 4 8Z" fill="white"/>
</svg>
