<svg width="17" height="17" viewBox="0 0 17 17" fill="none" xmlns="http://www.w3.org/2000/svg">
<path fill-rule="evenodd" clip-rule="evenodd" d="M13.7679 0.987061H2.45544C1.16321 0.987061 0.111694 2.03857 0.111694 3.33081V14.6433C0.111694 15.9355 1.16321 16.9871 2.45544 16.9871H13.7679C15.0602 16.9871 16.1117 15.9355 16.1117 14.6433V3.33081C16.1117 2.03857 15.0602 0.987061 13.7679 0.987061ZM12.1117 4.98706C12.1117 4.43524 12.5599 3.98706 13.1117 3.98706C13.6635 3.98706 14.1117 4.43524 14.1117 4.98706C14.1117 5.53888 13.6635 5.98706 13.1117 5.98706C12.5599 5.98706 12.1117 5.53888 12.1117 4.98706ZM4.11169 8.98706C4.11169 6.7817 5.90634 4.98706 8.11169 4.98706C10.3171 4.98706 12.1117 6.7817 12.1117 8.98706C12.1117 11.1924 10.3171 12.9871 8.11169 12.9871C5.90634 12.9871 4.11169 11.1924 4.11169 8.98706Z" fill="white"/>
</svg>
