<svg width="105" height="117" viewBox="0 0 105 117" fill="none" xmlns="http://www.w3.org/2000/svg">
<path d="M8.5 30C8.5 25.8579 11.8579 22.5 16 22.5H76C80.1421 22.5 83.5 25.8579 83.5 30V116.5H8.5V30Z" fill="white" stroke="#2C4295"/>
<path d="M46 25H81V115H46V25Z" fill="#F0F2F5"/>
<rect x="56.5" y="68.5" width="8" height="8" fill="white" stroke="#2C4295"/>
<rect x="56.5" y="54.5" width="8" height="8" fill="white" stroke="#2C4295"/>
<rect x="42.5" y="82.5" width="8" height="8" fill="white" stroke="#2C4295"/>
<rect x="42.5" y="68.5" width="8" height="8" fill="white" stroke="#2C4295"/>
<rect x="42.5" y="54.5" width="8" height="8" fill="white" stroke="#2C4295"/>
<rect x="28.5" y="68.5" width="8" height="8" fill="white" stroke="#2C4295"/>
<rect x="28.5" y="54.5" width="8" height="8" fill="white" stroke="#2C4295"/>
<rect x="36.5" y="28.5" width="20" height="4" fill="#2C4295" stroke="white"/>
<rect x="30.5" y="28.5" width="4" height="4" fill="#2C4295" stroke="white"/>
<rect x="36.5" y="96.5" width="20" height="11" fill="#2C4295" stroke="white"/>
<rect x="0.5" y="113.5" width="91" height="3" fill="#2C4295" stroke="white"/>
<circle cx="83" cy="22" r="21" fill="#2C4295" stroke="white" stroke-width="2"/>
<path d="M76.9991 28.152L83.7191 22.32C84.2311 21.888 84.6471 21.496 84.9671 21.144C85.3031 20.792 85.5671 20.464 85.7591 20.16C85.9511 19.84 86.0791 19.528 86.1431 19.224C86.2231 18.92 86.2631 18.592 86.2631 18.24C86.2631 17.296 85.9831 16.52 85.4231 15.912C84.8631 15.288 84.0951 14.976 83.1191 14.976C81.9511 14.976 81.0551 15.296 80.4311 15.936C79.8071 16.56 79.4951 17.448 79.4951 18.6H77.2391C77.2391 17.784 77.3751 17.032 77.6471 16.344C77.9351 15.64 78.3351 15.04 78.8471 14.544C79.3751 14.048 79.9991 13.664 80.7191 13.392C81.4391 13.104 82.2391 12.96 83.1191 12.96C83.9671 12.96 84.7271 13.096 85.3991 13.368C86.0711 13.624 86.6391 13.992 87.1031 14.472C87.5671 14.936 87.9191 15.488 88.1591 16.128C88.3991 16.768 88.5191 17.472 88.5191 18.24C88.5191 18.816 88.4311 19.352 88.2551 19.848C88.0791 20.344 87.8311 20.816 87.5111 21.264C87.2071 21.712 86.8311 22.152 86.3831 22.584C85.9511 23 85.4711 23.432 84.9431 23.88L79.9271 28.032H88.7591V30H76.9991V28.152Z" fill="white"/>
</svg>
