<svg width="105" height="117" viewBox="0 0 105 117" fill="none" xmlns="http://www.w3.org/2000/svg">
<path d="M8.5 30C8.5 25.8579 11.8579 22.5 16 22.5H76C80.1421 22.5 83.5 25.8579 83.5 30V113C83.5 114.933 81.933 116.5 80 116.5H12C10.067 116.5 8.5 114.933 8.5 113V30Z" fill="white" stroke="#2C4295"/>
<path d="M45 25H79C80.1046 25 81 25.8954 81 27V113C81 114.105 80.1046 115 79 115H45V25Z" fill="#F0F2F5"/>
<rect x="0.5" y="113.5" width="91" height="3" fill="#2C4295" stroke="white"/>
<path d="M26.5029 99.5C19.5037 94.5 28.0018 93.5 28.0018 93.5L27.5018 102.5L30.5018 98L31.5018 101L34.0018 99L36.0018 101L38.0018 96.5L39.0018 103.5C39.1684 102 40.5018 99 44.5018 99" stroke="#2C4295"/>
<rect x="57.5" y="88.5" width="17" height="17" rx="8.5" fill="white" stroke="#2C4295"/>
<rect x="59.5" y="90.5" width="13" height="13" rx="6.5" fill="white" stroke="#2C4295"/>
<rect x="18.5" y="82.5" width="40" height="2" fill="#2C4295" stroke="white"/>
<rect x="18.5" y="78.5" width="40" height="2" fill="#2C4295" stroke="white"/>
<rect x="18.5" y="65.5" width="40" height="2" fill="#2C4295" stroke="white"/>
<rect x="18.5" y="60.5" width="40" height="2" fill="#2C4295" stroke="white"/>
<rect x="18.5" y="55.5" width="40" height="2" fill="#2C4295" stroke="white"/>
<rect x="18.5" y="39.5" width="24" height="4" fill="#2C4295" stroke="white"/>
<rect x="18.5" y="33.5" width="37" height="4" fill="#2C4295" stroke="white"/>
<circle cx="83" cy="22" r="21" fill="#2C4295" stroke="white" stroke-width="2"/>
<path d="M83.3205 30.24C82.4085 30.24 81.5925 30.12 80.8725 29.88C80.1685 29.624 79.5685 29.28 79.0725 28.848C78.5765 28.416 78.2005 27.912 77.9445 27.336C77.6885 26.744 77.5605 26.112 77.5605 25.44H79.8165C79.8165 26.256 80.0965 26.928 80.6565 27.456C81.2165 27.968 82.1045 28.224 83.3205 28.224C84.5365 28.224 85.4245 27.96 85.9845 27.432C86.5445 26.888 86.8245 26.184 86.8245 25.32C86.8245 24.424 86.5365 23.704 85.9605 23.16C85.4005 22.6 84.5205 22.32 83.3205 22.32H81.5205V20.4H83.3205C84.4725 20.4 85.3045 20.16 85.8165 19.68C86.3285 19.184 86.5845 18.504 86.5845 17.64C86.5845 16.808 86.3365 16.16 85.8405 15.696C85.3445 15.216 84.5045 14.976 83.3205 14.976C82.1845 14.976 81.3525 15.224 80.8245 15.72C80.3125 16.2 80.0565 16.8 80.0565 17.52H77.8005C77.8005 16.896 77.9205 16.304 78.1605 15.744C78.4165 15.184 78.7765 14.704 79.2405 14.304C79.7205 13.888 80.2965 13.56 80.9685 13.32C81.6565 13.08 82.4405 12.96 83.3205 12.96C84.2005 12.96 84.9845 13.08 85.6725 13.32C86.3605 13.56 86.9365 13.88 87.4005 14.28C87.8805 14.68 88.2405 15.152 88.4805 15.696C88.7205 16.24 88.8405 16.808 88.8405 17.4C88.8405 18.36 88.5845 19.176 88.0725 19.848C87.5765 20.504 86.8725 20.968 85.9605 21.24C86.9205 21.544 87.6805 22.04 88.2405 22.728C88.8005 23.416 89.0805 24.36 89.0805 25.56C89.0805 26.2 88.9525 26.808 88.6965 27.384C88.4405 27.944 88.0645 28.44 87.5685 28.872C87.0885 29.288 86.4885 29.624 85.7685 29.88C85.0485 30.12 84.2325 30.24 83.3205 30.24Z" fill="white"/>
</svg>
