<svg width="192" height="609" viewBox="0 0 192 609" fill="none" xmlns="http://www.w3.org/2000/svg">
<g clip-path="url(#clip0)">
<rect width="1440" height="14335" transform="translate(-659 -3671)" fill="#F0F2F5"/>
<path fill-rule="evenodd" clip-rule="evenodd" d="M170.059 3.41188L36.1863 297.207C30.1516 310.451 39.8321 325.5 54.3859 325.5H88.2007C102.458 325.5 112.137 339.992 106.675 353.162L0.570984 609H-734.499L-719.206 -1H170.794L170.059 3.41188Z" fill="#F0F2F5"/>
<path d="M36.1863 297.207L37.0963 297.622L37.0963 297.622L36.1863 297.207ZM170.059 3.41188L170.969 3.82652L171.024 3.70644L171.045 3.57627L170.059 3.41188ZM106.675 353.162L107.599 353.545L107.599 353.545L106.675 353.162ZM0.570984 609V610H1.23884L1.49469 609.383L0.570984 609ZM-734.499 609L-735.498 608.975L-735.524 610H-734.499V609ZM-719.206 -1V-2H-720.181L-720.206 -1.02506L-719.206 -1ZM170.794 -1L171.781 -0.835606L171.975 -2H170.794V-1ZM37.0963 297.622L170.969 3.82652L169.149 2.99723L35.2763 296.792L37.0963 297.622ZM54.3859 324.5C40.5598 324.5 31.3633 310.203 37.0963 297.622L35.2763 296.792C28.9398 310.698 39.1044 326.5 54.3859 326.5V324.5ZM88.2007 324.5H54.3859V326.5H88.2007V324.5ZM107.599 353.545C113.334 339.717 103.171 324.5 88.2007 324.5V326.5C101.745 326.5 110.94 340.267 105.751 352.779L107.599 353.545ZM1.49469 609.383L107.599 353.545L105.751 352.779L-0.352727 608.617L1.49469 609.383ZM-734.499 610H0.570984V608H-734.499V610ZM-720.206 -1.02506L-735.498 608.975L-733.499 609.025L-718.206 -0.974938L-720.206 -1.02506ZM170.794 -2H-719.206V0H170.794V-2ZM171.045 3.57627L171.781 -0.835606L169.808 -1.16439L169.072 3.24748L171.045 3.57627Z" fill="white"/>
</g>
<defs>
<clipPath id="clip0">
<rect width="1440" height="14335" fill="white" transform="translate(-659 -3671)"/>
</clipPath>
</defs>
</svg>
