<svg width="200" height="242" viewBox="0 0 200 242" fill="none" xmlns="http://www.w3.org/2000/svg">
<path fill-rule="evenodd" clip-rule="evenodd" d="M66.5165 -45.6815C69.3753 -56.3508 80.3421 -62.6825 91.0114 -59.8236L197.263 -31.3535C207.933 -28.4947 214.264 -17.5279 211.405 -6.85863L150.065 222.066C147.206 232.735 136.24 239.067 125.57 236.208L19.3185 207.738C8.64919 204.879 2.31754 193.912 5.17638 183.243L66.5165 -45.6815ZM76.6269 206.364C86.6776 209.057 97.0086 203.093 99.7017 193.042C102.395 182.991 96.4302 172.66 86.3794 169.967C76.3287 167.274 65.9977 173.238 63.3046 183.289C60.6115 193.34 66.5761 203.671 76.6269 206.364ZM77.7407 202.207C85.4957 204.285 93.467 199.683 95.5449 191.928C97.6229 184.173 93.0207 176.202 85.2656 174.124C77.5106 172.046 69.5394 176.648 67.4614 184.403C65.3834 192.158 69.9856 200.129 77.7407 202.207ZM106.672 -39.063C105.872 -39.2774 105.049 -38.8026 104.835 -38.0024C104.62 -37.2022 105.095 -36.3797 105.895 -36.1652L173.51 -18.0479C174.31 -17.8335 175.133 -18.3084 175.347 -19.1086C175.562 -19.9088 175.087 -20.7313 174.287 -20.9457L106.672 -39.063Z" fill="url(#paint0_linear)"/>
<defs>
<linearGradient id="paint0_linear" x1="144.137" y1="-45.5886" x2="72.4444" y2="221.973" gradientUnits="userSpaceOnUse">
<stop stop-color="#1E3CAE"/>
<stop offset="1" stop-color="#007FC5"/>
</linearGradient>
</defs>
</svg>
