<svg width="39" height="24" viewBox="0 0 39 24" fill="none" xmlns="http://www.w3.org/2000/svg">
<path d="M6.3297 3.5L36.2417 3.5L30.6703 16.5L0.75827 16.5L6.3297 3.5Z" fill="#F0F2F5" stroke="#0083CA"/>
<rect x="37.5" y="2.5" width="20" height="32" transform="rotate(90 37.5 2.5)" fill="#F0F2F5" stroke="white"/>
<rect x="36.5" y="3.5" width="18" height="30" transform="rotate(90 36.5 3.5)" fill="white" stroke="#0083CA"/>
<rect x="27.5" y="12.5" width="10" height="10" fill="white" stroke="white"/>
<rect x="28.5" y="13.5" width="10" height="10" fill="white" stroke="#0083CA"/>
<rect x="10" width="2" height="6" fill="#0083CA"/>
<rect x="10" y="9" width="6" height="1" fill="#0083CA"/>
<rect x="11" y="10" width="4" height="2" fill="#0083CA"/>
<rect x="11" y="16" width="4" height="2" fill="#0083CA"/>
<rect x="20" y="10" width="3" height="2" fill="#0083CA"/>
<rect x="20" y="16" width="3" height="2" fill="#0083CA"/>
<rect x="28" y="10" width="4" height="2" fill="#0083CA"/>
<rect x="18" y="9" width="7" height="1" fill="#0083CA"/>
<rect x="27" y="9" width="6" height="1" fill="#0083CA"/>
<rect x="10" y="15" width="6" height="1" fill="#0083CA"/>
<rect x="18" y="15" width="7" height="1" fill="#0083CA"/>
<rect x="31.5" y="16.5" width="4" height="4" rx="2" stroke="white"/>
<rect x="31.5" y="16.5" width="4" height="4" rx="2" fill="white" stroke="#0083CA"/>
<rect x="31" width="2" height="6" fill="#0083CA"/>
<rect x="20" width="2" height="6" fill="#0083CA"/>
</svg>
