<svg width="39" height="28" viewBox="0 0 39 28" fill="none" xmlns="http://www.w3.org/2000/svg">
<rect x="5.5" y="16" width="4" height="4" transform="rotate(90 5.5 16)" stroke="#0083CA"/>
<rect x="21" y="6.5" width="9" height="9" transform="rotate(90 21 6.5)" fill="#0083CA"/>
<rect x="5.5" y="2" width="4" height="4" transform="rotate(90 5.5 2)" stroke="#0083CA"/>
<rect x="32.5" y="1" width="20" height="32" transform="rotate(90 32.5 1)" fill="#F0F2F5" stroke="white"/>
<rect x="31.5" y="2" width="18" height="30" transform="rotate(90 31.5 2)" fill="#F0F2F5" stroke="#0083CA"/>
<rect x="31.5" y="16" width="4" height="4" transform="rotate(90 31.5 16)" stroke="#0083CA"/>
<rect x="10" y="9.5" width="3" height="3" transform="rotate(90 10 9.5)" fill="#0083CA"/>
<rect x="26" y="9.5" width="3" height="3" transform="rotate(90 26 9.5)" fill="#0083CA"/>
<rect x="31.5" y="2" width="4" height="4" transform="rotate(90 31.5 2)" stroke="#0083CA"/>
<rect x="8.5" y="19" width="4" height="4" transform="rotate(90 8.5 19)" stroke="#0083CA"/>
<rect x="24" y="9.5" width="9" height="9" transform="rotate(90 24 9.5)" fill="#0083CA"/>
<rect x="8.5" y="5" width="4" height="4" transform="rotate(90 8.5 5)" stroke="#0083CA"/>
<rect x="35.5" y="4" width="20" height="32" transform="rotate(90 35.5 4)" fill="#F0F2F5" stroke="white"/>
<rect x="34.5" y="5" width="18" height="30" transform="rotate(90 34.5 5)" fill="#F0F2F5" stroke="#0083CA"/>
<rect x="34.5" y="19" width="4" height="4" transform="rotate(90 34.5 19)" stroke="#0083CA"/>
<rect x="29" y="12.5" width="3" height="3" transform="rotate(90 29 12.5)" fill="#0083CA"/>
<rect x="13" y="12.5" width="3" height="3" transform="rotate(90 13 12.5)" fill="#0083CA"/>
<rect x="34.5" y="5" width="4" height="4" transform="rotate(90 34.5 5)" stroke="#0083CA"/>
<rect x="27" y="12.5" width="9" height="9" rx="4.5" transform="rotate(90 27 12.5)" fill="#0083CA"/>
<rect x="11.5" y="8" width="4" height="4" transform="rotate(90 11.5 8)" stroke="#0083CA"/>
<rect x="38.5" y="7" width="20" height="32" transform="rotate(90 38.5 7)" fill="#F0F2F5" stroke="white"/>
<rect x="37.5" y="8" width="18" height="30" transform="rotate(90 37.5 8)" fill="white" stroke="#0083CA"/>
<rect x="37.5" y="22" width="4" height="4" transform="rotate(90 37.5 22)" stroke="#0083CA"/>
<rect x="11.5" y="22" width="4" height="4" transform="rotate(90 11.5 22)" stroke="#0083CA"/>
<rect x="32" y="15.5" width="3" height="3" transform="rotate(90 32 15.5)" fill="#0083CA"/>
<rect x="16" y="15.5" width="3" height="3" transform="rotate(90 16 15.5)" fill="#0083CA"/>
<rect x="27" y="12.5" width="9" height="9" rx="4.5" transform="rotate(90 27 12.5)" fill="#0083CA"/>
<rect x="32" y="15.5" width="3" height="3" transform="rotate(90 32 15.5)" fill="#0083CA"/>
<rect x="16" y="15.5" width="3" height="3" transform="rotate(90 16 15.5)" fill="#0083CA"/>
<rect x="37.5" y="8" width="4" height="4" transform="rotate(90 37.5 8)" stroke="#0083CA"/>
</svg>
