<svg width="39" height="27" viewBox="0 0 39 27" fill="none" xmlns="http://www.w3.org/2000/svg">
<rect x="32.5" y="0.5" width="20" height="32" transform="rotate(90 32.5 0.5)" fill="#F0F2F5" stroke="white"/>
<rect x="31.5" y="1.5" width="18" height="30" transform="rotate(90 31.5 1.5)" fill="#F0F2F5" stroke="#0083CA"/>
<rect x="21" y="6" width="9" height="9" transform="rotate(90 21 6)" fill="#0083CA"/>
<rect x="31.5" y="1.5" width="4" height="4" transform="rotate(90 31.5 1.5)" stroke="#0083CA"/>
<rect x="5.5" y="1.5" width="4" height="4" transform="rotate(90 5.5 1.5)" stroke="#0083CA"/>
<rect x="31.5" y="15.5" width="4" height="4" transform="rotate(90 31.5 15.5)" stroke="#0083CA"/>
<rect x="5.5" y="15.5" width="4" height="4" transform="rotate(90 5.5 15.5)" stroke="#0083CA"/>
<rect x="26" y="9" width="3" height="3" transform="rotate(90 26 9)" fill="#0083CA"/>
<rect x="10" y="9" width="3" height="3" transform="rotate(90 10 9)" fill="#0083CA"/>
<rect x="35.5" y="3.5" width="20" height="32" transform="rotate(90 35.5 3.5)" fill="#F0F2F5" stroke="white"/>
<rect x="34.5" y="4.5" width="18" height="30" transform="rotate(90 34.5 4.5)" fill="#F0F2F5" stroke="#0083CA"/>
<rect x="24" y="9" width="9" height="9" transform="rotate(90 24 9)" fill="#0083CA"/>
<rect x="34.5" y="4.5" width="4" height="4" transform="rotate(90 34.5 4.5)" stroke="#0083CA"/>
<rect x="8.5" y="4.5" width="4" height="4" transform="rotate(90 8.5 4.5)" stroke="#0083CA"/>
<rect x="34.5" y="18.5" width="4" height="4" transform="rotate(90 34.5 18.5)" stroke="#0083CA"/>
<rect x="8.5" y="18.5" width="4" height="4" transform="rotate(90 8.5 18.5)" stroke="#0083CA"/>
<rect x="29" y="12" width="3" height="3" transform="rotate(90 29 12)" fill="#0083CA"/>
<rect x="13" y="12" width="3" height="3" transform="rotate(90 13 12)" fill="#0083CA"/>
<rect x="38.5" y="6.5" width="20" height="32" transform="rotate(90 38.5 6.5)" fill="#F0F2F5" stroke="white"/>
<rect x="37.5" y="7.5" width="18" height="30" transform="rotate(90 37.5 7.5)" fill="white" stroke="#0083CA"/>
<rect x="27" y="12" width="9" height="9" rx="4.5" transform="rotate(90 27 12)" fill="#0083CA"/>
<rect x="37.5" y="7.5" width="4" height="4" transform="rotate(90 37.5 7.5)" stroke="#0083CA"/>
<rect x="11.5" y="7.5" width="4" height="4" transform="rotate(90 11.5 7.5)" stroke="#0083CA"/>
<rect x="37.5" y="21.5" width="4" height="4" transform="rotate(90 37.5 21.5)" stroke="#0083CA"/>
<rect x="11.5" y="21.5" width="4" height="4" transform="rotate(90 11.5 21.5)" stroke="#0083CA"/>
<rect x="32" y="15" width="3" height="3" transform="rotate(90 32 15)" fill="#0083CA"/>
<rect x="16" y="15" width="3" height="3" transform="rotate(90 16 15)" fill="#0083CA"/>
</svg>
