<svg width="36" height="28" viewBox="0 0 36 28" fill="none" xmlns="http://www.w3.org/2000/svg">
<rect x="7" y="24.5" width="7" height="3" fill="#0083CA"/>
<rect x="6" y="13.5" width="7" height="4" fill="#0083CA"/>
<rect x="15" y="10.5" width="6" height="7" fill="#0083CA"/>
<path d="M12.8787 9L23.1213 9L27.3507 25L8.64934 25L12.8787 9Z" fill="#F0F2F5" stroke="#0083CA"/>
<rect x="22" y="24.5" width="7" height="3" fill="#0083CA"/>
<rect x="5" y="17.5" width="26" height="1" fill="#0083CA"/>
<rect x="23" y="6.5" width="7" height="11" fill="#0083CA"/>
<rect x="30.5" y="1" width="12" height="26" transform="rotate(90 30.5 1)" fill="#F0F2F5" stroke="#0083CA"/>
<rect x="35.5" y="2" width="20" height="35" transform="rotate(90 35.5 2)" fill="#F0F2F5" stroke="white"/>
<rect x="34.5" y="3" width="18" height="33" transform="rotate(90 34.5 3)" fill="white" stroke="#0083CA"/>
<rect x="6" y="13.5" width="7" height="4" fill="#0083CA"/>
<rect x="15" y="10.5" width="6" height="7" fill="#0083CA"/>
<rect x="23" y="6.5" width="7" height="11" fill="#0083CA"/>
<rect x="5" y="17.5" width="26" height="1" fill="#0083CA"/>
</svg>
