<svg width="69" height="87" viewBox="0 0 69 87" fill="none" xmlns="http://www.w3.org/2000/svg">
<path d="M26.2838 5.48269L56.2275 13.5061C58.8949 14.2208 60.4778 16.9625 59.7631 19.6298L45.0104 74.6876C44.2957 77.3549 41.554 78.9378 38.8867 78.2231L13.7726 71.4938C11.1053 70.7791 9.52235 68.0374 10.2371 65.3701L26.2838 5.48269Z" stroke="white" stroke-width="4"/>
<rect x="34.4595" y="9.74414" width="17" height="3" transform="rotate(15 34.4595 9.74414)" fill="white"/>
<rect x="26.7964" y="61.5249" width="6" height="6" rx="3" transform="rotate(15 26.7964 61.5249)" fill="white"/>
<path d="M64.5236 68.2491C64.9825 69.9615 65.0996 71.7476 64.8681 73.5053C64.6367 75.2629 64.0614 76.9578 63.175 78.4932C62.2886 80.0285 61.1084 81.3742 59.7019 82.4534C58.2954 83.5327 56.6901 84.3243 54.9777 84.7832" stroke="white" stroke-width="4" stroke-linecap="round"/>
<path d="M13.0399 2.00004C11.3274 2.45889 9.72215 3.25053 8.31566 4.32977C6.90916 5.40901 5.72902 6.75471 4.84259 8.29004C3.95617 9.82537 3.38083 11.5203 3.14943 13.2779C2.91803 15.0356 3.03509 16.8217 3.49394 18.5341" stroke="white" stroke-width="4" stroke-linecap="round"/>
<path d="M57.7274 67.9998C57.9993 69.0145 58.0687 70.0729 57.9316 71.1145C57.7944 72.1561 57.4535 73.1605 56.9282 74.0703C56.4029 74.9801 55.7036 75.7776 54.8701 76.4171C54.0366 77.0567 53.0853 77.5258 52.0706 77.7977" stroke="white" stroke-width="4" stroke-linecap="round"/>
<path d="M16.6541 7.76087C15.6393 8.03278 14.688 8.50191 13.8545 9.14145C13.021 9.781 12.3217 10.5785 11.7964 11.4883C11.2711 12.3981 10.9302 13.4025 10.7931 14.4441C10.6559 15.4857 10.7253 16.5441 10.9972 17.5588" stroke="white" stroke-width="4" stroke-linecap="round"/>
</svg>
