<svg width="19" height="27" viewBox="0 0 19 27" fill="none" xmlns="http://www.w3.org/2000/svg">
<path d="M17.5 9.25C17.5 10.2906 17.0091 11.8306 16.1492 13.6649C15.307 15.4616 14.1751 17.4099 13.0299 19.2205C11.8868 21.0276 10.7421 22.6796 9.88219 23.8807C9.64818 24.2076 9.43551 24.5008 9.25 24.7542C9.06449 24.5008 8.85182 24.2076 8.61781 23.8807C7.75793 22.6796 6.61318 21.0276 5.47013 19.2205C4.32491 17.4099 3.19299 15.4616 2.35077 13.6649C1.49089 11.8306 1 10.2906 1 9.25C1 4.69365 4.69365 1 9.25 1C13.8063 1 17.5 4.69365 17.5 9.25Z" stroke="#343532" stroke-width="2"/>
<circle cx="9" cy="9" r="3" fill="#343532"/>
</svg>
