<svg width="8" height="13" viewBox="0 0 8 13" fill="none" xmlns="http://www.w3.org/2000/svg">
<path d="M3.36 8C3.36 7.79733 3.37067 7.61067 3.392 7.44C3.424 7.25867 3.48267 7.08267 3.568 6.912C3.664 6.73067 3.792 6.544 3.952 6.352C4.12267 6.16 4.34667 5.94667 4.624 5.712C5.072 5.328 5.41333 4.98133 5.648 4.672C5.88267 4.36267 6 4.032 6 3.68C6 3.168 5.82933 2.74667 5.488 2.416C5.14667 2.08533 4.67733 1.92 4.08 1.92C3.48267 1.92 3.01333 2.08533 2.672 2.416C2.33067 2.74667 2.16 3.168 2.16 3.68H0.72C0.72 3.24267 0.794667 2.84267 0.944 2.48C1.104 2.10667 1.328 1.78667 1.616 1.52C1.91467 1.24267 2.272 1.02933 2.688 0.879999C3.104 0.719999 3.568 0.639999 4.08 0.639999C4.592 0.639999 5.056 0.719999 5.472 0.879999C5.888 1.02933 6.24 1.24267 6.528 1.52C6.82667 1.78667 7.05067 2.10667 7.2 2.48C7.36 2.84267 7.44 3.24267 7.44 3.68C7.44 3.97867 7.392 4.26133 7.296 4.528C7.2 4.79467 7.06667 5.05067 6.896 5.296C6.736 5.53067 6.54933 5.76 6.336 5.984C6.12267 6.19733 5.904 6.4 5.68 6.592C5.49867 6.74133 5.34933 6.88533 5.232 7.024C5.11467 7.152 5.01867 7.28 4.944 7.408C4.88 7.52533 4.832 7.648 4.8 7.776C4.77867 7.89333 4.768 8.02133 4.768 8.16V8.48H3.36V8ZM4.08 12.16C3.77067 12.16 3.504 12.0533 3.28 11.84C3.06667 11.616 2.96 11.3493 2.96 11.04C2.96 10.72 3.06667 10.4533 3.28 10.24C3.504 10.0267 3.77067 9.92 4.08 9.92C4.38933 9.92 4.65067 10.0267 4.864 10.24C5.088 10.4533 5.2 10.72 5.2 11.04C5.2 11.3493 5.088 11.616 4.864 11.84C4.65067 12.0533 4.38933 12.16 4.08 12.16Z" fill="white"/>
</svg>
