<svg width="20" height="24" viewBox="0 0 20 24" fill="none" xmlns="http://www.w3.org/2000/svg">
<path fill-rule="evenodd" clip-rule="evenodd" d="M0 0H16.6875L20 3.3125V18C20 21.3137 17.3137 24 14 24H6C2.68629 24 0 21.3137 0 18V0ZM5 5C4.44772 5 4 5.44772 4 6C4 6.55228 4.44771 7 5 7H15C15.5523 7 16 6.55228 16 6C16 5.44772 15.5523 5 15 5H5ZM5 9C4.44772 9 4 9.44771 4 10C4 10.5523 4.44771 11 5 11H15C15.5523 11 16 10.5523 16 10C16 9.44771 15.5523 9 15 9H5ZM4 14C4 13.4477 4.44772 13 5 13H15C15.5523 13 16 13.4477 16 14C16 14.5523 15.5523 15 15 15H5C4.44771 15 4 14.5523 4 14ZM5 17C4.44772 17 4 17.4477 4 18C4 18.5523 4.44772 19 5 19H9C9.55228 19 10 18.5523 10 18C10 17.4477 9.55228 17 9 17H5Z" fill="#1863BF"/>
</svg>
