<svg width="100" height="92" viewBox="0 0 100 92" fill="none" xmlns="http://www.w3.org/2000/svg">
<path d="M8.5 4C8.5 2.067 10.067 0.5 12 0.5L88 0.5C89.933 0.5 91.5 2.067 91.5 4L91.5 89.5L8.5 89.5L8.5 4Z" fill="white" stroke="#2C4295"/>
<rect x="51" y="3" width="38" height="84" fill="#F0F2F5"/>
<rect x="23.5" y="59.5" width="14" height="5" fill="#2C4295" stroke="white"/>
<rect x="23.5" y="52.5" width="14" height="2" fill="#2C4295" stroke="white"/>
<rect x="48.5" y="6.5" width="5" height="5" fill="#2C4295" stroke="white"/>
<rect x="48.5" y="51.5" width="5" height="5" fill="#2C4295" stroke="white"/>
<rect x="48.5" y="59.5" width="5" height="5" fill="#2C4295" stroke="white"/>
<rect x="56.5" y="51.5" width="5" height="5" fill="#2C4295" stroke="white"/>
<rect x="56.5" y="59.5" width="5" height="5" fill="#2C4295" stroke="white"/>
<rect x="56.5" y="67.5" width="5" height="5" fill="#2C4295" stroke="white"/>
<rect x="64.5" y="51.5" width="5" height="5" fill="#2C4295" stroke="white"/>
<rect x="64.5" y="59.5" width="5" height="5" fill="#2C4295" stroke="white"/>
<rect x="23" y="15" width="54" height="30" fill="white"/>
<rect x="24.5" y="16.5" width="51" height="27" fill="white" stroke="#2C4295"/>
<rect x="0.5" y="88.5" width="99" height="3" fill="#2C4295" stroke="white"/>
<rect x="21.5" y="42.5" width="57" height="3" fill="#2C4295" stroke="white"/>
</svg>
