<svg width="21" height="22" viewBox="0 0 21 22" fill="none" xmlns="http://www.w3.org/2000/svg">
<path d="M20.1507 13.1213C21.5991 6.61293 15.8974 0.700432 9.20156 1.83543C5.56656 -0.420401 0.726562 2.12877 0.726562 6.45377C0.726562 7.4596 1.00406 8.40127 1.48656 9.21293C0.140729 15.7363 5.88906 21.5638 12.5791 20.3513C17.3082 22.8521 22.5341 17.8646 20.1507 13.1213ZM13.7857 17.0463C12.0291 17.7688 9.13823 17.7729 7.38906 16.8571C4.8949 15.5271 4.45156 12.5329 6.60323 12.5329C8.2249 12.5329 7.71156 14.4238 9.34906 15.1946C10.1007 15.5421 11.7166 15.5779 12.6557 14.9446C13.5832 14.3238 13.4982 13.3471 12.9941 12.8804C11.6582 11.6471 7.83573 12.1371 6.08823 9.97793C5.32906 9.04127 5.18573 7.38877 6.11906 6.19043C7.74573 4.0971 12.5191 3.9696 14.5716 5.55043C16.4666 7.0171 15.9549 8.96377 14.4257 8.96377C12.5866 8.96377 13.5532 6.5571 10.5841 6.5571C8.43156 6.5571 7.5849 8.08793 9.10073 8.83293C11.1557 9.85377 16.3924 9.51293 16.3924 13.5021C16.3882 15.1621 15.3707 16.3996 13.7857 17.0463Z" fill="white"/>
</svg>
