<svg width="22" height="23" viewBox="0 0 22 23" fill="none" xmlns="http://www.w3.org/2000/svg">
<path d="M21.026 12.9147C21.7104 7.38439 20.6972 3.89298 18.8697 2.31381L18.8706 2.31289C15.921 -0.383891 5.95946 -0.783041 2.43058 2.43401C0.84583 4.00767 0.287632 6.31724 0.22646 9.17643C0.165288 12.0365 0.0926451 17.3943 5.29325 18.8478H5.29803L5.29325 21.0674C5.29325 21.0674 5.25789 21.9667 5.85623 22.1474C6.54059 22.3603 6.85028 21.9428 8.97889 19.502C12.5384 19.7984 15.272 19.1194 15.5826 19.0203C16.3014 18.7891 20.3684 18.2725 21.026 12.9147Z" fill="white"/>
<path d="M10.4492 3.59436C10.4507 3.59437 10.4522 3.59438 10.4537 3.59439L10.4492 4.19936M10.4492 3.59436C10.0495 3.59436 10.0482 4.19037 10.4452 4.19929L10.4492 3.59436ZM10.4492 3.59436V4.19936M10.4492 4.19936C13.5607 4.22236 16.1231 6.30433 16.1513 10.1233C16.1513 10.1233 16.1513 10.1233 16.1513 10.1234C16.1513 10.1243 16.1513 10.1253 16.1513 10.1262L16.3738 10.1234L16.6685 10.1196L16.7596 10.1184C16.7263 6.00634 13.9324 3.62081 10.4568 3.59441L10.4492 4.19936ZM16.7607 10.1285C16.7607 10.1268 16.7607 10.1251 16.7607 10.1234C16.7607 10.1219 16.7607 10.1204 16.7607 10.1189C16.7607 10.1187 16.7607 10.1185 16.7607 10.1184V10.1285Z" fill="#2C4295" stroke="#2C4295" stroke-width="30"/>
<path d="M11.0062 5.16952C11.0066 5.16955 11.0071 5.16959 11.0075 5.16962C13.7452 5.36714 15.202 7.2359 15.151 9.50452C15.151 9.50464 15.151 9.50476 15.151 9.50488L15.1177 9.50409L14.817 9.49701L14.8169 9.49701L14.5416 9.49052M11.0062 5.16952C11.0061 5.16951 11.0059 5.1695 11.0058 5.1695C10.6054 5.1419 10.5636 5.74571 10.9627 5.77446L10.9928 5.35485L10.9928 5.35483L11.0062 5.16952ZM11.0062 5.16952L10.9748 5.61945L10.9748 5.61945L10.9639 5.77456C13.3386 5.94773 14.5895 7.50365 14.5416 9.49052M14.5416 9.49052C14.5416 9.49062 14.5416 9.49072 14.5416 9.49081C14.5415 9.49277 14.5415 9.49471 14.5415 9.49665C14.5385 9.88848 15.1451 9.90543 15.151 9.50522L15.0888 9.50372L14.7218 9.49487L14.7217 9.49487L14.5416 9.49052Z" fill="#2C4295" stroke="#2C4295" stroke-width="30"/>
<path d="M13.8849 12.0716C13.3703 11.7856 12.8464 11.9636 12.6297 12.2446L12.1766 12.8076C11.9464 13.0936 11.5162 13.0556 11.5162 13.0556C8.3766 12.2586 7.53701 9.10459 7.53701 9.10459C7.53701 9.10459 7.49847 8.67759 7.78597 8.44859L8.35264 7.99859C8.63597 7.78259 8.81514 7.26259 8.5266 6.75159C7.75576 5.41459 7.23805 4.95359 6.97451 4.59959C6.69743 4.26659 6.28076 4.19159 5.84743 4.41659H5.83806C4.93701 4.92259 3.95056 5.86959 4.26618 6.84459C4.80472 7.87259 5.7943 11.1496 8.94847 13.6256C10.4308 14.7966 12.7766 15.9966 13.7724 16.2736L13.7818 16.2876C14.7631 16.6016 15.7172 15.6176 16.2266 14.7266V14.7196C16.4526 14.2886 16.3776 13.8806 16.0474 13.6136C15.462 13.0656 14.5787 12.4606 13.8849 12.0716Z" fill="#2C4295"/>
<path d="M11.4357 7.40142C12.4367 7.45742 12.9221 7.95942 12.9742 8.99042C12.993 9.39342 13.6023 9.36542 13.5836 8.96242C13.5169 7.61642 12.7857 6.86642 11.469 6.79642C11.068 6.77342 11.0305 7.37842 11.4357 7.40142Z" fill="#2C4295"/>
</svg>
