<svg width="23" height="12" viewBox="0 0 23 12" fill="none" xmlns="http://www.w3.org/2000/svg">
<path d="M19.2989 6.22535C19.4708 5.75805 19.9808 4.78649 20.3728 4.24213C21.9591 2.03622 22.191 1.34551 22.3771 0.791378C22.4548 0.559878 22.5246 0.352217 22.6817 0.0678711H18.3806L18.3721 0.0979838L18.3356 0.225972C18.3051 0.332736 18.2634 0.477165 18.2187 0.627797C18.174 0.778405 18.1263 0.935328 18.0839 1.06704C18.0416 1.1981 18.004 1.30595 17.9795 1.35718L17.9575 1.34665L17.9795 1.35719C17.5599 2.23389 16.8798 3.32933 16.1622 4.23936C15.8035 4.69439 15.4349 5.10362 15.0845 5.41611C14.7347 5.72806 14.4004 5.94588 14.1103 6.01441C13.9656 6.04859 13.8396 6.0349 13.731 5.98077C13.6227 5.92684 13.5339 5.8339 13.4612 5.71336C13.316 5.47291 13.2314 5.11712 13.1842 4.7198C13.0898 3.92428 13.1444 2.94897 13.1789 2.3611L13.1789 2.36107C13.2438 1.27 13.2325 0.891224 13.2018 0.706025C13.158 0.442121 12.9423 0.248908 12.6824 0.215206L12.6824 0.215205C12.1269 0.142911 11.1191 0.0407062 9.99085 0.0943865L9.99052 0.0944021L9.01541 0.127642C9.17147 0.477698 9.30656 0.643834 9.42326 0.787354C9.4497 0.819865 9.47519 0.851216 9.49977 0.883281C9.63848 1.06424 9.74371 1.2633 9.81755 1.79626L9.81756 1.79637C9.90073 2.41881 9.92591 3.4862 9.78119 4.39872C9.70886 4.85481 9.59377 5.27431 9.42084 5.58046C9.24783 5.88675 9.01405 6.084 8.70418 6.084C8.45941 6.084 8.21267 5.98963 7.96897 5.82682C7.72524 5.66399 7.48324 5.43185 7.24739 5.15401C6.77573 4.59835 6.32623 3.85694 5.93485 3.11259C5.54335 2.36802 5.20946 1.61946 4.96923 1.04887C4.8491 0.763547 4.75237 0.522677 4.68355 0.349012C4.66089 0.291821 4.64123 0.241864 4.62477 0.200055C4.61626 0.178423 4.60861 0.158972 4.60184 0.141829C4.58802 0.10682 4.57817 0.0821769 4.57219 0.0678711H0.765187L1.1053 0.942066L1.1053 0.942069C2.52733 4.59865 4.12675 7.27139 5.97722 9.06497C7.827 10.8579 9.92833 11.773 12.3567 11.9136L12.3564 11.9136L12.3557 11.938L12.3571 11.9136L12.9666 11.9317M19.2989 6.22535C19.2989 6.22527 19.2989 6.22519 19.299 6.22511L19.3217 6.23401L19.2988 6.22559C19.2988 6.22551 19.2989 6.22543 19.2989 6.22535ZM19.2989 6.22535C19.0857 6.77018 19.2925 7.22045 19.5002 7.50306L19.5005 7.50342C19.6429 7.68985 19.8405 7.9096 20.0674 8.15695C20.1101 8.20357 20.1539 8.25119 20.1986 8.29977C20.3913 8.50921 20.6005 8.73654 20.8129 8.97933C21.3363 9.57761 21.8781 10.2681 22.2382 11.0108L22.2602 11.0002M22.2602 11.0002L22.2383 11.0109L22.6844 11.9324M22.2602 11.0002L22.7115 11.9324H22.6844M22.2602 11.0002C21.7518 9.95183 20.884 9.00863 20.2165 8.28316C19.9344 7.9766 19.6882 7.70891 19.5199 7.4886L12.9893 11.9568M22.6844 11.9324H19.4757C18.8409 11.9324 18.3899 11.7858 17.9992 11.5158C17.6073 11.245 17.2749 10.8494 16.8786 10.3479M22.6844 11.9324L22.6962 11.9568H19.4757C18.1974 11.9568 17.6516 11.3656 16.8594 10.363M16.8786 10.3479C16.4671 9.82566 16.1685 9.46736 15.8151 9.24064C15.4602 9.01303 15.0524 8.91923 14.4253 8.91923C13.9876 8.91923 13.6509 9.28249 13.4166 9.75738C13.1816 10.234 13.0446 10.8325 13.0102 11.3231M16.8786 10.3479L16.8594 10.363M16.8786 10.3479C16.8786 10.3479 16.8786 10.3479 16.8786 10.3479L16.8594 10.363M13.0102 11.3231L12.9666 11.9317M13.0102 11.3231L13.0346 11.3248M13.0102 11.3231L13.0102 11.323L13.0346 11.3248M12.9666 11.9317L12.9649 11.955L12.9893 11.9568M12.9666 11.9317L12.99 11.9324L12.9893 11.9568M12.9893 11.9568L13.0346 11.3248M13.0346 11.3248C13.103 10.3487 13.5798 8.94364 14.4253 8.94364C15.6746 8.94364 16.0355 9.31731 16.8594 10.363M13.2259 0.702034C13.1802 0.42678 12.9554 0.225983 12.6856 0.190995C12.1293 0.118605 11.12 0.0162246 9.98969 0.07L13.2259 0.702034ZM13.2259 0.702034C13.2571 0.890421 13.2682 1.27202 13.2032 2.36252L13.2259 0.702034Z" fill="white" stroke="#0B4DCE" stroke-width="0.0488281"/>
</svg>
