<svg width="18" height="18" viewBox="0 0 18 18" fill="none" xmlns="http://www.w3.org/2000/svg">
<path fill-rule="evenodd" clip-rule="evenodd" d="M15.1591 0.319336H2.65831C1.23033 0.319336 0.0683594 1.48131 0.0683594 2.90928V15.4101C0.0683594 16.8381 1.23033 18 2.65831 18H15.1591C16.5871 18 17.7491 16.8381 17.7491 15.4101V2.90928C17.7491 1.48131 16.5871 0.319336 15.1591 0.319336ZM13.3295 4.7395C13.3295 4.12971 13.8247 3.63446 14.4345 3.63446C15.0443 3.63446 15.5396 4.12971 15.5396 4.7395C15.5396 5.34929 15.0443 5.84455 14.4345 5.84455C13.8247 5.84455 13.3295 5.34929 13.3295 4.7395ZM4.48912 9.15968C4.48912 6.72266 6.47228 4.7395 8.9093 4.7395C11.3463 4.7395 13.3295 6.72266 13.3295 9.15968C13.3295 11.5967 11.3463 13.5799 8.9093 13.5799C6.47228 13.5799 4.48912 11.5967 4.48912 9.15968Z" fill="white"/>
</svg>
