<svg width="31" height="26" viewBox="0 0 31 26" fill="none" xmlns="http://www.w3.org/2000/svg">
<path d="M29.5559 9.08789L29.5559 21.1577L27.149 21.1577L27.149 24.739L22.447 21.1577L10.1151 21.1577L10.1151 9.08789L29.5559 9.08789Z" fill="#2C4295" stroke="#2C4295"/>
<path d="M11.8752 16.1597L3.28871 16.1597L3.28871 22.899L7.58198 19.5293L11.8752 16.1597Z" fill="white"/>
<rect x="-0.5" y="-0.5" width="16.2141" height="24.6028" transform="matrix(2.18557e-08 1 1 -2.18557e-08 1.112 1.18579)" fill="white" stroke="white"/>
<path d="M1.79187 1.91028L1.79187 15.6754L5.05617 15.6754L5.05617 19.3165L9.40458 15.9563L23.9633 15.6754L23.9633 1.91028L1.79187 1.91028Z" fill="white" stroke="#0083CA"/>
<line x1="6.10239" y1="10.4586" x2="19.6517" y2="10.4586" stroke="#0083CA"/>
<line x1="6.10239" y1="6.84973" x2="19.6517" y2="6.84973" stroke="#0083CA"/>
</svg>
