<svg width="112" height="87" viewBox="0 0 112 87" fill="none" xmlns="http://www.w3.org/2000/svg">
<path d="M111.258 44.0966C111.039 43.8761 110.919 43.763 110.564 43.9256L103.849 49.5348L76.7822 12.1929L92.5623 1.5348C92.7084 1.46129 92.7815 1.31428 92.7815 1.16728C92.7815 1.02027 92.7815 0.873259 92.7084 0.72625C92.6354 0.579242 92.4893 0.505737 92.3432 0.505737C92.1971 0.505737 92.0509 0.505737 91.9048 0.579242L75.6863 11.5314C75.5402 11.6784 75.4672 11.8254 75.4672 11.8989C75.4672 11.9724 75.4672 12.1929 75.5402 12.3399L79.193 17.3382L79.12 17.4117L75.7594 20.0579H75.6863L66.8465 16.9707C66.7735 16.9707 66.7004 16.9707 66.7004 16.9707H47.5597C47.3405 16.9707 47.1213 17.1177 47.0483 17.4117L45.5871 23.2921L41.7151 21.6015C41.6421 21.528 41.496 21.528 41.4229 21.528L33.5328 22.4835L29.7339 20.2049L29.807 20.1314L32.7292 14.8391C32.8023 14.6921 32.8023 14.5451 32.8023 14.398C32.7292 14.251 32.6562 14.104 32.5831 14.0305L12.1273 1.6083C11.9082 1.5348 11.9082 1.5348 11.7621 1.6083C11.7621 1.6083 11.5429 1.6083 11.4698 1.82881C11.3968 1.97582 11.3968 1.97582 11.3237 2.19634C11.3237 2.34334 11.3968 2.49035 11.4698 2.56386L23.7433 9.98779L31.4142 14.6186L8.98592 55.6339L1.31501 51.0032V50.9297L0.803619 50.6356C0.657507 50.5621 0.511394 50.5621 0.365281 50.5621C0.219169 50.6357 0.0730563 50.7092 0 50.8562C0 51.0032 0 51.1502 0 51.2972C0.0730563 51.4442 0.146113 51.5912 0.219169 51.6647L8.83981 56.8835C8.98592 56.957 9.13204 56.957 9.27815 56.957C9.42426 56.8835 9.57038 56.81 9.64343 56.663L11.3968 53.4288L16.8029 56.4425L16.2916 57.4715C15.2688 59.5297 15.4879 61.9553 16.7299 63.7929C17.8257 65.3365 19.5791 66.2921 21.4055 66.2921C21.9899 66.2921 22.5744 66.2186 23.1588 65.998L24.5469 65.4835V67.0271C24.5469 68.3502 24.9122 69.5262 25.6428 70.5553C26.7386 72.0254 28.4189 72.9809 30.2453 72.9809C30.8298 72.9809 31.4142 72.9074 31.9987 72.6869L33.3867 72.2459V73.7895C33.3867 75.0391 33.752 76.2151 34.4826 77.2442C35.3592 78.5673 36.7473 79.4493 38.2084 79.6698C39.0851 79.8168 40.0349 79.7433 40.9115 79.4493L42.2996 79.0083V80.5519C42.2996 81.8015 42.6649 82.9775 43.3954 84.0066C44.2721 85.3297 45.6602 86.2117 47.1213 86.4322C48.6555 86.6527 50.1897 86.2852 51.4316 85.3297L55.2306 82.463C55.8881 81.9485 56.4725 81.2869 56.9109 80.4784L57.4222 79.5228L65.0932 83.9331C66.4082 84.6681 68.0154 84.8886 69.4765 84.4476C70.9377 84.0066 72.1796 82.9775 72.9102 81.5074C73.4946 80.4049 73.7138 79.1553 73.5677 77.9057L73.4216 76.3621L74.8827 76.6562C75.248 76.7297 75.5402 76.7297 75.9055 76.7297C78.0241 76.7297 79.9967 75.5536 80.9464 73.569C81.5308 72.4664 81.75 71.2168 81.6039 69.9673L81.4578 68.4237L82.9189 68.7177C85.3298 69.1587 87.8867 67.9091 89.0556 65.6305C89.6401 64.528 89.8592 63.2784 89.7131 62.0288L89.567 60.4852L91.0281 60.7792C91.9048 60.9262 92.7815 60.9263 93.7312 60.6322C95.1924 60.1912 96.4343 59.1621 97.1649 57.6921C97.8954 56.2955 98.0416 54.6049 97.6032 53.0613C97.5302 52.6938 97.384 52.3262 97.1649 51.9587L96.7265 51.0767L101.183 47.769L103.302 50.7092C103.375 50.8562 103.521 50.9297 103.667 50.9297C103.74 50.9297 103.886 50.9297 104.105 50.7827L111.258 44.7939C111.371 44.5678 111.435 44.2749 111.258 44.0966ZM24.1816 64.2339C23.378 64.822 22.4283 65.1895 21.4055 65.1895C21.1863 65.1895 20.8941 65.1895 20.6749 65.116C19.433 64.8955 18.3371 64.2339 17.6066 63.1314C16.876 62.1023 16.5838 60.7792 16.8029 59.4562C17.0221 58.1331 17.6796 57.0305 18.7024 56.222L30.1723 47.5485C30.9759 46.9604 31.9256 46.5929 32.9484 46.5929C34.4095 46.5929 35.7245 47.328 36.6743 48.504C37.4779 49.5331 37.7701 50.8562 37.5509 52.1792C37.3318 53.5023 36.6743 54.6784 35.6515 55.4869L24.1816 64.2339ZM32.8753 71.1433C32.1448 71.6579 31.2681 71.9519 30.3184 71.9519C28.8572 71.9519 27.4692 71.2168 26.5925 70.0408C25.8619 69.0117 25.5697 67.7621 25.7158 66.4391C25.935 65.116 26.5925 63.8664 27.6153 63.0579L36.5281 56.2955C36.8204 56.075 37.1126 55.8545 37.4779 55.7074C38.1354 55.4134 38.866 55.2664 39.5235 55.3399C40.9115 55.4134 42.1535 56.1485 42.9571 57.251C43.7607 58.2801 44.0529 59.6032 43.8338 60.9262C43.6877 62.2493 42.9571 63.4254 41.9343 64.2339L32.8753 71.1433ZM42.0074 77.7587C41.2038 78.3468 40.254 78.7143 39.3043 78.7143C39.0851 78.7143 38.7929 78.7143 38.5737 78.6408C37.3318 78.4203 36.2359 77.7587 35.5054 76.6562C33.9712 74.451 34.4826 71.3639 36.5281 69.8203L36.6012 69.7468C40.4001 66.8801 41.9343 65.704 42.5918 65.263L42.9571 65.0425C45.0027 63.4989 47.8519 63.9399 49.3861 65.998C50.1897 67.0271 50.4819 68.3502 50.2627 69.6733C50.0436 70.9963 49.3861 72.1724 48.3633 72.9809L42.0074 77.7587ZM56.6917 78.2733C56.4725 79.5963 55.815 80.7724 54.7922 81.5074L50.9933 84.3741C50.1897 84.9621 49.2399 85.2562 48.2902 85.2562C46.756 85.2562 45.368 84.5211 44.4913 83.2715C42.9571 81.0664 43.4685 77.9792 45.5141 76.4356L49.313 73.569C51.3586 72.0254 54.2078 72.4664 55.742 74.5245C56.5456 75.7006 56.8378 76.9502 56.6917 78.2733ZM96.2882 57.3245C95.7038 58.5006 94.681 59.3092 93.5121 59.6767C92.3432 60.0442 91.0282 59.8972 89.9323 59.3092L71.0838 48.504C70.7915 48.357 70.4993 48.4305 70.3532 48.7245C70.2071 49.0186 70.2802 49.3126 70.5724 49.5331L86.3525 58.5741C88.6173 59.8972 89.4209 62.8374 88.252 65.263C87.6676 66.4391 86.6448 67.2476 85.4759 67.6151C84.307 67.9827 82.992 67.8357 81.8961 67.2476L65.8237 58.0596C65.6776 57.9861 65.5315 57.9861 65.3854 57.9861C65.2393 58.0596 65.1662 58.1331 65.0932 58.2801C64.9471 58.5741 65.0201 58.9416 65.3123 59.0886L78.3164 66.5126C80.5811 67.8356 81.3847 70.7758 80.2158 73.2015C78.9739 75.5536 76.1247 76.4356 73.8599 75.1861L60.1984 67.2476C59.9062 67.1006 59.6139 67.1741 59.4678 67.4681C59.3948 67.6151 59.3948 67.7621 59.3948 67.9091C59.4678 68.0562 59.5409 68.2032 59.687 68.2767L70.2071 74.304C71.3029 74.8921 72.1066 75.9946 72.4718 77.2442C72.8371 78.4938 72.691 79.8168 72.1066 80.9929C71.5221 82.169 70.4993 82.9775 69.3304 83.345C68.8921 83.4921 68.4538 83.5656 68.0154 83.5656C67.2118 83.5656 66.4812 83.345 65.8237 82.9775L57.8606 78.4203V77.7587C57.8606 76.3621 57.4953 75.1126 56.6917 74.01C55.6689 72.6134 54.0617 71.7314 52.3814 71.6579L51.0664 71.5844L51.3586 70.2613C51.3586 70.1143 51.4316 70.0408 51.4316 69.8938C51.6508 68.2767 51.2855 66.6596 50.2627 65.3365C49.2399 63.9399 47.6327 63.0579 45.9524 62.9844L44.7105 62.9109L45.0027 61.5878C45.0027 61.4408 45.0757 61.2938 45.0757 61.2203C45.2949 59.6032 44.9296 57.9861 43.9068 56.663C42.884 55.2664 41.2768 54.3844 39.5965 54.3109L38.3546 54.2374L38.6468 52.9143C38.6468 52.7673 38.7198 52.6203 38.7198 52.5468C38.939 50.9297 38.5737 49.3126 37.5509 47.9895C35.6515 45.3433 32.1448 44.8288 29.5878 46.7399L17.6066 55.6339H17.5335L11.9082 52.4733L11.9812 52.3262L29.1495 21.1604L33.0945 23.5861C33.1676 23.6596 33.3137 23.6596 33.4598 23.6596L41.4229 22.704L45.368 24.4681V24.5416L43.4685 32.1126C43.4685 32.1861 43.4685 32.1861 43.4685 32.2596V46.8869C43.4685 51.2237 46.8291 54.7519 50.9933 54.7519C55.1575 54.7519 58.5181 51.2237 58.5181 46.8869V32.4066L59.5409 30.716L59.6139 30.7895L94.3887 50.7092C95.4846 51.2972 96.2882 52.3998 96.5804 53.6493C96.9457 54.8989 96.8727 56.222 96.2882 57.3245ZM100.599 47.1809L96.1421 50.4886L95.4846 50.0476C95.2654 49.9006 95.1193 49.7536 94.9732 49.6801L60.0523 29.7604L61.9517 26.5998C62.0248 26.4527 62.0248 26.3057 62.0248 26.1587C62.0248 26.0117 61.8787 25.8647 61.8056 25.7912C61.6595 25.7177 61.5134 25.7177 61.3673 25.7177C61.2212 25.7177 61.0751 25.8647 61.002 25.9382L57.4953 31.8921C57.4222 31.9656 57.4222 32.1126 57.4222 32.1861V46.8134C57.4222 50.5621 54.5731 53.5758 50.9933 53.5758C47.4866 53.5758 44.5643 50.5621 44.5643 46.8134V32.1861L47.9249 18.1468H66.5543L75.6133 21.3074C75.7594 21.3809 75.9786 21.3074 76.1247 21.2339L79.7775 18.2938L79.8505 18.3673L100.599 47.0339V47.1809Z" fill="#2C4295"/>
<path d="M8.10884 51.2405L1.80811 47.5073L21.2704 12.1477L27.5011 15.9513L8.10884 51.2405Z" fill="#F0F2F5"/>
<path d="M104.545 45.6318L110.068 41.1111L86.1439 8.49438L80.6206 12.659L104.545 45.6318Z" fill="#F0F2F5"/>
<path d="M6.44727 47.5C8.6564 47.5 10.4473 45.7091 10.4473 43.5C10.4473 41.2909 8.6564 39.5 6.44727 39.5C4.23813 39.5 2.44727 41.2909 2.44727 43.5C2.44727 45.7091 4.23813 47.5 6.44727 47.5Z" fill="#2C4295"/>
</svg>
