<svg width="52" height="61" viewBox="0 0 52 61" fill="none" xmlns="http://www.w3.org/2000/svg">
<path fill-rule="evenodd" clip-rule="evenodd" d="M25.5923 0.737793L31.9939 4.60672C31.9939 4.60672 29.4456 10.0637 35.4704 13.5421C42.1151 17.3784 44.9469 12.0852 44.9469 12.0852L51.4983 15.6947L44.0638 28.5716C44.0521 28.4121 43.9641 28.2609 43.8151 28.1749L42.5377 27.4374C42.2985 27.2993 41.9928 27.3813 41.8547 27.6204C41.7166 27.8596 41.7985 28.1653 42.0377 28.3034L43.3151 29.0409C43.4641 29.1269 43.639 29.1276 43.783 29.058L25.9061 60.0218L22.6678 58.1522L19.4295 56.2826L16.1913 54.413L12.953 52.5434L9.71477 50.6737L6.47651 48.8041L3.23826 46.9345L0 45.0649L17.7673 14.2909L19.0447 15.0284C19.2839 15.1665 19.5897 15.0845 19.7277 14.8454C19.8658 14.6063 19.7839 14.3005 19.5447 14.1624L18.2673 13.4249L25.5923 0.737793ZM21.4165 15.8204C21.5546 15.5813 21.8603 15.4993 22.0995 15.6374L24.6543 17.1124C24.8934 17.2505 24.9753 17.5563 24.8373 17.7954C24.6992 18.0345 24.3934 18.1165 24.1543 17.9784L21.5995 16.5034C21.3603 16.3653 21.2784 16.0595 21.4165 15.8204ZM26.526 18.7704C26.6641 18.5313 26.9699 18.4493 27.209 18.5874L29.7638 20.0624C30.003 20.2005 30.0849 20.5063 29.9468 20.7454C29.8088 20.9845 29.503 21.0665 29.2638 20.9284L26.709 19.4534C26.4699 19.3153 26.388 19.0095 26.526 18.7704ZM31.6356 21.7204C31.7736 21.4813 32.0794 21.3993 32.3186 21.5374L34.8734 23.0124C35.1125 23.1505 35.1945 23.4563 35.0564 23.6954C34.9183 23.9345 34.6125 24.0165 34.3734 23.8784L31.8186 22.4034C31.5794 22.2653 31.4975 21.9595 31.6356 21.7204ZM36.7451 24.6704C36.8832 24.4313 37.189 24.3493 37.4281 24.4874L39.9829 25.9624C40.2221 26.1005 40.304 26.4063 40.1659 26.6454C40.0279 26.8846 39.7221 26.9665 39.4829 26.8284L36.9281 25.3534C36.689 25.2153 36.6071 24.9095 36.7451 24.6704ZM24.5238 31.9656L20.1268 27.4767L18.5634 33.5627L12.9354 36.3573L18.2404 39.7249L19.1592 45.9411L24.0013 41.9363L30.1971 42.9835L27.8847 37.1408L30.7951 31.5718L24.5238 31.9656Z" fill="url(#paint0_linear)"/>
<defs>
<linearGradient id="paint0_linear" x1="25.7492" y1="0.737793" x2="25.7492" y2="60.0218" gradientUnits="userSpaceOnUse">
<stop stop-color="#0047B0"/>
<stop offset="1" stop-color="#6CC8E8"/>
</linearGradient>
</defs>
</svg>
