<svg width="23" height="12" viewBox="0 0 23 12" fill="none" xmlns="http://www.w3.org/2000/svg">
<path d="M22.1147 11.5526H19.0236C18.4117 11.5526 17.977 11.415 17.6005 11.1617C17.223 10.9077 16.9026 10.5366 16.5206 10.0659C16.124 9.57587 15.836 9.23946 15.4952 9.02659C15.153 8.8129 14.7599 8.72489 14.1553 8.72489C13.7332 8.72489 13.4083 9.06603 13.1824 9.51205C12.9556 9.95959 12.8236 10.5215 12.7904 10.9821L12.7485 11.5519L12.1617 11.535C12.1616 11.535 12.1615 11.535 12.1614 11.5349C9.8206 11.403 7.7952 10.5442 6.01233 8.86185C4.22878 7.17886 2.68716 4.67086 1.31648 1.23952L1.31648 1.23951L0.989539 0.421387H4.65717C4.66294 0.434842 4.67232 0.457699 4.68544 0.49005C4.69196 0.506145 4.69935 0.524409 4.70756 0.544723C4.72342 0.583952 4.74236 0.630827 4.7642 0.684482C4.83055 0.847465 4.92379 1.07352 5.0396 1.34129C5.27118 1.87679 5.59304 2.57932 5.97045 3.27812C6.34774 3.9767 6.7811 4.67258 7.23585 5.19416C7.68941 5.71436 8.16943 6.06719 8.64055 6.06719C8.93937 6.06719 9.16499 5.88196 9.33199 5.59413C9.49884 5.30655 9.60983 4.9126 9.67957 4.48448C9.81912 3.6279 9.79483 2.626 9.71464 2.0417L9.71463 2.04158C9.64341 1.54115 9.54187 1.35402 9.40796 1.18394C9.38424 1.15382 9.35966 1.12438 9.33417 1.09386C9.22195 0.959501 9.0922 0.804152 8.94231 0.477421L9.88051 0.446285L9.88083 0.44627C10.9684 0.395895 11.9398 0.491806 12.4753 0.559649L12.4753 0.55965C12.7258 0.591282 12.9331 0.772495 12.9751 1.01911C13.0046 1.19263 13.0156 1.54784 12.953 2.5718L12.953 2.57182C12.9197 3.12347 12.8671 4.03894 12.9582 4.78572C13.0036 5.15867 13.0853 5.4929 13.2254 5.71888C13.2956 5.83221 13.3814 5.91958 13.4859 5.97027C13.5907 6.02112 13.7122 6.03396 13.8517 6.00187C14.1315 5.93753 14.4538 5.73305 14.7911 5.44025C15.129 5.14693 15.4843 4.76284 15.8301 4.33577C16.5218 3.48168 17.1775 2.45358 17.582 1.63072C17.6057 1.5825 17.642 1.48115 17.6827 1.35819C17.7236 1.23457 17.7696 1.08729 17.8127 0.945944C17.8558 0.804576 17.896 0.66903 17.9254 0.568834L17.9605 0.448719L17.9685 0.421387H22.1119C21.9613 0.687267 21.8942 0.881716 21.8195 1.09836C21.6402 1.61831 21.4167 2.26612 19.8878 4.33607C19.5099 4.84701 19.0181 5.75888 18.8524 6.1976C18.6465 6.70984 18.8463 7.13315 19.0467 7.39854L19.047 7.3989C19.1843 7.5739 19.3748 7.78017 19.5935 8.01229C19.6347 8.05605 19.6769 8.10075 19.72 8.14635C19.9058 8.34289 20.1074 8.5562 20.3121 8.78402C20.8167 9.34546 21.3387 9.99335 21.6858 10.6901C21.6858 10.6901 21.6858 10.6902 21.6858 10.6902L22.1147 11.5526Z" fill="white" stroke="#0B4DCE" stroke-width="0.0488281"/>
</svg>
