<svg width="22" height="12" viewBox="0 0 22 12" fill="none" xmlns="http://www.w3.org/2000/svg">
<path d="M18.9539 3.9536C21.1477 0.983588 20.6612 0.927947 21.2006 0H16.9966C16.9966 0 16.6979 1.03729 16.6066 1.22297C15.7992 2.8652 13.9881 5.32926 12.8927 5.5811C11.8142 5.82923 11.9574 3.28041 12.0238 2.17632C12.0864 1.15294 12.0758 0.794828 12.0457 0.618038C12.0017 0.359727 11.7849 0.171291 11.5248 0.138456C10.9887 0.070522 10.0157 -0.0255562 8.92621 0.0249091L7.95152 0.0572587C8.33583 0.916948 8.59543 0.653461 8.73696 1.64805C8.89677 2.81247 8.83385 5.6458 7.68706 5.6458C5.84863 5.6458 3.78506 0.124384 3.71939 0H0L0.340317 0.851602C3.08307 7.71779 6.51342 10.8979 11.2069 11.1624L11.8176 11.18L11.8613 10.5869C11.9273 9.67089 12.3868 8.35233 13.2018 8.35233C14.4061 8.35233 14.754 8.703 15.5482 9.68432C16.3118 10.6252 16.8379 11.18 18.0701 11.18H21.2006L20.7542 10.2823C20.057 8.8827 18.6587 7.68285 18.1127 6.98685C17.9149 6.72482 17.7201 6.31059 17.9216 5.80949C18.0865 5.3731 18.5772 4.46294 18.9539 3.9536Z" fill="white"/>
</svg>
