<svg width="41" height="22" viewBox="0 0 41 22" fill="none" xmlns="http://www.w3.org/2000/svg">
<path d="M-172 557L-172 32.4584C-172 26.9446 -167.537 22.4712 -162.023 22.4584L-0.852296 22.0844C0.189086 22.082 1.20361 21.7545 2.04993 21.1477L29.3523 1.56937C32.6323 -0.782661 37.2036 1.52038 37.2655 5.55603L37.4432 17.1573C37.4851 19.8885 39.7111 22.0807 42.4426 22.0807L1168 22.0807C1173.52 22.0807 1178 26.5579 1178 32.0807L1178 557C1178 562.523 1173.52 567 1168 567L-162 567C-167.523 567 -172 562.523 -172 557Z" fill="#D6EDFD"/>
</svg>
