<svg width="163" height="232" viewBox="0 0 163 232" fill="none" xmlns="http://www.w3.org/2000/svg">
<path opacity="0.3" d="M96.5065 37.3057C92.7185 37.6029 90.3411 37.2745 86.7649 39.2252C84.2589 40.5921 83.7808 40.9153 80.6897 44.3935C82.62 39.9423 82.7778 38.5756 82.8869 36.6844C83.1483 32.151 83.571 28.3394 81.4625 24.3177C76.9819 15.7711 67.4644 10.1849 58.8374 13.0482C55.1432 14.2743 52.2251 16.8369 50.3478 20.1253C46.8768 18.612 43.0056 18.3027 39.3114 19.5288C30.6844 22.3921 26.2901 32.5449 29.4965 42.2059C30.7414 46.0369 33.1252 49.3971 36.3294 51.8376C39.7729 55.0234 44.0199 57.8749 48.2286 60.2886C43.6712 59.3489 38.8372 58.7073 34.4065 58.8222C30.6179 58.5315 26.8366 59.4689 23.6227 61.4957C15.5525 66.5435 12.9176 76.886 17.7381 84.5956C19.7402 87.7893 22.8087 90.1702 26.3989 91.3157C25.8569 95.0456 26.6538 98.8472 28.6481 102.046C33.4689 109.755 43.9192 111.913 51.9902 106.866C55.2192 104.863 59.0124 103.049 61.4984 99.4922C66.1584 92.8249 67.0205 89.0574 68.1447 79.5683C70.1612 87.4842 72.3618 89.3677 67.913 110.294L71.6865 111.487C75.1353 101.43 78.268 88.8608 72.5414 77.0517C77.125 81.1918 84.4192 85.3145 90.0866 88.0573C93.3197 90.0555 97.11 90.9592 100.896 90.6344C110.383 89.8551 117.47 81.8769 116.724 72.8146C116.41 69.0584 114.776 65.5347 112.112 62.8689C114.305 59.8035 115.341 56.0597 115.035 52.3022C114.289 43.2409 105.994 36.5262 96.5065 37.3057Z" fill="white"/>
<path opacity="0.3" d="M147.403 180.92C144.813 180.633 143.254 180.106 140.594 180.961C138.73 181.559 138.367 181.716 135.837 183.661C137.71 180.911 137.992 180.011 138.308 178.751C139.067 175.73 139.842 173.217 138.939 170.237C137.019 163.903 131.326 158.916 125.146 159.736C122.5 160.087 120.205 161.438 118.517 163.412C116.374 161.947 113.806 161.241 111.159 161.592C104.98 162.411 100.714 168.686 101.632 175.606C101.978 178.347 103.152 180.917 104.997 182.973C106.907 185.562 109.401 188.029 111.926 190.196C108.977 188.977 105.803 187.923 102.804 187.431C100.289 186.748 97.6211 186.893 95.1955 187.846C89.1101 190.209 86.0055 196.837 88.2616 202.65C89.1998 205.059 90.9608 207.058 93.232 208.291C92.3874 210.734 92.4355 213.397 93.3678 215.808C95.6241 221.622 102.387 224.419 108.472 222.056C110.905 221.122 113.694 220.388 115.826 218.311C119.822 214.419 120.887 211.992 122.864 205.744C123.205 211.336 124.445 212.887 118.758 226.412L121.147 227.701C124.763 221.37 128.489 213.305 126.15 204.614C128.705 207.992 133.089 211.707 136.554 214.283C138.475 216.045 140.912 217.141 143.505 217.409C149.996 218.104 155.795 213.64 156.458 207.44C156.729 204.869 156.082 202.285 154.63 200.147C156.501 198.364 157.68 195.975 157.957 193.404C158.62 187.204 153.895 181.615 147.403 180.92Z" fill="white"/>
</svg>
