<svg width="221" height="244" viewBox="0 0 221 244" fill="none" xmlns="http://www.w3.org/2000/svg">
<path opacity="0.3" d="M188.507 37.3052C184.719 37.6024 182.341 37.274 178.765 39.2247C176.259 40.5916 175.781 40.9148 172.69 44.393C174.62 39.9418 174.778 38.5752 174.887 36.6839C175.148 32.1505 175.571 28.339 173.463 24.3172C168.982 15.7706 159.464 10.1844 150.837 13.0477C147.143 14.2738 144.225 16.8364 142.348 20.1248C138.877 18.6115 135.006 18.3022 131.311 19.5283C122.684 22.3916 118.29 32.5444 121.497 42.2054C122.741 46.0364 125.125 49.3966 128.329 51.8371C131.773 55.0229 136.02 57.8744 140.229 60.2881C135.671 59.3484 130.837 58.7068 126.406 58.8217C122.618 58.531 118.837 59.4684 115.623 61.4952C107.553 66.543 104.918 76.8855 109.738 84.5951C111.74 87.7888 114.809 90.1697 118.399 91.3152C117.857 95.0451 118.654 98.8467 120.648 102.045C125.469 109.755 135.919 111.913 143.99 106.866C147.219 104.863 151.012 103.049 153.498 99.4917C158.158 92.8244 159.02 89.0569 160.145 79.5678C162.161 87.4838 164.362 89.3673 159.913 110.293L163.687 111.486C167.135 101.43 170.268 88.8603 164.541 77.0512C169.125 81.1914 176.419 85.314 182.087 88.0568C185.32 90.055 189.11 90.9587 192.896 90.634C202.383 89.8546 209.47 81.8764 208.724 72.8141C208.41 69.058 206.776 65.5342 204.112 62.8684C206.305 59.803 207.341 56.0592 207.035 52.3017C206.289 43.2404 197.994 36.5258 188.507 37.3052Z" fill="white"/>
<path opacity="0.3" d="M105.403 192.92C102.813 192.633 101.254 192.106 98.5942 192.96C96.7303 193.559 96.3667 193.715 93.8372 195.661C95.7098 192.91 95.9918 192.01 96.3084 190.75C97.0673 187.73 97.8421 185.216 96.9388 182.236C95.0192 175.903 89.3259 170.916 83.1462 171.736C80.5 172.087 78.2048 173.438 76.5174 175.412C74.3737 173.946 71.8056 173.24 69.1594 173.591C62.9797 174.411 58.7143 180.685 59.6323 187.606C59.9784 190.347 61.1522 192.917 62.997 194.973C64.9071 197.561 67.4015 200.028 69.9264 202.195C66.9771 200.976 63.8032 199.923 60.8037 199.43C58.2889 198.748 55.6211 198.893 53.1955 199.845C47.1101 202.208 44.0055 208.837 46.2616 214.65C47.1998 217.059 48.9608 219.057 51.232 220.29C50.3874 222.733 50.4355 225.397 51.3678 227.808C53.6241 233.621 60.3866 236.418 66.4724 234.056C68.9051 233.122 71.6936 232.387 73.8256 230.311C77.8219 226.418 78.887 223.991 80.8642 217.743C81.205 223.335 82.4453 224.887 76.7581 238.412L79.1468 239.7C82.7629 233.369 86.4892 225.305 84.1496 216.613C86.7051 219.992 91.0888 223.707 94.554 226.283C96.4751 228.045 98.9123 229.141 101.505 229.409C107.996 230.103 113.795 225.64 114.458 219.439C114.729 216.869 114.082 214.285 112.63 212.146C114.501 210.363 115.68 207.974 115.957 205.404C116.62 199.204 111.895 193.614 105.403 192.92Z" fill="white"/>
<path opacity="0.3" d="M40.2021 92.6159C39.0334 91.7895 38.424 91.1218 36.9183 90.8253C35.8633 90.6176 35.647 90.596 33.9139 90.8588C35.5452 90.0346 35.9201 89.6768 36.4072 89.1553C37.5749 87.9053 38.6154 86.9032 38.9735 85.2306C39.7345 81.6761 38.3237 77.7656 35.1354 76.5168C33.7702 75.9821 32.3078 76.0214 30.972 76.5216C30.3312 75.2472 29.2845 74.2252 27.9193 73.6904C24.731 72.4416 21.0128 74.3236 19.6143 77.894C19.0521 79.3034 18.9331 80.8507 19.2732 82.3294C19.5031 84.0815 20.0463 85.9304 20.6838 87.6432C19.5902 86.2733 18.3448 84.9231 17.0339 83.8891C16.0066 82.8923 14.6857 82.253 13.2667 82.0658C9.71351 81.5839 6.45913 83.9445 5.99815 87.3386C5.80872 88.7457 6.12392 90.1744 6.88778 91.371C5.83237 92.3207 5.14745 93.6137 4.95462 95.0204C4.4937 98.4145 7.00059 101.557 10.5538 102.039C11.9715 102.237 13.507 102.625 15.0838 102.194C18.0394 101.385 19.1966 100.502 21.8079 98.0243C20.4851 100.803 20.6688 101.878 14.3397 106.867L15.1453 108.122C18.5664 106.04 22.5014 103.154 23.6874 98.3545C24.0177 100.658 25.1372 103.609 26.1179 105.768C26.5729 107.126 27.453 108.3 28.6278 109.118C31.5631 111.178 35.5373 110.574 37.5042 107.77C38.3181 106.606 38.6937 105.192 38.5641 103.778C39.9377 103.419 41.1394 102.584 41.9561 101.422C43.9227 98.6183 43.1375 94.6754 40.2021 92.6159Z" fill="white"/>
</svg>
