<svg width="168" height="243" viewBox="0 0 168 243" fill="none" xmlns="http://www.w3.org/2000/svg">
<path opacity="0.3" d="M132.507 37.3052C128.719 37.6024 126.341 37.274 122.765 39.2247C120.259 40.5916 119.781 40.9148 116.69 44.393C118.62 39.9418 118.778 38.5752 118.887 36.6839C119.148 32.1505 119.571 28.339 117.463 24.3172C112.982 15.7706 103.464 10.1844 94.8374 13.0477C91.1432 14.2738 88.2251 16.8364 86.3478 20.1248C82.8768 18.6115 79.0056 18.3022 75.3114 19.5283C66.6844 22.3916 62.2901 32.5444 65.4965 42.2054C66.7414 46.0364 69.1252 49.3966 72.3294 51.8371C75.7729 55.0229 80.0199 57.8744 84.2286 60.2881C79.6712 59.3484 74.8372 58.7068 70.4065 58.8217C66.6179 58.531 62.8366 59.4684 59.6227 61.4952C51.5525 66.543 48.9176 76.8855 53.7381 84.5951C55.7402 87.7888 58.8087 90.1697 62.3989 91.3152C61.8569 95.0451 62.6538 98.8467 64.6481 102.045C69.4689 109.755 79.9192 111.913 87.9902 106.866C91.2192 104.863 95.0124 103.049 97.4984 99.4917C102.158 92.8244 103.02 89.0569 104.145 79.5678C106.161 87.4838 108.362 89.3673 103.913 110.293L107.687 111.486C111.135 101.43 114.268 88.8603 108.541 77.0512C113.125 81.1914 120.419 85.314 126.087 88.0568C129.32 90.055 133.11 90.9587 136.896 90.634C146.383 89.8546 153.47 81.8764 152.724 72.8141C152.41 69.058 150.776 65.5342 148.112 62.8684C150.305 59.803 151.341 56.0592 151.035 52.3017C150.289 43.2404 141.994 36.5258 132.507 37.3052Z" fill="white"/>
<path opacity="0.3" d="M64.8038 191.842C62.2138 191.555 60.6545 191.028 57.9946 191.883C56.1307 192.481 55.7671 192.638 53.2376 194.583C55.1102 191.833 55.3922 190.933 55.7088 189.673C56.4677 186.652 57.2425 184.139 56.3392 181.159C54.4195 174.825 48.7263 169.839 42.5466 170.658C39.9004 171.009 37.6052 172.361 35.9178 174.334C33.7741 172.869 31.206 172.163 28.5598 172.514C22.3801 173.334 18.1147 179.608 19.0327 186.528C19.3788 189.269 20.5526 191.839 22.3974 193.895C24.3075 196.484 26.8019 198.951 29.3268 201.118C26.3775 199.899 23.2036 198.845 20.2041 198.353C17.6893 197.67 15.0215 197.816 12.5959 198.768C6.51051 201.131 3.40587 207.759 5.66203 213.572C6.60015 215.981 8.36115 217.98 10.6324 219.213C9.78779 221.656 9.83589 224.319 10.7682 226.73C13.0245 232.544 19.787 235.341 25.8728 232.978C28.3055 232.044 31.094 231.31 33.226 229.233C37.2223 225.341 38.2874 222.914 40.2646 216.666C40.6054 222.258 41.8457 223.81 36.1585 237.334L38.5472 238.623C42.1633 232.292 45.8896 224.227 43.55 215.536C46.1055 218.914 50.4892 222.629 53.9544 225.206C55.8755 226.967 58.3127 228.063 60.905 228.331C67.396 229.026 73.1956 224.562 73.8582 218.362C74.1298 215.791 73.4821 213.207 72.0299 211.069C73.9013 209.286 75.0804 206.897 75.3577 204.327C76.0202 198.126 71.2951 192.537 64.8038 191.842Z" fill="white"/>
<path opacity="0.3" d="M157.915 173.081C156.747 172.255 156.137 171.587 154.632 171.291C153.577 171.083 153.36 171.062 151.627 171.324C153.259 170.5 153.633 170.142 154.121 169.621C155.288 168.371 156.329 167.369 156.687 165.696C157.448 162.142 156.037 158.231 152.849 156.982C151.484 156.448 150.021 156.487 148.685 156.987C148.045 155.713 146.998 154.691 145.633 154.156C142.444 152.907 138.726 154.789 137.328 158.36C136.765 159.769 136.646 161.316 136.987 162.795C137.216 164.547 137.76 166.396 138.397 168.109C137.304 166.739 136.058 165.389 134.747 164.355C133.72 163.358 132.399 162.719 130.98 162.531C127.427 162.049 124.173 164.41 123.712 167.804C123.522 169.211 123.837 170.64 124.601 171.837C123.546 172.786 122.861 174.079 122.668 175.486C122.207 178.88 124.714 182.022 128.267 182.505C129.685 182.702 131.22 183.091 132.797 182.659C135.753 181.851 136.91 180.967 139.521 178.49C138.198 181.268 138.382 182.344 132.053 187.333L132.859 188.587C136.28 186.505 140.215 183.62 141.401 178.82C141.731 181.123 142.851 184.074 143.831 186.234C144.286 187.591 145.166 188.766 146.341 189.584C149.276 191.643 153.251 191.04 155.218 188.235C156.032 187.072 156.407 185.658 156.278 184.244C157.651 183.884 158.853 183.05 159.669 181.888C161.636 179.084 160.851 175.141 157.915 173.081Z" fill="white"/>
</svg>
