<svg width="20" height="16" viewBox="0 0 20 16" fill="none" xmlns="http://www.w3.org/2000/svg">
<path fill-rule="evenodd" clip-rule="evenodd" d="M4.4691 0.553201C1.93204 0.806907 0 2.94179 0 5.4915V10.5087C0 13.0584 1.93204 15.1933 4.4691 15.447C8.1472 15.8148 11.8528 15.8148 15.5309 15.447C18.068 15.1933 20 13.0584 20 10.5087V5.4915C20 2.94179 18.068 0.806907 15.5309 0.553201C11.8528 0.185391 8.1472 0.185391 4.4691 0.553201ZM8.5547 3.53658C7.89015 3.09354 7 3.56993 7 4.36863L7 11.8006C7 12.5631 7.81911 13.045 8.48564 12.6748L14.5663 9.29658C15.2208 8.933 15.2583 8.00565 14.6354 7.59038L8.5547 3.53658Z" fill="white"/>
</svg>
