<svg width="21" height="16" viewBox="0 0 21 16" fill="none" xmlns="http://www.w3.org/2000/svg">
<path fill-rule="evenodd" clip-rule="evenodd" d="M4.73876 0.540261C2.2017 0.793967 0.269653 2.92885 0.269653 5.47856V10.4958C0.269653 13.0455 2.20169 15.1804 4.73875 15.4341C8.41685 15.8019 12.1225 15.8019 15.8006 15.4341C18.3376 15.1804 20.2697 13.0455 20.2697 10.4958V5.47856C20.2697 2.92885 18.3376 0.793967 15.8006 0.540261C12.1225 0.172452 8.41685 0.172452 4.73876 0.540261ZM8.82436 3.52364C8.1598 3.0806 7.26965 3.55699 7.26965 4.35569L7.26965 11.7877C7.26965 12.5501 8.08877 13.0321 8.7553 12.6618L14.836 9.28364C15.4904 8.92006 15.528 7.99272 14.9051 7.57744L8.82436 3.52364Z" fill="white"/>
</svg>
