<svg width="84" height="132" viewBox="0 0 84 132" fill="none" xmlns="http://www.w3.org/2000/svg"><path opacity=".5" d="M.501 108.688v-1h-1v1h1zm30.08 0v1h1v-1h-1zm0-79.712h1v-1.94l-1.58 1.126.58.814zM.501 50.408h-1v1.94l1.58-1.126-.58-.814zm0-27.448l-.579-.815-.421.299v.516h1zM32.273.4v-1h-.319l-.26.185.579.815zm26.508 0h1v-1h-1v1zm0 108.288h-1v1h1v-1zm24.44 0h1v-1h-1v1zm0 23.312v1h1v-1h-1zm-82.72 0h-1v1h1v-1zm0-22.312h30.08v-2H.501v2zm31.08-1V28.976h-2v79.712h2zm-1.58-80.526L-.08 49.594l1.16 1.628L31.16 29.79 30 28.162zM1.5 50.408V22.96h-2v27.448h2zm-.42-26.633l31.772-22.56-1.158-1.63-31.772 22.56 1.158 1.63zM32.273 1.4h26.508v-2H32.273v2zm25.508-1v108.288h2V.4h-2zm1 109.288h24.44v-2h-24.44v2zm23.44-1V132h2v-23.312h-2zm1 22.312H.501v2h82.72v-2zm-81.72 1v-23.312h-2V132h2z" fill="#9CC9EF"/></svg>