<svg width="101" height="134" viewBox="0 0 101 134" fill="none" xmlns="http://www.w3.org/2000/svg"><path opacity=".5" d="M.777 113.508l-.653-.758-.347.299v.459h1zm46.06-39.668l.652.758.01-.008-.662-.75zm10.904-9.776l.675.737.009-.007.008-.008-.692-.722zm7.332-7.896l-.785-.62.785.62zm3.948-6.956l-.932-.363-.01.024-.007.023.949.316zm-3.196-20.304l-.748.664.007.007.006.007.735-.678zm-29.328.564l.695.719-.695-.719zm-5.64 18.988v1h1v-1h-1zm-28.2 0h-1v1h1v-1zm12.596-35.344l-.713-.702-.005.005.718.697zM72.405 3.34l-.354.935.013.005.012.004.329-.944zm14.476 8.648l-.696.719.006.005.007.006.683-.73zm8.648 13.16l-.94.344.004.01.004.01.932-.364zm.564 29.704l.926.376.004-.01-.93-.366zm-6.768 11.656l-.794-.608-.006.008-.007.009.807.591zM79.549 77.6l.682.731.006-.006.007-.006-.695-.719zM67.517 88.128l-.636-.772-.005.004.64.768zm-27.072 22.56l-.64-.768-2.122 1.768h2.762v-1zm59.972 0h1v-1h-1v1zm0 23.312v1h1v-1h-1zm-99.64 0h-1v1h1v-1zm.652-19.734l46.06-39.668-1.305-1.516L.124 112.75l1.305 1.516zM47.5 74.59a789.317 789.317 0 0 0 10.915-9.79l-1.351-1.474a786.542 786.542 0 0 1-10.89 9.763l1.323 1.5zm10.934-9.804c3.03-2.904 5.508-5.57 7.425-7.998l-1.57-1.24c-1.843 2.335-4.253 4.932-7.24 7.794l1.385 1.444zm7.425-7.998c1.932-2.449 3.314-4.868 4.111-7.26l-1.897-.632c-.707 2.12-1.957 4.338-3.784 6.652l1.57 1.24zm4.095-7.214c.926-2.38 1.384-4.949 1.384-7.694h-2c0 2.519-.42 4.839-1.248 6.97l1.864.724zm1.384-7.694c0-5.584-1.564-10.169-4.778-13.65l-1.47 1.356c2.803 3.036 4.248 7.1 4.248 12.294h2zm-4.765-13.636c-3.25-3.658-8.01-5.412-14.095-5.412v2c5.696 0 9.835 1.63 12.6 4.74l1.495-1.328zm-14.095-5.412c-6.96 0-12.56 1.938-16.676 5.921l1.391 1.438c3.655-3.537 8.708-5.359 15.285-5.359v-2zm-16.675 5.921c-4.057 3.921-5.945 10.596-5.945 19.707h2c0-8.937 1.871-14.92 5.335-18.269l-1.39-1.438zM30.857 47.46h-28.2v2h28.2v-2zm-27.2 1c0-14.72 4.138-26.228 12.313-34.647l-1.435-1.394C5.915 21.296 1.657 33.35 1.657 48.46h2zm12.308-34.642c8.277-8.4 20.392-12.674 36.512-12.674v-2c-16.467 0-29.169 4.373-37.936 13.27l1.424 1.404zM52.477 1.144c7.555 0 14.073 1.053 19.574 3.131l.707-1.87C66.98.22 60.212-.856 52.477-.856v2zm19.6 3.14c5.645 1.964 10.34 4.776 14.108 8.423l1.391-1.438c-4.002-3.873-8.958-6.827-14.843-8.874l-.657 1.89zm14.12 8.434c3.768 3.525 6.565 7.778 8.393 12.774l1.878-.688c-1.932-5.281-4.901-9.801-8.904-13.546l-1.366 1.46zm8.4 12.794c1.956 5.012 2.94 10.465 2.94 16.368h2c0-6.13-1.022-11.83-3.077-17.096l-1.863.728zm2.94 16.368c0 4.389-.792 8.588-2.375 12.605l1.861.733c1.676-4.254 2.514-8.703 2.514-13.338h-2zm-2.37 12.596c-1.593 3.92-3.803 7.728-6.636 11.424l1.587 1.216c2.932-3.824 5.235-7.787 6.901-11.888l-1.853-.752zm-6.649 11.44c-2.72 3.71-5.94 7.365-9.664 10.965l1.39 1.438c3.796-3.67 7.093-7.409 9.887-11.22l-1.613-1.182zM78.866 76.87a257.07 257.07 0 0 1-11.985 10.487l1.271 1.544A258.999 258.999 0 0 0 80.231 78.33l-1.365-1.462zm-11.99 10.49l-27.072 22.56 1.28 1.536 27.073-22.56-1.28-1.536zm-26.431 24.329h59.972v-2H40.445v2zm58.972-1V134h2v-23.312h-2zm1 22.312H.777v2h99.64v-2zm-98.64 1v-20.492h-2V134h2z" fill="#9CC9EF"/></svg>