<svg width="98" height="137" viewBox="0 0 98 137" fill="none" xmlns="http://www.w3.org/2000/svg"><path opacity=".5" d="M12.574 124.976l-.679.734.006.006.673-.74zM.166 93.58v-1h-1v1h1zm28.2 0h1v-1h-1v1zm4.888 14.288l-.693.721.007.006.007.007.679-.734zm31.208.188l.664.747.002-.001-.666-.746zM36.826 77.224h-1v1h1v-1zm0-21.808v-1h-1v1h1zm26.32-27.072l-.693.721.693-.721zm-28.388 0l.692.722-.692-.722zM30.246 40.94v1h1v-1h-1zm-28.2 0h-1v1h1v-1zm11.656-30.08l-.671-.742-.006.006.677.736zm56.024-7.896l-.304.953.01.003.008.002.286-.958zm14.664 7.52l-.643.766.008.006.007.006.628-.778zm8.648 11.28l-.92.394.006.01.005.012.909-.416zm-3.196 32.9l-.78-.627v.002l.78.625zM73.674 65.38l-.3-.954-3.24 1.02 3.275.898.265-.964zm17.86 11.092l-.786.618.004.005.005.006.777-.629zm3.008 36.472l-.904-.428.904.428zm-9.776 12.408l.633.774.003-.002-.636-.772zm-15.416 8.084l.298.955.012-.004-.31-.951zm-20.304 1.82c-15.901 0-27.778-3.728-35.8-11.02l-1.345 1.48c8.523 7.748 20.96 11.54 37.145 11.54v-2zm-35.793-11.014C5.223 116.82 1.166 106.641 1.166 93.58h-2c0 13.51 4.216 24.262 12.73 32.13l1.357-1.468zM.166 94.58h28.2v-2H.166v2zm27.2-1c0 6.549 1.67 11.62 5.195 15.009l1.386-1.442c-2.993-2.878-4.581-7.333-4.581-13.567h-2zm5.209 15.022c3.647 3.377 9.208 4.966 16.47 4.966v-2c-7.025 0-11.991-1.545-15.112-4.434l-1.358 1.468zm16.47 4.966c7.016 0 12.44-1.527 16.081-4.765l-1.328-1.494c-3.126 2.778-7.98 4.259-14.752 4.259v2zm16.083-4.766c3.764-3.361 5.598-8.043 5.598-13.906h-2c0 5.417-1.675 9.508-4.93 12.414l1.332 1.492zm5.598-13.906c0-6.09-1.789-10.826-5.52-14.014-3.702-3.163-9.148-4.658-16.16-4.658v2c6.774 0 11.668 1.45 14.86 4.178 3.162 2.702 4.82 6.802 4.82 12.494h2zm-21.68-18.672h-12.22v2h12.22v-2zm-11.22 1V55.416h-2v21.808h2zm-1-20.808h12.22v-2h-12.22v2zm12.22 0c6.138 0 11.024-1.277 14.522-3.967l-1.22-1.586c-3.02 2.323-7.408 3.553-13.302 3.553v2zm14.522-3.967c3.571-2.748 5.278-6.97 5.278-12.449h-2c0 5.049-1.552 8.597-4.498 10.863l1.22 1.586zM68.846 40c0-5.006-1.658-9.162-5.008-12.377l-1.385 1.442c2.917 2.8 4.393 6.415 4.393 10.935h2zm-5.008-12.377c-3.388-3.253-8.381-4.791-14.792-4.791v2c6.122 0 10.529 1.47 13.407 4.233l1.386-1.442zm-14.792-4.791c-6.53 0-11.59 1.535-14.98 4.79l1.384 1.443c2.876-2.76 7.342-4.233 13.596-4.233v-2zm-14.98 4.79c-3.263 3.127-4.82 7.623-4.82 13.318h2c0-5.334 1.45-9.235 4.204-11.874l-1.384-1.444zm-3.82 12.318h-28.2v2h28.2v-2zm-27.2 1c0-12.697 3.813-22.43 11.333-29.344l-1.354-1.472C5.004 17.498 1.045 27.818 1.045 40.94h2zm11.327-29.338c7.642-6.915 19.14-10.458 34.673-10.458v-2c-15.8 0-27.865 3.6-36.015 10.974l1.342 1.483zM49.046 1.144c7.82 0 14.606.931 20.376 2.773l.608-1.906C64.018.093 57.018-.856 49.046-.856v2zM69.44 3.922c5.786 1.724 10.545 4.174 14.306 7.328l1.286-1.532c-4.01-3.363-9.027-5.927-15.022-7.712l-.57 1.916zm14.321 7.34c3.764 3.036 6.544 6.666 8.357 10.896l1.838-.788c-1.947-4.544-4.933-8.434-8.94-11.664l-1.255 1.556zM92.13 22.18c1.941 4.247 2.917 8.867 2.917 13.872h2c0-5.273-1.03-10.178-3.099-14.704l-1.819.832zm2.917 13.872c0 7.066-2.005 13.042-5.983 17.985l1.558 1.254c4.294-5.335 6.425-11.766 6.425-19.239h-2zM89.06 54.039c-3.874 4.843-9.088 8.31-15.687 10.387l.6 1.908c6.937-2.184 12.501-5.86 16.649-11.045l-1.562-1.25zM73.41 66.344c7.608 2.086 13.36 5.682 17.339 10.746l1.572-1.236c-4.293-5.464-10.447-9.263-18.382-11.438l-.529 1.928zm17.348 10.757c4.081 5.042 6.169 11.755 6.169 20.239h2c0-8.813-2.173-16.01-6.615-21.497L90.757 77.1zm6.169 20.239c0 5.503-1.1 10.556-3.288 15.176l1.808.856c2.323-4.906 3.48-10.255 3.48-16.032h-2zm-3.288 15.176c-2.19 4.623-5.354 8.644-9.508 12.064l1.272 1.544c4.369-3.598 7.722-7.85 10.044-12.752l-1.808-.856zm-9.505 12.062c-4.023 3.291-9.046 5.933-15.093 7.907l.62 1.902c6.235-2.036 11.49-4.784 15.74-8.261l-1.267-1.548zm-15.081 7.904c-5.903 1.844-12.568 2.774-20.006 2.774v2c7.602 0 14.473-.95 20.602-2.866l-.596-1.908z" fill="#9CC9EF"/></svg>