<svg width="257" height="79" viewBox="0 0 257 79" fill="none" xmlns="http://www.w3.org/2000/svg"><path fill="#fff" d="M0 0h257v79H0z"/><path d="M152.064 30.204h3.041v14.76h-3.041v-14.76zm-21.413 0l6.019 14.76h-3.294l-1.457-3.61h-5.005l-1.394 3.61h-3.167l5.764-14.76h2.534zm.381 8.68l-.887-2.471c-.38-1.077-.507-1.711-.697-2.218h-.064c-.126.507-.316 1.14-.76 2.218l-.887 2.47h3.295zm-9.883-3.802c0 1.71-.76 3.548-2.914 4.435-.824.316-1.837.506-3.168.506h-.507v4.942h-3.04v-14.76h3.864c1.33 0 2.471.19 3.358.633 1.52.76 2.407 2.217 2.407 4.244zm-3.168 0c0-.823-.316-1.584-1.077-2.027-.443-.254-.95-.317-1.71-.317h-.634v4.815h.697c.634 0 1.204-.064 1.584-.317.76-.38 1.14-1.14 1.14-2.154zm29.395 5.638l2.407 4.245h-3.547l-1.964-3.548c-.76-1.394-1.267-1.964-1.584-2.027h-1.14v5.575h-3.041v-14.76h4.435c1.33 0 2.28.19 3.104.57 1.71.76 2.344 2.153 2.344 3.737 0 1.9-1.204 3.294-2.851 3.801v.063c.38.19 1.014 1.014 1.837 2.344zm-2.217-5.955c0-.76-.38-1.457-1.014-1.773-.317-.19-.76-.317-1.457-.317h-1.14v4.18h1.14c.697 0 1.077-.126 1.457-.316.634-.317 1.014-.887 1.014-1.774zm84.89 4.815c0 1.14 0 1.837.063 2.597h-.063c-.507-.76-1.204-1.71-2.154-2.977l-6.778-8.996h-1.584v14.76h1.647v-9.692c0-1.14 0-1.774-.063-2.534h.063c.507.76 1.204 1.647 2.09 2.85l7.096 9.377h1.393v-14.76h-1.647v9.375h-.063zm8.362-2.09l6.145-7.286h-1.964l-5.574 6.779h-.064v-6.779h-1.647v14.76h1.647V38.25h.064l5.891 6.715H245l-6.589-7.476zm-26.607-7.286l5.638 14.76h-1.774l-1.457-3.99h-5.955l-1.457 3.99h-1.774l5.575-14.76h1.204zm.317 5.132c-.444-1.267-.697-1.964-.887-2.535h-.064c-.19.57-.443 1.267-.886 2.535l-1.521 4.244h4.878l-1.52-4.244zM180.889 32.8h4.308v12.164h3.04V32.8h3.865l.823-2.597h-12.036V32.8zm22.869 7.983c0 2.47-1.773 4.18-5.004 4.18h-3.865v-14.76h3.421c3.104 0 4.498 1.71 4.498 3.738 0 1.52-.76 2.66-1.964 3.167v.064c1.647.38 2.914 1.71 2.914 3.61zm-7.222-4.055h1.584c1.964 0 3.041-.95 3.041-2.597 0-1.457-.824-2.534-2.977-2.534h-1.711v5.131h.063zm5.512 4.055c0-1.647-1.204-2.724-3.104-2.724h-2.408v5.448h2.218c1.964.063 3.294-.697 3.294-2.724zm-23.44-7.983l.824-2.597h-8.553v14.76h8.489v-2.596h-5.448v-3.611h4.688v-2.598h-4.688v-3.42h4.688v.063zm-21.476 0h4.308v12.164h3.041V32.8h3.864l.824-2.597h-12.037V32.8z" fill="#000"/><path d="M90.614 19.815l-8.806 8.805-4.624 4.625 4.308 4.308 8.805-8.87 8.806 8.87-4.181 4.181 4.498 4.561 8.869-8.806-17.675-17.674z" fill="#2C4395"/><path d="M90.614 37.49l-8.806 8.805-8.87-8.806 4.245-4.244-4.56-4.561-8.807 8.869 17.675 17.611 8.806-8.805 4.625-4.625-4.308-4.245z" fill="#2C4395"/><path d="M81.492 37.553l-4.308-4.308-4.245 4.245 8.87 8.805 8.805-8.806 4.308 4.245 4.181-4.181-8.805-8.87-8.806 8.87zM63.266 60.722V54.98h-1.86v2.089c0 .685-.032 1.272-.128 1.73-.097.456-.193.848-.385 1.109a1.31 1.31 0 0 1-.61.587c-.257.13-.545.163-.866.163H59v-.913h.16c.193 0 .353-.033.514-.098.16-.066.288-.229.385-.425a3.23 3.23 0 0 0 .256-.88c.064-.36.096-.85.096-1.47V54h3.818v6.625h-.963v.097zm2.457 0V54h4.481v.894h-3.413v1.987h2.896v.894h-2.896v2.02h3.413v.927h-4.481zm8.41-5.828v5.828H73v-5.828h-2.048V54h5.229v.894h-2.048z" fill="#007BC4"/><path fill-rule="evenodd" clip-rule="evenodd" d="M80.28 20.868a20.113 20.113 0 0 0-.82-.84c-1.933-1.873-4.193-3.345-6.779-4.418-2.588-1.073-5.338-1.61-8.25-1.61-2.963 0-5.725.537-8.286 1.61-2.56 1.073-4.797 2.545-6.705 4.417-1.909 1.872-3.416 4.08-4.52 6.625-1.105 2.546-1.657 5.267-1.657 8.16 0 1.626.18 3.193.528 4.707a13.584 13.584 0 0 0-1.922-2.16 16.477 16.477 0 0 0-4.632-2.958c-1.709-.722-3.416-1.16-5.123-1.31l13.108-16.546v-1.721H15.315v5.315H35.88L23.224 36.31v1.722h4.52c4.068 0 7.207.91 9.418 2.732 2.209 1.823 3.314 4.33 3.314 7.525 0 1.646-.29 3.157-.866 4.529a10.011 10.011 0 0 1-2.448 3.519c-1.056.972-2.298 1.722-3.73 2.245-1.43.525-2.975.787-4.633.787-1.557 0-2.963-.213-4.219-.636-1.255-.425-2.398-1-3.427-1.723a15.626 15.626 0 0 1-2.787-2.507 23.037 23.037 0 0 1-2.222-2.995L12 54.504a22.205 22.205 0 0 0 2.75 3.855 19.446 19.446 0 0 0 3.728 3.256 18.38 18.38 0 0 0 4.671 2.247c1.707.548 3.59.823 5.65.823 2.31 0 4.532-.374 6.667-1.123 2.135-.748 4.017-1.834 5.65-3.256 1.632-1.423 2.938-3.145 3.918-5.167.98-2.021 1.47-4.304 1.47-6.85 0-.913-.064-1.784-.189-2.613a20.608 20.608 0 0 0 3.087 3.923c1.884 1.872 4.107 3.345 6.667 4.418l.33.135 2.728-4.725a13.05 13.05 0 0 1-.797-.314c-1.859-.798-3.454-1.896-4.784-3.294-1.33-1.397-2.374-3.032-3.126-4.904-.754-1.872-1.13-3.905-1.13-6.102 0-2.195.377-4.241 1.13-6.139.752-1.896 1.795-3.53 3.126-4.903 1.33-1.373 2.925-2.458 4.784-3.257 1.857-.799 3.89-1.198 6.102-1.198 2.159 0 4.168.4 6.026 1.198 1.858.799 3.466 1.884 4.821 3.257.349.352.678.723.987 1.111l4.014-4.014z" fill="url(#a)"/><defs><linearGradient id="a" x1="16.997" y1="43.15" x2="85.207" y2="43.15" gradientUnits="userSpaceOnUse"><stop stop-color="#2C4395"/><stop offset="1" stop-color="#007BC4"/></linearGradient></defs></svg>