<svg width="89" height="26" viewBox="0 0 89 26" fill="none" xmlns="http://www.w3.org/2000/svg"><g clip-path="url(#a)" fill-rule="evenodd" clip-rule="evenodd"><path d="M84.169 25.998L89 0H4.83L0 26h84.169v-.002z" fill="#DA2C2C"/><path d="M13.566 12.405l-.065-.75h-.136l-.142.751-1.581 8.466H9.376l3.037-16.247h2.197l.818 8.465.065.752h.137l.141-.751 1.582-8.467h2.264L16.582 20.87h-2.197l-.819-8.466zm7.882-7.784h2.47l-3.036 16.247h-2.47L21.448 4.62zm5.454 7.779l-.066-.751H26.7l-.14.75-1.582 8.466h-2.265l3.036-16.247h2.198l.817 8.466.066.75h.138l.14-.75 1.584-8.467h2.265L29.92 20.864h-2.198l-.82-8.464zm6.985-4.446c.145-.774.862-3.515 3.883-3.516 3.022-.002 2.714 2.74 2.57 3.513l-1.727 9.242c-.215 1.15-.856 3.845-3.944 3.846-3.088 0-2.721-2.695-2.507-3.845l.19-1.016h2.47c-.408 2.188-.473 2.784.235 2.783.618 0 .855-.53 1.086-1.768l.57-3.05a2.8 2.8 0 0 1-1.31.398c-2.539 0-2.274-2.518-2.105-3.424l.589-3.163zm4.112-.71a.615.615 0 0 0-.619-.729 1.022 1.022 0 0 0-.89.73l-.88 4.708a.64.64 0 0 0 .618.73.956.956 0 0 0 .88-.665l.891-4.773zm7.053-.267h-3.706l.442-2.365h6.223L47.563 7l-5.059 13.86h-2.562l5.109-13.883zM49.2 4.61h5.65l-.46 2.453h-3.18l-.798 4.266H52.7l-.488 2.607h-2.286l-.833 4.468h3.18l-.46 2.453h-5.65L49.2 4.61zm11.507-.003h2.402l-5.598 16.246h-2.47l.473-16.245h2.402l-.434 8.93-.036.684h.138l.218-.685 2.905-8.93zm3.523 0h5.651l-.46 2.453h-3.18l-.797 4.266h2.288l-.487 2.606H64.96l-.835 4.469h3.18l-.46 2.452h-5.65l3.037-16.246zm8.177 7.777l-.066-.751h-.137l-.14.751-1.584 8.466h-2.266l3.04-16.247h2.197l.82 8.465.067.753h.138l.14-.752L76.2 4.603h2.265L75.43 20.85h-2.198l-.825-8.466z" fill="#fff"/></g><defs><clipPath id="a"><path fill="#fff" d="M0 0h89v25.807H0z"/></clipPath></defs></svg>