<svg width="80" height="27" viewBox="0 0 80 27" fill="none" xmlns="http://www.w3.org/2000/svg"><path fill-rule="evenodd" clip-rule="evenodd" d="M41.15 8.67c-.045 3.562 3.178 5.55 5.606 6.731 2.494 1.213 3.332 1.99 3.323 3.074-.02 1.66-1.99 2.392-3.835 2.42-3.218.05-5.089-.868-6.577-1.562l-1.159 5.418c1.493.687 4.256 1.287 7.122 1.313 6.727 0 11.128-3.317 11.152-8.459.026-6.526-9.038-6.887-8.976-9.804.021-.885.866-1.829 2.718-2.069.916-.12 3.446-.214 6.315 1.106l1.126-5.242C56.422 1.035 54.439.497 51.97.497c-6.331 0-10.785 3.362-10.82 8.174zM68.783.95a2.92 2.92 0 0 0-2.725 1.814l-9.61 22.915h6.722l1.338-3.692h8.214l.776 3.692h5.925L74.253.95h-5.47zm.94 6.68l1.94 9.286H66.35l3.373-9.286zM33 .95l-5.298 24.73h6.405L39.403.948H33zm-9.476 0l-6.667 16.832L14.16 3.469c-.316-1.597-1.566-2.52-2.954-2.52H.308l-.152.718c2.238.485 4.78 1.267 6.32 2.104.942.511 1.211.958 1.52 2.173l5.109 19.734h6.77L30.25.95h-6.727z" fill="#1A1F71"/></svg>