<svg width="51" height="58" viewBox="0 0 51 58" fill="none" xmlns="http://www.w3.org/2000/svg"><g clip-path="url(#a)" fill="#02649A"><path d="M4.766 54.723c.02.673-.514 1.168-1.187 1.168H1.82v-2.276H3.6c.633 0 1.147.435 1.167 1.108zm43.762-4.176v6.749c0 .118-.099.198-.217.198h-1.404c-.12 0-.218-.08-.218-.198v-6.75h-2.215c-.118 0-.197-.098-.197-.217v-1.168c0-.118.079-.217.197-.217h6.328c.119 0 .198.099.198.217v1.168c0 .119-.08.218-.198.218h-2.274zm-35.378 6.67v-1.128c0-.08-.059-.198-.197-.198H9.65c-.197 0-.593-.139-.593-.654v-1.623h3.52a.216.216 0 0 0 .217-.197v-1.148c0-.12-.079-.198-.237-.198h-3.5v-.91c0-.397.316-.594.593-.594h3.303c.158 0 .217-.12.217-.198V49.18c0-.119-.079-.198-.237-.198l-3.44-.02a2.305 2.305 0 0 0-2.295 2.276v4.038c0 1.247 1.048 2.236 2.255 2.236h3.5c.118 0 .197-.099.217-.197v-.08l-.02-.02zm14.021-4.275v-.06c.257-.158.475-.376.653-.613.178-.258.296-.554.375-.891l.554-2.177c.02-.099-.04-.238-.198-.238H27.23c-.04 0-.099 0-.138.02-.04.02-.08.06-.099.139l-.554 2.058a1.668 1.668 0 0 1-.257.594 1.15 1.15 0 0 1-.356.336c-.138.08-.257.12-.395.139-.139.02-.257.04-.376.02h-.969V49.16c0-.138-.119-.198-.198-.198h-1.424c-.118 0-.217.08-.217.198v8.154c0 .12.099.199.218.199h1.404c.118 0 .217-.08.217-.199v-3.621h.989c.277 0 .514.02.712.079.198.06.356.158.494.297.119.158.237.356.317.633l.751 2.652c.04.119.119.139.198.139h1.404a.207.207 0 0 0 .217-.238l-.751-2.83a2.899 2.899 0 0 0-.158-.495 1.274 1.274 0 0 0-.218-.396 1.297 1.297 0 0 0-.336-.316 2.485 2.485 0 0 0-.514-.258l-.02-.02zm5.122 1.246l.455-1.543.454-1.742h.08l.454 1.742.455 1.543h-1.918.02zm2.353 1.505l.475 1.583c.04.138.118.198.217.198h1.543c.138 0 .237-.119.197-.257l-2.53-7.62c-.12-.376-.297-.673-.733-.673h-1.087a.582.582 0 0 0-.554.257c-.079.1-.138.238-.198.416l-2.53 7.6c-.06.178.078.277.197.277h1.483c.04 0 .138 0 .217-.119.02-.04.02-.079.04-.099l.475-1.544h2.788v-.02zm7.594-4.058c0 .594-.475 1.128-1.128 1.128h-1.66v-2.236h1.581c.712-.02 1.187.515 1.187 1.128l.02-.02zm-2.769 5.582v-2.85h2.017a2.711 2.711 0 0 0 2.69-2.771 2.65 2.65 0 0 0-.238-1.069c-.336-.752-.949-1.247-1.68-1.484-.297-.1-.614-.12-.93-.12h-3.085c-.336 0-.593.219-.613.595v7.758c0 .119.08.198.218.198h1.443c.08 0 .139-.04.178-.119.02-.04.02-.079.02-.138h-.02zm-38.878.257h3.204c1.582.06 2.867-1.05 2.927-2.672 0-.139 0-.317-.02-.495-.277-1.346-1.345-2.256-2.69-2.256H1.86v-1.524h3.678c.138 0 .218-.099.218-.238v-1.088c0-.158-.06-.277-.218-.277H.653c-.495 0-.653.376-.653.594v7.342c0 .337.257.594.593.594v.02zm14.614-7.719l-.119 1.86c-.04.634-.079 1.188-.118 1.643-.06.772-.139 2.613-1.147 2.613h-.04a.198.198 0 0 0-.197.198v1.187c0 .139.079.218.197.218h.08c.75 0 1.403-.08 1.977-.95.178-.277.336-.574.455-.91.118-.337.197-.733.276-1.148.06-.416.12-.891.159-1.406.04-.514.079-1.068.118-1.662l.04-.851h2.373v6.729c0 .119.099.218.218.198h1.404c.138 0 .217-.1.217-.218v-7.719c0-.316-.277-.593-.652-.593H15.78c-.355 0-.573.316-.593.574 0 .079-.02.158-.02.237h.04z"/><path fill-rule="evenodd" clip-rule="evenodd" d="M29.9 27.47a.481.481 0 0 0-.475.475v4.294l2.868 3.662-6.447-6.452a.49.49 0 0 0-.672 0l-3.085 3.087-.574 4.572v-9.144a.481.481 0 0 0-.474-.475h-4.608l-3.401 2.771 6.447-6.452a.491.491 0 0 0 0-.673l-3.224-3.226-4.37-.415h9.136a.481.481 0 0 0 .474-.475v-4.355l-2.847-3.582 6.447 6.452a.49.49 0 0 0 .672 0l3.164-3.166.475-4.473v9.143a.48.48 0 0 0 .474.475h4.548l3.461-2.77-6.447 6.452a.49.49 0 0 0 0 .672l3.164 3.167 4.43.475H29.9v-.04zm18.37-1.07l-6.941-6.946-2.769-2.77 5.063 2.77a.481.481 0 0 0 .474-.475V9.835a.481.481 0 0 0-.474-.475H29.88l5.577-1.583a.49.49 0 0 0 0-.673L29.01.652a.49.49 0 0 0-.672 0L21.476 7.52l-2.927 2.968.02-.02 2.907-5.205A.481.481 0 0 0 21 4.788h-9.136a.481.481 0 0 0-.475.475V19L9.77 13.418a.49.49 0 0 0-.672 0L2.65 19.87a.49.49 0 0 0 0 .672l9.71 9.718-5.043-2.77a.481.481 0 0 0-.475.474v9.144c0 .257.218.475.475.475H21.04l-5.577 1.584a.49.49 0 0 0 0 .672l6.447 6.453a.49.49 0 0 0 .672 0l6.842-6.848 2.828-2.83-2.828 5.066c0 .257.218.475.475.475h9.136a.481.481 0 0 0 .475-.475V27.945l1.621 5.6a.49.49 0 0 0 .673 0l6.446-6.451a.49.49 0 0 0 0-.673l.02-.02z"/></g><defs><clipPath id="a"><path fill="#fff" transform="translate(0 .518)" d="M0 0h51v57H0z"/></clipPath></defs></svg>