<svg width="70" height="54" viewBox="0 0 70 54" fill="none" xmlns="http://www.w3.org/2000/svg"><path fill-rule="evenodd" clip-rule="evenodd" d="M68.579 53.106v.137h.128a.137.137 0 0 0 .07-.017.06.06 0 0 0 .025-.053.06.06 0 0 0-.026-.051.126.126 0 0 0-.069-.018h-.128v.002zm.13-.098a.24.24 0 0 1 .154.045.15.15 0 0 1 .054.122.14.14 0 0 1-.043.107.211.211 0 0 1-.124.051l.173.196h-.133l-.159-.195h-.051v.195h-.111v-.52h.241-.002zm-.035.7a.446.446 0 0 0 .4-.265.444.444 0 0 0 0-.34.451.451 0 0 0-.23-.23.457.457 0 0 0-.342 0 .44.44 0 0 0-.141.092.444.444 0 0 0 0 .62.449.449 0 0 0 .313.127v-.004zm0-.993a.579.579 0 0 1 .527.343.552.552 0 0 1-.122.614.568.568 0 0 1-.405.165.579.579 0 0 1-.41-.166.578.578 0 0 1-.12-.619.55.55 0 0 1 .306-.298.57.57 0 0 1 .226-.045l-.002.006zM15.88 50.706c0-.991.652-1.806 1.717-1.806 1.018 0 1.704.78 1.704 1.806 0 1.027-.686 1.807-1.704 1.807-1.065 0-1.717-.815-1.717-1.807zm4.582 0v-2.822h-1.23v.688c-.391-.508-.983-.827-1.788-.827-1.586 0-2.83 1.24-2.83 2.963 0 1.722 1.243 2.963 2.83 2.963.805 0 1.397-.32 1.787-.827v.685h1.23v-2.823zm41.578 0c0-.991.652-1.806 1.717-1.806 1.02 0 1.705.78 1.705 1.806 0 1.027-.686 1.807-1.705 1.807-1.065 0-1.717-.815-1.717-1.807zm4.583 0V45.62h-1.231v2.953c-.39-.508-.983-.827-1.788-.827-1.586 0-2.83 1.24-2.83 2.963 0 1.722 1.243 2.963 2.83 2.963.805 0 1.397-.32 1.788-.827v.685h1.231v-2.823zm-30.889-1.864c.793 0 1.303.496 1.433 1.369H34.23c.132-.815.628-1.37 1.505-1.37zm.025-1.1c-1.658 0-2.818 1.203-2.818 2.963 0 1.794 1.206 2.962 2.9 2.962.853 0 1.634-.212 2.32-.79l-.603-.91a2.704 2.704 0 0 1-1.646.59c-.793 0-1.515-.365-1.693-1.381h4.202c.012-.153.025-.306.025-.472-.013-1.758-1.103-2.962-2.687-2.962zm14.857 2.962c0-.991.651-1.806 1.716-1.806 1.018 0 1.705.78 1.705 1.806 0 1.027-.687 1.807-1.705 1.807-1.065 0-1.717-.815-1.717-1.807zm4.58 0v-2.82h-1.23v.688c-.39-.508-.981-.827-1.787-.827-1.586 0-2.83 1.24-2.83 2.963 0 1.722 1.244 2.963 2.83 2.963.806 0 1.396-.32 1.788-.827v.685h1.23v-2.825zm-11.53 0c0 1.712 1.195 2.963 3.02 2.963.851 0 1.42-.189 2.033-.672l-.59-.992c-.463.33-.948.508-1.483.508-.983-.012-1.705-.72-1.705-1.807 0-1.086.722-1.794 1.705-1.806.534 0 1.02.177 1.483.508l.59-.992c-.615-.483-1.183-.672-2.034-.672-1.824 0-3.019 1.25-3.019 2.962zm15.864-2.962c-.71 0-1.172.33-1.492.827v-.685h-1.22v5.642h1.232v-3.163c0-.933.403-1.452 1.207-1.452.264-.004.525.045.77.142l.379-1.156a2.62 2.62 0 0 0-.877-.154l.001-.001zm-32.984.59c-.592-.388-1.408-.59-2.308-.59-1.434 0-2.357.686-2.357 1.807 0 .92.687 1.487 1.953 1.664l.581.083c.675.094.993.271.993.59 0 .436-.448.685-1.29.685-.852 0-1.467-.272-1.882-.59l-.578.956c.675.496 1.527.733 2.45.733 1.635 0 2.582-.768 2.582-1.842 0-.992-.746-1.51-1.977-1.687l-.58-.084c-.533-.069-.96-.176-.96-.554 0-.412.403-.66 1.078-.66.722 0 1.421.27 1.764.483l.532-.992-.002-.001zm15.877-.588c-.71 0-1.172.33-1.49.827v-.687h-1.22v5.642h1.23v-3.163c0-.933.403-1.452 1.208-1.452.263-.004.524.045.77.142l.378-1.156a2.62 2.62 0 0 0-.876-.154zm-10.5.14H29.91v-1.711h-1.244v1.711H27.52v1.122h1.147v2.573c0 1.31.51 2.089 1.965 2.089.535 0 1.15-.165 1.54-.436l-.355-1.051c-.368.212-.77.32-1.09.32-.615 0-.816-.379-.816-.945v-2.55h2.012v-1.122zm-18.398 5.643v-3.54c0-1.334-.853-2.23-2.226-2.243-.723-.012-1.468.212-1.99 1.004-.39-.626-1.005-1.004-1.87-1.004-.604 0-1.194.177-1.657.838v-.698H4.551v5.642h1.24v-3.128c0-.98.545-1.5 1.387-1.5.817 0 1.23.531 1.23 1.487v3.14h1.244v-3.128c0-.98.568-1.5 1.385-1.5.84 0 1.241.532 1.241 1.488v3.14l1.247.002z" fill="#231F20"/><path fill-rule="evenodd" clip-rule="evenodd" d="M69.28 34.761v-.825h-.215l-.25.566-.247-.566h-.216v.825h.152v-.622l.233.537h.16l.232-.538v.623h.152zm-1.367 0v-.684h.276v-.139h-.705v.14h.276v.683h.153z" fill="#F79410"/><path fill-rule="evenodd" clip-rule="evenodd" d="M44.788 38.299H26.139V4.887h18.649V38.3z" fill="#FF5F00"/><path fill-rule="evenodd" clip-rule="evenodd" d="M27.322 21.594c0-6.778 3.183-12.815 8.14-16.706A21.265 21.265 0 0 0 22.29.345C10.52.345.98 9.858.98 21.594c0 11.736 9.54 21.249 21.31 21.249A21.266 21.266 0 0 0 35.463 38.3c-4.957-3.89-8.14-9.928-8.14-16.706z" fill="#EB001B"/><path fill-rule="evenodd" clip-rule="evenodd" d="M69.946 21.594c0 11.736-9.541 21.249-21.311 21.249A21.273 21.273 0 0 1 35.462 38.3c4.958-3.891 8.142-9.928 8.142-16.706 0-6.778-3.184-12.815-8.142-16.706A21.271 21.271 0 0 1 48.635.345c11.77 0 21.31 9.513 21.31 21.249" fill="#F79410"/></svg>