<svg width="80" height="99" viewBox="0 0 80 99" fill="none" xmlns="http://www.w3.org/2000/svg"><path d="M65.934 50.555h-3.658l-.002.001a93.264 93.264 0 0 0-.569-9.5L61.475 39H.806l-.23 2.056A93.411 93.411 0 0 0 0 51.43C0 61.472 1.217 70.937 3.519 78.8c1.198 4.094 2.696 7.8 4.453 11.016 1.843 3.375 3.99 6.245 6.381 8.531l.682.652h32.21l.682-.652c2.392-2.286 4.539-5.156 6.382-8.53 1.756-3.217 3.254-6.923 4.453-11.017l.15-.524h7.022C73.69 78.277 80 72.059 80 64.416s-6.31-13.86-14.066-13.86zm0 18.484h-5c.478-2.962.833-6.056 1.057-9.246h3.943c2.59 0 4.691 2.07 4.691 4.623 0 2.553-2.1 4.623-4.691 4.623z" fill="url(#a)"/><path d="M18 32l-3.5-4a6.074 6.074 0 0 1 0-8 6.074 6.074 0 0 0 0-8L11 8m37 24l-3.5-4a6.074 6.074 0 0 1 0-8 6.074 6.074 0 0 0 0-8L41 8m-8 17l-3.5-4a6.074 6.074 0 0 1 0-8 6.074 6.074 0 0 0 0-8L26 1" stroke="#0083CA"/><defs><linearGradient id="a" x1="40" y1="39" x2="40" y2="99" gradientUnits="userSpaceOnUse"><stop stop-color="#1E3CAE"/><stop offset="1" stop-color="#007FC5"/></linearGradient></defs></svg>