<svg width="112" height="75" viewBox="0 0 112 75" fill="none" xmlns="http://www.w3.org/2000/svg"><path d="M23.449 9.929c-8.247 1.183-14.592 8.259-14.592 16.836M88.551 9.929c8.247 1.183 14.592 8.259 14.592 16.836M23.449.949C10.762 2.842 1 14.164 1 27.888M88.551.949C101.238 2.842 111 14.164 111 27.888" stroke="#0083CA"/><path d="M96.9 51.272c0-20.693-15.314-37.765-35.218-40.62v-.466a5.87 5.87 0 0 0-11.739 0v.466C30.04 13.508 14.727 30.58 14.727 51.272v5.87h82.172v-5.87z" fill="url(#a)"/><path d="M96.9 63.011H14.726a5.87 5.87 0 0 0-5.87 5.87v5.869h93.912v-5.87a5.87 5.87 0 0 0-5.87-5.869z" fill="url(#b)"/><defs><linearGradient id="a" x1="55.813" y1="4.316" x2="55.813" y2="74.75" gradientUnits="userSpaceOnUse"><stop stop-color="#1E3CAE"/><stop offset="1" stop-color="#007FC5"/></linearGradient><linearGradient id="b" x1="55.813" y1="4.316" x2="55.813" y2="74.75" gradientUnits="userSpaceOnUse"><stop stop-color="#1E3CAE"/><stop offset="1" stop-color="#007FC5"/></linearGradient></defs></svg>