<svg width="85" height="105" viewBox="0 0 85 105" fill="none" xmlns="http://www.w3.org/2000/svg"><path fill="url(#a)" d="M0 0h85v105H0z"/><path d="M11 71.523c3.166-13.212 13.115-14.68 12.21-6.361-.904 8.319-4.07 20.552 2.714 20.552 5.878 0 5.426-10.765 10.4-10.276 4.975.49 3.619 8.808 9.045 8.808C49.913 81.497 61.8 76.6 73 79" stroke="#fff" stroke-width="4"/><path d="M67.694 8.973l5.206 3.005-25.653 44.433-5.206-3.006L67.694 8.973zm-26.904 46.6l5.205 3.006-7.87 6.515 2.664-9.521z" fill="#fff"/><defs><linearGradient id="a" x1="42.5" x2="42.5" y2="105" gradientUnits="userSpaceOnUse"><stop stop-color="#1E3CAE"/><stop offset="1" stop-color="#007FC5"/></linearGradient></defs></svg>