<svg width="91" height="107" viewBox="0 0 91 107" fill="none" xmlns="http://www.w3.org/2000/svg"><path fill="url(#a)" d="M0 22h69v85H0z"/><path d="M74 11h6v85h-6V11z" fill="url(#b)"/><path d="M10 17v-6h69v6H10z" fill="url(#c)"/><path d="M85 0h6v85h-6V0z" fill="url(#d)"/><path d="M21 6V0h69v6H21z" fill="url(#e)"/><circle cx="18.5" cy="88.5" r="8.5" fill="#fff"/><path fill="#fff" d="M34 85h25v3H34zm0 6h16v3H34z"/><defs><linearGradient id="a" x1="34.5" y1="22" x2="34.5" y2="107" gradientUnits="userSpaceOnUse"><stop stop-color="#1E3CAE"/><stop offset="1" stop-color="#007FC5"/></linearGradient><linearGradient id="b" x1="-26" y1="14" x2="79" y2="14" gradientUnits="userSpaceOnUse"><stop stop-color="#1E3CAE"/><stop offset="1" stop-color="#007FC5"/></linearGradient><linearGradient id="c" x1="-26" y1="14" x2="79" y2="14" gradientUnits="userSpaceOnUse"><stop stop-color="#1E3CAE"/><stop offset="1" stop-color="#007FC5"/></linearGradient><linearGradient id="d" x1="-15" y1="3" x2="90" y2="3" gradientUnits="userSpaceOnUse"><stop stop-color="#1E3CAE"/><stop offset="1" stop-color="#007FC5"/></linearGradient><linearGradient id="e" x1="-15" y1="3" x2="90" y2="3" gradientUnits="userSpaceOnUse"><stop stop-color="#1E3CAE"/><stop offset="1" stop-color="#007FC5"/></linearGradient></defs></svg>