<svg width="88" height="105" viewBox="0 0 88 105" fill="none" xmlns="http://www.w3.org/2000/svg"><path fill-rule="evenodd" clip-rule="evenodd" d="M88 0H0v105h88V0zM54.739 57.223L73.698 75.85c.259.317.302.568.302.734 0 .57-.47 1.032-1.05 1.032h-7.03l4.146 9.526a.682.682 0 0 1-.368.903l-4.508 1.899a.713.713 0 0 1-.536.008.697.697 0 0 1-.383-.369l-4.284-9.837-5.252 4.498c-.15.149-.412.252-.685.252-.58 0-1.05-.462-1.05-1.032V58.01c0-.81 1.044-1.328 1.739-.786z" fill="url(#a)"/><path fill="#fff" d="M13 14h61v5H13zm0 13h47v5H13zm0 13h61v5H13z"/><defs><linearGradient id="a" x1="44" x2="44" y2="105" gradientUnits="userSpaceOnUse"><stop stop-color="#1E3CAE"/><stop offset="1" stop-color="#007FC5"/></linearGradient></defs></svg>