<svg width="158" height="42" viewBox="0 0 158 42" fill="none" xmlns="http://www.w3.org/2000/svg"><path d="M55.852 12.12c-.496 0-.936-.06-1.32-.18a3.044 3.044 0 0 1-.984-.528 2.567 2.567 0 0 1-.648-.792 2.731 2.731 0 0 1-.288-1.02h1.128c.064.456.28.824.648 1.104.368.272.856.408 1.464.408.744 0 1.28-.132 1.608-.396.336-.264.504-.62.504-1.068 0-.432-.16-.788-.48-1.068-.32-.288-.844-.432-1.572-.432h-1.14v-.936h1.14c.6 0 1.04-.128 1.32-.384.288-.264.432-.596.432-.996s-.152-.724-.456-.972c-.304-.248-.756-.372-1.356-.372-.64 0-1.112.124-1.416.372a1.4 1.4 0 0 0-.516.96h-1.128c.032-.336.116-.648.252-.936.144-.288.344-.536.6-.744.256-.208.568-.368.936-.48.368-.12.792-.18 1.272-.18.968 0 1.7.216 2.196.648.496.432.744 1 .744 1.704 0 .44-.128.816-.384 1.128-.248.304-.58.524-.996.66.504.12.908.352 1.212.696.312.344.468.788.468 1.332 0 .36-.072.692-.216.996a2.14 2.14 0 0 1-.624.78 3.146 3.146 0 0 1-1.008.516c-.4.12-.864.18-1.392.18zm6.596 0c-.352 0-.664-.048-.936-.144a2.041 2.041 0 0 1-.672-.42 1.755 1.755 0 0 1-.42-.624 2.114 2.114 0 0 1-.144-.792c0-.632.184-1.088.552-1.368.376-.28.912-.42 1.608-.42H64.5V7.92c0-.544-.124-.92-.372-1.128-.24-.208-.604-.312-1.092-.312-.456 0-.788.088-.996.264-.208.168-.324.36-.348.576h-1.056a1.65 1.65 0 0 1 .204-.708c.128-.224.296-.416.504-.576.216-.16.472-.284.768-.372.296-.096.624-.144.984-.144.752 0 1.348.18 1.788.54.448.352.672.932.672 1.74v3.468c.008.248.028.492.06.732h-.924a6.524 6.524 0 0 1-.048-.516 11.956 11.956 0 0 1-.012-.564c-.168.336-.44.62-.816.852-.376.232-.832.348-1.368.348zm.228-.96c.248 0 .48-.032.696-.096a1.94 1.94 0 0 0 .588-.3c.168-.136.3-.3.396-.492.096-.192.144-.416.144-.672v-.432h-1.884c-.392 0-.7.08-.924.24-.224.152-.336.396-.336.732 0 .296.104.54.312.732.216.192.552.288 1.008.288zm4.745-5.52h4.32v.936h-3.264V12H67.42V5.64zm5.52 0h.983v1.2c.216-.424.516-.748.9-.972.392-.232.844-.348 1.356-.348.8 0 1.44.264 1.92.792.48.52.72 1.296.72 2.328v.24c0 .544-.063 1.02-.191 1.428a2.89 2.89 0 0 1-.54 1.008 2.25 2.25 0 0 1-.84.6c-.32.136-.676.204-1.069.204-.544 0-1-.12-1.368-.36a2.37 2.37 0 0 1-.816-.9v3.54h-1.055V5.64zm3 5.544c.255 0 .495-.048.72-.144a1.65 1.65 0 0 0 .576-.444c.168-.192.296-.432.384-.72.096-.288.144-.62.144-.996v-.24c0-.344-.049-.652-.144-.924a1.837 1.837 0 0 0-.384-.684 1.522 1.522 0 0 0-.576-.432 1.808 1.808 0 0 0-.72-.144 2.12 2.12 0 0 0-.793.144 1.66 1.66 0 0 0-.611.384c-.169.16-.3.352-.397.576a1.808 1.808 0 0 0-.144.72v.96c0 .288.049.552.145.792.096.24.227.444.395.612.168.168.373.3.612.396.24.096.505.144.793.144zm4.988 3.336c-.12 0-.24-.012-.36-.036v-.96c.12.024.24.036.36.036s.224-.02.312-.06a.66.66 0 0 0 .252-.228c.08-.112.164-.272.252-.48.096-.2.204-.464.324-.792l-2.7-6.36h1.176l2.064 5.16 1.872-5.16h1.128l-2.4 6.36c-.168.448-.328.832-.48 1.152a3.36 3.36 0 0 1-.492.78 1.462 1.462 0 0 1-.564.444 1.763 1.763 0 0 1-.744.144zm7.8-2.4c-.8 0-1.428-.168-1.884-.504-.456-.336-.708-.808-.756-1.416h1.056c.056.312.22.552.492.72.28.16.644.24 1.092.24.552 0 .952-.092 1.2-.276.256-.192.384-.42.384-.684 0-.312-.104-.556-.312-.732-.208-.184-.568-.276-1.08-.276H87.83v-.864h1.02c.44 0 .752-.084.936-.252.192-.168.288-.404.288-.708 0-.24-.112-.448-.336-.624-.224-.176-.56-.264-1.008-.264-.488 0-.844.08-1.068.24a.962.962 0 0 0-.396.66H86.21c.024-.264.096-.508.216-.732.128-.232.3-.432.516-.6.216-.168.472-.296.768-.384a3.379 3.379 0 0 1 1.02-.144c.408 0 .76.048 1.056.144.304.088.556.216.756.384.2.16.348.352.444.576.096.224.144.472.144.744 0 .304-.076.572-.228.804-.152.224-.396.4-.732.528.448.12.76.312.936.576.176.264.264.572.264.924 0 .264-.056.512-.168.744-.112.232-.28.436-.504.612a2.582 2.582 0 0 1-.828.408 3.777 3.777 0 0 1-1.14.156zm4.145-6.48h1.056v4.8l3.288-4.8h1.056V12h-1.056V7.2L93.93 12h-1.056V5.64zm8.776.936h-2.172V5.64h5.4v.936h-2.172V12h-1.056V6.576zm6.954 5.544c-.408 0-.796-.064-1.164-.192a2.687 2.687 0 0 1-.972-.588 2.983 2.983 0 0 1-.672-1.02c-.168-.408-.252-.888-.252-1.44v-.24c0-.528.08-.984.24-1.368.16-.392.372-.716.636-.972.272-.264.584-.46.936-.588.36-.128.736-.192 1.128-.192.936 0 1.66.256 2.172.768.512.512.768 1.236.768 2.172v.672H106.6c0 .376.06.692.18.948a1.78 1.78 0 0 0 1.104.972c.24.072.48.108.72.108.48 0 .848-.08 1.104-.24.264-.16.452-.38.564-.66h1.032c-.064.304-.18.572-.348.804a2.21 2.21 0 0 1-.6.588c-.232.152-.5.268-.804.348a3.62 3.62 0 0 1-.948.12zm-.06-5.64c-.248 0-.488.036-.72.108a1.663 1.663 0 0 0-1.056.876 1.78 1.78 0 0 0-.168.804h3.828a2.084 2.084 0 0 0-.168-.828 1.363 1.363 0 0 0-.396-.552 1.535 1.535 0 0 0-.6-.312 2.61 2.61 0 0 0-.72-.096zm7.381-.84h2.76c.784 0 1.36.164 1.728.492.368.32.552.736.552 1.248 0 .136-.024.276-.072.42a1.48 1.48 0 0 1-.204.384c-.08.12-.18.224-.3.312-.112.088-.24.156-.384.204.392.096.688.28.888.552.208.264.312.576.312.936 0 .552-.184.992-.552 1.32-.368.328-.944.492-1.728.492h-3V5.64zm3 5.424c.448 0 .764-.08.948-.24.184-.16.276-.388.276-.684 0-.304-.092-.536-.276-.696-.184-.168-.5-.252-.948-.252h-1.944v1.872h1.944zm-.24-2.736c.456 0 .772-.08.948-.24.184-.16.276-.38.276-.66 0-.264-.092-.472-.276-.624-.176-.152-.492-.228-.948-.228h-1.704v1.752h1.704zM55.544 32.824H48.44L46.832 37H44.48l6.432-16.8h2.256L59.6 37h-2.448l-1.608-4.176zm-6.36-1.968H54.8l-2.808-7.776-2.808 7.776zm12.814-6.576h1.968v2.4c.432-.848 1.032-1.496 1.8-1.944.784-.464 1.688-.696 2.712-.696 1.6 0 2.88.528 3.84 1.584.96 1.04 1.44 2.592 1.44 4.656v.48c0 1.088-.128 2.04-.384 2.856-.256.8-.616 1.472-1.08 2.016a4.501 4.501 0 0 1-1.68 1.2c-.64.272-1.352.408-2.136.408-1.088 0-2-.24-2.736-.72-.72-.48-1.264-1.08-1.632-1.8v7.08h-2.112V24.28zm6 11.088c.512 0 .992-.096 1.44-.288a3.283 3.283 0 0 0 1.152-.888c.336-.384.592-.864.768-1.44.192-.576.288-1.24.288-1.992v-.48c0-.688-.096-1.304-.288-1.848-.176-.544-.432-1-.768-1.368a3.043 3.043 0 0 0-1.152-.864 3.617 3.617 0 0 0-1.44-.288c-.576 0-1.104.096-1.584.288a3.32 3.32 0 0 0-1.224.768c-.336.32-.6.704-.792 1.152a3.617 3.617 0 0 0-.288 1.44v1.92c0 .576.096 1.104.288 1.584.192.48.456.888.792 1.224.336.336.744.6 1.224.792.48.192 1.008.288 1.584.288zm8.766-11.088h1.968v2.4c.432-.848 1.032-1.496 1.8-1.944.784-.464 1.688-.696 2.712-.696 1.6 0 2.88.528 3.84 1.584.96 1.04 1.44 2.592 1.44 4.656v.48c0 1.088-.128 2.04-.384 2.856-.256.8-.616 1.472-1.08 2.016a4.501 4.501 0 0 1-1.68 1.2c-.64.272-1.352.408-2.136.408-1.088 0-2-.24-2.736-.72-.72-.48-1.264-1.08-1.632-1.8v7.08h-2.112V24.28zm6 11.088c.512 0 .992-.096 1.44-.288a3.283 3.283 0 0 0 1.152-.888c.336-.384.592-.864.768-1.44.192-.576.288-1.24.288-1.992v-.48c0-.688-.096-1.304-.288-1.848-.176-.544-.432-1-.768-1.368a3.043 3.043 0 0 0-1.152-.864 3.617 3.617 0 0 0-1.44-.288c-.576 0-1.104.096-1.584.288a3.32 3.32 0 0 0-1.224.768c-.336.32-.6.704-.792 1.152a3.617 3.617 0 0 0-.288 1.44v1.92c0 .576.096 1.104.288 1.584.192.48.456.888.792 1.224.336.336.744.6 1.224.792.48.192 1.008.288 1.584.288zm20.525 1.872c-1.008 0-1.888-.12-2.64-.36-.752-.24-1.384-.568-1.896-.984a5.159 5.159 0 0 1-1.224-1.488 6.586 6.586 0 0 1-.6-1.848h2.256c.08.368.216.72.408 1.056.192.32.448.6.768.84.336.24.744.432 1.224.576.48.128 1.048.192 1.704.192 1.344 0 2.36-.256 3.048-.768.704-.512 1.056-1.144 1.056-1.896 0-.464-.08-.856-.24-1.176-.144-.32-.4-.6-.768-.84-.352-.24-.824-.456-1.416-.648a22.868 22.868 0 0 0-2.136-.576 21.69 21.69 0 0 1-2.448-.672c-.672-.256-1.232-.568-1.68-.936a3.79 3.79 0 0 1-.984-1.368c-.208-.528-.312-1.176-.312-1.944 0-.624.136-1.2.408-1.728a4.246 4.246 0 0 1 1.152-1.416c.512-.4 1.128-.712 1.848-.936.736-.24 1.56-.36 2.472-.36.896 0 1.68.12 2.352.36.672.224 1.24.536 1.704.936.48.4.856.872 1.128 1.416.272.528.464 1.104.576 1.728h-2.256c-.08-.336-.2-.648-.36-.936a2.206 2.206 0 0 0-.672-.768 2.985 2.985 0 0 0-1.032-.528c-.4-.128-.88-.192-1.44-.192-1.152 0-2.048.24-2.688.72-.624.464-.936 1.032-.936 1.704 0 .432.08.808.24 1.128.16.304.408.576.744.816.336.224.76.424 1.272.6.528.16 1.152.32 1.872.48 1.04.224 1.928.48 2.664.768.752.272 1.36.608 1.824 1.008.48.4.824.872 1.032 1.416.224.544.336 1.192.336 1.944 0 .656-.144 1.272-.432 1.848a4.565 4.565 0 0 1-1.248 1.488c-.544.416-1.208.744-1.992.984s-1.68.36-2.688.36zm13.803-.12c-1.36 0-2.344-.304-2.952-.912-.592-.624-.888-1.56-.888-2.808v-7.248h-1.92V24.28h1.92V21.4h2.112v2.88h3.408v1.872h-3.408v7.008c0 .72.152 1.24.456 1.56.304.32.888.48 1.752.48.48 0 .96-.024 1.44-.072V37c-.304.032-.608.056-.912.072-.304.032-.64.048-1.008.048zm10.21.12a7.035 7.035 0 0 1-2.328-.384 5.665 5.665 0 0 1-1.944-1.2c-.56-.544-1.008-1.224-1.344-2.04-.336-.816-.504-1.768-.504-2.856v-.48c0-1.024.168-1.928.504-2.712.336-.784.784-1.432 1.344-1.944a5.374 5.374 0 0 1 1.944-1.176 6.661 6.661 0 0 1 2.328-.408c.816 0 1.592.136 2.328.408a5.374 5.374 0 0 1 1.944 1.176c.56.512 1.008 1.16 1.344 1.944.336.784.504 1.688.504 2.712v.48c0 1.088-.168 2.04-.504 2.856-.336.816-.784 1.496-1.344 2.04a5.665 5.665 0 0 1-1.944 1.2 7.035 7.035 0 0 1-2.328.384zm0-1.92c.48 0 .96-.08 1.44-.24.48-.176.904-.44 1.272-.792.368-.368.664-.84.888-1.416.24-.576.36-1.28.36-2.112v-.48c0-.768-.12-1.424-.36-1.968-.224-.544-.52-.992-.888-1.344a3.353 3.353 0 0 0-1.272-.768 4.53 4.53 0 0 0-1.44-.24c-.48 0-.96.08-1.44.24-.48.16-.904.416-1.272.768-.368.352-.672.8-.912 1.344-.224.544-.336 1.2-.336 1.968v.48c0 .832.112 1.536.336 2.112.24.576.544 1.048.912 1.416.368.352.792.616 1.272.792.48.16.96.24 1.44.24zm9.11-11.04h1.968v2.4a4.149 4.149 0 0 1 1.344-1.872c.64-.512 1.416-.768 2.328-.768.32 0 .576.016.768.048.208.032.392.072.552.12v1.968a3.011 3.011 0 0 0-.624-.168 5.283 5.283 0 0 0-.816-.048c-.48 0-.928.088-1.344.264a3.182 3.182 0 0 0-1.08.744c-.304.304-.544.68-.72 1.128a3.97 3.97 0 0 0-.264 1.464V37h-2.112V24.28zm14.397 12.96a7.035 7.035 0 0 1-2.328-.384 5.374 5.374 0 0 1-1.944-1.176c-.56-.544-1.008-1.224-1.344-2.04-.336-.816-.504-1.776-.504-2.88v-.48c0-1.056.16-1.968.48-2.736.32-.784.744-1.432 1.272-1.944a5.224 5.224 0 0 1 1.872-1.176 6.684 6.684 0 0 1 2.256-.384c1.872 0 3.32.512 4.344 1.536 1.024 1.024 1.536 2.472 1.536 4.344v1.344h-9.648c0 .752.12 1.384.36 1.896s.552.928.936 1.248c.384.32.808.552 1.272.696.48.144.96.216 1.44.216.96 0 1.696-.16 2.208-.48.528-.32.904-.76 1.128-1.32h2.064a4.17 4.17 0 0 1-.696 1.608 4.42 4.42 0 0 1-1.2 1.176c-.464.304-1 .536-1.608.696-.592.16-1.224.24-1.896.24zm-.12-11.28a4.83 4.83 0 0 0-1.44.216 3.32 3.32 0 0 0-2.112 1.752c-.224.448-.336.984-.336 1.608h7.656c-.016-.656-.128-1.208-.336-1.656-.192-.464-.456-.832-.792-1.104a3.07 3.07 0 0 0-1.2-.624 5.22 5.22 0 0 0-1.44-.192zM20.948 4.654s-3.137.014-5.394 2.989c-2.007 2.645-1.496 4.907-1.496 4.907s2.721.47 5.115-2.406c2.242-2.694 1.775-5.49 1.775-5.49zm-3.317 33.633c.893.333 1.775.663 2.765.663 4.37 0 7.604-9.105 7.604-9.105s-4.627-1.791-4.627-6.99c0-4.608 3.714-6.507 3.714-6.507s-1.899-3.435-6.727-3.435c-1.706 0-3.172.591-4.32 1.054-.738.297-1.345.542-1.8.542-.566 0-1.25-.263-2.044-.57-1.102-.424-2.417-.93-3.928-.93C4.266 13.009 0 16.592 0 23.422 0 30.364 5.04 39 9.03 39c.62 0 1.389-.278 2.241-.587 1.06-.384 2.25-.816 3.444-.816 1.071 0 2 .347 2.916.69z" fill="#fff"/></svg>