<svg width="28" height="32" viewBox="0 0 28 32" fill="none" xmlns="http://www.w3.org/2000/svg"><path d="M9.578 32C4.816 31.973.876 22.25.876 17.3c0-8.088 6.068-9.86 8.406-9.86 1.054 0 2.179.415 3.171.78.694.256 1.412.52 1.811.52.24 0 .802-.224 1.3-.421 1.06-.422 2.379-.947 3.915-.947h.01c1.146 0 4.624.252 6.715 3.392l.49.736-.705.532c-1.007.76-2.844 2.146-2.844 4.892 0 3.252 2.08 4.503 3.08 5.104.442.266.899.54.899 1.138 0 .391-3.12 8.785-7.651 8.785-1.11 0-1.893-.333-2.584-.627-.7-.297-1.303-.554-2.3-.554-.505 0-1.144.24-1.82.493-.925.345-1.972.737-3.16.737h-.03zM19.959 0c.118 4.255-2.925 7.207-5.964 7.021C13.495 3.626 17.034 0 19.959 0z" fill="#fff"/></svg>