<svg width="32" height="32" viewBox="0 0 32 32" fill="none" xmlns="http://www.w3.org/2000/svg"><path fill-rule="evenodd" clip-rule="evenodd" d="M22.769 0H8.927C2.407 0 0 2.407 0 8.927V22.77c0 6.52 2.407 8.927 8.927 8.927H22.77c6.52 0 8.927-2.407 8.927-8.927V8.927C31.696 2.407 29.29 0 22.77 0zM6.319 15.848h.803v4.112h-.803v-1.705H4.413v1.706h-.802v-4.113h.802v1.605H6.32v-1.605zm4.715 2.307c0 .702-.301 1.003-.903 1.003-.602 0-.903-.401-.903-1.103v-2.307h-.802v2.407c0 1.204.601 1.805 1.805 1.805 1.103 0 1.806-.702 1.806-1.905v-2.307h-.803v2.407h-.2zm8.826-2.307h-.702l-.903 2.809-.902-2.809h-.903l1.404 4.112h.702l.903-2.708.903 2.709h.702l1.404-4.113h-.902l-.803 2.809-.903-2.809zm4.113 2.307h1.504v-.702h-1.504v-.802h2.206v-.803H23.17v4.112h3.11v-.802h-2.307v-1.003zm3.31 1.805h.802v-4.112h-.802v4.112zm-13.742-.902l-.401.902h-.903l1.806-4.112h.802l1.806 4.112h-.903l-.401-.902H13.54zm.301-.702h1.304l-.602-1.505-.702 1.505zm-3.21-13.04c0 2.809 2.307 5.216 5.216 5.216 2.909 0 5.316-2.307 5.216-5.216h-.702a4.495 4.495 0 0 1-4.514 4.514 4.495 4.495 0 0 1-4.514-4.514h-.702z" fill="url(#a)"/><defs><linearGradient id="a" x1="15.848" x2="15.848" y2="31.696" gradientUnits="userSpaceOnUse"><stop stop-color="#1E3CAE"/><stop offset="1" stop-color="#007FC5"/></linearGradient></defs></svg>