<svg width="52" height="49" viewBox="0 0 52 49" fill="none" xmlns="http://www.w3.org/2000/svg"><circle cx="26" cy="12.395" r="2.5" fill="#fff" stroke="#2C4295"/><path stroke="#2C4295" d="M5.5 18.895h6v19h-6zm32 0h6v19h-6z"/><path stroke="#2C4295" d="M8.5 18.895h6v19h-6z"/><path stroke="#2C4295" d="M1.5 36.895h49v3h-49z"/><path stroke="#2C4295" d="M.5 38.895h51v2H.5zm1-19v-5.207L26 .968l24.5 13.72v5.207h-49z"/><path stroke="#2C4295" d="M40.5 18.895h6v19h-6z"/><path fill-rule="evenodd" clip-rule="evenodd" d="M49.187 48.79l.707-.707-23.688-23.688L49.894.707 49.187 0 25.5 23.688 1.811 0l-.707.707 23.688 23.688L1.104 48.084l.707.707L25.5 25.102 49.187 48.79z" fill="#2C4295"/></svg>