<svg width="38" height="43" viewBox="0 0 38 43" fill="none" xmlns="http://www.w3.org/2000/svg"><path d="M31.65 29.929a2.407 2.407 0 1 1 4.7 0L35 36h-2l-1.35-6.071zM31 36h6v2h-6v-2z" fill="#2C4295"/><path fill="#2C4295" d="M30 37h8v2h-8z"/><path stroke="#2C4295" d="M1.5.5h33v42h-33z"/><path stroke="#2C4295" d="M.5.5h34v42H.5z"/><circle cx="12" cy="35" r="3.5" fill="#fff" stroke="#2C4295"/><path fill="#2C4295" d="M7.895 9h17v2h-17zm0 4h11v2h-11zm0 9h19v1h-19zm0 2h17v1h-17zm0 2h10v1h-10zM17 34h6v1h-6zm.105 2h4v1h-4z"/></svg>