<svg width="50" height="52" viewBox="0 0 50 52" fill="none" xmlns="http://www.w3.org/2000/svg"><path stroke="#2C4295" d="M10.395 9.5h3v37h-3zm-1 0h1v37h-1zm1 0l22.5-8.5v8.5"/><path stroke="#2C4295" d="M13.395 9.5h27v37h-27z"/><circle cx="26.895" cy="24" r="5.5" fill="#fff" stroke="#2C4295"/><path fill="#2C4295" d="M20.895 36h12v1h-12zm2 3h8v1h-8z"/><path fill-rule="evenodd" clip-rule="evenodd" d="M49.082 51.395l.707-.707L26.1 27 49.789 3.312l-.707-.707-23.688 23.688L1.706 2.605l-.707.707L24.687 27 .999 50.688l.707.707 23.688-23.688 23.688 23.688z" fill="#2C4295"/></svg>