<svg width="102" height="145" viewBox="0 0 102 145" fill="none" xmlns="http://www.w3.org/2000/svg"><path d="M2.5 6A3.5 3.5 0 0 1 6 2.5h92a3.5 3.5 0 0 1 3.5 3.5v135a3.5 3.5 0 0 1-3.5 3.5H6a3.5 3.5 0 0 1-3.5-3.5V6z" fill="#fff" stroke="#2C4295"/><path d="M.5 4A3.5 3.5 0 0 1 4 .5h92A3.5 3.5 0 0 1 99.5 4v135a3.5 3.5 0 0 1-3.5 3.5H4A3.5 3.5 0 0 1 .5 139V4z" fill="#fff" stroke="#2C4295"/><path d="M45 3h50a2 2 0 0 1 2 2v133a2 2 0 0 1-2 2H45V3z" fill="#F0F2F5"/><rect x="57.5" y="118.5" width="17" height="17" rx="8.5" fill="#fff" stroke="#2C4295"/><rect x="59.5" y="120.5" width="13" height="13" rx="6.5" fill="#fff" stroke="#2C4295"/><path fill="#2C4295" stroke="#fff" d="M10.5 70.5h78v2h-78zm0 4h63v2h-63zm0-8h78v2h-78zm0-42h24v2h-24zm0 93h24v2h-24zm54-93h24v2h-24zm-54-5h24v2h-24zm0 93h24v2h-24zm54-93h24v2h-24zm0 93h24v2h-24zm-54-98h24v2h-24zm54 0h24v2h-24zm-54 41h56v4h-56zm0-6h69v4h-69z"/></svg>