<svg width="144" height="106" viewBox="0 0 144 106" fill="none" xmlns="http://www.w3.org/2000/svg"><path d="M22 92.275V105h90V44H22.23v48.477" stroke="#0083CA"/><path fill-rule="evenodd" clip-rule="evenodd" d="M93.207 34H41.6v6.881H30.34V34h-9.552C23.029 62.74 7.863 83.3 0 89.987h91.788C113.509 69.225 113.742 43.097 113.04 34h-8.574v6.881h-11.26V34z" fill="url(#a)"/><path d="M117.215 78.39a39.994 39.994 0 0 0 25.241-30.817 39.992 39.992 0 0 0-13.888-37.335 40.003 40.003 0 0 0-56.146 4.974 40 40 0 0 0-8.78 18.65m53.573 44.527L120.5 70m-3.285 8.39L125 81" stroke="#0083CA"/><defs><linearGradient id="a" x1="56.612" y1="34" x2="56.612" y2="89.987" gradientUnits="userSpaceOnUse"><stop stop-color="#1E3CAE"/><stop offset="1" stop-color="#007FC5"/></linearGradient></defs></svg>