<svg width="122" height="69" viewBox="0 0 122 69" fill="none" xmlns="http://www.w3.org/2000/svg"><path d="M29.138 20.5c2.786 0 6.082 1.26 9.5 3.215 3.404 1.948 6.871 4.553 9.988 7.168a128.998 128.998 0 0 1 7.841 7.19A124.129 124.129 0 0 1 59.317 41a124.129 124.129 0 0 1-2.85 2.927 128.998 128.998 0 0 1-7.841 7.19c-3.117 2.615-6.584 5.22-9.989 7.168-3.417 1.955-6.713 3.215-9.499 3.215C17.737 61.5 8.5 52.319 8.5 41s9.237-20.5 20.638-20.5zm61.317 41c-2.845 0-6.206-1.262-9.69-3.217-3.47-1.949-7.005-4.554-10.182-7.169a130.54 130.54 0 0 1-7.992-7.19A125.054 125.054 0 0 1 59.688 41a125.054 125.054 0 0 1 2.902-2.923 130.54 130.54 0 0 1 7.993-7.191c3.177-2.615 6.711-5.22 10.182-7.169 3.484-1.955 6.845-3.217 9.69-3.217 11.635 0 21.045 9.19 21.045 20.5s-9.41 20.5-21.045 20.5z" stroke="#0083CA"/><path d="M29.138 20.5c2.786 0 6.082 1.26 9.5 3.215 3.404 1.948 6.871 4.553 9.988 7.168a128.998 128.998 0 0 1 7.841 7.19A124.129 124.129 0 0 1 59.317 41a124.129 124.129 0 0 1-2.85 2.927 128.998 128.998 0 0 1-7.841 7.19c-3.117 2.615-6.584 5.22-9.989 7.168-3.417 1.955-6.713 3.215-9.499 3.215C17.737 61.5 8.5 52.319 8.5 41s9.237-20.5 20.638-20.5zm61.317 41c-2.845 0-6.206-1.262-9.69-3.217-3.47-1.949-7.005-4.554-10.182-7.169a130.54 130.54 0 0 1-7.992-7.19A125.054 125.054 0 0 1 59.688 41a125.054 125.054 0 0 1 2.902-2.923 130.54 130.54 0 0 1 7.993-7.191c3.177-2.615 6.711-5.22 10.182-7.169 3.484-1.955 6.845-3.217 9.69-3.217 11.635 0 21.045 9.19 21.045 20.5s-9.41 20.5-21.045 20.5z" stroke="#0083CA"/><path d="M39.138.5c2.787 0 6.082 1.26 9.5 3.215 3.404 1.949 6.871 4.553 9.988 7.168a128.998 128.998 0 0 1 7.841 7.19A124.129 124.129 0 0 1 69.317 21a124.129 124.129 0 0 1-2.85 2.927 128.998 128.998 0 0 1-7.841 7.19c-3.117 2.615-6.584 5.22-9.989 7.168-3.417 1.955-6.712 3.215-9.499 3.215C27.737 41.5 18.5 32.319 18.5 21S27.737.5 39.138.5zm61.317 41c-2.845 0-6.206-1.262-9.69-3.217-3.47-1.949-7.005-4.554-10.182-7.169a130.54 130.54 0 0 1-7.992-7.19A125.054 125.054 0 0 1 69.688 21c.137-.143.316-.33.534-.554a129.29 129.29 0 0 1 2.369-2.37 130.54 130.54 0 0 1 7.992-7.19c3.177-2.615 6.711-5.22 10.182-7.169C94.25 1.762 97.61.5 100.455.5 112.09.5 121.5 9.69 121.5 21s-9.41 20.5-21.045 20.5z" stroke="#0083CA"/><path d="M92 15c-6.842 0-13.746 3.288-19.546 7.147-5.01 3.335-9.386 7.226-12.454 10.209-3.068-2.984-7.444-6.875-12.455-10.209C41.746 18.287 34.843 15 28 15c-7.912 0-14.47 2.37-19.05 6.95S2 33.088 2 41c0 7.912 2.37 14.47 6.95 19.05S20.088 67 28 67c6.842 0 13.746-3.288 19.545-7.147 5.011-3.334 9.387-7.226 12.455-10.209 3.068 2.983 7.444 6.875 12.454 10.209C78.254 63.713 85.159 67 92 67c7.912 0 14.469-2.37 19.05-6.95C115.63 55.47 118 48.912 118 41c0-7.912-2.37-14.47-6.95-19.05C106.469 17.37 99.912 15 92 15zM28 55c-4.993 0-8.398-1.264-10.567-3.433C15.263 49.397 14 45.992 14 41s1.264-8.398 3.433-10.567C19.603 28.263 23.007 27 28 27c3.764 0 8.456 2.174 13.17 5.373 3.937 2.671 7.652 5.891 10.495 8.63-2.837 2.739-6.544 5.958-10.476 8.627-4.71 3.197-9.406 5.37-13.19 5.37zm64 0c-3.764 0-8.456-2.174-13.171-5.373-3.937-2.672-7.653-5.893-10.495-8.63 2.829-2.737 6.536-5.956 10.47-8.625C83.515 29.174 88.216 27 92 27c4.993 0 8.398 1.264 10.567 3.433C104.736 32.603 106 36.008 106 41s-1.264 8.398-3.433 10.567C100.398 53.737 96.993 55 92 55z" fill="url(#a)" stroke="url(#b)" stroke-width="4"/><defs><linearGradient id="a" x1="60" y1="17" x2="60" y2="65" gradientUnits="userSpaceOnUse"><stop stop-color="#1E3CAE"/><stop offset="1" stop-color="#007FC5"/></linearGradient><linearGradient id="b" x1="60" y1="17" x2="60" y2="65" gradientUnits="userSpaceOnUse"><stop stop-color="#1E3CAE"/><stop offset="1" stop-color="#007FC5"/></linearGradient></defs></svg>