<svg width="117" height="110" viewBox="0 0 117 110" fill="none" xmlns="http://www.w3.org/2000/svg"><path d="M101.626 1a71.967 71.967 0 0 1 2.993 3.884c7.311 10.215 11.017 21.19 11.017 32.62 0 11.637-3.837 22.791-11.406 33.154a71.771 71.771 0 0 1-2.91 3.716M92.64 9.948a59.4 59.4 0 0 1 1.127 1.769c5.011 8.186 7.553 16.856 7.553 25.77 0 9.08-2.635 17.901-7.83 26.216-.363.58-.74 1.159-1.118 1.723m-6.891-42.951c3.433 5.28 5.1 10.483 5.1 15.905 0 5.568-1.756 10.903-5.368 16.308m-6.869-19.685c1.33 1.557 1.5 2.644 1.5 3.416 0 .836-.203 2.018-1.79 3.742" stroke="#0083CA"/><path fill-rule="evenodd" clip-rule="evenodd" d="M44.74 11H0v98.429h44.74V11zm8.948 98.429h12.528V11H53.688v98.429z" fill="url(#a)"/><path d="M7.836 22.096a.523.523 0 1 0 .647.823c.178-.14.362-.275.545-.4 1.435-.977 2.976-1.472 4.581-1.472 1.634 0 3.2.512 4.656 1.523.176.123.351.253.522.39a.523.523 0 0 0 .652-.819c-.188-.15-.382-.295-.576-.43-1.612-1.12-3.428-1.71-5.254-1.71-1.819 0-3.558.555-5.17 1.653-.203.139-.406.287-.603.442z" fill="#fff"/><path d="M9.389 23.63a.523.523 0 1 0 .621.842 7.83 7.83 0 0 1 .231-.164c1.07-.73 2.203-1.099 3.368-1.099 1.187 0 2.34.383 3.427 1.14.076.052.152.107.225.162a.523.523 0 0 0 .628-.838 9.339 9.339 0 0 0-.255-.184c-1.266-.88-2.62-1.326-4.025-1.326-1.379 0-2.71.43-3.957 1.28-.089.06-.177.123-.263.186z" fill="#fff"/><path d="M16.462 25.935a.523.523 0 0 0-.142-.726c-.883-.595-1.77-.884-2.71-.884-.918 0-1.783.275-2.647.84a.523.523 0 0 0 .573.877c.688-.451 1.366-.67 2.073-.67.726 0 1.422.23 2.127.705.24.161.565.098.726-.142zm-1.539 1.517a.524.524 0 0 0-.24-.7 2.304 2.304 0 0 0-2.068-.038.523.523 0 0 0 .435.952 1.28 1.28 0 0 1 .56-.132c.136 0 .33.018.613.157.259.127.572.02.7-.24z" fill="#fff"/><defs><linearGradient id="a" x1="33.108" y1="11" x2="33.108" y2="109.429" gradientUnits="userSpaceOnUse"><stop stop-color="#1E3CAE"/><stop offset="1" stop-color="#007FC5"/></linearGradient></defs></svg>