<svg width="57" height="64" viewBox="0 0 57 64" fill="none" xmlns="http://www.w3.org/2000/svg"><path d="M24.284 24.284s-11.719 4.47-16.19 0c-4.47-4.47-4.47-11.719 0-16.19 4.471-4.47 11.72-4.47 16.19 0 4.47 4.471 0 16.19 0 16.19z" fill="url(#a)"/><path d="M47.969 55.074c-4.47 4.47-11.72 4.47-16.19 0-4.47-4.47 0-16.19 0-16.19s11.72-4.47 16.19 0c4.47 4.471 4.47 11.72 0 16.19z" fill="url(#b)"/><path d="M49.743 10.268L6.32 53.69" stroke="#0083CA" stroke-width="3" stroke-linecap="round"/><defs><linearGradient id="a" x1=".005" y1="-7.89" x2="27.637" y2="36.321" gradientUnits="userSpaceOnUse"><stop offset=".391" stop-color="#0384CB"/><stop offset="1" stop-color="#85E48A"/></linearGradient><linearGradient id="b" x1="16.584" y1="30.795" x2="56.059" y2="74.217" gradientUnits="userSpaceOnUse"><stop offset=".391" stop-color="#0384CB"/><stop offset="1" stop-color="#85E48A"/></linearGradient></defs></svg>