<svg width="53" height="67" viewBox="0 0 53 67" fill="none" xmlns="http://www.w3.org/2000/svg"><path d="M47.004 28a23.449 23.449 0 0 1 3.775 16.289c-.788 5.696-3.652 10.924-8.068 14.728-4.415 3.803-10.086 5.927-15.975 5.982-5.889.055-11.601-1.961-16.09-5.681-4.49-3.72-7.457-8.893-8.358-14.573-.9-5.68.325-11.487 3.453-16.357" stroke="#0083CA" stroke-width="3" stroke-linecap="round"/><path fill-rule="evenodd" clip-rule="evenodd" d="M15.82 39.407a2.812 2.812 0 0 1 3.959 0l3.969 3.944V2.781A2.79 2.79 0 0 1 26.547 0a2.79 2.79 0 0 1 2.8 2.781v40.57l3.874-3.85a2.812 2.812 0 0 1 3.96 0 2.769 2.769 0 0 1 0 3.933L26.546 54 15.82 43.341a2.769 2.769 0 0 1 0-3.934z" fill="url(#a)"/><defs><linearGradient id="a" x1="17.355" y1="-9.735" x2="10.857" y2="73.908" gradientUnits="userSpaceOnUse"><stop offset=".391" stop-color="#0384CB"/><stop offset="1" stop-color="#85E48A"/></linearGradient></defs></svg>