<svg width="24" height="24" viewBox="0 0 24 24" fill="none" xmlns="http://www.w3.org/2000/svg"><path d="M16.611 20.096l-.96-3.583c-.191-.712-.949-1.13-1.687-.933l-1.805.484-.153-.256c-.491-.818-1.164-1.937-1.603-3.58-.441-1.646-.419-2.953-.403-3.908l.005-.292 1.21-.323.596-.16c.74-.199 1.185-.94.995-1.653l-.96-3.583c-.19-.711-.948-1.13-1.688-.932l-1.012.274.008.028c-.373.15-.735.362-1.065.625-.31.254-.565.519-.78.809-1.735 2.313-1.91 5.24-.607 10.104 1.801 6.722 5.422 8.383 5.579 8.453.345.148.699.25 1.084.309a4.26 4.26 0 0 0 1.23.01l.007.02 1.015-.26c.738-.199 1.184-.94.994-1.653z" fill="#fff"/></svg>