<svg width="11" height="21" viewBox="0 0 11 21" fill="none" xmlns="http://www.w3.org/2000/svg"><path d="M10.408 18.443l-.916-3.419c-.183-.679-.905-1.079-1.61-.89l-1.722.461a37.387 37.387 0 0 1-.146-.244c-.47-.78-1.11-1.848-1.53-3.415-.421-1.571-.4-2.819-.384-3.73l.004-.278 1.155-.309.569-.153c.705-.189 1.13-.896.948-1.576l-.915-3.42C5.679.79 4.956.39 4.251.58l-.966.262.007.026c-.356.143-.7.346-1.016.597a4.25 4.25 0 0 0-.744.771C-.123 4.444-.29 7.238.952 11.88c1.72 6.415 5.174 8 5.324 8.066.33.141.667.238 1.034.295.395.06.795.063 1.174.01l.006.019.969-.249c.705-.19 1.13-.897.95-1.577z" fill="#0B4DCE"/></svg>