<svg width="246" height="141" viewBox="0 0 246 141" fill="none" xmlns="http://www.w3.org/2000/svg"><path d="M221.301 62.895c-3.267-2.076-5.003-3.798-9.109-4.397-2.877-.42-3.465-.45-8.11.493 4.295-2.445 5.26-3.461 6.506-4.935 2.986-3.532 3.513-6.933 4.794-10.832 3.299-9.83-1.144-20.187-9.922-23.133-3.759-1.262-7.704-.96-11.245.57-1.901-3.356-4.865-5.976-8.624-7.238-8.778-2.945-18.569 2.636-21.868 12.466a20.165 20.165 0 0 0-.327 12.026c.856 4.701 2.57 9.622 4.522 14.163-3.138-3.554-6.682-7.034-10.361-9.65a18.012 18.012 0 0 0-10.419-4.42c-9.662-.827-18.135 5.985-18.926 15.214a16.242 16.242 0 0 0 2.943 10.772 16.25 16.25 0 0 0-4.733 10.116c-.79 9.229 6.402 17.38 16.063 18.207 3.856.344 8.055 1.187 12.256-.19 7.875-2.579 10.882-5.12 17.603-12.161-3.2 7.681-2.56 10.562-18.986 24.884l2.343 3.28c8.962-6.081 19.203-14.402 21.764-27.524 1.2 6.176 4.619 13.997 7.557 19.698a18.008 18.008 0 0 0 7.228 8.712c8.204 5.17 18.857 3.007 23.794-4.831a16.247 16.247 0 0 0 2.328-10.922 16.238 16.238 0 0 0 8.846-6.818c4.936-7.837 2.287-18.381-5.917-23.55z" fill="url(#a)"/><path d="M50.627 83.538c-1.902.818-3.186 1.066-4.69 2.7-1.052 1.146-1.242 1.397-2.226 3.734.214-2.635.055-3.368-.22-4.363-.661-2.385-2.006-3.643-3.343-5.385-3.35-4.422-9.268-5.581-13.217-2.589-1.69 1.281-2.747 3.116-3.138 5.142-2.057-.17-4.108.35-5.8 1.63-3.948 2.993-4.433 9.003-1.082 13.425a10.786 10.786 0 0 0 5.217 3.77c2.336 1.04 5.028 1.765 7.624 2.272-2.517.315-5.124.833-7.39 1.67a9.636 9.636 0 0 0-5.095 3.273c-3.278 4.022-2.822 9.821 1.02 12.953a8.693 8.693 0 0 0 5.648 1.947 8.691 8.691 0 0 0 3.045 5.141c3.841 3.132 9.612 2.41 12.89-1.611 1.315-1.6 2.954-3.202 3.612-5.474 1.234-4.259 1.017-6.354-.069-11.448 2.43 3.731 3.897 4.316 5.276 15.895l2.156-.047c.014-5.795-.576-12.831-5.605-17.918 3.092 1.331 7.58 2.178 10.986 2.598a9.645 9.645 0 0 0 6.03-.568c4.758-2.068 7.014-7.429 5.038-11.974a8.692 8.692 0 0 0-4.126-4.323 8.689 8.689 0 0 0-.347-5.965c-1.975-4.545-7.435-6.553-12.194-4.485z" fill="url(#b)"/><path d="M103.203 39.96c-1.15-.842-1.747-1.517-3.241-1.837-1.048-.224-1.263-.25-2.994-.016 1.639-.794 2.018-1.144 2.512-1.656 1.184-1.226 1.46-2.463 2.026-3.865 1.451-3.533.07-7.448-3.085-8.745-1.351-.555-2.809-.54-4.148-.064-.617-1.28-1.643-2.315-2.994-2.87-3.155-1.296-6.89.517-8.341 4.05a7.43 7.43 0 0 0-.413 4.413c.2 1.75.71 3.6 1.317 5.317-1.066-1.383-2.285-2.748-3.573-3.8a6.634 6.634 0 0 0-3.723-1.878c-3.532-.538-6.812 1.76-7.327 5.133a5.982 5.982 0 0 0 .82 4.031 5.984 5.984 0 0 0-1.986 3.604c-.515 3.373 1.93 6.544 5.462 7.083 1.41.22 2.932.632 4.51.229 2.957-.757 4.125-1.618 6.767-4.043-1.364 2.746-1.198 3.82-7.585 8.686l.782 1.262c3.442-2.017 7.41-4.827 8.67-9.588.29 2.3 1.357 5.257 2.298 7.424a6.637 6.637 0 0 0 2.446 3.379c2.89 2.1 6.858 1.563 8.864-1.198a5.982 5.982 0 0 0 1.121-3.958 5.98 5.98 0 0 0 3.417-2.291c2.006-2.76 1.288-6.701-1.602-8.801z" fill="url(#c)"/><defs><linearGradient id="a" x1="151.113" y1="36.995" x2="268.191" y2="124.676" gradientUnits="userSpaceOnUse"><stop offset=".391" stop-color="#0384CB"/><stop offset="1" stop-color="#85E48A"/></linearGradient><linearGradient id="b" x1="18.018" y1="106.754" x2="92.074" y2="81.438" gradientUnits="userSpaceOnUse"><stop offset=".391" stop-color="#0384CB"/><stop offset="1" stop-color="#85E48A"/></linearGradient><linearGradient id="c" x1="78.032" y1="28.734" x2="118.937" y2="63.812" gradientUnits="userSpaceOnUse"><stop offset=".391" stop-color="#0384CB"/><stop offset="1" stop-color="#85E48A"/></linearGradient></defs></svg>