<svg width="217" height="122" viewBox="0 0 217 122" fill="none" xmlns="http://www.w3.org/2000/svg"><path d="M136.428 36.114c-3.663.32-5.966.022-9.41 1.94-2.414 1.344-2.874 1.66-5.835 5.053 1.83-4.324 1.971-5.648 2.06-7.479.215-4.39-1.351-7.259-2.634-10.94-3.185-9.321-12.515-14.572-20.839-11.728-3.564 1.218-6.366 3.722-8.155 6.92-3.372-1.435-7.12-1.701-10.685-.483-8.324 2.844-12.49 12.706-9.305 22.027a19.16 19.16 0 0 0 6.694 9.263c3.36 3.053 7.493 5.777 11.586 8.077-4.418-.87-9.1-1.45-13.388-1.302a17.11 17.11 0 0 0-10.412 2.679c-7.767 4.953-10.229 14.984-5.498 22.403a15.427 15.427 0 0 0 8.438 6.43 15.431 15.431 0 0 0 2.267 10.364c4.73 7.419 14.862 9.419 22.629 4.466 3.108-1.966 6.763-3.753 9.138-7.216 4.453-6.492 5.255-10.145 6.263-19.337 2.018 7.643 4.164 9.447.036 29.735l3.662 1.122c3.252-9.76 6.177-21.95.535-33.33 4.47 3.968 11.564 7.896 17.072 10.502a17.114 17.114 0 0 0 10.482 2.402c9.173-.835 15.963-8.616 15.165-17.379a15.435 15.435 0 0 0-4.548-9.585 15.424 15.424 0 0 0 2.739-10.25c-.798-8.762-8.883-15.19-18.057-14.354z" fill="url(#a)"/><path d="M29.848 71.907c-1.034 1.114-1.822 1.661-2.345 3.204-.367 1.08-.42 1.305-.387 3.166-.638-1.832-.962-2.277-1.442-2.863-1.151-1.404-2.427-1.849-3.84-2.62-3.561-1.974-7.876-.995-9.637 2.184-.755 1.362-.919 2.906-.58 4.382-1.43.495-2.653 1.453-3.408 2.815-1.761 3.18-.303 7.356 3.258 9.329a7.918 7.918 0 0 0 4.619.981c1.876.005 3.898-.308 5.79-.738-1.596.959-3.191 2.08-4.463 3.314a7.07 7.07 0 0 0-2.447 3.708c-1.006 3.671 1.02 7.427 4.527 8.388a6.373 6.373 0 0 0 4.368-.37 6.38 6.38 0 0 0 3.57 2.547c3.506.961 7.164-1.235 8.17-4.907.408-1.464 1.032-3.025.8-4.745-.437-3.223-1.204-4.565-3.444-7.66 2.738 1.781 3.895 1.74 8.257 9.099l1.433-.671c-1.71-3.892-4.195-8.438-9.079-10.36 2.47-.024 5.733-.788 8.143-1.517a7.072 7.072 0 0 0 3.877-2.17c2.58-2.8 2.502-7.067-.173-9.53a6.377 6.377 0 0 0-4.05-1.675 6.375 6.375 0 0 0-2.004-3.9c-2.674-2.463-6.934-2.19-9.513.609z" fill="url(#b)"/><path d="M204.566 63.774c-1.418-1.038-2.153-1.87-3.996-2.266-1.292-.276-1.557-.307-3.691-.02 2.02-.978 2.488-1.41 3.097-2.04 1.459-1.512 1.8-3.038 2.497-4.766 1.79-4.356.087-9.184-3.803-10.782-1.666-.684-3.462-.666-5.113-.078-.761-1.578-2.026-2.855-3.692-3.54-3.89-1.597-8.494.639-10.284 4.995a9.16 9.16 0 0 0-.509 5.44c.247 2.157.876 4.438 1.625 6.555-1.316-1.705-2.818-3.388-4.407-4.685a8.177 8.177 0 0 0-4.589-2.315c-4.354-.664-8.399 2.169-9.034 6.328a7.376 7.376 0 0 0 1.011 4.97 7.383 7.383 0 0 0-2.448 4.443c-.635 4.159 2.38 8.068 6.734 8.733 1.737.271 3.615.78 5.56.282 3.647-.933 5.086-1.995 8.343-4.985-1.681 3.386-1.477 4.71-9.351 10.709l.964 1.557c4.244-2.487 9.135-5.952 10.688-11.822.359 2.835 1.674 6.482 2.835 9.154a8.182 8.182 0 0 0 3.014 4.165c3.564 2.589 8.457 1.928 10.929-1.476a7.382 7.382 0 0 0 1.383-4.88 7.377 7.377 0 0 0 4.213-2.825c2.472-3.404 1.588-8.262-1.976-10.85z" fill="url(#c)"/><defs><linearGradient id="a" x1="68.521" y1="57.083" x2="207.467" y2="55.666" gradientUnits="userSpaceOnUse"><stop offset=".391" stop-color="#0384CB"/><stop offset="1" stop-color="#85E48A"/></linearGradient><linearGradient id="b" x1="14.858" y1="97.162" x2="57.035" y2="58.199" gradientUnits="userSpaceOnUse"><stop offset=".391" stop-color="#0384CB"/><stop offset="1" stop-color="#85E48A"/></linearGradient><linearGradient id="c" x1="173.533" y1="49.932" x2="223.965" y2="93.18" gradientUnits="userSpaceOnUse"><stop offset=".391" stop-color="#0384CB"/><stop offset="1" stop-color="#85E48A"/></linearGradient></defs></svg>