<svg width="1294" height="178" viewBox="0 0 1294 178" fill="none" xmlns="http://www.w3.org/2000/svg"><g opacity=".2"><path d="M0 109.173h15.854c1.717-4.483 3.104-9.625 4.161-15.426 1.19-5.934 2.114-12.197 2.774-18.79a343.148 343.148 0 0 0 1.388-20.568c.396-7.12.594-14.042.594-20.767V0H126.63v109.173h14.07v54.983h-30.914v-25.712H30.914v25.712H0v-54.983zm90.96 0V29.271H58.064v8.307c0 16.086-.66 29.996-1.982 41.73-1.19 11.604-3.17 21.559-5.945 29.865H90.96z" fill="url(#a)"/><path d="M206.096 141.016c-7.662 0-14.862-1.055-21.6-3.165-6.606-2.241-12.353-5.604-17.241-10.087s-8.719-10.086-11.494-16.811c-2.774-6.856-4.161-14.833-4.161-23.93v-3.956c0-8.703 1.321-16.284 3.963-22.745 2.774-6.46 6.474-11.866 11.097-16.218 4.757-4.35 10.305-7.581 16.647-9.69 6.473-2.242 13.409-3.363 20.808-3.363 17.306 0 30.386 4.483 39.237 13.449 8.852 8.834 13.277 21.69 13.277 38.567v10.878H182.91c.132 4.087.859 7.581 2.18 10.482 1.321 2.769 3.039 5.076 5.153 6.922a21.54 21.54 0 0 0 7.134 4.153c2.774.791 5.681 1.187 8.719 1.187 5.813 0 10.371-.857 13.674-2.571 3.435-1.846 5.681-4.285 6.738-7.318h28.14c-2.114 11.471-7.333 20.041-15.656 25.711-8.323 5.67-19.288 8.505-32.896 8.505zm-.991-85.836c-2.774 0-5.482.33-8.125.989-2.51.66-4.822 1.78-6.936 3.362-1.981 1.45-3.633 3.362-4.954 5.736-1.189 2.373-1.849 5.274-1.981 8.702h43.597c0-3.692-.595-6.724-1.784-9.098-1.189-2.373-2.774-4.285-4.756-5.735-1.849-1.45-4.095-2.44-6.738-2.967-2.642-.66-5.416-.989-8.323-.989z" fill="url(#b)"/><path d="M272.452 33.622h37.058l24.969 52.016 24.969-52.016h35.869v104.822h-28.933V74.167l-22.591 44.5h-19.817l-22.591-44.5v64.277h-28.933V33.622z" fill="url(#c)"/><path d="M464.622 141.016c-7.398 0-14.334-1.055-20.808-3.165-6.473-2.241-12.154-5.604-17.042-10.087-4.888-4.483-8.72-10.086-11.494-16.811-2.774-6.856-4.162-14.833-4.162-23.93v-3.956c0-8.57 1.388-16.086 4.162-22.547 2.774-6.46 6.606-11.867 11.494-16.218 4.888-4.35 10.569-7.647 17.042-9.889 6.474-2.241 13.41-3.362 20.808-3.362 7.399 0 14.334 1.12 20.808 3.362s12.154 5.538 17.043 9.89c4.888 4.35 8.719 9.756 11.493 16.217 2.775 6.46 4.162 13.976 4.162 22.547v3.955c0 8.966-1.387 16.877-4.162 23.734-2.774 6.724-6.605 12.328-11.493 16.811-4.889 4.483-10.569 7.845-17.043 10.086-6.474 2.242-13.409 3.363-20.808 3.363zm0-25.316c7.134 0 12.617-2.571 16.448-7.713 3.832-5.143 5.747-12.13 5.747-20.965v-3.955c0-7.911-1.915-14.306-5.747-19.185-3.831-5.01-9.314-7.515-16.448-7.515s-12.617 2.505-16.448 7.515c-3.831 4.879-5.747 11.274-5.747 19.185v3.955c0 9.098 1.916 16.152 5.747 21.162 3.831 5.011 9.314 7.516 16.448 7.516z" fill="url(#d)"/><path d="M528.95 68.431h65.396v29.271H528.95v-29.27z" fill="url(#e)"/><path d="M609.185 33.622h56.28c6.87 0 12.749.725 17.637 2.176 5.021 1.318 9.05 3.23 12.089 5.735 3.17 2.505 5.482 5.472 6.936 8.9 1.453 3.297 2.18 6.923 2.18 10.878 0 5.01-1.454 9.691-4.36 14.042-2.907 4.22-7.068 7.054-12.485 8.505 6.474 1.582 11.56 4.615 15.259 9.098 3.699 4.483 5.549 9.691 5.549 15.624 0 9.098-3.237 16.35-9.71 21.756-6.474 5.406-16.184 8.108-29.131 8.108h-60.244V33.622zm52.713 81.88c10.569 0 15.854-3.23 15.854-9.691 0-6.593-5.285-9.889-15.854-9.889h-22.195v19.58h22.195zm-1.783-40.94c5.284 0 8.851-.79 10.701-2.373 1.982-1.714 2.972-3.956 2.972-6.724 0-2.901-.99-5.077-2.972-6.527-1.982-1.582-5.549-2.374-10.701-2.374h-20.412v17.998h20.412z" fill="url(#f)"/><path d="M774.672 141.016c-7.662 0-14.863-1.055-21.6-3.165-6.606-2.241-12.353-5.604-17.241-10.087s-8.719-10.086-11.494-16.811c-2.774-6.856-4.161-14.833-4.161-23.93v-3.956c0-8.703 1.321-16.284 3.963-22.745 2.774-6.46 6.474-11.866 11.098-16.218 4.756-4.35 10.304-7.581 16.646-9.69 6.473-2.242 13.409-3.363 20.807-3.363 17.307 0 30.386 4.483 39.238 13.449 8.852 8.834 13.277 21.69 13.277 38.567v10.878h-73.719c.132 4.087.859 7.581 2.18 10.482 1.321 2.769 3.039 5.076 5.153 6.922a21.54 21.54 0 0 0 7.134 4.153c2.774.791 5.681 1.187 8.719 1.187 5.813 0 10.371-.857 13.674-2.571 3.435-1.846 5.681-4.285 6.738-7.318h28.14c-2.114 11.471-7.333 20.041-15.656 25.711-8.323 5.67-19.288 8.505-32.896 8.505zm-.991-85.836c-2.774 0-5.482.33-8.125.989-2.51.66-4.822 1.78-6.936 3.362-1.981 1.45-3.633 3.362-4.954 5.736-1.189 2.373-1.849 5.274-1.981 8.702h43.597c0-3.692-.595-6.724-1.784-9.098-1.189-2.373-2.774-4.285-4.756-5.735-1.849-1.45-4.095-2.44-6.738-2.967-2.642-.66-5.416-.989-8.323-.989z" fill="url(#g)"/><path d="M841.028 33.622h28.14v14.24c1.321-2.11 2.973-4.153 4.954-6.13 2.114-2.11 4.558-3.956 7.333-5.539 2.774-1.582 5.879-2.834 9.314-3.757 3.434-.923 7.134-1.385 11.097-1.385 14.797 0 26.026 4.351 33.689 13.053 7.662 8.703 11.494 21.69 11.494 38.963v3.955c0 8.966-1.057 16.811-3.171 23.536-2.114 6.724-5.152 12.328-9.116 16.811-3.963 4.483-8.719 7.911-14.268 10.284-5.549 2.242-11.758 3.363-18.628 3.363-5.945 0-11.626-1.319-17.043-3.956-5.284-2.769-9.71-6.724-13.277-11.867V178h-30.518V33.622zm53.506 82.276c6.077 0 11.097-2.439 15.061-7.318 4.095-4.879 6.143-12.064 6.143-21.558v-3.955c0-9.098-1.982-15.822-5.945-20.174-3.831-4.483-8.918-6.724-15.259-6.724-6.474 0-11.956 2.044-16.448 6.131-4.36 3.956-6.54 9.889-6.54 17.8v9.889c0 8.307 2.18 14.701 6.54 19.184 4.492 4.483 9.974 6.725 16.448 6.725z" fill="url(#h)"/><path d="M1012.49 141.016c-7.79 0-14.994-1.121-21.599-3.363-6.474-2.241-12.089-5.603-16.845-10.086-4.756-4.483-8.455-10.087-11.097-16.811-2.643-6.725-3.964-14.636-3.964-23.734v-3.955c0-8.307 1.387-15.69 4.162-22.151 2.906-6.461 6.738-11.867 11.494-16.218 4.888-4.483 10.569-7.845 17.042-10.087 6.474-2.373 13.407-3.56 20.807-3.56 7.93 0 14.86 1.055 20.81 3.165 6.08 2.11 11.16 5.01 15.26 8.702 4.09 3.56 7.26 7.779 9.51 12.658 2.25 4.878 3.57 10.086 3.96 15.624h-31.31c-1.05-4.747-3.04-8.373-5.94-10.878-2.78-2.637-6.87-3.955-12.29-3.955-6.47 0-11.82 2.241-16.051 6.724-4.095 4.351-6.143 11.01-6.143 19.976v3.955c0 9.757 1.982 16.943 5.945 21.558 4.099 4.615 9.509 6.922 16.249 6.922 4.62 0 8.52-1.186 11.69-3.56 3.31-2.505 5.49-6.197 6.54-11.075h31.31c-.39 6.197-1.85 11.8-4.36 16.811-2.51 4.878-5.94 9.032-10.3 12.46-4.23 3.428-9.32 6.131-15.26 8.109-5.81 1.846-12.35 2.769-19.62 2.769z" fill="url(#i)"/><path d="M1076.93 33.622h29.73v63.29l44.59-63.29H1178v104.822h-29.72V75.156l-44.59 63.288h-26.76V33.622z" fill="url(#j)"/><path d="M1219.69 99.68c-7.93-2.637-13.74-6.527-17.44-11.669-3.57-5.274-5.35-11.34-5.35-18.195 0-5.143.86-9.89 2.57-14.24 1.85-4.483 4.63-8.307 8.33-11.472 3.7-3.296 8.39-5.867 14.07-7.713 5.81-1.846 12.68-2.769 20.61-2.769H1294v104.822h-30.52v-35.402h-15.06l-22.19 35.402h-33.3l26.76-38.764zm7.73-29.864c0 3.691 1.32 6.394 3.96 8.108 2.77 1.714 6.14 2.572 10.1 2.572h22V58.542h-22c-3.96 0-7.33.923-10.1 2.77-2.64 1.845-3.96 4.68-3.96 8.504z" fill="url(#k)"/></g><defs><linearGradient id="a" x1="647" y1="-131.684" x2="656.97" y2="212.511" gradientUnits="userSpaceOnUse"><stop offset=".029" stop-color="#fff"/><stop offset="1" stop-color="#fff" stop-opacity="0"/></linearGradient><linearGradient id="b" x1="647" y1="-131.684" x2="656.97" y2="212.511" gradientUnits="userSpaceOnUse"><stop offset=".029" stop-color="#fff"/><stop offset="1" stop-color="#fff" stop-opacity="0"/></linearGradient><linearGradient id="c" x1="647" y1="-131.684" x2="656.97" y2="212.511" gradientUnits="userSpaceOnUse"><stop offset=".029" stop-color="#fff"/><stop offset="1" stop-color="#fff" stop-opacity="0"/></linearGradient><linearGradient id="d" x1="647" y1="-131.684" x2="656.97" y2="212.511" gradientUnits="userSpaceOnUse"><stop offset=".029" stop-color="#fff"/><stop offset="1" stop-color="#fff" stop-opacity="0"/></linearGradient><linearGradient id="e" x1="647" y1="-131.684" x2="656.97" y2="212.511" gradientUnits="userSpaceOnUse"><stop offset=".029" stop-color="#fff"/><stop offset="1" stop-color="#fff" stop-opacity="0"/></linearGradient><linearGradient id="f" x1="647" y1="-131.684" x2="656.97" y2="212.511" gradientUnits="userSpaceOnUse"><stop offset=".029" stop-color="#fff"/><stop offset="1" stop-color="#fff" stop-opacity="0"/></linearGradient><linearGradient id="g" x1="647" y1="-131.684" x2="656.97" y2="212.511" gradientUnits="userSpaceOnUse"><stop offset=".029" stop-color="#fff"/><stop offset="1" stop-color="#fff" stop-opacity="0"/></linearGradient><linearGradient id="h" x1="647" y1="-131.684" x2="656.97" y2="212.511" gradientUnits="userSpaceOnUse"><stop offset=".029" stop-color="#fff"/><stop offset="1" stop-color="#fff" stop-opacity="0"/></linearGradient><linearGradient id="i" x1="647" y1="-131.684" x2="656.97" y2="212.511" gradientUnits="userSpaceOnUse"><stop offset=".029" stop-color="#fff"/><stop offset="1" stop-color="#fff" stop-opacity="0"/></linearGradient><linearGradient id="j" x1="647" y1="-131.684" x2="656.97" y2="212.511" gradientUnits="userSpaceOnUse"><stop offset=".029" stop-color="#fff"/><stop offset="1" stop-color="#fff" stop-opacity="0"/></linearGradient><linearGradient id="k" x1="647" y1="-131.684" x2="656.97" y2="212.511" gradientUnits="userSpaceOnUse"><stop offset=".029" stop-color="#fff"/><stop offset="1" stop-color="#fff" stop-opacity="0"/></linearGradient></defs></svg>