<svg xmlns="http://www.w3.org/2000/svg" width="22" height="23" viewBox="0 0 22 23"><defs><style>.cls-1{fill:#fff;fill-rule:evenodd}</style></defs><path id="Rounded_Rectangle_1_copy" data-name="Rounded Rectangle 1 copy" class="cls-1" d="M19 23H3a3 3 0 0 1-3-3V4a3 3 0 0 1 3-3h2.012v2.984h11.976V1H19a3 3 0 0 1 3 3v16a3 3 0 0 1-3 3zm-3.426-11.006L12 15.568V7h-2v8.568l-3.574-3.574-1.432 1.432L9.568 18H5v2h12v-2h-4.568l4.574-4.574zM12 17.58l.42.42H12v-.42zM9.58 18l.42-.42V18h-.42zM14 2H8a1 1 0 0 1 0-2h6a1 1 0 0 1 0 2z"/></svg>