<svg width="39" height="50" viewBox="0 0 39 50" fill="none" xmlns="http://www.w3.org/2000/svg"><path d="M0 0h33v33L22 44H0V0z" fill="#343532"/><path d="M.5.5h32v32.293L21.793 43.5H.5V.5z" stroke="url(#a)" stroke-opacity=".4"/><path d="M3 3h33v33L25 47H3V3z" fill="#343532"/><path d="M3.5 3.5h32v32.293L24.793 46.5H3.5v-43z" stroke="url(#b)" stroke-opacity=".8"/><path d="M6 6h33v33L28 50H6V6z" fill="url(#c)"/><path d="M27 38h12L27 50V38z" fill="#0083CA"/><path opacity=".3" fill="#343532" d="M8 8h16v40H8z"/><path fill="#0083CA" d="M10 36h11v3H10zm0 5h9v1h-9zm0 2h4v1h-4zm0 2h6v1h-6zm0-35h25v9H10z"/><path stroke="#0083CA" d="M10.5 19.5h24v11h-24z"/><path fill="#fff" d="M11 12h22v2H11zm1.72 9.7h2.43c.852 0 1.485.189 1.899.567.414.372.621.873.621 1.503 0 .63-.207 1.134-.621 1.512-.414.372-1.047.558-1.899.558h-1.08V28h-1.35v-6.3zm2.295 3.024c.48 0 .816-.081 1.008-.243.198-.162.297-.399.297-.711 0-.306-.099-.54-.297-.702-.192-.168-.528-.252-1.008-.252h-.945v1.908h.945zm3.69-3.024h2.205c.474 0 .897.066 1.27.198.371.126.686.315.944.567.258.252.456.567.594.945.138.378.207.813.207 1.305v.18c0 .504-.072.951-.216 1.341a2.536 2.536 0 0 1-.612.972 2.651 2.651 0 0 1-.972.594A4.002 4.002 0 0 1 20.82 28h-2.115v-6.3zm2.025 5.184c.24 0 .468-.033.684-.099.216-.072.405-.186.567-.342.168-.156.3-.36.396-.612.096-.252.144-.564.144-.936v-.18c0-.348-.045-.642-.135-.882a1.544 1.544 0 0 0-.369-.594c-.15-.15-.33-.258-.54-.324a2.122 2.122 0 0 0-.657-.099h-.765v4.068h.675zm4.365-5.184h4.32v1.116h-2.97V24.4h2.7v1.08h-2.7V28h-1.35v-6.3zM11 15h19v2H11z"/><defs><linearGradient id="a" x1="33" x2="0" gradientUnits="userSpaceOnUse"><stop stop-color="#2C4295"/><stop offset="1" stop-color="#0083CA"/></linearGradient><linearGradient id="b" x1="36" y1="3" x2="3" y2="3" gradientUnits="userSpaceOnUse"><stop stop-color="#2C4295"/><stop offset="1" stop-color="#0083CA"/></linearGradient><linearGradient id="c" x1="39" y1="6" x2="6" y2="6" gradientUnits="userSpaceOnUse"><stop stop-color="#2C4295"/><stop offset="1" stop-color="#0083CA"/></linearGradient></defs></svg>