<svg width="20" height="50" viewBox="0 0 20 50" fill="none" xmlns="http://www.w3.org/2000/svg"><path d="M261 79H45.241c-13.736 0-24.899-11.082-25-24.817l-.017-2.503a20 20 0 0 0-5.488-13.616L.762 23.327c-1.63-1.718-.72-4.558 1.604-5.01l2.25-.436A19.215 19.215 0 0 0 20.166-.981C20.166-14.246 30.919-25 44.185-25H261c13.807 0 25 11.193 25 25v54c0 13.807-11.193 25-25 25z" fill="url(#a)"/><defs><linearGradient id="a" x1="33" y1="-25" x2="302.792" y2="98.238" gradientUnits="userSpaceOnUse"><stop offset=".391" stop-color="#0384CB"/><stop offset="1" stop-color="#85E48A"/></linearGradient></defs></svg>