<svg width="124" height="146" viewBox="0 0 124 146" fill="none" xmlns="http://www.w3.org/2000/svg"><path fill="#2C4295" stroke="#fff" d="M9.242 34.778l3.535-3.535 13.435 13.435-3.535 3.535z"/><path fill="#2C4295" stroke="#fff" d="M5.707 38.314l10.607-10.607 2.828 2.829L8.535 41.143zm104.969-7.071l3.535 3.535-13.435 13.436-3.535-3.536z"/><path fill="#2C4295" stroke="#fff" d="M107.141 27.707l10.607 10.607-2.829 2.828-10.606-10.607z"/><circle cx="62" cy="10" r="9.5" stroke="#2C4295"/><path fill="#2C4295" stroke="#fff" d="M59.5 16.228h5v19h-5z"/><circle cx="62" cy="84" r="61.5" fill="#fff" stroke="#2C4295"/><path d="M121.001 84c0 32.585-26.415 59-59 59-.003-59 0-88 0-118 32.585 0 59 26.415 59 59z" fill="#F0F2F5"/><path d="M62 84l.001-59A58.853 58.853 0 0 1 83.4 29S71 62.5 62 84z" fill="#D5D8DB"/><circle cx="62" cy="33" r="2.5" fill="#2C4295" stroke="#fff"/><circle cx="62" cy="84" r="13" fill="#fff" stroke="#F0F2F5" stroke-width="2"/><path d="M60.95 84.696L75.256 42.72l3.227-1.412 1.412 3.227-17.971 40.54-.972-.38z" fill="#2C4295" stroke="#fff"/><circle cx="62" cy="84" r="6.5" fill="#2C4295" stroke="#fff"/><circle cx="113" cy="84" r="2.5" transform="rotate(90 113 84)" fill="#2C4295" stroke="#fff"/><circle cx="62" cy="135" r="2.5" fill="#2C4295" stroke="#fff"/><circle cx="11" cy="84" r="2.5" transform="rotate(90 11 84)" fill="#2C4295" stroke="#fff"/></svg>