<svg width="32" height="32" viewBox="0 0 32 32" fill="none" xmlns="http://www.w3.org/2000/svg"><g clip-path="url(#a)"><path d="M6.984.512a4.063 4.063 0 0 0-3.965.01L17.598 13.97l4.898-4.898L6.984.512zM1.561 1.898A3.73 3.73 0 0 0 1 3.852v24.29c0 .684.186 1.336.522 1.906l14.661-14.661L1.561 1.897zm27.428 10.76l-4.672-2.579-5.25 5.248 6.434 5.934 3.49-1.926C30.247 18.639 31 17.39 31 15.995c-.002-1.396-.752-2.644-2.01-3.338zm-11.335 4.085L2.953 31.444A4.12 4.12 0 0 0 4.995 32a4.11 4.11 0 0 0 1.99-.518l16.672-9.201-6.003-5.538z" fill="#fff"/></g><defs><clipPath id="a"><path fill="#fff" d="M0 0h32v32H0z"/></clipPath></defs></svg>