<svg width="180" height="43" viewBox="0 0 180 43" fill="none" xmlns="http://www.w3.org/2000/svg"><path d="M24.823 21.993a2.391 2.391 0 0 1 0 4.12l-4.892 2.88-.089-.15-4.79-4.79 4.79-4.79.09-.15 4.891 2.88z" fill="#FFDF64"/><path d="M.684 38.421l14.369-14.368 4.79 4.79.088.15L3.243 38.81c-.333.192-.71.293-1.095.294a2.148 2.148 0 0 1-1.519-.629l.055-.055z" fill="#D74838"/><path d="M2.148 9c.385.001.762.102 1.095.294l16.688 9.819-.089.15-4.79 4.79L.685 9.684.63 9.63A2.147 2.147 0 0 1 2.15 9z" fill="#62D96E"/><path d="M.684 9.684l14.369 14.369L.684 38.42l-.055.055A2.147 2.147 0 0 1 0 36.956V11.149A2.147 2.147 0 0 1 .63 9.63l.054.055z" fill="#01B5FF"/><path d="M50.76 37.24c-.992 0-1.936-.16-2.832-.48a6.426 6.426 0 0 1-2.328-1.536c-.656-.704-1.184-1.592-1.584-2.664-.384-1.072-.576-2.352-.576-3.84v-.48c0-1.44.192-2.68.576-3.72.4-1.04.928-1.896 1.584-2.568a6.304 6.304 0 0 1 2.328-1.488 7.999 7.999 0 0 1 2.832-.504c.816 0 1.576.12 2.28.36a6.107 6.107 0 0 1 1.896.984c.56.432 1.032.96 1.416 1.584.4.624.696 1.328.888 2.112h-2.4c-.352-1.056-.904-1.824-1.656-2.304a4.424 4.424 0 0 0-2.424-.72c-.656 0-1.28.112-1.872.336a4.182 4.182 0 0 0-1.584 1.08c-.448.48-.808 1.12-1.08 1.92-.256.8-.384 1.776-.384 2.928v.48c0 1.216.144 2.24.432 3.072.288.816.664 1.48 1.128 1.992.48.512 1.008.88 1.584 1.104a4.988 4.988 0 0 0 1.776.336c1.328 0 2.408-.376 3.24-1.128.832-.752 1.312-1.984 1.44-3.696h-4.2v-1.92h6.36v.72c0 1.296-.16 2.448-.48 3.456-.32.992-.776 1.832-1.368 2.52a5.59 5.59 0 0 1-2.136 1.536c-.848.352-1.8.528-2.856.528zm15.362 0a7.035 7.035 0 0 1-2.328-.384 5.665 5.665 0 0 1-1.944-1.2c-.56-.544-1.008-1.224-1.344-2.04-.336-.816-.504-1.768-.504-2.856v-.48c0-1.024.168-1.928.504-2.712.336-.784.784-1.432 1.344-1.944a5.374 5.374 0 0 1 1.944-1.176 6.661 6.661 0 0 1 2.328-.408c.816 0 1.592.136 2.328.408a5.374 5.374 0 0 1 1.944 1.176c.56.512 1.008 1.16 1.344 1.944.336.784.504 1.688.504 2.712v.48c0 1.088-.168 2.04-.504 2.856-.336.816-.784 1.496-1.344 2.04a5.665 5.665 0 0 1-1.944 1.2 7.035 7.035 0 0 1-2.328.384zm0-1.92c.48 0 .96-.08 1.44-.24.48-.176.904-.44 1.272-.792.368-.368.664-.84.888-1.416.24-.576.36-1.28.36-2.112v-.48c0-.768-.12-1.424-.36-1.968-.224-.544-.52-.992-.888-1.344a3.353 3.353 0 0 0-1.272-.768 4.53 4.53 0 0 0-1.44-.24c-.48 0-.96.08-1.44.24-.48.16-.904.416-1.272.768-.368.352-.672.8-.912 1.344-.224.544-.336 1.2-.336 1.968v.48c0 .832.112 1.536.336 2.112.24.576.544 1.048.912 1.416.368.352.792.616 1.272.792.48.16.96.24 1.44.24zm14.39 1.92a7.035 7.035 0 0 1-2.328-.384 5.665 5.665 0 0 1-1.944-1.2c-.56-.544-1.007-1.224-1.343-2.04-.337-.816-.505-1.768-.505-2.856v-.48c0-1.024.169-1.928.505-2.712.335-.784.783-1.432 1.343-1.944a5.374 5.374 0 0 1 1.945-1.176 6.661 6.661 0 0 1 2.328-.408c.816 0 1.591.136 2.328.408a5.374 5.374 0 0 1 1.944 1.176c.56.512 1.008 1.16 1.344 1.944.335.784.503 1.688.503 2.712v.48c0 1.088-.168 2.04-.504 2.856-.335.816-.784 1.496-1.344 2.04a5.665 5.665 0 0 1-1.944 1.2 7.035 7.035 0 0 1-2.328.384zm0-1.92c.48 0 .96-.08 1.44-.24a3.64 3.64 0 0 0 1.273-.792c.368-.368.663-.84.888-1.416.24-.576.36-1.28.36-2.112v-.48c0-.768-.12-1.424-.36-1.968-.225-.544-.52-.992-.888-1.344a3.353 3.353 0 0 0-1.272-.768 4.53 4.53 0 0 0-1.44-.24c-.48 0-.96.08-1.44.24-.48.16-.904.416-1.272.768-.368.352-.672.8-.913 1.344-.224.544-.336 1.2-.336 1.968v.48c0 .832.112 1.536.336 2.112.24.576.544 1.048.912 1.416a3.63 3.63 0 0 0 1.273.792c.48.16.96.24 1.44.24zm14.151 6.72c-.928 0-1.72-.096-2.376-.288-.656-.176-1.2-.424-1.632-.744a3.31 3.31 0 0 1-.96-1.152 4.174 4.174 0 0 1-.432-1.416h2.208c.08.256.192.488.336.696.144.208.336.384.576.528.24.144.544.256.912.336.384.08.84.12 1.368.12 1.296 0 2.248-.312 2.856-.936.608-.624.912-1.512.912-2.664v-2.04c-.368.848-.936 1.48-1.704 1.896-.752.416-1.64.624-2.664.624a5.585 5.585 0 0 1-2.16-.408 4.547 4.547 0 0 1-1.656-1.2c-.464-.528-.824-1.184-1.08-1.968-.256-.8-.384-1.728-.384-2.784v-.48c0-.976.128-1.84.384-2.592.272-.768.64-1.408 1.104-1.92a4.547 4.547 0 0 1 1.656-1.2 5.522 5.522 0 0 1 2.136-.408c1.088 0 2.032.248 2.832.744.8.48 1.36 1.112 1.68 1.896v-2.4h1.968v12.24c0 1.728-.504 3.08-1.512 4.056s-2.464 1.464-4.368 1.464zm-.12-6.912a4.57 4.57 0 0 0 1.584-.264c.48-.192.888-.456 1.224-.792.336-.336.6-.736.792-1.2.192-.464.288-.968.288-1.512v-1.92c0-.48-.096-.936-.288-1.368a3.51 3.51 0 0 0-.792-1.128 3.492 3.492 0 0 0-1.224-.744 4.228 4.228 0 0 0-1.584-.288c-.512 0-.992.096-1.44.288-.448.192-.84.472-1.176.84-.32.368-.576.816-.768 1.344-.176.512-.264 1.104-.264 1.776v.48c0 .72.088 1.36.264 1.92.192.56.448 1.032.768 1.416.336.384.728.672 1.176.864.448.192.928.288 1.44.288zm13.686 1.992c-1.328 0-2.28-.32-2.856-.96-.576-.64-.864-1.68-.864-3.12V20.2h2.112v12.84c0 .832.136 1.4.408 1.704.272.304.752.456 1.44.456h.456l.384-.048v1.872a3.336 3.336 0 0 1-.552.072c-.224.016-.4.024-.528.024zm8.893.12a7.035 7.035 0 0 1-2.328-.384 5.374 5.374 0 0 1-1.944-1.176c-.56-.544-1.008-1.224-1.344-2.04-.336-.816-.504-1.776-.504-2.88v-.48c0-1.056.16-1.968.48-2.736.32-.784.744-1.432 1.272-1.944a5.224 5.224 0 0 1 1.872-1.176 6.684 6.684 0 0 1 2.256-.384c1.872 0 3.32.512 4.344 1.536 1.024 1.024 1.536 2.472 1.536 4.344v1.344h-9.648c0 .752.12 1.384.36 1.896s.552.928.936 1.248c.384.32.808.552 1.272.696.48.144.96.216 1.44.216.96 0 1.696-.16 2.208-.48.528-.32.904-.76 1.128-1.32h2.064a4.17 4.17 0 0 1-.696 1.608 4.42 4.42 0 0 1-1.2 1.176c-.464.304-1 .536-1.608.696-.592.16-1.224.24-1.896.24zm-.12-11.28a4.83 4.83 0 0 0-1.44.216 3.32 3.32 0 0 0-2.112 1.752c-.224.448-.336.984-.336 1.608h7.656c-.016-.656-.128-1.208-.336-1.656-.192-.464-.456-.832-.792-1.104a3.07 3.07 0 0 0-1.2-.624 5.22 5.22 0 0 0-1.44-.192zm15.242-5.76h5.76c1.104 0 2.064.128 2.88.384.816.256 1.488.616 2.016 1.08a4.02 4.02 0 0 1 1.2 1.632c.256.624.384 1.312.384 2.064s-.128 1.448-.384 2.088a4.246 4.246 0 0 1-1.2 1.632c-.528.448-1.2.8-2.016 1.056-.816.256-1.776.384-2.88.384H134.5V37h-2.256V20.2zm5.64 8.352c.8 0 1.472-.072 2.016-.216.56-.16 1.008-.376 1.344-.648.352-.272.6-.608.744-1.008.16-.4.24-.84.24-1.32 0-.48-.08-.92-.24-1.32a2.195 2.195 0 0 0-.744-1.008c-.336-.272-.784-.48-1.344-.624-.544-.16-1.216-.24-2.016-.24H134.5v6.384h3.384zm13.446 8.568c-1.328 0-2.28-.32-2.856-.96-.576-.64-.864-1.68-.864-3.12V20.2h2.112v12.84c0 .832.136 1.4.408 1.704.272.304.752.456 1.44.456h.456l.384-.048v1.872a3.336 3.336 0 0 1-.552.072c-.224.016-.4.024-.528.024zm7.472.12c-.704 0-1.328-.096-1.872-.288a4.082 4.082 0 0 1-1.344-.84 3.51 3.51 0 0 1-.84-1.248 4.228 4.228 0 0 1-.288-1.584c0-1.264.368-2.176 1.104-2.736.752-.56 1.824-.84 3.216-.84h4.128v-.864c0-1.088-.248-1.84-.744-2.256-.48-.416-1.208-.624-2.184-.624-.912 0-1.576.176-1.992.528-.416.336-.648.72-.696 1.152h-2.112c.032-.512.168-.984.408-1.416a3.854 3.854 0 0 1 1.008-1.152c.432-.32.944-.568 1.536-.744a6.355 6.355 0 0 1 1.968-.288c1.504 0 2.696.36 3.576 1.08.896.704 1.344 1.864 1.344 3.48v6.936c.016.496.056.984.12 1.464h-1.848c-.048-.368-.08-.712-.096-1.032a23.912 23.912 0 0 1-.024-1.128c-.336.672-.88 1.24-1.632 1.704-.752.464-1.664.696-2.736.696zm.456-1.92c.496 0 .96-.064 1.392-.192.448-.144.84-.344 1.176-.6.336-.272.6-.6.792-.984.192-.384.288-.832.288-1.344v-.864h-3.768c-.784 0-1.4.16-1.848.48-.448.304-.672.792-.672 1.464 0 .592.208 1.08.624 1.464.432.384 1.104.576 2.016.576zm10.701 6.72c-.24 0-.48-.024-.72-.072v-1.92c.24.048.48.072.72.072s.448-.04.624-.12c.176-.08.344-.232.504-.456.16-.224.328-.544.504-.96.192-.4.408-.928.648-1.584l-5.4-12.72h2.352l4.128 10.32 3.744-10.32h2.256l-4.8 12.72a29.975 29.975 0 0 1-.96 2.304c-.304.64-.632 1.16-.984 1.56-.336.416-.712.712-1.128.888-.416.192-.912.288-1.488.288zM50.24 11.016h.9c.152-.304.28-.68.384-1.128.104-.448.184-.928.24-1.44.056-.52.096-1.052.12-1.596.024-.552.036-1.076.036-1.572V3.6h5.46v7.416h1.02v2.544h-1.08V12h-6v1.56h-1.08v-2.544zm6.012 0V4.584h-3.228v.936c0 1.216-.056 2.268-.168 3.156-.104.888-.276 1.668-.516 2.34h3.912zm5.996 1.104c-.408 0-.796-.064-1.164-.192a2.832 2.832 0 0 1-.972-.6 2.983 2.983 0 0 1-.672-1.02c-.168-.408-.252-.884-.252-1.428v-.24c0-.512.084-.964.252-1.356a2.776 2.776 0 0 1 1.644-1.56 3.33 3.33 0 0 1 1.164-.204c.408 0 .796.068 1.164.204a2.776 2.776 0 0 1 1.644 1.56c.168.392.252.844.252 1.356v.24c0 .544-.084 1.02-.252 1.428a2.983 2.983 0 0 1-.672 1.02c-.28.264-.604.464-.972.6a3.518 3.518 0 0 1-1.164.192zm0-.96c.24 0 .48-.04.72-.12.24-.088.452-.22.636-.396a2.02 2.02 0 0 0 .444-.708c.12-.288.18-.64.18-1.056v-.24c0-.384-.06-.712-.18-.984a1.932 1.932 0 0 0-.444-.672 1.676 1.676 0 0 0-.636-.384c-.24-.08-.48-.12-.72-.12s-.48.04-.72.12c-.24.08-.452.208-.636.384-.184.176-.336.4-.456.672-.112.272-.168.6-.168.984v.24c0 .416.056.768.168 1.056.12.288.272.524.456.708.184.176.396.308.636.396.24.08.48.12.72.12zm7.016.96c-.408 0-.788-.064-1.14-.192a2.517 2.517 0 0 1-.912-.6 2.989 2.989 0 0 1-.612-1.02c-.144-.408-.216-.884-.216-1.428v-.24c0-.512.08-.964.24-1.356.16-.392.372-.716.636-.972a2.52 2.52 0 0 1 .912-.588 3.005 3.005 0 0 1 1.092-.204c.376 0 .712.052 1.008.156a2.372 2.372 0 0 1 1.32 1.08 2.8 2.8 0 0 1 .312.804h-1.08a2.345 2.345 0 0 0-.228-.42 1.178 1.178 0 0 0-.312-.348 1.386 1.386 0 0 0-.432-.228 1.861 1.861 0 0 0-.588-.084c-.232 0-.456.044-.672.132a1.52 1.52 0 0 0-.576.384 1.856 1.856 0 0 0-.408.66 2.97 2.97 0 0 0-.144.984v.24c0 .408.048.76.144 1.056.104.288.24.524.408.708.168.176.36.308.576.396.216.08.44.12.672.12.392 0 .72-.096.984-.288.272-.192.464-.456.576-.792h1.08c-.152.632-.464 1.132-.936 1.5-.472.36-1.04.54-1.704.54zm5.53-5.544h-2.171V5.64h5.4v.936H75.85V12h-1.056V6.576zM80.3 14.52c-.12 0-.24-.012-.36-.036v-.96c.12.024.24.036.36.036s.224-.02.312-.06a.66.66 0 0 0 .252-.228c.08-.112.164-.272.252-.48.096-.2.204-.464.324-.792l-2.7-6.36h1.176l2.064 5.16 1.872-5.16h1.128L82.58 12c-.168.448-.328.832-.48 1.152a3.36 3.36 0 0 1-.492.78 1.462 1.462 0 0 1-.564.444 1.763 1.763 0 0 1-.744.144zm5.875-8.88h5.28V12h-1.056V6.576H87.23V12h-1.056V5.64zm7.195 0h1.056v2.652h3.288V5.64h1.056V12h-1.056V9.228h-3.288V12H93.37V5.64zm9.964 6.48c-.408 0-.796-.064-1.164-.192a2.832 2.832 0 0 1-.972-.6 2.983 2.983 0 0 1-.672-1.02c-.168-.408-.252-.884-.252-1.428v-.24c0-.512.084-.964.252-1.356a2.776 2.776 0 0 1 1.644-1.56 3.33 3.33 0 0 1 1.164-.204c.408 0 .796.068 1.164.204a2.776 2.776 0 0 1 1.644 1.56c.168.392.252.844.252 1.356v.24c0 .544-.084 1.02-.252 1.428a2.983 2.983 0 0 1-.672 1.02c-.28.264-.604.464-.972.6a3.518 3.518 0 0 1-1.164.192zm0-.96c.24 0 .48-.04.72-.12.24-.088.452-.22.636-.396a2.02 2.02 0 0 0 .444-.708c.12-.288.18-.64.18-1.056v-.24c0-.384-.06-.712-.18-.984a1.932 1.932 0 0 0-.444-.672 1.676 1.676 0 0 0-.636-.384c-.24-.08-.48-.12-.72-.12s-.48.04-.72.12c-.24.08-.452.208-.636.384-.184.176-.336.4-.456.672-.112.272-.168.6-.168.984v.24c0 .416.056.768.168 1.056.12.288.272.524.456.708.184.176.396.308.636.396.24.08.48.12.72.12zm7.556-5.52h2.76c.784 0 1.36.164 1.728.492.368.32.552.736.552 1.248 0 .136-.024.276-.072.42a1.48 1.48 0 0 1-.204.384c-.08.12-.18.224-.3.312-.112.088-.24.156-.384.204.392.096.688.28.888.552.208.264.312.576.312.936 0 .552-.184.992-.552 1.32-.368.328-.944.492-1.728.492h-3V5.64zm3 5.424c.448 0 .764-.08.948-.24.184-.16.276-.388.276-.684 0-.304-.092-.536-.276-.696-.184-.168-.5-.252-.948-.252h-1.944v1.872h1.944zm-.24-2.736c.456 0 .772-.08.948-.24.184-.16.276-.38.276-.66 0-.264-.092-.472-.276-.624-.176-.152-.492-.228-.948-.228h-1.704v1.752h1.704z" fill="#fff"/></svg>