<svg width="30" height="30" viewBox="0 0 30 30" fill="none" xmlns="http://www.w3.org/2000/svg"><path d="M5.984.48a4.3 4.3 0 0 0-3.966.01l14.58 12.608 4.898-4.592L5.984.48zM.56 1.78A3.336 3.336 0 0 0 0 3.61v22.773c0 .642.186 1.253.522 1.787l14.662-13.745L.56 1.78zm27.43 10.086l-4.672-2.417-5.25 4.92 6.434 5.563 3.49-1.806c1.256-.652 2.008-1.822 2.008-3.13-.002-1.31-.752-2.48-2.01-3.13zm-11.336 3.83L1.952 29.48a4.332 4.332 0 0 0 2.042.52c.68 0 1.364-.161 1.99-.486l16.674-8.626-6.004-5.192z" fill="url(#a)"/><defs><linearGradient id="a" x1="15" x2="15" y2="30" gradientUnits="userSpaceOnUse"><stop stop-color="#1E3CAE"/><stop offset="1" stop-color="#007FC5"/></linearGradient></defs></svg>