<svg width="93" height="109" viewBox="0 0 93 109" fill="none" xmlns="http://www.w3.org/2000/svg"><path d="M9 78l24-24 24-8L81 6" stroke="#2C4295" stroke-width="2"/><circle cx="9" cy="78" r="5" fill="#fff" stroke="#2C4295" stroke-width="2"/><circle cx="33" cy="54" r="5" fill="#fff" stroke="#2C4295" stroke-width="2"/><circle cx="57" cy="46" r="5" fill="#fff" stroke="#2C4295" stroke-width="2"/><circle cx="81" cy="6" r="5" fill="#fff" stroke="#2C4295" stroke-width="2"/><path fill="#fff" stroke="#2C4295" d="M.5 91.5h20v17H.5zm24-24h20v40h-20zm24-8h20v49h-20zm24-40h20v89h-20z"/><path fill="#F0F2F5" d="M81 22h9v87h-9zM57 62h9v47h-9zm-24 8h9v39h-9zM9 94h9v15H9z"/></svg>