<svg width="124" height="75" viewBox="0 0 124 75" fill="none" xmlns="http://www.w3.org/2000/svg"><path fill="#fff" stroke="#2C4295" d="M.5 9.5h123v65H.5z"/><path fill="#F0F2F5" d="M3 43h118v29H3z"/><path fill="#fff" d="M3 54h18v18H3zm100 0h19v19h-19z"/><path fill="#fff" stroke="#2C4295" d="M.5 9.5h19v19H.5zm0 46h19v19H.5z"/><path fill="#2C4295" stroke="#fff" d="M26.5 36.5h11v11h-11zm60 0h11v11h-11z"/><path fill="#fff" stroke="#2C4295" d="M104.5 9.5h19v19h-19zm0 46h19v19h-19z"/><path fill="#F0F2F5" d="M22 13h80v3H22z"/><path fill="#2C4295" stroke="#fff" d="M12.5.5h99v3h-99z"/><path fill="#2C4295" stroke="#fff" d="M8.5 2.5h107v3H8.5z"/><path fill="#2C4295" stroke="#fff" d="M4.5 4.5h115v3H4.5z"/><g filter="url(#a)"><circle cx="62" cy="42" r="18" fill="#fff"/><circle cx="62" cy="42" r="17" stroke="#2C4295" stroke-width="2"/></g><defs><filter id="a" x="44" y="24" width="36" height="37" filterUnits="userSpaceOnUse" color-interpolation-filters="sRGB"><feFlood flood-opacity="0" result="BackgroundImageFix"/><feColorMatrix in="SourceAlpha" values="0 0 0 0 0 0 0 0 0 0 0 0 0 0 0 0 0 0 127 0"/><feOffset dy="1"/><feColorMatrix values="0 0 0 0 1 0 0 0 0 1 0 0 0 0 1 0 0 0 1 0"/><feBlend in2="BackgroundImageFix" result="effect1_dropShadow"/><feBlend in="SourceGraphic" in2="effect1_dropShadow" result="shape"/></filter></defs></svg>