<svg width="80" height="98" viewBox="0 0 80 98" fill="none" xmlns="http://www.w3.org/2000/svg"><path fill="#fff" stroke="#2C4295" d="M4.5 6.5h36v33h-36z"/><path fill="#F0F2F5" d="M21 9h17v29H21z"/><path d="M4.5 39.5h36v56.58l-36-23.352V39.5zm36-33h36v33h-36z" fill="#fff" stroke="#2C4295"/><path fill="#F0F2F5" d="M43 9h17v29H43z"/><path d="M40.5 39.5h36v33.228l-36 23.352V39.5z" fill="#fff" stroke="#2C4295"/><path d="M43 42h17v35.692L43 90V42zm-5 0H21v36.436L38 91V42z" fill="#F0F2F5"/><path d="M15 72V39.256l6.5-9.487 6.5 9.487V72H15z" fill="#fff" stroke="#2C4295" stroke-width="2"/><path fill="#2C4295" stroke="#fff" d="M1.5 3.5h78v3h-78z"/><path d="M21 32.5l5 7.5v30h-5V32.5z" fill="#F0F2F5"/><path fill="#2C4295" stroke="#fff" d="M8.5 72.5h26v3h-26zm8 3h10v3h-10zm0 4h10v3h-10zm0 4h10v3h-10zm0 4h10v3h-10z"/><circle cx="21.5" cy="92.5" r="4.5" fill="#fff" stroke="#2C4295" stroke-width="2"/></svg>