<svg width="92" height="96" viewBox="0 0 92 96" fill="none" xmlns="http://www.w3.org/2000/svg"><path d="M8.5 8A7.5 7.5 0 0 1 16 .5h60A7.5 7.5 0 0 1 83.5 8v85.5h-75V8z" fill="#fff" stroke="#2C4295"/><path fill="#F0F2F5" d="M37 3h20v91H37z"/><path fill="#fff" stroke="#2C4295" d="M50.5 13.5h11v15h-11z"/><path fill="#2C4295" d="M50 21h12v1H50zm0 3h12v1H50z"/><path fill="#2C4295" d="M54 22h1v7h-1zm2-8h2v7h-2z"/><circle cx="24" cy="73" r="5" fill="#fff" stroke="#2C4295" stroke-width="2"/><circle cx="24" cy="79" r="5" stroke="#2C4295" stroke-width="2"/><path fill="#2C4295" stroke="#fff" d="M.5 92.5h91v3H.5z"/></svg>