<svg width="105" height="117" viewBox="0 0 105 117" fill="none" xmlns="http://www.w3.org/2000/svg"><path d="M8.5 30a7.5 7.5 0 0 1 7.5-7.5h60a7.5 7.5 0 0 1 7.5 7.5v86.5h-75V30z" fill="#fff" stroke="#2C4295"/><path d="M46 25h35v90H46V25z" fill="#F0F2F5"/><path fill="#2C4295" stroke="#fff" d="M.5 113.5h91v3H.5zm7-41h77v2h-77z"/><path fill="#fff" stroke="#2C4295" d="M18.5 32.5h20v20h-20z"/><path fill="#2C4295" stroke="#fff" d="M48.5 55.5h14v2h-14zm-32 28h16v2h-16zm32 0h24v2h-24zm0 3h24v2h-24zm0 7h24v2h-24zm16 3h8v2h-8zm-48 13h57v2h-57zm0-13h16v2h-16zm32-45h24v2h-24zm0-10h8v4h-8zm-32 46h24v4h-24zm0 13h32v4h-32zm32-65h21v4h-21z"/><circle cx="83" cy="22" r="21" fill="#2C4295" stroke="#fff" stroke-width="2"/><path d="M78.496 28.032h4.008v-12.36l-4.008 2.856V16.08l4.056-2.88h2.256v14.832h3.288V30h-9.6v-1.968z" fill="#fff"/></svg>