<svg width="105" height="117" viewBox="0 0 105 117" fill="none" xmlns="http://www.w3.org/2000/svg"><path d="M8.5 30a7.5 7.5 0 0 1 7.5-7.5h60a7.5 7.5 0 0 1 7.5 7.5v83a3.5 3.5 0 0 1-3.5 3.5H12a3.5 3.5 0 0 1-3.5-3.5V30z" fill="#fff" stroke="#2C4295"/><path d="M45 25h34a2 2 0 0 1 2 2v86a2 2 0 0 1-2 2H45V25z" fill="#F0F2F5"/><path fill="#2C4295" stroke="#fff" d="M.5 113.5h91v3H.5z"/><path d="M26.503 99.5c-7-5 1.499-6 1.499-6l-.5 9 3-4.5 1 3 2.5-2 2 2 2-4.5 1 7c.166-1.5 1.5-4.5 5.5-4.5" stroke="#2C4295"/><rect x="57.5" y="88.5" width="17" height="17" rx="8.5" fill="#fff" stroke="#2C4295"/><rect x="59.5" y="90.5" width="13" height="13" rx="6.5" fill="#fff" stroke="#2C4295"/><path fill="#2C4295" stroke="#fff" d="M18.5 82.5h40v2h-40zm0-4h40v2h-40zm0-13h40v2h-40zm0-5h40v2h-40zm0-5h40v2h-40zm0-16h24v4h-24zm0-6h37v4h-37z"/><circle cx="83" cy="22" r="21" fill="#2C4295" stroke="#fff" stroke-width="2"/><path d="M83.32 30.24c-.911 0-1.727-.12-2.447-.36-.705-.256-1.305-.6-1.8-1.032a4.311 4.311 0 0 1-1.128-1.512 4.725 4.725 0 0 1-.384-1.896h2.255c0 .816.28 1.488.84 2.016.56.512 1.448.768 2.664.768 1.217 0 2.105-.264 2.665-.792.56-.544.84-1.248.84-2.112 0-.896-.288-1.616-.865-2.16-.56-.56-1.44-.84-2.64-.84h-1.8V20.4h1.8c1.153 0 1.985-.24 2.497-.72.512-.496.768-1.176.768-2.04 0-.832-.248-1.48-.744-1.944-.496-.48-1.337-.72-2.52-.72-1.136 0-1.968.248-2.496.744-.513.48-.769 1.08-.769 1.8h-2.255c0-.624.12-1.216.36-1.776a4.14 4.14 0 0 1 1.08-1.44 5.358 5.358 0 0 1 1.728-.984c.688-.24 1.472-.36 2.352-.36.88 0 1.663.12 2.352.36.688.24 1.263.56 1.727.96.48.4.84.872 1.08 1.416.24.544.36 1.112.36 1.704 0 .96-.255 1.776-.767 2.448-.496.656-1.2 1.12-2.112 1.392.96.304 1.72.8 2.28 1.488.56.688.84 1.632.84 2.832 0 .64-.129 1.248-.385 1.824a4.376 4.376 0 0 1-1.127 1.488c-.48.416-1.08.752-1.8 1.008-.72.24-1.537.36-2.449.36z" fill="#fff"/></svg>