<svg width="105" height="117" viewBox="0 0 105 117" fill="none" xmlns="http://www.w3.org/2000/svg"><path d="M8.5 30a7.5 7.5 0 0 1 7.5-7.5h60a7.5 7.5 0 0 1 7.5 7.5v83a3.5 3.5 0 0 1-3.5 3.5H12a3.5 3.5 0 0 1-3.5-3.5V30z" fill="#fff" stroke="#2C4295"/><path d="M45 25h34a2 2 0 0 1 2 2v86a2 2 0 0 1-2 2H45V25z" fill="#F0F2F5"/><path fill="#2C4295" stroke="#fff" d="M.5 113.5h91v3H.5zm41-18h32v9h-32z"/><path fill="#fff" stroke="#2C4295" d="M19.5 75.5h53v11h-53z"/><path fill="#2C4295" stroke="#fff" d="M18.5 68.5h24v4h-24z"/><path fill="#fff" stroke="#2C4295" d="M19.5 48.5h53v11h-53z"/><path fill="#2C4295" stroke="#fff" d="M18.5 41.5h37v4h-37z"/><circle cx="83" cy="22" r="21" fill="#2C4295" stroke="#fff" stroke-width="2"/><path d="M77 28.152l6.72-5.832c.511-.432.927-.824 1.247-1.176.336-.352.6-.68.792-.984.192-.32.32-.632.384-.936.08-.304.12-.632.12-.984 0-.944-.28-1.72-.84-2.328-.56-.624-1.328-.936-2.304-.936-1.168 0-2.064.32-2.688.96-.624.624-.936 1.512-.936 2.664H77.24c0-.816.136-1.568.408-2.256a5.225 5.225 0 0 1 1.2-1.8 5.58 5.58 0 0 1 1.872-1.152c.72-.288 1.52-.432 2.4-.432.848 0 1.608.136 2.28.408.672.256 1.24.624 1.704 1.104a4.588 4.588 0 0 1 1.056 1.656c.24.64.36 1.344.36 2.112 0 .576-.088 1.112-.264 1.608a5.72 5.72 0 0 1-.744 1.416c-.304.448-.68.888-1.128 1.32-.432.416-.912.848-1.44 1.296l-5.016 4.152h8.832V30H77v-1.848z" fill="#fff"/></svg>