<svg width="105" height="117" viewBox="0 0 105 117" fill="none" xmlns="http://www.w3.org/2000/svg"><path d="M8.5 30a7.5 7.5 0 0 1 7.5-7.5h60a7.5 7.5 0 0 1 7.5 7.5v83a3.5 3.5 0 0 1-3.5 3.5H12a3.5 3.5 0 0 1-3.5-3.5V30z" fill="#fff" stroke="#2C4295"/><path d="M45 25h34a2 2 0 0 1 2 2v86a2 2 0 0 1-2 2H45V25z" fill="#F0F2F5"/><path fill="#fff" stroke="#2C4295" d="M19.5 48.5h53v11h-53zm0 27h53v11h-53z"/><path fill="#2C4295" stroke="#fff" d="M18.5 41.5h37v4h-37zm0 27h24v4h-24zm23 27h32v9h-32zm-41 18h91v3H.5z"/><circle cx="83" cy="22" r="21" fill="#2C4295" stroke="#fff" stroke-width="2"/><path d="M78.496 28.032h4.008v-12.36l-4.008 2.856V16.08l4.056-2.88h2.256v14.832h3.288V30h-9.6v-1.968z" fill="#fff"/></svg>