<svg width="192" height="609" viewBox="0 0 192 609" fill="none" xmlns="http://www.w3.org/2000/svg"><g clip-path="url(#a)"><path fill="#F0F2F5" d="M-659-3671H781v14335H-659z"/><path fill-rule="evenodd" clip-rule="evenodd" d="M170.059 3.412L36.186 297.207c-6.034 13.244 3.646 28.293 18.2 28.293H88.2c14.257 0 23.936 14.492 18.474 27.662L.571 609h-735.07l15.293-610h890l-.735 4.412z" fill="#F0F2F5"/><path d="M36.186 297.207l.91.415-.91-.415zM170.06 3.412l.91.415.055-.12.021-.13-.986-.165zm-63.384 349.75l.924.383-.924-.383zM.571 609v1h.668l.256-.617L.57 609zm-735.07 0l-.999-.025-.026 1.025h1.025v-1zm15.293-610v-1h-.975l-.025.975 1 .025zm890 0l.987.164.194-1.164h-1.181v1zM37.096 297.622L170.97 3.827l-1.82-.83L35.276 296.792l1.82.83zm17.29 26.878c-13.826 0-23.023-14.297-17.29-26.878l-1.82-.83c-6.336 13.906 3.828 29.708 19.11 29.708v-2zm33.815 0H54.386v2H88.2v-2zm19.398 29.045c5.735-13.828-4.428-29.045-19.398-29.045v2c13.544 0 22.739 13.767 17.55 26.279l1.848.766zM1.495 609.383l106.104-255.838-1.848-.766L-.353 608.617l1.848.766zM-734.5 610H.571v-2h-735.07v2zm14.293-611.025l-15.292 610 1.999.05 15.293-610-2-.05zm891-.975h-890v2h890v-2zm.251 5.576l.736-4.412-1.973-.328-.736 4.411 1.973.33z" fill="#fff"/></g><defs><clipPath id="a"><path fill="#fff" transform="translate(-659 -3671)" d="M0 0h1440v14335H0z"/></clipPath></defs></svg>