<svg width="216" height="51" viewBox="0 0 216 51" fill="none" xmlns="http://www.w3.org/2000/svg"><path fill-rule="evenodd" clip-rule="evenodd" d="M38.374 0L25.732 12.642l-6.587 6.586 6.139 6.139 12.642-12.642 12.642 12.642-6.056 6.055 6.504 6.504 12.642-12.642L38.374 0z" fill="#2C4295"/><path fill-rule="evenodd" clip-rule="evenodd" d="M38.374 25.284L25.732 37.926 13.09 25.284l6.055-6.056-6.503-6.503L0 25.367 25.284 50.65l12.642-12.642 6.586-6.587-6.138-6.138z" fill="#2C4295"/><path fill-rule="evenodd" clip-rule="evenodd" d="M25.284 25.367l-6.139-6.139-6.055 6.056 12.642 12.642 12.642-12.642 6.138 6.138 6.056-6.055-12.642-12.642-12.642 12.642z" fill="#0083CA"/><path fill-rule="evenodd" clip-rule="evenodd" d="M74.856 27.996c.705 0 1.286-.1 1.726-.315.854-.39 1.244-1.22 1.244-2.34 0-.928-.365-1.75-1.17-2.239-.464-.265-1.045-.365-1.85-.365h-.704v5.26h.754zm-4.09-7.963h4.19c1.46 0 2.68.199 3.625.68 1.75.83 2.704 2.414 2.704 4.629 0 1.875-.804 3.874-3.194 4.795-.904.34-2.015.555-3.434.555h-.564v5.384h-3.335V20.033h.009zm21.254 9.448l-.947-2.704c-.39-1.17-.58-1.85-.73-2.39h-.05c-.124.565-.364 1.245-.804 2.415l-.97 2.68h3.5zm-3.111-9.523h2.704l6.553 16.118h-3.584l-1.56-3.924h-5.449l-1.485 3.924h-3.434l6.255-16.118zm15.819 7.358c.73 0 1.194-.124 1.609-.34.63-.39 1.07-1.045 1.07-1.95 0-.854-.39-1.584-1.095-1.949-.365-.224-.821-.34-1.56-.34h-1.269v4.58h1.245zm-4.579-7.283h4.794c1.435 0 2.505.216 3.36.605 1.85.805 2.555 2.34 2.555 4.04 0 2.09-1.311 3.559-3.119 4.115v.05c.489.265 1.194 1.144 2.049 2.63l2.604 4.603h-3.824l-2.115-3.849c-.805-1.51-1.369-2.115-1.75-2.215h-1.22v6.064h-3.334V20.033z" fill="#000"/><path d="M118.24 20.033h-3.334v16.043h3.334V20.033z" fill="#000"/><path fill-rule="evenodd" clip-rule="evenodd" d="M125.084 22.862h-4.678v-2.829h13.098l-.88 2.829h-4.205v13.214h-3.335V22.862zm10.294-2.829h9.275l-.88 2.829h-5.06v3.7h5.085v2.795h-5.085v3.899h5.915v2.82h-9.25V20.033zm15.604 2.829h-4.67v-2.829h13.089l-.871 2.829h-4.214v13.214h-3.334V22.862zm14.707 11.704c2.165 0 3.6-.854 3.6-2.994 0-1.8-1.335-2.945-3.384-2.945H163.3v5.94h2.389zm-.638-7.449c2.14 0 3.284-1.045 3.284-2.829 0-1.6-.929-2.754-3.218-2.754h-1.825v5.575h1.759v.008zm-3.551-7.084h3.725c3.409 0 4.919 1.875 4.919 4.065 0 1.634-.805 2.92-2.115 3.484v.05c1.8.39 3.119 1.874 3.119 3.898 0 2.704-1.9 4.554-5.459 4.554H161.5V20.033zm20.423 10.228l-1.659-4.629c-.514-1.41-.755-2.165-.954-2.77h-.05c-.199.614-.464 1.36-.97 2.77l-1.684 4.629h5.317zm-3.26-10.278h1.244l6.139 16.093h-1.95l-1.584-4.305h-6.454l-1.584 4.305h-1.9l6.089-16.093zm21.369 16.093l-7.69-10.178a89.496 89.496 0 0 1-2.265-3.094h-.049c.049.804.074 1.484.074 2.745v10.519h-1.8V20.033h1.726l7.399 9.788a118.86 118.86 0 0 1 2.339 3.235h.05c-.05-.854-.05-1.559-.05-2.82V20.033h1.775v16.043h-1.509zm5.458-16.043h1.8v7.35h.05l6.088-7.35h2.141l-6.67 7.938L216 36.076h-2.256l-6.404-7.325h-.05v7.325h-1.8V20.033z" fill="#000"/></svg>