<svg width="200" height="242" viewBox="0 0 200 242" fill="none" xmlns="http://www.w3.org/2000/svg"><path fill-rule="evenodd" clip-rule="evenodd" d="M66.516-45.681c2.86-10.67 13.826-17.002 24.495-14.143l106.252 28.47c10.67 2.86 17.001 13.826 14.142 24.495l-61.34 228.925c-2.859 10.669-13.825 17.001-24.495 14.142l-106.251-28.47c-10.67-2.859-17.001-13.826-14.143-24.495l61.34-228.924zm10.11 252.045c10.052 2.693 20.383-3.271 23.076-13.322 2.693-10.051-3.272-20.382-13.323-23.075-10.05-2.693-20.381 3.271-23.074 13.322-2.694 10.051 3.271 20.382 13.322 23.075zm1.115-4.157c7.755 2.078 15.726-2.524 17.804-10.279 2.078-7.755-2.524-15.726-10.28-17.804-7.754-2.078-15.726 2.524-17.804 10.279-2.078 7.755 2.525 15.726 10.28 17.804zm28.931-241.27a1.5 1.5 0 0 0-.777 2.898l67.615 18.117a1.5 1.5 0 0 0 .777-2.898l-67.615-18.117z" fill="url(#a)"/><defs><linearGradient id="a" x1="144.137" y1="-45.589" x2="72.444" y2="221.973" gradientUnits="userSpaceOnUse"><stop stop-color="#1E3CAE"/><stop offset="1" stop-color="#007FC5"/></linearGradient></defs></svg>