<svg width="39" height="24" viewBox="0 0 39 24" fill="none" xmlns="http://www.w3.org/2000/svg"><path d="M6.33 3.5h29.912l-5.572 13H.758l5.572-13z" fill="#F0F2F5" stroke="#0083CA"/><path fill="#F0F2F5" stroke="#fff" d="M37.5 2.5v20h-32v-20z"/><path fill="#fff" stroke="#0083CA" d="M36.5 3.5v18h-30v-18z"/><path fill="#fff" stroke="#fff" d="M27.5 12.5h10v10h-10z"/><path fill="#fff" stroke="#0083CA" d="M28.5 13.5h10v10h-10z"/><path fill="#0083CA" d="M10 0h2v6h-2zm0 9h6v1h-6zm1 1h4v2h-4zm0 6h4v2h-4zm9-6h3v2h-3zm0 6h3v2h-3zm8-6h4v2h-4zM18 9h7v1h-7zm9 0h6v1h-6zm-17 6h6v1h-6zm8 0h7v1h-7z"/><rect x="31.5" y="16.5" width="4" height="4" rx="2" stroke="#fff"/><rect x="31.5" y="16.5" width="4" height="4" rx="2" fill="#fff" stroke="#0083CA"/><path fill="#0083CA" d="M31 0h2v6h-2zM20 0h2v6h-2z"/></svg>