<svg width="39" height="28" viewBox="0 0 39 28" fill="none" xmlns="http://www.w3.org/2000/svg"><path stroke="#0083CA" d="M5.5 16v4h-4v-4z"/><path fill="#0083CA" d="M21 6.5v9h-9v-9z"/><path stroke="#0083CA" d="M5.5 2v4h-4V2z"/><path fill="#F0F2F5" stroke="#fff" d="M32.5 1v20H.5V1z"/><path fill="#F0F2F5" stroke="#0083CA" d="M31.5 2v18h-30V2z"/><path stroke="#0083CA" d="M31.5 16v4h-4v-4z"/><path fill="#0083CA" d="M10 9.5v3H7v-3zm16 0v3h-3v-3z"/><path stroke="#0083CA" d="M31.5 2v4h-4V2zm-23 17v4h-4v-4z"/><path fill="#0083CA" d="M24 9.5v9h-9v-9z"/><path stroke="#0083CA" d="M8.5 5v4h-4V5z"/><path fill="#F0F2F5" stroke="#fff" d="M35.5 4v20h-32V4z"/><path fill="#F0F2F5" stroke="#0083CA" d="M34.5 5v18h-30V5z"/><path stroke="#0083CA" d="M34.5 19v4h-4v-4z"/><path fill="#0083CA" d="M29 12.5v3h-3v-3zm-16 0v3h-3v-3z"/><path stroke="#0083CA" d="M34.5 5v4h-4V5z"/><rect x="27" y="12.5" width="9" height="9" rx="4.5" transform="rotate(90 27 12.5)" fill="#0083CA"/><path stroke="#0083CA" d="M11.5 8v4h-4V8z"/><path fill="#F0F2F5" stroke="#fff" d="M38.5 7v20h-32V7z"/><path fill="#fff" stroke="#0083CA" d="M37.5 8v18h-30V8z"/><path stroke="#0083CA" d="M37.5 22v4h-4v-4zm-26 0v4h-4v-4z"/><path fill="#0083CA" d="M32 15.5v3h-3v-3zm-16 0v3h-3v-3z"/><rect x="27" y="12.5" width="9" height="9" rx="4.5" transform="rotate(90 27 12.5)" fill="#0083CA"/><path fill="#0083CA" d="M32 15.5v3h-3v-3zm-16 0v3h-3v-3z"/><path stroke="#0083CA" d="M37.5 8v4h-4V8z"/></svg>