<svg width="39" height="27" viewBox="0 0 39 27" fill="none" xmlns="http://www.w3.org/2000/svg"><path fill="#F0F2F5" stroke="#fff" d="M32.5.5v20H.5V.5z"/><path fill="#F0F2F5" stroke="#0083CA" d="M31.5 1.5v18h-30v-18z"/><path fill="#0083CA" d="M21 6v9h-9V6z"/><path stroke="#0083CA" d="M31.5 1.5v4h-4v-4zm-26 0v4h-4v-4zm26 14v4h-4v-4zm-26 0v4h-4v-4z"/><path fill="#0083CA" d="M26 9v3h-3V9zM10 9v3H7V9z"/><path fill="#F0F2F5" stroke="#fff" d="M35.5 3.5v20h-32v-20z"/><path fill="#F0F2F5" stroke="#0083CA" d="M34.5 4.5v18h-30v-18z"/><path fill="#0083CA" d="M24 9v9h-9V9z"/><path stroke="#0083CA" d="M34.5 4.5v4h-4v-4zm-26 0v4h-4v-4zm26 14v4h-4v-4zm-26 0v4h-4v-4z"/><path fill="#0083CA" d="M29 12v3h-3v-3zm-16 0v3h-3v-3z"/><path fill="#F0F2F5" stroke="#fff" d="M38.5 6.5v20h-32v-20z"/><path fill="#fff" stroke="#0083CA" d="M37.5 7.5v18h-30v-18z"/><rect x="27" y="12" width="9" height="9" rx="4.5" transform="rotate(90 27 12)" fill="#0083CA"/><path stroke="#0083CA" d="M37.5 7.5v4h-4v-4zm-26 0v4h-4v-4zm26 14v4h-4v-4zm-26 0v4h-4v-4z"/><path fill="#0083CA" d="M32 15v3h-3v-3zm-16 0v3h-3v-3z"/></svg>