<svg width="36" height="28" viewBox="0 0 36 28" fill="none" xmlns="http://www.w3.org/2000/svg"><path fill="#0083CA" d="M7 24.5h7v3H7zm-1-11h7v4H6zm9-3h6v7h-6z"/><path d="M12.879 9H23.12l4.23 16H8.649l4.23-16z" fill="#F0F2F5" stroke="#0083CA"/><path fill="#0083CA" d="M22 24.5h7v3h-7zm-17-7h26v1H5zm18-11h7v11h-7z"/><path fill="#F0F2F5" stroke="#0083CA" d="M30.5 1v12h-26V1z"/><path fill="#F0F2F5" stroke="#fff" d="M35.5 2v20H.5V2z"/><path fill="#fff" stroke="#0083CA" d="M34.5 3v18h-33V3z"/><path fill="#0083CA" d="M6 13.5h7v4H6zm9-3h6v7h-6zm8-4h7v11h-7zm-18 11h26v1H5z"/></svg>