<svg width="69" height="87" viewBox="0 0 69 87" fill="none" xmlns="http://www.w3.org/2000/svg"><path d="M26.284 5.483l29.944 8.023a5 5 0 0 1 3.535 6.124L45.01 74.688a5 5 0 0 1-6.123 3.535l-25.114-6.73a5 5 0 0 1-3.536-6.123L26.284 5.483z" stroke="#fff" stroke-width="4"/><path fill="#fff" d="M34.46 9.744l16.42 4.4-.777 2.898-16.42-4.4z"/><rect x="26.796" y="61.525" width="6" height="6" rx="3" transform="rotate(15 26.796 61.525)" fill="#fff"/><path d="M64.524 68.25a13.497 13.497 0 0 1-9.546 16.533M13.04 2a13.5 13.5 0 0 0-9.546 16.534M57.727 68a8 8 0 0 1-5.656 9.798M16.654 7.76a8 8 0 0 0-5.657 9.799" stroke="#fff" stroke-width="4" stroke-linecap="round"/></svg>