<svg width="26" height="60" viewBox="0 0 26 60" fill="none" xmlns="http://www.w3.org/2000/svg"><path d="M-312 110h287.357c13.751 0 24.921-11.106 25-24.858l.133-23.46a20 20 0 0 1 4.665-12.726l19.993-23.878c1.587-1.895.33-4.79-2.14-4.922l-3.548-.19C8.845 19.396.53 10.624.53-.005V-5c0-13.807-11.193-25-25-25H-312c-13.807 0-25 11.193-25 25v90c0 13.807 11.193 25 25 25z" fill="url(#a)"/><defs><linearGradient id="a" x1="-260" y1="-93" x2="83.246" y2="153.502" gradientUnits="userSpaceOnUse"><stop stop-color="#5fd39b"/><stop offset=".403" stop-color="#5fd39b"/><stop offset=".907" stop-color="#5fd39b"/></linearGradient></defs></svg>