<svg width="421" height="283" viewBox="0 0 421 283" fill="none" xmlns="http://www.w3.org/2000/svg"><path fill="#fff" stroke="#F0F2F5" stroke-width="4" d="M210.42 74.059l67.748 67.75-67.749 67.749-67.75-67.75z"/><path opacity=".2" d="M138.553 142.493l-67.75-67.75-67.749 67.75 67.75 67.749m211.474-69.802l67.75 67.749 67.749-67.749-67.749-67.75m-210.103 71.175l67.75 67.75-67.75 67.749-67.75-67.75zm140.981-4.797l-67.75-67.75 67.75-67.749 67.75 67.75z" stroke="#fff" stroke-width="4"/><path d="M198.018 116.073c0-3.242 3.654-5.137 6.304-3.27l35.969 25.348c2.261 1.593 2.261 4.946 0 6.539l-35.969 25.348c-2.65 1.868-6.304-.028-6.304-3.269v-50.696z" fill="url(#a)" filter="url(#b)"/><defs><filter id="b" x="123.007" y="73.102" width="168.639" height="168.639" filterUnits="userSpaceOnUse" color-interpolation-filters="sRGB"><feFlood flood-opacity="0" result="BackgroundImageFix"/><feColorMatrix in="SourceAlpha" values="0 0 0 0 0 0 0 0 0 0 0 0 0 0 0 0 0 0 127 0"/><feOffset dy="16"/><feGaussianBlur stdDeviation="24"/><feColorMatrix values="0 0 0 0 0.141176 0 0 0 0 0.305882 0 0 0 0 0.635294 0 0 0 1 0"/><feBlend in2="BackgroundImageFix" result="effect1_dropShadow"/><feBlend in="SourceGraphic" in2="effect1_dropShadow" result="shape"/></filter><linearGradient id="a" x1="224.938" y1="121.427" x2="184.951" y2="161.414" gradientUnits="userSpaceOnUse"><stop stop-color="#2C4295"/><stop offset="1" stop-color="#0083CA"/></linearGradient></defs></svg>