<svg width="612" height="409" viewBox="0 0 612 409" fill="none" xmlns="http://www.w3.org/2000/svg"><path fill="#fff" stroke="#F0F2F5" stroke-width="4" d="M306 106l98.995 98.995L306 303.99l-98.995-98.995z"/><path opacity=".2" d="M200.99 205.995L101.995 107 3 205.995l98.995 98.995M411 202.995l98.995 98.995 98.995-98.995L509.995 104m-307 104l98.995 98.995-98.995 98.995L104 306.995zm206-7.01L310 101.995 408.995 3l98.995 98.995z" stroke="#fff" stroke-width="4"/><path d="M287.879 163.833c0-3.242 3.654-5.137 6.304-3.269l57.605 40.595c2.262 1.593 2.262 4.945 0 6.539l-57.605 40.595c-2.65 1.867-6.304-.028-6.304-3.27v-81.19z" fill="url(#a)" filter="url(#b)"/><defs><filter id="b" x="197.622" y="117.667" width="205.522" height="205.522" filterUnits="userSpaceOnUse" color-interpolation-filters="sRGB"><feFlood flood-opacity="0" result="BackgroundImageFix"/><feColorMatrix in="SourceAlpha" values="0 0 0 0 0 0 0 0 0 0 0 0 0 0 0 0 0 0 127 0"/><feOffset dy="16"/><feGaussianBlur stdDeviation="24"/><feColorMatrix values="0 0 0 0 0.141176 0 0 0 0 0.305882 0 0 0 0 0.635294 0 0 0 1 0"/><feBlend in2="BackgroundImageFix" result="effect1_dropShadow"/><feBlend in="SourceGraphic" in2="effect1_dropShadow" result="shape"/></filter><linearGradient id="a" x1="327.214" y1="175.214" x2="268.786" y2="233.642" gradientUnits="userSpaceOnUse"><stop stop-color="#2C4295"/><stop offset="1" stop-color="#0083CA"/></linearGradient></defs></svg>