<svg width="50" height="22" viewBox="0 0 50 22" fill="none" xmlns="http://www.w3.org/2000/svg"><g clip-path="url(#a)"><path fill="#fff" d="M-687-1559H753v7909H-687z"/><path d="M-642 258V45.42c0-13.805 11.188-24.996 24.991-25l615.086-.214A25 25 0 0 0 14 14.472L28.366 2.59c1.433-1.185 3.613-.438 4.017 1.377a20.747 20.747 0 0 0 20.25 16.235H681c13.807 0 25 11.193 25 25V258c0 13.807-11.193 25-25 25H-617c-13.807 0-25-11.193-25-25z" stroke="#F0F2F5" stroke-width="3"/></g><defs><clipPath id="a"><path fill="#fff" transform="translate(-687 -1559)" d="M0 0h1440v7909H0z"/></clipPath></defs></svg>