<svg width="20" height="50" viewBox="0 0 20 50" fill="none" xmlns="http://www.w3.org/2000/svg"><g clip-path="url(#a)"><path fill="#fff" d="M-419-1328h1440v7909H-419z"/><path d="M195 75H44.866c-13.53 0-24.53-10.911-24.638-24.442a19.712 19.712 0 0 0-5.408-13.405L.762 22.327c-1.63-1.718-.72-4.557 1.604-5.009l1.614-.314A20 20 0 0 0 20.166-2.628V-52c0-13.807 11.193-25 25-25H195c13.807 0 25 11.193 25 25V50c0 13.807-11.193 25-25 25z" fill="url(#b)"/></g><defs><linearGradient id="b" x1="33" y1="-26" x2="302.792" y2="97.238" gradientUnits="userSpaceOnUse"><stop offset=".391" stop-color="#0384CB"/><stop offset="1" stop-color="#85E48A"/></linearGradient><clipPath id="a"><path fill="#fff" transform="translate(-419 -1328)" d="M0 0h1440v7909H0z"/></clipPath></defs></svg>