<svg width="8" height="13" viewBox="0 0 8 13" fill="none" xmlns="http://www.w3.org/2000/svg"><path d="M3.36 8c0-.203.01-.39.032-.56.032-.181.09-.357.176-.528.096-.181.224-.368.384-.56.17-.192.395-.405.672-.64.448-.384.79-.73 1.024-1.04.235-.31.352-.64.352-.992 0-.512-.17-.933-.512-1.264-.341-.33-.81-.496-1.408-.496-.597 0-1.067.165-1.408.496-.341.33-.512.752-.512 1.264H.72c0-.437.075-.837.224-1.2.16-.373.384-.693.672-.96.299-.277.656-.49 1.072-.64.416-.16.88-.24 1.392-.24.512 0 .976.08 1.392.24.416.15.768.363 1.056.64.299.267.523.587.672.96.16.363.24.763.24 1.2 0 .299-.048.581-.144.848-.096.267-.23.523-.4.768a5.46 5.46 0 0 1-.56.688 11.65 11.65 0 0 1-.656.608c-.181.15-.33.293-.448.432a2.253 2.253 0 0 0-.288.384c-.064.117-.112.24-.144.368a2.15 2.15 0 0 0-.032.384v.32H3.36V8zm.72 4.16a1.12 1.12 0 0 1-.8-.32 1.12 1.12 0 0 1-.32-.8c0-.32.107-.587.32-.8.224-.213.49-.32.8-.32.31 0 .57.107.784.32.224.213.336.48.336.8 0 .31-.112.576-.336.8-.213.213-.475.32-.784.32z" fill="#fff"/></svg>