<svg width="100" height="92" viewBox="0 0 100 92" fill="none" xmlns="http://www.w3.org/2000/svg"><path d="M8.5 4A3.5 3.5 0 0 1 12 .5h76A3.5 3.5 0 0 1 91.5 4v85.5h-83V4z" fill="#fff" stroke="#2C4295"/><path fill="#F0F2F5" d="M51 3h38v84H51z"/><path fill="#2C4295" stroke="#fff" d="M23.5 59.5h14v5h-14zm0-7h14v2h-14zm25-46h5v5h-5zm0 45h5v5h-5zm0 8h5v5h-5zm8-8h5v5h-5zm0 8h5v5h-5zm0 8h5v5h-5zm8-16h5v5h-5zm0 8h5v5h-5z"/><path fill="#fff" d="M23 15h54v30H23z"/><path fill="#fff" stroke="#2C4295" d="M24.5 16.5h51v27h-51z"/><path fill="#2C4295" stroke="#fff" d="M.5 88.5h99v3H.5zm21-46h57v3h-57z"/></svg>