<svg width="21" height="22" viewBox="0 0 21 22" fill="none" xmlns="http://www.w3.org/2000/svg"><path d="M20.15 13.121C21.6 6.613 15.898.701 9.203 1.835 5.567-.42.727 2.13.727 6.454a5.38 5.38 0 0 0 .76 2.759C.14 15.736 5.889 21.563 12.579 20.35c4.73 2.501 9.955-2.486 7.572-7.23zm-6.364 3.925c-1.757.723-4.648.727-6.397-.189-2.494-1.33-2.937-4.324-.786-4.324 1.622 0 1.109 1.89 2.746 2.662.752.347 2.368.383 3.307-.25.927-.621.842-1.598.338-2.065-1.336-1.233-5.158-.743-6.906-2.902-.759-.937-.902-2.59.031-3.788 1.627-2.093 6.4-2.22 8.453-.64 1.895 1.467 1.383 3.414-.146 3.414-1.84 0-.873-2.407-3.842-2.407-2.152 0-3 1.53-1.483 2.276 2.055 1.02 7.291.68 7.291 4.67-.004 1.66-1.021 2.897-2.606 3.543z" fill="#fff"/></svg>