<svg width="22" height="23" viewBox="0 0 22 23" fill="none" xmlns="http://www.w3.org/2000/svg"><path d="M21.026 12.915c.684-5.53-.329-9.022-2.156-10.601v-.001C15.922-.384 5.96-.783 2.43 2.434.847 4.008.289 6.317.227 9.176c-.06 2.86-.133 8.218 5.067 9.672h.005l-.005 2.22s-.035.899.563 1.08c.685.212.994-.205 3.123-2.646 3.56.296 6.293-.383 6.604-.482.718-.23 4.785-.747 5.443-6.105z" fill="#fff"/><path d="M10.45 3.594h.004l-.005.605m0-.605c-.4 0-.4.596-.004.605l.004-.605zm0 0V4.2m0 0c3.112.023 5.674 2.105 5.702 5.924v.003l.223-.003.295-.003.09-.002c-.033-4.112-2.827-6.497-6.302-6.524l-.008.605zm6.312 5.93v-.01.01z" fill="#2C4295" stroke="#2C4295" stroke-width="30"/><path d="M11.006 5.17h.002c2.737.197 4.194 2.066 4.143 4.335h-.033l-.301-.008-.275-.006M11.006 5.17c-.4-.028-.442.576-.043.604l.03-.42.013-.184zm0 0l-.031.45-.011.155c2.375.173 3.625 1.729 3.578 3.716m0 0v.006c-.003.391.603.408.609.008l-.062-.001-.367-.01-.18-.003z" fill="#2C4295" stroke="#2C4295" stroke-width="30"/><path d="M13.885 12.072c-.515-.286-1.039-.108-1.255.173l-.453.563c-.23.286-.66.248-.66.248-3.14-.797-3.98-3.951-3.98-3.951s-.039-.427.249-.656l.567-.45c.283-.216.462-.736.174-1.247C7.756 5.415 7.238 4.954 6.975 4.6c-.278-.333-.694-.408-1.128-.183h-.009c-.901.506-1.887 1.453-1.572 2.428.539 1.028 1.528 4.305 4.682 6.78 1.483 1.172 3.829 2.372 4.824 2.649l.01.014c.981.314 1.935-.67 2.445-1.561v-.007c.226-.431.15-.84-.18-1.106-.585-.548-1.468-1.153-2.162-1.542zm-2.449-4.671c1 .056 1.486.558 1.538 1.59.019.402.628.374.61-.029-.067-1.346-.798-2.096-2.115-2.166-.401-.023-.438.582-.033.605z" fill="#2C4295"/></svg>