<svg width="23" height="12" viewBox="0 0 23 12" fill="none" xmlns="http://www.w3.org/2000/svg"><path d="M19.299 6.225c.172-.467.682-1.439 1.074-1.983 1.586-2.206 1.818-2.896 2.004-3.45.078-.232.148-.44.305-.724H18.38l-.009.03-.036.128a41.996 41.996 0 0 1-.252.841c-.042.131-.08.239-.104.29l-.023-.01.023.01c-.42.877-1.1 1.972-1.818 2.882a9.406 9.406 0 0 1-1.077 1.177c-.35.312-.685.53-.975.598a.546.546 0 0 1-.379-.033.677.677 0 0 1-.27-.268c-.145-.24-.23-.596-.277-.993-.094-.796-.04-1.771-.005-2.359.065-1.091.053-1.47.023-1.655a.598.598 0 0 0-.52-.49 15.6 15.6 0 0 0-2.69-.123l-.976.034c.156.35.292.516.408.66L9.5.882c.138.181.244.38.318.913.083.623.108 1.69-.037 2.603-.072.456-.187.875-.36 1.181-.173.307-.407.504-.717.504-.245 0-.491-.094-.735-.257a3.631 3.631 0 0 1-.722-.673c-.471-.556-.92-1.297-1.312-2.041a27.212 27.212 0 0 1-.966-2.064c-.12-.285-.217-.526-.285-.7L4.624.2 4.603.142a4.742 4.742 0 0 0-.03-.074H.765l.34.874C2.527 4.6 4.127 7.272 5.977 9.065c1.85 1.793 3.951 2.708 6.38 2.849l-.001.024.001-.024.61.018m6.332-5.707l.023.009-.023-.008zm0 0c-.213.545-.006.995.201 1.278.143.187.34.407.567.654l.132.143c.192.21.401.437.614.68.523.598 1.065 1.288 1.425 2.03l.022-.01m0 0l-.022.01.446.922M22.26 11l.451.932h-.027M22.26 11c-.508-1.048-1.376-1.991-2.044-2.717a12.84 12.84 0 0 1-.696-.794l-6.53 4.468m9.694-.025h-3.208c-.635 0-1.086-.146-1.477-.416-.392-.271-.724-.667-1.12-1.168m5.805 1.584l.012.025h-3.22c-1.279 0-1.824-.591-2.617-1.594m.02-.015c-.412-.522-.71-.88-1.064-1.107-.355-.228-.763-.322-1.39-.322-.437 0-.774.363-1.008.838a4.448 4.448 0 0 0-.407 1.566m3.869-.975l-.02.015m.02-.015l-.02.015m-3.849.96l-.043.609m.043-.609l.025.002m-.025-.002l.025.002m-.068.607l-.002.023.024.002m-.022-.025h.023v.025m0 0l.045-.632m0 0c.068-.976.545-2.381 1.39-2.381 1.25 0 1.61.373 2.434 1.419M13.226.702a.623.623 0 0 0-.54-.511A15.626 15.626 0 0 0 9.99.07l3.236.632zm0 0c.031.188.042.57-.023 1.66l.023-1.66z" fill="#fff" stroke="#0B4DCE" stroke-width=".049"/></svg>