<svg width="112" height="87" viewBox="0 0 112 87" fill="none" xmlns="http://www.w3.org/2000/svg"><path d="M111.258 44.097c-.219-.22-.339-.334-.694-.171l-6.715 5.609-27.067-37.342 15.78-10.658a.405.405 0 0 0 .22-.368c0-.147 0-.294-.074-.44a.401.401 0 0 0-.365-.221c-.146 0-.292 0-.438.073L75.686 11.531c-.146.147-.219.294-.219.368 0 .073 0 .294.073.44l3.653 5-.073.073-3.36 2.646h-.074l-8.84-3.087H47.56c-.22 0-.439.147-.512.44l-1.46 5.881-3.873-1.69c-.073-.074-.219-.074-.292-.074l-7.89.956-3.8-2.28.074-.073 2.922-5.292c.073-.147.073-.294.073-.441-.073-.147-.146-.294-.219-.367L12.127 1.607c-.219-.073-.219-.073-.365 0 0 0-.22 0-.292.22-.073.148-.073.148-.146.368 0 .147.073.294.146.368l12.273 7.424 7.671 4.63L8.986 55.635l-7.671-4.63v-.074l-.511-.294c-.146-.074-.293-.074-.439-.074-.146.074-.292.147-.365.294v.441c.073.147.146.294.22.368l8.62 5.218c.146.074.292.074.438.074.146-.074.292-.147.365-.294l1.754-3.234 5.406 3.014-.511 1.029c-1.023 2.058-.804 4.483.438 6.32 1.096 1.544 2.85 2.5 4.675 2.5.585 0 1.17-.073 1.754-.294l1.388-.514v1.543c0 1.323.365 2.5 1.096 3.528 1.096 1.47 2.776 2.426 4.602 2.426.585 0 1.17-.074 1.754-.294l1.388-.441v1.544c0 1.25.365 2.425 1.096 3.454.876 1.323 2.264 2.205 3.725 2.426a5.66 5.66 0 0 0 2.703-.22l1.389-.442v1.544c0 1.25.365 2.425 1.095 3.455.877 1.323 2.265 2.205 3.726 2.425 1.535.22 3.069-.147 4.31-1.102l3.8-2.867a6.374 6.374 0 0 0 1.68-1.985l.511-.955 7.671 4.41c1.315.735 2.922.956 4.383.515 1.462-.441 2.704-1.47 3.434-2.94a6.137 6.137 0 0 0 .658-3.602l-.146-1.544 1.46.294c.366.074.658.074 1.023.074 2.12 0 4.092-1.176 5.041-3.161a6.137 6.137 0 0 0 .658-3.602l-.146-1.543 1.46.294c2.412.44 4.969-.809 6.138-3.088a6.136 6.136 0 0 0 .657-3.601l-.146-1.544 1.461.294c.877.147 1.753.147 2.703-.147 1.461-.44 2.703-1.47 3.434-2.94.73-1.397.877-3.087.438-4.63a3.478 3.478 0 0 0-.438-1.103l-.439-.882 4.457-3.308 2.119 2.94a.4.4 0 0 0 .365.22c.073 0 .219 0 .438-.146l7.153-5.99c.113-.225.177-.518 0-.696zM24.182 64.234c-.804.588-1.754.956-2.776.956-.22 0-.512 0-.731-.074-1.242-.22-2.338-.882-3.068-1.985-.731-1.029-1.023-2.352-.804-3.675a5.096 5.096 0 0 1 1.9-3.234l11.47-8.674c.803-.588 1.753-.955 2.775-.955 1.462 0 2.776.735 3.726 1.911.804 1.03 1.096 2.352.877 3.675-.22 1.323-.877 2.5-1.9 3.308l-11.47 8.747zm8.693 6.91a4.41 4.41 0 0 1-2.557.808c-1.46 0-2.849-.735-3.726-1.911-.73-1.03-1.022-2.279-.876-3.602.219-1.323.877-2.573 1.9-3.381l8.912-6.763c.292-.22.585-.44.95-.588.657-.294 1.388-.44 2.045-.367 1.388.073 2.63.808 3.434 1.911.804 1.03 1.096 2.352.877 3.675-.146 1.323-.877 2.5-1.9 3.308l-9.059 6.91zm9.132 6.615c-.803.588-1.753.955-2.703.955-.219 0-.511 0-.73-.073-1.242-.22-2.338-.882-3.069-1.985-1.534-2.205-1.022-5.292 1.023-6.836l.073-.073c3.8-2.867 5.333-4.043 5.99-4.484l.366-.22c2.046-1.544 4.895-1.103 6.43.955.803 1.03 1.095 2.352.876 3.675-.22 1.323-.877 2.5-1.9 3.308l-6.356 4.778zm14.685.514c-.22 1.323-.877 2.5-1.9 3.234l-3.799 2.867a4.572 4.572 0 0 1-2.703.882 4.601 4.601 0 0 1-3.799-1.984c-1.534-2.206-1.023-5.293 1.023-6.836l3.799-2.867c2.046-1.544 4.895-1.103 6.429.956.804 1.176 1.096 2.425.95 3.748zm39.596-20.948a4.622 4.622 0 0 1-2.776 2.352c-1.169.367-2.484.22-3.58-.368L71.084 48.504c-.293-.147-.585-.073-.73.22-.147.295-.074.589.218.81l15.78 9.04c2.265 1.323 3.069 4.263 1.9 6.689a4.622 4.622 0 0 1-2.776 2.352c-1.169.368-2.484.22-3.58-.367L65.824 58.06c-.146-.074-.293-.074-.439-.074a.572.572 0 0 0-.292.294c-.146.294-.073.662.22.809l13.003 7.424c2.265 1.323 3.069 4.263 1.9 6.688-1.242 2.353-4.091 3.235-6.356 1.985l-13.662-7.938c-.292-.147-.584-.074-.73.22-.073.147-.073.294-.073.441.073.147.146.294.292.368l10.52 6.027c1.096.588 1.9 1.69 2.265 2.94.365 1.25.219 2.573-.365 3.749a4.622 4.622 0 0 1-2.777 2.352c-.438.147-.876.22-1.315.22-.803 0-1.534-.22-2.191-.587L57.86 78.42v-.661c0-1.397-.366-2.646-1.17-3.749-1.022-1.397-2.63-2.279-4.31-2.352l-1.315-.074.293-1.323c0-.147.073-.22.073-.367.219-1.617-.147-3.234-1.17-4.558-1.022-1.396-2.63-2.278-4.31-2.352l-1.241-.073.292-1.323c0-.147.073-.294.073-.368.219-1.617-.146-3.234-1.17-4.557-1.022-1.397-2.63-2.279-4.31-2.352l-1.241-.074.292-1.323c0-.147.073-.294.073-.367.219-1.617-.146-3.234-1.17-4.557-1.898-2.647-5.405-3.161-7.962-1.25l-11.981 8.894h-.073l-5.626-3.16.073-.148L29.15 21.16l3.944 2.426c.074.074.22.074.366.074l7.963-.956 3.945 1.764v.074l-1.9 7.57v14.775c0 4.337 3.361 7.865 7.525 7.865s7.525-3.528 7.525-7.865v-14.48l1.023-1.691.073.073 34.775 19.92c1.096.588 1.9 1.69 2.191 2.94.366 1.25.293 2.573-.292 3.675zM100.6 47.18l-4.457 3.308-.657-.441c-.22-.147-.366-.294-.512-.368l-34.92-19.92 1.899-3.16c.073-.147.073-.294.073-.441 0-.147-.146-.294-.22-.368-.145-.073-.292-.073-.438-.073-.146 0-.292.147-.365.22l-3.507 5.954c-.073.074-.073.22-.073.294v14.627c0 3.75-2.849 6.763-6.429 6.763-3.506 0-6.429-3.014-6.429-6.763V32.186l3.36-14.04h18.63l9.06 3.161c.145.074.365 0 .51-.073l3.654-2.94.072.073L100.6 47.034v.147z" fill="#2C4295"/><path d="M8.109 51.24l-6.3-3.733 19.461-35.36 6.231 3.804L8.11 51.241zm96.436-5.608l5.523-4.52L86.144 8.493 80.62 12.66l23.924 32.973z" fill="#F0F2F5"/><path d="M6.447 47.5a4 4 0 1 0 0-8 4 4 0 0 0 0 8z" fill="#2C4295"/></svg>