<svg width="52" height="61" viewBox="0 0 52 61" fill="none" xmlns="http://www.w3.org/2000/svg"><path fill-rule="evenodd" clip-rule="evenodd" d="M25.592.738l6.402 3.869s-2.548 5.457 3.476 8.935c6.645 3.836 9.477-1.457 9.477-1.457l6.551 3.61-7.434 12.877a.5.5 0 0 0-.249-.397l-1.277-.738a.5.5 0 0 0-.5.866l1.277.738a.5.5 0 0 0 .468.017L25.906 60.022l-3.238-1.87-3.238-1.87-3.239-1.869-3.238-1.87-3.238-1.87-3.238-1.869-3.239-1.87L0 45.065l17.767-30.773 1.278.737a.5.5 0 1 0 .5-.866l-1.278-.737L25.592.738zM21.417 15.82a.5.5 0 0 1 .682-.183l2.555 1.475a.5.5 0 0 1-.5.866L21.6 16.503a.5.5 0 0 1-.183-.683zm5.109 2.95a.5.5 0 0 1 .683-.183l2.555 1.475a.5.5 0 1 1-.5.866l-2.555-1.475a.5.5 0 0 1-.183-.683zm5.11 2.95a.5.5 0 0 1 .683-.183l2.554 1.475a.5.5 0 0 1-.5.866l-2.554-1.475a.5.5 0 0 1-.183-.683zm5.11 2.95a.5.5 0 0 1 .682-.183l2.555 1.475a.5.5 0 1 1-.5.866l-2.555-1.475a.5.5 0 0 1-.183-.683zm-12.222 7.296l-4.397-4.49-1.564 6.087-5.628 2.794 5.305 3.368.92 6.216L24 41.936l6.196 1.047-2.312-5.842 2.91-5.57-6.271.395z" fill="url(#a)"/><defs><linearGradient id="a" x1="25.749" y1=".738" x2="25.749" y2="60.022" gradientUnits="userSpaceOnUse"><stop stop-color="#0047B0"/><stop offset="1" stop-color="#6CC8E8"/></linearGradient></defs></svg>