<svg width="23" height="12" viewBox="0 0 23 12" fill="none" xmlns="http://www.w3.org/2000/svg"><path d="M22.115 11.553h-3.091c-.612 0-1.047-.138-1.424-.391-.377-.254-.697-.625-1.08-1.096-.396-.49-.684-.827-1.025-1.04-.342-.213-.735-.301-1.34-.301-.422 0-.747.341-.973.787a4.086 4.086 0 0 0-.392 1.47l-.041.57-.587-.017c-2.341-.132-4.367-.99-6.15-2.673C4.23 7.179 2.687 4.67 1.316 1.24L.99.42h3.667a4.43 4.43 0 0 1 .05.124l.057.14c.067.162.16.389.276.656.231.536.553 1.238.93 1.937.378.699.811 1.395 1.266 1.916.453.52.933.873 1.405.873.298 0 .524-.185.691-.473.167-.287.278-.681.348-1.11.14-.856.115-1.858.035-2.442-.072-.5-.173-.688-.307-.858a4.05 4.05 0 0 0-.074-.09 2.417 2.417 0 0 1-.392-.617l.939-.03a15.361 15.361 0 0 1 2.594.113.57.57 0 0 1 .5.46c.03.173.04.528-.022 1.552-.033.551-.086 1.467.005 2.214.046.373.127.707.267.933.07.113.156.2.26.251a.54.54 0 0 0 .367.032c.28-.064.602-.269.94-.562a8.917 8.917 0 0 0 1.038-1.104 15.468 15.468 0 0 0 1.752-2.705c.024-.048.06-.15.1-.273a38.352 38.352 0 0 0 .243-.79l.035-.12.008-.027h4.144c-.15.266-.218.46-.292.677-.18.52-.403 1.168-1.932 3.238-.378.511-.87 1.423-1.036 1.862-.206.512-.006.935.195 1.2.137.176.328.382.546.614l.127.134c.186.197.387.41.592.638.505.561 1.027 1.21 1.374 1.906l.429.863z" fill="#fff" stroke="#0B4DCE" stroke-width=".049"/></svg>