<svg width="22" height="12" viewBox="0 0 22 12" fill="none" xmlns="http://www.w3.org/2000/svg"><path d="M18.954 3.954C21.148.984 20.66.928 21.2 0h-4.204s-.3 1.037-.39 1.223c-.808 1.642-2.619 4.106-3.714 4.358-1.079.248-.936-2.3-.87-3.405.063-1.023.053-1.381.023-1.558a.594.594 0 0 0-.521-.48A15.465 15.465 0 0 0 8.926.025l-.974.032c.384.86.643.596.785 1.591.16 1.164.097 3.998-1.05 3.998C5.85 5.646 3.785.124 3.72 0H0l.34.852c2.743 6.866 6.173 10.046 10.867 10.31l.61.018.044-.593c.066-.916.526-2.235 1.34-2.235 1.205 0 1.553.351 2.347 1.332.764.941 1.29 1.496 2.522 1.496h3.13l-.446-.898c-.697-1.4-2.095-2.6-2.641-3.295-.198-.262-.393-.676-.191-1.178.165-.436.655-1.346 1.032-1.855z" fill="#fff"/></svg>