<svg width="163" height="232" viewBox="0 0 163 232" fill="none" xmlns="http://www.w3.org/2000/svg"><path opacity=".3" d="M96.507 37.306c-3.788.297-6.166-.031-9.742 1.92-2.506 1.366-2.984 1.69-6.075 5.168 1.93-4.452 2.088-5.818 2.197-7.71.261-4.533.684-8.345-1.424-12.366-4.481-8.547-13.999-14.133-22.626-11.27-3.694 1.226-6.612 3.789-8.49 7.077-3.47-1.513-7.341-1.822-11.036-.596-8.627 2.863-13.02 13.016-9.814 22.677a19.799 19.799 0 0 0 6.832 9.632c3.444 3.185 7.69 6.037 11.9 8.45-4.558-.94-9.392-1.58-13.822-1.466a17.68 17.68 0 0 0-10.784 2.674c-8.07 5.047-10.705 15.39-5.885 23.1a15.941 15.941 0 0 0 8.66 6.72 15.948 15.948 0 0 0 2.25 10.73c4.82 7.709 15.271 9.867 23.342 4.82 3.23-2.003 7.022-3.817 9.508-7.374 4.66-6.667 5.523-10.435 6.647-19.924 2.016 7.916 4.217 9.8-.232 30.726l3.773 1.193c3.45-10.057 6.582-22.626.855-34.435 4.584 4.14 11.878 8.262 17.546 11.005a17.685 17.685 0 0 0 10.809 2.577c9.487-.779 16.574-8.757 15.828-17.82a15.95 15.95 0 0 0-4.612-9.945 15.938 15.938 0 0 0 2.923-10.567c-.746-9.061-9.041-15.776-18.528-14.996zm50.896 143.614c-2.59-.287-4.149-.814-6.809.041-1.864.598-2.227.755-4.757 2.7 1.873-2.75 2.155-3.65 2.471-4.91.759-3.021 1.534-5.534.631-8.514-1.92-6.334-7.613-11.321-13.793-10.501-2.646.351-4.941 1.702-6.629 3.676-2.143-1.465-4.711-2.171-7.358-1.82-6.179.819-10.445 7.094-9.527 14.014a13.576 13.576 0 0 0 3.365 7.367c1.91 2.589 4.404 5.056 6.929 7.223-2.949-1.219-6.123-2.273-9.122-2.765a12.12 12.12 0 0 0-7.609.415c-6.085 2.363-9.19 8.991-6.933 14.804a10.933 10.933 0 0 0 4.97 5.641 10.935 10.935 0 0 0 .136 7.517c2.256 5.814 9.019 8.611 15.104 6.248 2.433-.934 5.222-1.668 7.354-3.745 3.996-3.892 5.061-6.319 7.038-12.567.341 5.592 1.581 7.143-4.106 20.668l2.389 1.289c3.616-6.331 7.342-14.396 5.003-23.087 2.555 3.378 6.939 7.093 10.404 9.669a12.127 12.127 0 0 0 6.951 3.126c6.491.695 12.29-3.769 12.953-9.969a10.94 10.94 0 0 0-1.828-7.293 10.932 10.932 0 0 0 3.327-6.743c.663-6.2-4.062-11.789-10.554-12.484z" fill="#fff"/></svg>