<svg width="221" height="244" viewBox="0 0 221 244" fill="none" xmlns="http://www.w3.org/2000/svg"><path opacity=".3" d="M188.507 37.305c-3.788.297-6.166-.031-9.742 1.92-2.506 1.367-2.984 1.69-6.075 5.168 1.93-4.451 2.088-5.818 2.197-7.71.261-4.532.684-8.344-1.424-12.366-4.481-8.546-13.999-14.133-22.626-11.27-3.694 1.227-6.612 3.79-8.489 7.078-3.471-1.514-7.342-1.823-11.037-.597-8.627 2.864-13.021 13.016-9.814 22.677a19.793 19.793 0 0 0 6.832 9.632c3.444 3.186 7.691 6.037 11.9 8.451-4.558-.94-9.392-1.581-13.823-1.466a17.679 17.679 0 0 0-10.783 2.673c-8.07 5.048-10.705 15.39-5.885 23.1a15.942 15.942 0 0 0 8.661 6.72 15.947 15.947 0 0 0 2.249 10.73c4.821 7.71 15.271 9.868 23.342 4.821 3.229-2.003 7.022-3.817 9.508-7.374 4.66-6.668 5.522-10.435 6.647-19.924 2.016 7.916 4.217 9.8-.232 30.725l3.774 1.193c3.448-10.056 6.581-22.626.854-34.435 4.584 4.14 11.878 8.263 17.546 11.006a17.685 17.685 0 0 0 10.809 2.577c9.487-.78 16.574-8.758 15.828-17.82a15.95 15.95 0 0 0-4.612-9.946 15.938 15.938 0 0 0 2.923-10.566c-.746-9.062-9.041-15.776-18.528-14.997zM105.403 192.92c-2.59-.287-4.149-.814-6.809.04-1.864.599-2.227.755-4.757 2.701 1.873-2.751 2.155-3.651 2.471-4.911.76-3.02 1.534-5.534.63-8.514-1.919-6.333-7.612-11.32-13.792-10.5-2.646.351-4.941 1.702-6.629 3.676-2.143-1.466-4.711-2.172-7.358-1.821-6.18.82-10.445 7.094-9.527 14.015a13.578 13.578 0 0 0 3.365 7.367c1.91 2.588 4.404 5.055 6.93 7.222-2.95-1.219-6.124-2.272-9.123-2.765a12.133 12.133 0 0 0-7.608.415c-6.086 2.363-9.19 8.992-6.934 14.805a10.93 10.93 0 0 0 4.97 5.64 10.938 10.938 0 0 0 .136 7.518c2.256 5.813 9.019 8.61 15.104 6.248 2.433-.934 5.222-1.669 7.354-3.745 3.996-3.893 5.061-6.32 7.038-12.568.341 5.592 1.581 7.144-4.106 20.669l2.389 1.288c3.616-6.331 7.342-14.395 5.003-23.087 2.555 3.379 6.939 7.094 10.404 9.67a12.128 12.128 0 0 0 6.951 3.126c6.491.694 12.29-3.769 12.953-9.97a10.942 10.942 0 0 0-1.828-7.293 10.932 10.932 0 0 0 3.327-6.742c.663-6.2-4.062-11.79-10.554-12.484zM40.202 92.616c-1.169-.826-1.778-1.494-3.284-1.79-1.055-.208-1.271-.23-3.004.033 1.631-.824 2.006-1.182 2.493-1.704 1.168-1.25 2.208-2.252 2.567-3.924.76-3.555-.65-7.465-3.839-8.714-1.365-.535-2.827-.496-4.163.005-.64-1.275-1.688-2.297-3.053-2.832-3.188-1.248-6.906.634-8.305 4.204a7.459 7.459 0 0 0-.34 4.435c.23 1.753.772 3.601 1.41 5.314-1.094-1.37-2.34-2.72-3.65-3.754a6.66 6.66 0 0 0-3.767-1.823c-3.553-.482-6.808 1.879-7.269 5.273a6.005 6.005 0 0 0 .89 4.032 6.007 6.007 0 0 0-1.933 3.65c-.461 3.394 2.046 6.536 5.599 7.018 1.418.198 2.953.586 4.53.155 2.955-.809 4.113-1.692 6.724-4.17-1.323 2.779-1.14 3.854-7.468 8.843l.805 1.255c3.421-2.082 7.356-4.968 8.542-9.767.33 2.303 1.45 5.254 2.43 7.413a6.66 6.66 0 0 0 2.51 3.35c2.936 2.06 6.91 1.456 8.877-1.348a6.009 6.009 0 0 0 1.06-3.992 6.001 6.001 0 0 0 3.392-2.356c1.967-2.804 1.181-6.747-1.754-8.806z" fill="#fff"/></svg>