<svg width="168" height="243" viewBox="0 0 168 243" fill="none" xmlns="http://www.w3.org/2000/svg"><path opacity=".3" d="M132.507 37.305c-3.788.297-6.166-.031-9.742 1.92-2.506 1.367-2.984 1.69-6.075 5.168 1.93-4.451 2.088-5.818 2.197-7.71.261-4.532.684-8.344-1.424-12.366-4.481-8.546-13.999-14.133-22.626-11.27-3.694 1.227-6.612 3.79-8.49 7.078-3.47-1.514-7.341-1.823-11.036-.597-8.627 2.864-13.02 13.016-9.815 22.677a19.799 19.799 0 0 0 6.833 9.632c3.444 3.186 7.69 6.037 11.9 8.451-4.558-.94-9.392-1.581-13.823-1.466a17.68 17.68 0 0 0-10.783 2.673c-8.07 5.048-10.705 15.39-5.885 23.1a15.941 15.941 0 0 0 8.66 6.72 15.946 15.946 0 0 0 2.25 10.73c4.82 7.71 15.271 9.868 23.342 4.821 3.23-2.003 7.022-3.817 9.508-7.374 4.66-6.668 5.522-10.435 6.647-19.924 2.016 7.916 4.217 9.8-.232 30.725l3.774 1.193c3.448-10.056 6.581-22.626.854-34.435 4.584 4.14 11.878 8.263 17.546 11.006a17.685 17.685 0 0 0 10.809 2.577c9.487-.78 16.574-8.758 15.828-17.82a15.95 15.95 0 0 0-4.612-9.946 15.938 15.938 0 0 0 2.923-10.566c-.746-9.062-9.041-15.776-18.528-14.997zM64.804 191.842c-2.59-.287-4.15-.814-6.81.041-1.863.598-2.227.755-4.756 2.7 1.872-2.75 2.154-3.65 2.47-4.91.76-3.021 1.535-5.534.631-8.514-1.92-6.334-7.613-11.32-13.792-10.501-2.647.351-4.942 1.703-6.63 3.676-2.143-1.465-4.711-2.171-7.357-1.82-6.18.82-10.445 7.094-9.527 14.014a13.578 13.578 0 0 0 3.364 7.367c1.91 2.589 4.405 5.056 6.93 7.223-2.95-1.219-6.123-2.273-9.123-2.765a12.126 12.126 0 0 0-7.608.415c-6.085 2.363-9.19 8.991-6.934 14.804a10.932 10.932 0 0 0 4.97 5.641 10.935 10.935 0 0 0 .136 7.517c2.256 5.814 9.019 8.611 15.105 6.248 2.432-.934 5.221-1.668 7.353-3.745 3.996-3.892 5.061-6.319 7.039-12.567.34 5.592 1.58 7.144-4.107 20.668l2.39 1.289c3.615-6.331 7.342-14.396 5.002-23.087 2.556 3.378 6.94 7.093 10.404 9.67a12.133 12.133 0 0 0 6.951 3.125c6.491.695 12.29-3.769 12.953-9.969a10.935 10.935 0 0 0-1.828-7.293 10.932 10.932 0 0 0 3.328-6.742c.662-6.201-4.063-11.79-10.554-12.485zm93.111-18.761c-1.168-.826-1.778-1.494-3.283-1.79-1.055-.208-1.272-.229-3.005.033 1.632-.824 2.006-1.182 2.494-1.703 1.167-1.25 2.208-2.252 2.566-3.925.761-3.554-.65-7.465-3.838-8.714-1.365-.534-2.828-.495-4.164.005-.64-1.274-1.687-2.296-3.052-2.831-3.189-1.249-6.907.633-8.305 4.204a7.444 7.444 0 0 0-.341 4.435c.229 1.752.773 3.601 1.41 5.314-1.093-1.37-2.339-2.72-3.65-3.754a6.664 6.664 0 0 0-3.767-1.824c-3.553-.482-6.807 1.879-7.268 5.273a6.003 6.003 0 0 0 .889 4.033 6.006 6.006 0 0 0-1.933 3.649c-.461 3.394 2.046 6.536 5.599 7.019 1.418.197 2.953.586 4.53.154 2.956-.808 4.113-1.692 6.724-4.169-1.323 2.778-1.139 3.854-7.468 8.843l.806 1.254c3.421-2.082 7.356-4.967 8.542-9.767.33 2.303 1.45 5.254 2.43 7.414a6.663 6.663 0 0 0 2.51 3.35c2.935 2.059 6.91 1.456 8.877-1.349a6.008 6.008 0 0 0 1.06-3.991 6.003 6.003 0 0 0 3.391-2.356c1.967-2.804 1.182-6.747-1.754-8.807z" fill="#fff"/></svg>